M48
; DRILL file {KiCad 8.0.6} date 2024-12-01T22:01:01+0100
; FORMAT={-:-/ absolute / inch / decimal}
; #@! TF.CreationDate,2024-12-01T22:01:01+01:00
; #@! TF.GenerationSoftware,Kicad,Pcbnew,8.0.6
; #@! TF.FileFunction,Plated,1,4,PTH
FMAT,2
INCH
; #@! TA.AperFunction,Plated,PTH,ViaDrill
T1C0.0118
; #@! TA.AperFunction,Plated,PTH,ComponentDrill
T2C0.0118
; #@! TA.AperFunction,Plated,PTH,ComponentDrill
T3C0.0512
; #@! TA.AperFunction,Plated,PTH,ComponentDrill
T4C0.0630
%
G90
G05
T1
X4.82Y-3.05
X4.82Y-3.09
X4.82Y-3.13
X5.21Y-3.705
X5.25Y-3.37
X5.25Y-3.41
X5.25Y-3.45
X5.25Y-3.51
X5.25Y-3.55
X5.25Y-3.59
X5.25Y-3.87
X5.43Y-3.89
X5.47Y-3.89
X5.51Y-3.89
X5.545Y-3.305
X5.585Y-3.305
X5.625Y-3.305
X5.625Y-3.825
X5.625Y-3.855
X5.655Y-3.825
X5.655Y-3.855
X5.885Y-3.005
X5.885Y-3.045
X5.885Y-3.085
X6.265Y-4.1
X6.265Y-4.375
X6.275Y-2.905
X6.275Y-3.18
X6.29Y-3.22
X6.295Y-4.41
X6.365Y-4.205
X6.375Y-3.02
X6.43Y-4.04
X6.435Y-3.935
X6.445Y-2.655
X6.445Y-2.695
X6.445Y-2.735
X6.445Y-3.18
X6.445Y-3.22
X6.445Y-3.26
X6.45Y-4.325
X6.45Y-4.365
X6.45Y-4.405
X6.55Y-2.905
X6.55Y-2.955
X6.55Y-3.005
X6.555Y-4.05
X6.555Y-4.1
X6.555Y-4.15
X6.615Y-3.295
X6.62Y-3.9
X6.62Y-4.44
X6.655Y-3.295
X6.66Y-3.9
X6.66Y-4.44
X6.695Y-3.295
X6.7Y-3.9
X6.7Y-4.44
X6.76Y-2.905
X6.76Y-2.955
X6.76Y-3.005
X6.765Y-4.05
X6.765Y-4.1
X6.765Y-4.15
X6.83Y-3.345
X6.83Y-3.385
X6.83Y-3.425
X6.83Y-3.74
X6.83Y-3.78
X6.83Y-3.82
X6.865Y-2.655
X6.865Y-2.695
X6.865Y-2.735
X6.865Y-3.18
X6.865Y-3.22
X6.865Y-3.26
X6.865Y-4.325
X6.865Y-4.365
X6.865Y-4.405
X6.87Y-3.345
X6.87Y-3.385
X6.87Y-3.425
X6.87Y-3.74
X6.87Y-3.78
X6.87Y-3.82
X6.875Y-3.945
X6.89Y-3.12
X6.91Y-3.345
X6.91Y-3.385
X6.91Y-3.425
X6.91Y-3.74
X6.91Y-3.78
X6.91Y-3.82
X6.93Y-3.12
X6.97Y-3.12
X6.985Y-4.195
X6.985Y-4.235
X7.02Y-3.13
X7.025Y-4.195
X7.025Y-4.235
X7.3Y-4.325
X7.3Y-4.365
X7.3Y-4.405
X7.33Y-2.825
X7.37Y-2.825
X7.41Y-2.825
X7.435Y-4.085
X7.435Y-4.125
X7.435Y-4.165
T2
X5.4509Y-3.7196
X5.4509Y-3.7704
X5.4891Y-3.7196
X5.4891Y-3.7704
T3
X4.933Y-3.4449
X4.933Y-3.6417
X7.27Y-3.3433
X7.27Y-3.5433
X7.27Y-3.7433
T4
X5.255Y-2.62
X5.595Y-2.62
X6.3Y-2.54
X6.69Y-3.775
M30
