G04 #@! TF.GenerationSoftware,KiCad,Pcbnew,8.0.6*
G04 #@! TF.CreationDate,2024-12-01T22:00:57+01:00*
G04 #@! TF.ProjectId,UCC25800,55434332-3538-4303-902e-6b696361645f,rev?*
G04 #@! TF.SameCoordinates,Original*
G04 #@! TF.FileFunction,Copper,L4,Bot*
G04 #@! TF.FilePolarity,Positive*
%FSLAX46Y46*%
G04 Gerber Fmt 4.6, Leading zero omitted, Abs format (unit mm)*
G04 Created by KiCad (PCBNEW 8.0.6) date 2024-12-01 22:00:57*
%MOMM*%
%LPD*%
G01*
G04 APERTURE LIST*
G04 Aperture macros list*
%AMRoundRect*
0 Rectangle with rounded corners*
0 $1 Rounding radius*
0 $2 $3 $4 $5 $6 $7 $8 $9 X,Y pos of 4 corners*
0 Add a 4 corners polygon primitive as box body*
4,1,4,$2,$3,$4,$5,$6,$7,$8,$9,$2,$3,0*
0 Add four circle primitives for the rounded corners*
1,1,$1+$1,$2,$3*
1,1,$1+$1,$4,$5*
1,1,$1+$1,$6,$7*
1,1,$1+$1,$8,$9*
0 Add four rect primitives between the rounded corners*
20,1,$1+$1,$2,$3,$4,$5,0*
20,1,$1+$1,$4,$5,$6,$7,0*
20,1,$1+$1,$6,$7,$8,$9,0*
20,1,$1+$1,$8,$9,$2,$3,0*%
G04 Aperture macros list end*
G04 #@! TA.AperFunction,NonConductor*
%ADD10C,0.200000*%
G04 #@! TD*
%ADD11C,0.300000*%
G04 #@! TA.AperFunction,NonConductor*
%ADD12C,0.300000*%
G04 #@! TD*
G04 #@! TA.AperFunction,ComponentPad*
%ADD13C,2.800000*%
G04 #@! TD*
G04 #@! TA.AperFunction,ComponentPad*
%ADD14R,2.600000X2.600000*%
G04 #@! TD*
G04 #@! TA.AperFunction,ComponentPad*
%ADD15C,2.600000*%
G04 #@! TD*
G04 #@! TA.AperFunction,HeatsinkPad*
%ADD16C,0.600000*%
G04 #@! TD*
G04 #@! TA.AperFunction,HeatsinkPad*
%ADD17R,1.570000X1.890000*%
G04 #@! TD*
G04 #@! TA.AperFunction,SMDPad,CuDef*
%ADD18RoundRect,0.250000X0.412500X0.650000X-0.412500X0.650000X-0.412500X-0.650000X0.412500X-0.650000X0*%
G04 #@! TD*
G04 #@! TA.AperFunction,SMDPad,CuDef*
%ADD19RoundRect,0.250000X0.450000X0.800000X-0.450000X0.800000X-0.450000X-0.800000X0.450000X-0.800000X0*%
G04 #@! TD*
G04 #@! TA.AperFunction,ViaPad*
%ADD20C,0.600000*%
G04 #@! TD*
G04 #@! TA.AperFunction,Conductor*
%ADD21C,0.762000*%
G04 #@! TD*
G04 APERTURE END LIST*
D10*
X135890000Y-115570000D02*
X138430000Y-115570000D01*
X138430000Y-118110000D01*
X135890000Y-118110000D01*
X135890000Y-115570000D01*
X138430000Y-115570000D02*
X140970000Y-115570000D01*
X140970000Y-118110000D01*
X138430000Y-118110000D01*
X138430000Y-115570000D01*
X130810000Y-115570000D02*
X133350000Y-115570000D01*
X133350000Y-118110000D01*
X130810000Y-118110000D01*
X130810000Y-115570000D01*
X133350000Y-115570000D02*
X135890000Y-115570000D01*
X135890000Y-118110000D01*
X133350000Y-118110000D01*
X133350000Y-115570000D01*
D11*
D12*
X139417032Y-116656828D02*
X139417032Y-117656828D01*
X139774174Y-116085400D02*
X140131317Y-117156828D01*
X140131317Y-117156828D02*
X139202746Y-117156828D01*
D13*
G04 #@! TO.P,TP4,1,1*
G04 #@! TO.N,GND*
X160020000Y-64516000D03*
G04 #@! TD*
G04 #@! TO.P,TP3,1,1*
G04 #@! TO.N,+24V*
X169926000Y-95885000D03*
G04 #@! TD*
D14*
G04 #@! TO.P,J1,1,Pin_1*
G04 #@! TO.N,Net-(J1-Pin_1)*
X125298000Y-87500000D03*
D15*
G04 #@! TO.P,J1,2,Pin_2*
G04 #@! TO.N,GNDS*
X125298000Y-92500000D03*
G04 #@! TD*
D14*
G04 #@! TO.P,J2,1,Pin_1*
G04 #@! TO.N,+18V*
X184658000Y-95080000D03*
D15*
G04 #@! TO.P,J2,2,Pin_2*
G04 #@! TO.N,GND*
X184658000Y-90000000D03*
G04 #@! TO.P,J2,3,Pin_3*
G04 #@! TO.N,-18V*
X184658000Y-84920000D03*
G04 #@! TD*
D13*
G04 #@! TO.P,TP1,1,1*
G04 #@! TO.N,Net-(U1-VCC)*
X133477000Y-66548000D03*
G04 #@! TD*
G04 #@! TO.P,TP2,1,1*
G04 #@! TO.N,GNDS*
X142113000Y-66548000D03*
G04 #@! TD*
D16*
G04 #@! TO.P,U1,9,GND*
G04 #@! TO.N,GNDS*
X138453000Y-94478000D03*
X138453000Y-95768000D03*
D17*
X138938000Y-95123000D03*
D16*
X139423000Y-94478000D03*
X139423000Y-95768000D03*
G04 #@! TD*
D18*
G04 #@! TO.P,C21,1*
G04 #@! TO.N,Net-(D4-A)*
X170726500Y-104140000D03*
G04 #@! TO.P,C21,2*
G04 #@! TO.N,Net-(U2-SW)*
X167601500Y-104140000D03*
G04 #@! TD*
G04 #@! TO.P,C22,1*
G04 #@! TO.N,Net-(D5-A)*
X170599500Y-75057000D03*
G04 #@! TO.P,C22,2*
G04 #@! TO.N,Net-(U4-SW)*
X167474500Y-75057000D03*
G04 #@! TD*
D19*
G04 #@! TO.P,D4,1,K*
G04 #@! TO.N,Net-(D4-K)*
X175174000Y-107188000D03*
G04 #@! TO.P,D4,2,A*
G04 #@! TO.N,Net-(D4-A)*
X170774000Y-107188000D03*
G04 #@! TD*
D20*
G04 #@! TO.N,GNDS*
X139954000Y-98806000D03*
X142875000Y-97917000D03*
X143637000Y-97155000D03*
X133350000Y-85598000D03*
X133350000Y-89154000D03*
X143637000Y-97917000D03*
X149479000Y-76327000D03*
X133350000Y-86614000D03*
X140843000Y-83947000D03*
X149479000Y-78359000D03*
X132334000Y-94107000D03*
X138938000Y-98806000D03*
X142875000Y-97155000D03*
X142875000Y-83947000D03*
X122428000Y-77470000D03*
X122428000Y-78486000D03*
X122428000Y-79502000D03*
X133350000Y-87630000D03*
X141859000Y-83947000D03*
X133350000Y-98298000D03*
X149479000Y-77343000D03*
X133350000Y-91186000D03*
X137922000Y-98806000D03*
X133350000Y-90170000D03*
G04 #@! TO.N,GND*
X174498000Y-86995000D03*
X159766000Y-81788000D03*
X174498000Y-85979000D03*
X174371000Y-68453000D03*
X163830000Y-110871000D03*
X188849000Y-105791000D03*
X161925000Y-76708000D03*
X174371000Y-69469000D03*
X176022000Y-79248000D03*
X174371000Y-80772000D03*
X175514000Y-85979000D03*
X186182000Y-71755000D03*
X185420000Y-110871000D03*
X178308000Y-79502000D03*
X185420000Y-109855000D03*
X169164000Y-99060000D03*
X174371000Y-82804000D03*
X187198000Y-71755000D03*
X174371000Y-110871000D03*
X188214000Y-71755000D03*
X173482000Y-85979000D03*
X163830000Y-111887000D03*
X188849000Y-103759000D03*
X174625000Y-100203000D03*
X173482000Y-86995000D03*
X175514000Y-84963000D03*
X161671000Y-106807000D03*
X163322000Y-102616000D03*
X175514000Y-86995000D03*
X185420000Y-111887000D03*
X174371000Y-109855000D03*
X175006000Y-79248000D03*
X168148000Y-99060000D03*
X174371000Y-81788000D03*
X163830000Y-109855000D03*
X163703000Y-82804000D03*
X163703000Y-81788000D03*
X159893000Y-112014000D03*
X173482000Y-84963000D03*
X163703000Y-68453000D03*
X159131000Y-104140000D03*
X163703000Y-67437000D03*
X174371000Y-67437000D03*
X188849000Y-104775000D03*
X177038000Y-79248000D03*
X174498000Y-84963000D03*
X170180000Y-99060000D03*
X163703000Y-80772000D03*
X159385000Y-73787000D03*
X163703000Y-69469000D03*
X174371000Y-111887000D03*
G04 #@! TO.N,+24V*
X175514000Y-96012000D03*
X175514000Y-94996000D03*
X173482000Y-97028000D03*
X173482000Y-96012000D03*
X175514000Y-97028000D03*
X170053000Y-83693000D03*
X174498000Y-96012000D03*
X174498000Y-94996000D03*
X168148000Y-112776000D03*
X174498000Y-97028000D03*
X173482000Y-94996000D03*
X169037000Y-83693000D03*
X170180000Y-112776000D03*
X169164000Y-112776000D03*
X159385000Y-80772000D03*
X168021000Y-83693000D03*
X159131000Y-111125000D03*
G04 #@! TO.N,Net-(D4-K)*
X178435000Y-107569000D03*
X163449000Y-99949000D03*
X177419000Y-106553000D03*
X178435000Y-106553000D03*
X177419000Y-107569000D03*
G04 #@! TO.N,Net-(D4-A)*
X171831000Y-104140000D03*
X171831000Y-105410000D03*
X171831000Y-102870000D03*
G04 #@! TO.N,Net-(U2-SW)*
X166497000Y-102870000D03*
X166497000Y-104140000D03*
X166497000Y-105410000D03*
G04 #@! TO.N,Net-(D5-A)*
X171704000Y-76327000D03*
X171704000Y-75057000D03*
X171704000Y-73787000D03*
G04 #@! TO.N,Net-(U4-SW)*
X166370000Y-73787000D03*
X166370000Y-75057000D03*
X166370000Y-76327000D03*
G04 #@! TD*
D21*
G04 #@! TO.N,Net-(D4-K)*
X163449000Y-99949000D02*
X165227000Y-99949000D01*
X165227000Y-99949000D02*
X165862000Y-100584000D01*
X175174000Y-103038000D02*
X175174000Y-105410000D01*
X172720000Y-100584000D02*
X175174000Y-103038000D01*
X165862000Y-100584000D02*
X172720000Y-100584000D01*
G04 #@! TD*
G04 #@! TA.AperFunction,Conductor*
G04 #@! TO.N,GNDS*
G36*
X149751306Y-69868306D02*
G01*
X149968694Y-70085694D01*
X149987000Y-70129888D01*
X149987000Y-81000112D01*
X149968694Y-81044306D01*
X149751306Y-81261694D01*
X149707112Y-81280000D01*
X144399000Y-81280000D01*
X144399000Y-81534000D01*
X144399000Y-100050112D01*
X144380694Y-100094306D01*
X144163306Y-100311694D01*
X144119112Y-100330000D01*
X120929888Y-100330000D01*
X120885694Y-100311694D01*
X120668306Y-100094306D01*
X120650000Y-100050112D01*
X120650000Y-92500000D01*
X123866109Y-92500000D01*
X123885638Y-92735682D01*
X123885640Y-92735692D01*
X123943689Y-92964921D01*
X123943694Y-92964936D01*
X124038690Y-93181507D01*
X124038692Y-93181510D01*
X124168036Y-93379484D01*
X124168040Y-93379489D01*
X124202005Y-93416386D01*
X124202006Y-93416387D01*
X124757436Y-92860957D01*
X124793112Y-92914351D01*
X124883649Y-93004888D01*
X124937041Y-93040563D01*
X124382145Y-93595458D01*
X124382146Y-93595459D01*
X124514828Y-93698730D01*
X124514830Y-93698731D01*
X124722815Y-93811287D01*
X124946491Y-93888075D01*
X125179758Y-93927000D01*
X125416242Y-93927000D01*
X125649508Y-93888075D01*
X125873183Y-93811287D01*
X125873184Y-93811287D01*
X126081170Y-93698730D01*
X126213853Y-93595458D01*
X125658958Y-93040563D01*
X125712351Y-93004888D01*
X125802888Y-92914351D01*
X125838563Y-92860957D01*
X126393992Y-93416386D01*
X126427964Y-93379483D01*
X126557307Y-93181510D01*
X126557309Y-93181507D01*
X126652305Y-92964936D01*
X126652310Y-92964921D01*
X126710359Y-92735692D01*
X126710361Y-92735682D01*
X126729890Y-92500000D01*
X126710361Y-92264317D01*
X126710359Y-92264307D01*
X126652310Y-92035078D01*
X126652305Y-92035063D01*
X126557309Y-91818492D01*
X126557307Y-91818489D01*
X126427963Y-91620515D01*
X126427959Y-91620510D01*
X126393993Y-91583612D01*
X126393992Y-91583611D01*
X125838562Y-92139040D01*
X125802888Y-92085649D01*
X125712351Y-91995112D01*
X125658957Y-91959435D01*
X126213853Y-91404540D01*
X126081171Y-91301269D01*
X126081169Y-91301268D01*
X125873184Y-91188712D01*
X125649508Y-91111924D01*
X125416242Y-91073000D01*
X125179758Y-91073000D01*
X124946491Y-91111924D01*
X124722816Y-91188712D01*
X124722815Y-91188712D01*
X124514833Y-91301266D01*
X124382145Y-91404540D01*
X124937041Y-91959436D01*
X124883649Y-91995112D01*
X124793112Y-92085649D01*
X124757436Y-92139041D01*
X124202006Y-91583611D01*
X124202004Y-91583612D01*
X124168040Y-91620509D01*
X124168035Y-91620516D01*
X124038692Y-91818489D01*
X124038690Y-91818492D01*
X123943694Y-92035063D01*
X123943689Y-92035078D01*
X123885640Y-92264307D01*
X123885638Y-92264317D01*
X123866109Y-92500000D01*
X120650000Y-92500000D01*
X120650000Y-86174932D01*
X123743500Y-86174932D01*
X123743500Y-88825064D01*
X123743501Y-88825068D01*
X123758265Y-88899299D01*
X123758267Y-88899303D01*
X123814515Y-88983484D01*
X123898697Y-89039733D01*
X123898699Y-89039734D01*
X123972933Y-89054500D01*
X126623066Y-89054499D01*
X126697301Y-89039734D01*
X126781484Y-88983484D01*
X126837734Y-88899301D01*
X126852500Y-88825067D01*
X126852499Y-86174934D01*
X126837734Y-86100699D01*
X126837732Y-86100696D01*
X126781484Y-86016515D01*
X126697302Y-85960266D01*
X126697300Y-85960265D01*
X126623067Y-85945500D01*
X123972935Y-85945500D01*
X123972931Y-85945501D01*
X123898700Y-85960265D01*
X123898696Y-85960267D01*
X123814515Y-86016515D01*
X123758266Y-86100697D01*
X123758265Y-86100699D01*
X123743500Y-86174932D01*
X120650000Y-86174932D01*
X120650000Y-70129888D01*
X120668306Y-70085694D01*
X120885694Y-69868306D01*
X120929888Y-69850000D01*
X149707112Y-69850000D01*
X149751306Y-69868306D01*
G37*
G04 #@! TD.AperFunction*
G04 #@! TD*
G04 #@! TA.AperFunction,Conductor*
G04 #@! TO.N,Net-(D5-A)*
G36*
X171976306Y-73170306D02*
G01*
X172193694Y-73387694D01*
X172212000Y-73431888D01*
X172212000Y-76682112D01*
X172193694Y-76726306D01*
X171976306Y-76943694D01*
X171932112Y-76962000D01*
X169824888Y-76962000D01*
X169780694Y-76943694D01*
X169563306Y-76726306D01*
X169545000Y-76682112D01*
X169545000Y-75742777D01*
X169810001Y-75742777D01*
X169820676Y-75816056D01*
X169820678Y-75816060D01*
X169875936Y-75929095D01*
X169964904Y-76018063D01*
X170077941Y-76073322D01*
X170151221Y-76083999D01*
X170472500Y-76083999D01*
X170726500Y-76083999D01*
X171047778Y-76083999D01*
X171121056Y-76073323D01*
X171121060Y-76073321D01*
X171234095Y-76018063D01*
X171323063Y-75929095D01*
X171378322Y-75816058D01*
X171389000Y-75742778D01*
X171389000Y-75184000D01*
X170726500Y-75184000D01*
X170726500Y-76083999D01*
X170472500Y-76083999D01*
X170472500Y-75184000D01*
X169810001Y-75184000D01*
X169810001Y-75742777D01*
X169545000Y-75742777D01*
X169545000Y-74371221D01*
X169810000Y-74371221D01*
X169810000Y-74930000D01*
X170472500Y-74930000D01*
X170726500Y-74930000D01*
X171388999Y-74930000D01*
X171388999Y-74371222D01*
X171378323Y-74297943D01*
X171378321Y-74297939D01*
X171323063Y-74184904D01*
X171234095Y-74095936D01*
X171121058Y-74040677D01*
X171047778Y-74030000D01*
X170726500Y-74030000D01*
X170726500Y-74930000D01*
X170472500Y-74930000D01*
X170472500Y-74030000D01*
X170151222Y-74030000D01*
X170077943Y-74040676D01*
X170077939Y-74040678D01*
X169964904Y-74095936D01*
X169875936Y-74184904D01*
X169820677Y-74297941D01*
X169810000Y-74371221D01*
X169545000Y-74371221D01*
X169545000Y-73431888D01*
X169563306Y-73387694D01*
X169780694Y-73170306D01*
X169824888Y-73152000D01*
X171932112Y-73152000D01*
X171976306Y-73170306D01*
G37*
G04 #@! TD.AperFunction*
G04 #@! TD*
G04 #@! TA.AperFunction,Conductor*
G04 #@! TO.N,Net-(D4-A)*
G36*
X172103306Y-102253306D02*
G01*
X172320694Y-102470694D01*
X172339000Y-102514888D01*
X172339000Y-108432112D01*
X172320694Y-108476306D01*
X172103306Y-108693694D01*
X172059112Y-108712000D01*
X169951888Y-108712000D01*
X169907694Y-108693694D01*
X169690306Y-108476306D01*
X169672000Y-108432112D01*
X169672000Y-108023777D01*
X169947001Y-108023777D01*
X169957676Y-108097056D01*
X169957678Y-108097060D01*
X170012936Y-108210095D01*
X170101904Y-108299063D01*
X170214941Y-108354322D01*
X170288221Y-108364999D01*
X170647000Y-108364999D01*
X170901000Y-108364999D01*
X171259778Y-108364999D01*
X171333056Y-108354323D01*
X171333060Y-108354321D01*
X171446095Y-108299063D01*
X171535063Y-108210095D01*
X171590322Y-108097058D01*
X171601000Y-108023778D01*
X171601000Y-107315000D01*
X170901000Y-107315000D01*
X170901000Y-108364999D01*
X170647000Y-108364999D01*
X170647000Y-107315000D01*
X169947001Y-107315000D01*
X169947001Y-108023777D01*
X169672000Y-108023777D01*
X169672000Y-106352221D01*
X169947000Y-106352221D01*
X169947000Y-107061000D01*
X170647000Y-107061000D01*
X170901000Y-107061000D01*
X171600999Y-107061000D01*
X171600999Y-106352222D01*
X171590323Y-106278943D01*
X171590321Y-106278939D01*
X171535063Y-106165904D01*
X171446095Y-106076936D01*
X171333058Y-106021677D01*
X171259778Y-106011000D01*
X170901000Y-106011000D01*
X170901000Y-107061000D01*
X170647000Y-107061000D01*
X170647000Y-106011000D01*
X170288222Y-106011000D01*
X170214943Y-106021676D01*
X170214939Y-106021678D01*
X170101904Y-106076936D01*
X170012936Y-106165904D01*
X169957677Y-106278941D01*
X169947000Y-106352221D01*
X169672000Y-106352221D01*
X169672000Y-104825777D01*
X169937001Y-104825777D01*
X169947676Y-104899056D01*
X169947678Y-104899060D01*
X170002936Y-105012095D01*
X170091904Y-105101063D01*
X170204941Y-105156322D01*
X170278221Y-105166999D01*
X170599500Y-105166999D01*
X170853500Y-105166999D01*
X171174778Y-105166999D01*
X171248056Y-105156323D01*
X171248060Y-105156321D01*
X171361095Y-105101063D01*
X171450063Y-105012095D01*
X171505322Y-104899058D01*
X171516000Y-104825778D01*
X171516000Y-104267000D01*
X170853500Y-104267000D01*
X170853500Y-105166999D01*
X170599500Y-105166999D01*
X170599500Y-104267000D01*
X169937001Y-104267000D01*
X169937001Y-104825777D01*
X169672000Y-104825777D01*
X169672000Y-103454221D01*
X169937000Y-103454221D01*
X169937000Y-104013000D01*
X170599500Y-104013000D01*
X170853500Y-104013000D01*
X171515999Y-104013000D01*
X171515999Y-103454222D01*
X171505323Y-103380943D01*
X171505321Y-103380939D01*
X171450063Y-103267904D01*
X171361095Y-103178936D01*
X171248058Y-103123677D01*
X171174778Y-103113000D01*
X170853500Y-103113000D01*
X170853500Y-104013000D01*
X170599500Y-104013000D01*
X170599500Y-103113000D01*
X170278222Y-103113000D01*
X170204943Y-103123676D01*
X170204939Y-103123678D01*
X170091904Y-103178936D01*
X170002936Y-103267904D01*
X169947677Y-103380941D01*
X169937000Y-103454221D01*
X169672000Y-103454221D01*
X169672000Y-102514888D01*
X169690306Y-102470694D01*
X169907694Y-102253306D01*
X169951888Y-102235000D01*
X172059112Y-102235000D01*
X172103306Y-102253306D01*
G37*
G04 #@! TD.AperFunction*
G04 #@! TD*
G04 #@! TA.AperFunction,Conductor*
G04 #@! TO.N,GND*
G36*
X159184984Y-65795210D02*
G01*
X159324614Y-65880774D01*
X159324617Y-65880776D01*
X159546668Y-65972752D01*
X159546677Y-65972755D01*
X159780388Y-66028864D01*
X159780392Y-66028865D01*
X160019996Y-66047722D01*
X160020004Y-66047722D01*
X160259607Y-66028865D01*
X160259611Y-66028864D01*
X160493322Y-65972755D01*
X160493331Y-65972752D01*
X160715382Y-65880776D01*
X160715385Y-65880774D01*
X160855016Y-65795210D01*
X160887672Y-65786000D01*
X189204112Y-65786000D01*
X189248306Y-65804306D01*
X189465694Y-66021694D01*
X189484000Y-66065888D01*
X189484000Y-113893112D01*
X189465694Y-113937306D01*
X189248306Y-114154694D01*
X189204112Y-114173000D01*
X157759888Y-114173000D01*
X157715694Y-114154694D01*
X157498306Y-113937306D01*
X157480000Y-113893112D01*
X157480000Y-112775998D01*
X167588715Y-112775998D01*
X167588715Y-112776001D01*
X167607770Y-112920747D01*
X167607771Y-112920753D01*
X167607772Y-112920754D01*
X167663645Y-113055643D01*
X167752526Y-113171474D01*
X167868357Y-113260355D01*
X168003246Y-113316228D01*
X168003250Y-113316228D01*
X168003252Y-113316229D01*
X168147998Y-113335285D01*
X168148000Y-113335285D01*
X168148002Y-113335285D01*
X168292747Y-113316229D01*
X168292747Y-113316228D01*
X168292754Y-113316228D01*
X168427643Y-113260355D01*
X168543474Y-113171474D01*
X168606415Y-113089447D01*
X168647842Y-113065530D01*
X168694047Y-113077910D01*
X168705583Y-113089446D01*
X168768526Y-113171474D01*
X168884357Y-113260355D01*
X169019246Y-113316228D01*
X169019250Y-113316228D01*
X169019252Y-113316229D01*
X169163998Y-113335285D01*
X169164000Y-113335285D01*
X169164002Y-113335285D01*
X169308747Y-113316229D01*
X169308747Y-113316228D01*
X169308754Y-113316228D01*
X169443643Y-113260355D01*
X169559474Y-113171474D01*
X169622415Y-113089447D01*
X169663842Y-113065530D01*
X169710047Y-113077910D01*
X169721583Y-113089446D01*
X169784526Y-113171474D01*
X169900357Y-113260355D01*
X170035246Y-113316228D01*
X170035250Y-113316228D01*
X170035252Y-113316229D01*
X170179998Y-113335285D01*
X170180000Y-113335285D01*
X170180002Y-113335285D01*
X170324747Y-113316229D01*
X170324747Y-113316228D01*
X170324754Y-113316228D01*
X170459643Y-113260355D01*
X170575474Y-113171474D01*
X170664355Y-113055643D01*
X170720228Y-112920754D01*
X170739285Y-112776000D01*
X170720228Y-112631246D01*
X170664355Y-112496358D01*
X170575474Y-112380526D01*
X170575472Y-112380525D01*
X170575472Y-112380524D01*
X170540349Y-112353574D01*
X170459643Y-112291645D01*
X170459639Y-112291643D01*
X170324757Y-112235773D01*
X170324747Y-112235770D01*
X170180002Y-112216715D01*
X170179998Y-112216715D01*
X170035252Y-112235770D01*
X170035242Y-112235773D01*
X169900360Y-112291643D01*
X169784525Y-112380526D01*
X169721583Y-112462553D01*
X169680157Y-112486470D01*
X169633951Y-112474089D01*
X169622417Y-112462555D01*
X169559474Y-112380526D01*
X169443643Y-112291645D01*
X169443639Y-112291643D01*
X169308757Y-112235773D01*
X169308747Y-112235770D01*
X169164002Y-112216715D01*
X169163998Y-112216715D01*
X169019252Y-112235770D01*
X169019242Y-112235773D01*
X168884360Y-112291643D01*
X168768525Y-112380526D01*
X168705583Y-112462553D01*
X168664157Y-112486470D01*
X168617951Y-112474089D01*
X168606417Y-112462555D01*
X168543474Y-112380526D01*
X168427643Y-112291645D01*
X168427639Y-112291643D01*
X168292757Y-112235773D01*
X168292747Y-112235770D01*
X168148002Y-112216715D01*
X168147998Y-112216715D01*
X168003252Y-112235770D01*
X168003242Y-112235773D01*
X167868360Y-112291643D01*
X167752525Y-112380525D01*
X167663643Y-112496360D01*
X167607773Y-112631242D01*
X167607770Y-112631252D01*
X167588715Y-112775998D01*
X157480000Y-112775998D01*
X157480000Y-111124998D01*
X158571715Y-111124998D01*
X158571715Y-111125001D01*
X158590770Y-111269747D01*
X158590771Y-111269753D01*
X158590772Y-111269754D01*
X158646645Y-111404643D01*
X158735526Y-111520474D01*
X158851357Y-111609355D01*
X158986246Y-111665228D01*
X158986250Y-111665228D01*
X158986252Y-111665229D01*
X159130998Y-111684285D01*
X159131000Y-111684285D01*
X159131002Y-111684285D01*
X159275747Y-111665229D01*
X159275747Y-111665228D01*
X159275754Y-111665228D01*
X159410643Y-111609355D01*
X159526474Y-111520474D01*
X159615355Y-111404643D01*
X159671228Y-111269754D01*
X159690285Y-111125000D01*
X159671228Y-110980246D01*
X159615355Y-110845358D01*
X159526474Y-110729526D01*
X159526472Y-110729525D01*
X159526472Y-110729524D01*
X159491349Y-110702574D01*
X159410643Y-110640645D01*
X159410639Y-110640643D01*
X159275757Y-110584773D01*
X159275747Y-110584770D01*
X159131002Y-110565715D01*
X159130998Y-110565715D01*
X158986252Y-110584770D01*
X158986242Y-110584773D01*
X158851360Y-110640643D01*
X158735525Y-110729525D01*
X158646643Y-110845360D01*
X158590773Y-110980242D01*
X158590770Y-110980252D01*
X158571715Y-111124998D01*
X157480000Y-111124998D01*
X157480000Y-108432112D01*
X169412499Y-108432112D01*
X169432253Y-108531418D01*
X169445197Y-108562665D01*
X169450560Y-108575613D01*
X169506812Y-108659800D01*
X169724200Y-108877188D01*
X169808387Y-108933440D01*
X169849753Y-108950574D01*
X169851976Y-108951626D01*
X169852581Y-108951746D01*
X169852582Y-108951747D01*
X169951888Y-108971500D01*
X172059112Y-108971500D01*
X172059113Y-108971500D01*
X172158419Y-108951746D01*
X172202613Y-108933440D01*
X172286800Y-108877188D01*
X172504188Y-108659800D01*
X172560440Y-108575613D01*
X172577578Y-108534238D01*
X172578626Y-108532021D01*
X172578746Y-108531419D01*
X172578747Y-108531418D01*
X172598500Y-108432112D01*
X172598500Y-102514887D01*
X172578746Y-102415581D01*
X172560440Y-102371387D01*
X172504188Y-102287200D01*
X172286800Y-102069812D01*
X172202613Y-102013560D01*
X172202612Y-102013559D01*
X172202610Y-102013558D01*
X172161261Y-101996431D01*
X172159026Y-101995374D01*
X172059112Y-101975500D01*
X169951887Y-101975500D01*
X169935411Y-101978777D01*
X169852581Y-101995253D01*
X169808389Y-102013559D01*
X169808385Y-102013561D01*
X169724200Y-102069811D01*
X169506811Y-102287200D01*
X169450561Y-102371385D01*
X169450560Y-102371386D01*
X169433431Y-102412739D01*
X169432374Y-102414973D01*
X169412500Y-102514887D01*
X169412500Y-108432112D01*
X169412499Y-108432112D01*
X157480000Y-108432112D01*
X157480000Y-105765112D01*
X165729499Y-105765112D01*
X165749253Y-105864418D01*
X165762197Y-105895665D01*
X165767560Y-105908613D01*
X165823812Y-105992800D01*
X166041200Y-106210188D01*
X166125387Y-106266440D01*
X166166753Y-106283574D01*
X166168976Y-106284626D01*
X166169581Y-106284746D01*
X166169582Y-106284747D01*
X166268888Y-106304500D01*
X168376112Y-106304500D01*
X168376113Y-106304500D01*
X168475419Y-106284746D01*
X168519613Y-106266440D01*
X168603800Y-106210188D01*
X168821188Y-105992800D01*
X168877440Y-105908613D01*
X168894578Y-105867238D01*
X168895626Y-105865021D01*
X168895746Y-105864419D01*
X168895747Y-105864418D01*
X168915500Y-105765112D01*
X168915500Y-102514887D01*
X168895746Y-102415581D01*
X168877440Y-102371387D01*
X168821188Y-102287200D01*
X168603800Y-102069812D01*
X168519613Y-102013560D01*
X168519612Y-102013559D01*
X168519610Y-102013558D01*
X168478261Y-101996431D01*
X168476026Y-101995374D01*
X168376112Y-101975500D01*
X166268887Y-101975500D01*
X166252411Y-101978777D01*
X166169581Y-101995253D01*
X166125389Y-102013559D01*
X166125385Y-102013561D01*
X166041200Y-102069811D01*
X165823811Y-102287200D01*
X165767561Y-102371385D01*
X165767560Y-102371386D01*
X165750431Y-102412739D01*
X165749374Y-102414973D01*
X165729500Y-102514887D01*
X165729500Y-105765112D01*
X165729499Y-105765112D01*
X157480000Y-105765112D01*
X157480000Y-99886408D01*
X162813500Y-99886408D01*
X162813500Y-100011591D01*
X162837921Y-100134367D01*
X162837921Y-100134368D01*
X162885827Y-100250022D01*
X162955375Y-100354108D01*
X163043892Y-100442625D01*
X163147978Y-100512173D01*
X163263631Y-100560078D01*
X163386409Y-100584500D01*
X164937879Y-100584500D01*
X164982073Y-100602806D01*
X165368375Y-100989108D01*
X165456892Y-101077625D01*
X165560978Y-101147173D01*
X165676631Y-101195078D01*
X165799409Y-101219500D01*
X172430879Y-101219500D01*
X172475073Y-101237806D01*
X174520194Y-103282927D01*
X174538500Y-103327121D01*
X174538500Y-104834000D01*
X174520194Y-104878194D01*
X174476000Y-104896500D01*
X174142887Y-104896500D01*
X174126411Y-104899777D01*
X174043581Y-104916253D01*
X173999389Y-104934559D01*
X173999385Y-104934561D01*
X173915200Y-104990811D01*
X173697811Y-105208200D01*
X173641561Y-105292385D01*
X173641560Y-105292386D01*
X173624431Y-105333739D01*
X173623374Y-105335973D01*
X173603500Y-105435887D01*
X173603500Y-108432112D01*
X173603499Y-108432112D01*
X173623253Y-108531418D01*
X173636197Y-108562665D01*
X173641560Y-108575613D01*
X173697812Y-108659800D01*
X173915200Y-108877188D01*
X173999387Y-108933440D01*
X174040753Y-108950574D01*
X174042976Y-108951626D01*
X174043581Y-108951746D01*
X174043582Y-108951747D01*
X174142888Y-108971500D01*
X178663112Y-108971500D01*
X178663113Y-108971500D01*
X178762419Y-108951746D01*
X178806613Y-108933440D01*
X178890800Y-108877188D01*
X179108188Y-108659800D01*
X179164440Y-108575613D01*
X179181578Y-108534238D01*
X179182626Y-108532021D01*
X179182746Y-108531419D01*
X179182747Y-108531418D01*
X179202500Y-108432112D01*
X179202500Y-105435887D01*
X179182746Y-105336581D01*
X179164440Y-105292387D01*
X179108188Y-105208200D01*
X178890800Y-104990812D01*
X178806613Y-104934560D01*
X178806612Y-104934559D01*
X178806610Y-104934558D01*
X178765261Y-104917431D01*
X178763026Y-104916374D01*
X178663112Y-104896500D01*
X175872000Y-104896500D01*
X175827806Y-104878194D01*
X175809500Y-104834000D01*
X175809500Y-102975409D01*
X175785078Y-102852631D01*
X175737173Y-102736978D01*
X175667625Y-102632892D01*
X175579108Y-102544375D01*
X173125108Y-100090375D01*
X173125107Y-100090374D01*
X173021024Y-100020828D01*
X173021022Y-100020827D01*
X172905367Y-99972921D01*
X172782591Y-99948500D01*
X166151121Y-99948500D01*
X166106927Y-99930194D01*
X165632107Y-99455374D01*
X165528024Y-99385828D01*
X165528022Y-99385827D01*
X165412367Y-99337921D01*
X165289591Y-99313500D01*
X163386409Y-99313500D01*
X163263632Y-99337921D01*
X163263631Y-99337921D01*
X163147977Y-99385827D01*
X163147975Y-99385828D01*
X163043892Y-99455374D01*
X162955374Y-99543892D01*
X162885828Y-99647975D01*
X162885827Y-99647977D01*
X162837921Y-99763631D01*
X162837921Y-99763632D01*
X162813500Y-99886408D01*
X157480000Y-99886408D01*
X157480000Y-97434888D01*
X157498306Y-97390694D01*
X157715694Y-97173306D01*
X157759888Y-97155000D01*
X167132000Y-97155000D01*
X167386000Y-97155000D01*
X167386000Y-95884995D01*
X168266384Y-95884995D01*
X168266384Y-95885004D01*
X168286815Y-96144609D01*
X168286817Y-96144620D01*
X168347609Y-96397844D01*
X168347612Y-96397853D01*
X168447268Y-96638445D01*
X168447270Y-96638448D01*
X168583340Y-96860495D01*
X168583344Y-96860501D01*
X168752470Y-97058523D01*
X168752476Y-97058529D01*
X168950498Y-97227655D01*
X168950502Y-97227658D01*
X169172550Y-97363729D01*
X169172552Y-97363730D01*
X169172554Y-97363731D01*
X169219347Y-97383113D01*
X169413150Y-97463389D01*
X169666379Y-97524183D01*
X169666388Y-97524183D01*
X169666390Y-97524184D01*
X169925996Y-97544616D01*
X169926000Y-97544616D01*
X169926004Y-97544616D01*
X170185609Y-97524184D01*
X170185609Y-97524183D01*
X170185621Y-97524183D01*
X170438850Y-97463389D01*
X170632655Y-97383112D01*
X172587499Y-97383112D01*
X172607253Y-97482418D01*
X172620197Y-97513665D01*
X172625560Y-97526613D01*
X172681812Y-97610800D01*
X172899200Y-97828188D01*
X172983387Y-97884440D01*
X173024753Y-97901574D01*
X173026976Y-97902626D01*
X173027581Y-97902746D01*
X173027582Y-97902747D01*
X173126888Y-97922500D01*
X175869112Y-97922500D01*
X175869113Y-97922500D01*
X175968419Y-97902746D01*
X176012613Y-97884440D01*
X176096800Y-97828188D01*
X176314188Y-97610800D01*
X176370440Y-97526613D01*
X176387578Y-97485238D01*
X176388626Y-97483021D01*
X176388746Y-97482419D01*
X176388747Y-97482418D01*
X176408500Y-97383112D01*
X176408500Y-94640887D01*
X176388746Y-94541581D01*
X176370440Y-94497387D01*
X176314188Y-94413200D01*
X176096800Y-94195812D01*
X176012613Y-94139560D01*
X176012612Y-94139559D01*
X176012610Y-94139558D01*
X175971261Y-94122431D01*
X175969026Y-94121374D01*
X175869112Y-94101500D01*
X173126887Y-94101500D01*
X173110411Y-94104777D01*
X173027581Y-94121253D01*
X172983389Y-94139559D01*
X172983385Y-94139561D01*
X172899200Y-94195811D01*
X172681811Y-94413200D01*
X172625561Y-94497385D01*
X172625560Y-94497386D01*
X172608431Y-94538739D01*
X172607374Y-94540973D01*
X172587500Y-94640887D01*
X172587500Y-97383112D01*
X172587499Y-97383112D01*
X170632655Y-97383112D01*
X170679450Y-97363729D01*
X170901498Y-97227658D01*
X171000512Y-97143092D01*
X171099523Y-97058529D01*
X171099529Y-97058523D01*
X171268655Y-96860501D01*
X171268658Y-96860498D01*
X171404729Y-96638450D01*
X171504389Y-96397850D01*
X171565183Y-96144621D01*
X171585616Y-95885000D01*
X171565183Y-95625379D01*
X171504389Y-95372150D01*
X171404729Y-95131550D01*
X171268658Y-94909502D01*
X171268655Y-94909498D01*
X171099529Y-94711476D01*
X171099523Y-94711470D01*
X170901501Y-94542344D01*
X170901495Y-94542340D01*
X170679448Y-94406270D01*
X170679445Y-94406268D01*
X170438853Y-94306612D01*
X170438844Y-94306609D01*
X170261646Y-94264068D01*
X170185621Y-94245817D01*
X170185619Y-94245816D01*
X170185609Y-94245815D01*
X169926004Y-94225384D01*
X169925996Y-94225384D01*
X169666390Y-94245815D01*
X169666379Y-94245817D01*
X169413155Y-94306609D01*
X169413146Y-94306612D01*
X169172554Y-94406268D01*
X169172551Y-94406270D01*
X168950504Y-94542340D01*
X168950498Y-94542344D01*
X168752476Y-94711470D01*
X168752470Y-94711476D01*
X168583344Y-94909498D01*
X168583340Y-94909504D01*
X168447270Y-95131551D01*
X168447268Y-95131554D01*
X168347612Y-95372146D01*
X168347609Y-95372155D01*
X168286817Y-95625379D01*
X168286815Y-95625390D01*
X168266384Y-95884995D01*
X167386000Y-95884995D01*
X167386000Y-93754932D01*
X183103500Y-93754932D01*
X183103500Y-96405064D01*
X183103501Y-96405068D01*
X183118265Y-96479299D01*
X183118267Y-96479303D01*
X183174515Y-96563484D01*
X183258697Y-96619733D01*
X183258699Y-96619734D01*
X183332933Y-96634500D01*
X185983066Y-96634499D01*
X186057301Y-96619734D01*
X186141484Y-96563484D01*
X186197734Y-96479301D01*
X186212500Y-96405067D01*
X186212499Y-93754934D01*
X186197734Y-93680699D01*
X186197732Y-93680696D01*
X186141484Y-93596515D01*
X186057302Y-93540266D01*
X186057300Y-93540265D01*
X185983067Y-93525500D01*
X183332935Y-93525500D01*
X183332931Y-93525501D01*
X183258700Y-93540265D01*
X183258696Y-93540267D01*
X183174515Y-93596515D01*
X183118266Y-93680697D01*
X183118265Y-93680699D01*
X183103500Y-93754932D01*
X167386000Y-93754932D01*
X167386000Y-90000000D01*
X183226109Y-90000000D01*
X183245638Y-90235682D01*
X183245640Y-90235692D01*
X183303689Y-90464921D01*
X183303694Y-90464936D01*
X183398690Y-90681507D01*
X183398692Y-90681510D01*
X183528036Y-90879484D01*
X183528040Y-90879489D01*
X183562005Y-90916386D01*
X183562006Y-90916387D01*
X184117436Y-90360957D01*
X184153112Y-90414351D01*
X184243649Y-90504888D01*
X184297041Y-90540563D01*
X183742145Y-91095458D01*
X183742146Y-91095459D01*
X183874828Y-91198730D01*
X183874830Y-91198731D01*
X184082815Y-91311287D01*
X184306491Y-91388075D01*
X184539758Y-91427000D01*
X184776242Y-91427000D01*
X185009508Y-91388075D01*
X185233183Y-91311287D01*
X185233184Y-91311287D01*
X185441170Y-91198730D01*
X185573853Y-91095458D01*
X185018958Y-90540563D01*
X185072351Y-90504888D01*
X185162888Y-90414351D01*
X185198563Y-90360957D01*
X185753992Y-90916386D01*
X185787964Y-90879483D01*
X185917307Y-90681510D01*
X185917309Y-90681507D01*
X186012305Y-90464936D01*
X186012310Y-90464921D01*
X186070359Y-90235692D01*
X186070361Y-90235682D01*
X186089890Y-90000000D01*
X186070361Y-89764317D01*
X186070359Y-89764307D01*
X186012310Y-89535078D01*
X186012305Y-89535063D01*
X185917309Y-89318492D01*
X185917307Y-89318489D01*
X185787963Y-89120515D01*
X185787959Y-89120510D01*
X185753993Y-89083612D01*
X185753992Y-89083611D01*
X185198562Y-89639040D01*
X185162888Y-89585649D01*
X185072351Y-89495112D01*
X185018957Y-89459435D01*
X185573853Y-88904540D01*
X185441171Y-88801269D01*
X185441169Y-88801268D01*
X185233184Y-88688712D01*
X185009508Y-88611924D01*
X184776242Y-88573000D01*
X184539758Y-88573000D01*
X184306491Y-88611924D01*
X184082816Y-88688712D01*
X184082815Y-88688712D01*
X183874833Y-88801266D01*
X183742145Y-88904540D01*
X184297041Y-89459436D01*
X184243649Y-89495112D01*
X184153112Y-89585649D01*
X184117436Y-89639041D01*
X183562006Y-89083611D01*
X183562004Y-89083612D01*
X183528040Y-89120509D01*
X183528035Y-89120516D01*
X183398692Y-89318489D01*
X183398690Y-89318492D01*
X183303694Y-89535063D01*
X183303689Y-89535078D01*
X183245640Y-89764307D01*
X183245638Y-89764317D01*
X183226109Y-90000000D01*
X167386000Y-90000000D01*
X167386000Y-84919995D01*
X183098693Y-84919995D01*
X183098693Y-84920004D01*
X183117889Y-85163922D01*
X183117890Y-85163926D01*
X183117891Y-85163929D01*
X183175011Y-85401852D01*
X183268647Y-85627911D01*
X183268648Y-85627912D01*
X183396491Y-85836534D01*
X183555402Y-86022597D01*
X183667603Y-86118424D01*
X183741462Y-86181506D01*
X183950089Y-86309353D01*
X184176148Y-86402989D01*
X184414071Y-86460109D01*
X184414073Y-86460109D01*
X184414077Y-86460110D01*
X184657996Y-86479307D01*
X184658000Y-86479307D01*
X184658004Y-86479307D01*
X184901922Y-86460110D01*
X184901924Y-86460109D01*
X184901929Y-86460109D01*
X185139852Y-86402989D01*
X185365911Y-86309353D01*
X185574538Y-86181506D01*
X185760597Y-86022597D01*
X185919506Y-85836538D01*
X186047353Y-85627911D01*
X186140989Y-85401852D01*
X186198109Y-85163929D01*
X186217307Y-84920000D01*
X186199260Y-84690694D01*
X186198110Y-84676077D01*
X186198109Y-84676073D01*
X186149429Y-84473306D01*
X186140989Y-84438148D01*
X186047353Y-84212089D01*
X185919506Y-84003462D01*
X185844430Y-83915559D01*
X185760597Y-83817402D01*
X185629225Y-83705201D01*
X185574538Y-83658494D01*
X185574536Y-83658492D01*
X185574534Y-83658491D01*
X185452214Y-83583533D01*
X185365911Y-83530647D01*
X185139852Y-83437011D01*
X185139846Y-83437009D01*
X185139845Y-83437009D01*
X184901926Y-83379890D01*
X184901922Y-83379889D01*
X184658004Y-83360693D01*
X184657996Y-83360693D01*
X184414077Y-83379889D01*
X184414073Y-83379890D01*
X184176154Y-83437009D01*
X184176150Y-83437010D01*
X184176148Y-83437011D01*
X183950089Y-83530647D01*
X183950087Y-83530648D01*
X183741465Y-83658491D01*
X183555402Y-83817402D01*
X183396491Y-84003465D01*
X183344398Y-84088474D01*
X183268647Y-84212089D01*
X183251998Y-84252285D01*
X183175009Y-84438154D01*
X183117890Y-84676073D01*
X183117889Y-84676077D01*
X183098693Y-84919995D01*
X167386000Y-84919995D01*
X167386000Y-84709000D01*
X167132000Y-84709000D01*
X157759888Y-84709000D01*
X157715694Y-84690694D01*
X157498306Y-84473306D01*
X157480000Y-84429112D01*
X157480000Y-83692998D01*
X167461715Y-83692998D01*
X167461715Y-83693001D01*
X167480770Y-83837747D01*
X167480771Y-83837753D01*
X167480772Y-83837754D01*
X167536645Y-83972643D01*
X167625526Y-84088474D01*
X167741357Y-84177355D01*
X167876246Y-84233228D01*
X167876250Y-84233228D01*
X167876252Y-84233229D01*
X168020998Y-84252285D01*
X168021000Y-84252285D01*
X168021002Y-84252285D01*
X168165747Y-84233229D01*
X168165747Y-84233228D01*
X168165754Y-84233228D01*
X168300643Y-84177355D01*
X168416474Y-84088474D01*
X168479415Y-84006447D01*
X168520842Y-83982530D01*
X168567047Y-83994910D01*
X168578583Y-84006446D01*
X168641526Y-84088474D01*
X168757357Y-84177355D01*
X168892246Y-84233228D01*
X168892250Y-84233228D01*
X168892252Y-84233229D01*
X169036998Y-84252285D01*
X169037000Y-84252285D01*
X169037002Y-84252285D01*
X169181747Y-84233229D01*
X169181747Y-84233228D01*
X169181754Y-84233228D01*
X169316643Y-84177355D01*
X169432474Y-84088474D01*
X169495415Y-84006447D01*
X169536842Y-83982530D01*
X169583047Y-83994910D01*
X169594583Y-84006446D01*
X169657526Y-84088474D01*
X169773357Y-84177355D01*
X169908246Y-84233228D01*
X169908250Y-84233228D01*
X169908252Y-84233229D01*
X170052998Y-84252285D01*
X170053000Y-84252285D01*
X170053002Y-84252285D01*
X170197747Y-84233229D01*
X170197747Y-84233228D01*
X170197754Y-84233228D01*
X170332643Y-84177355D01*
X170448474Y-84088474D01*
X170537355Y-83972643D01*
X170593228Y-83837754D01*
X170612285Y-83693000D01*
X170607742Y-83658494D01*
X170593229Y-83548252D01*
X170593228Y-83548250D01*
X170593228Y-83548246D01*
X170561000Y-83470441D01*
X170537357Y-83413362D01*
X170537356Y-83413361D01*
X170537355Y-83413358D01*
X170448474Y-83297526D01*
X170448472Y-83297525D01*
X170448472Y-83297524D01*
X170413349Y-83270574D01*
X170332643Y-83208645D01*
X170332639Y-83208643D01*
X170197757Y-83152773D01*
X170197747Y-83152770D01*
X170053002Y-83133715D01*
X170052998Y-83133715D01*
X169908252Y-83152770D01*
X169908242Y-83152773D01*
X169773360Y-83208643D01*
X169657525Y-83297526D01*
X169594583Y-83379553D01*
X169553157Y-83403470D01*
X169506951Y-83391089D01*
X169495417Y-83379555D01*
X169432474Y-83297526D01*
X169316643Y-83208645D01*
X169316639Y-83208643D01*
X169181757Y-83152773D01*
X169181747Y-83152770D01*
X169037002Y-83133715D01*
X169036998Y-83133715D01*
X168892252Y-83152770D01*
X168892242Y-83152773D01*
X168757360Y-83208643D01*
X168641525Y-83297526D01*
X168578583Y-83379553D01*
X168537157Y-83403470D01*
X168490951Y-83391089D01*
X168479417Y-83379555D01*
X168416474Y-83297526D01*
X168300643Y-83208645D01*
X168300639Y-83208643D01*
X168165757Y-83152773D01*
X168165747Y-83152770D01*
X168021002Y-83133715D01*
X168020998Y-83133715D01*
X167876252Y-83152770D01*
X167876242Y-83152773D01*
X167741360Y-83208643D01*
X167625525Y-83297525D01*
X167536643Y-83413360D01*
X167480773Y-83548242D01*
X167480770Y-83548252D01*
X167461715Y-83692998D01*
X157480000Y-83692998D01*
X157480000Y-80771998D01*
X158825715Y-80771998D01*
X158825715Y-80772001D01*
X158844770Y-80916747D01*
X158844771Y-80916753D01*
X158844772Y-80916754D01*
X158900645Y-81051643D01*
X158989526Y-81167474D01*
X159105357Y-81256355D01*
X159240246Y-81312228D01*
X159240250Y-81312228D01*
X159240252Y-81312229D01*
X159384998Y-81331285D01*
X159385000Y-81331285D01*
X159385002Y-81331285D01*
X159529747Y-81312229D01*
X159529747Y-81312228D01*
X159529754Y-81312228D01*
X159664643Y-81256355D01*
X159780474Y-81167474D01*
X159869355Y-81051643D01*
X159925228Y-80916754D01*
X159944285Y-80772000D01*
X159925228Y-80627246D01*
X159869355Y-80492358D01*
X159780474Y-80376526D01*
X159780472Y-80376525D01*
X159780472Y-80376524D01*
X159745349Y-80349574D01*
X159664643Y-80287645D01*
X159664639Y-80287643D01*
X159529757Y-80231773D01*
X159529747Y-80231770D01*
X159385002Y-80212715D01*
X159384998Y-80212715D01*
X159240252Y-80231770D01*
X159240242Y-80231773D01*
X159105360Y-80287643D01*
X158989525Y-80376525D01*
X158900643Y-80492360D01*
X158844773Y-80627242D01*
X158844770Y-80627252D01*
X158825715Y-80771998D01*
X157480000Y-80771998D01*
X157480000Y-76682112D01*
X165602499Y-76682112D01*
X165622253Y-76781418D01*
X165635197Y-76812665D01*
X165640560Y-76825613D01*
X165696812Y-76909800D01*
X165914200Y-77127188D01*
X165998387Y-77183440D01*
X166039753Y-77200574D01*
X166041976Y-77201626D01*
X166042581Y-77201746D01*
X166042582Y-77201747D01*
X166141888Y-77221500D01*
X168249112Y-77221500D01*
X168249113Y-77221500D01*
X168348419Y-77201746D01*
X168392613Y-77183440D01*
X168476800Y-77127188D01*
X168694188Y-76909800D01*
X168750440Y-76825613D01*
X168767578Y-76784238D01*
X168768626Y-76782021D01*
X168768746Y-76781419D01*
X168768747Y-76781418D01*
X168788500Y-76682112D01*
X169285499Y-76682112D01*
X169305253Y-76781418D01*
X169318197Y-76812665D01*
X169323560Y-76825613D01*
X169379812Y-76909800D01*
X169597200Y-77127188D01*
X169681387Y-77183440D01*
X169722753Y-77200574D01*
X169724976Y-77201626D01*
X169725581Y-77201746D01*
X169725582Y-77201747D01*
X169824888Y-77221500D01*
X171932112Y-77221500D01*
X171932113Y-77221500D01*
X172031419Y-77201746D01*
X172075613Y-77183440D01*
X172159800Y-77127188D01*
X172377188Y-76909800D01*
X172433440Y-76825613D01*
X172450578Y-76784238D01*
X172451626Y-76782021D01*
X172451746Y-76781419D01*
X172451747Y-76781418D01*
X172471500Y-76682112D01*
X172471500Y-73431887D01*
X172451746Y-73332581D01*
X172433440Y-73288387D01*
X172377188Y-73204200D01*
X172159800Y-72986812D01*
X172075613Y-72930560D01*
X172075612Y-72930559D01*
X172075610Y-72930558D01*
X172034261Y-72913431D01*
X172032026Y-72912374D01*
X171932112Y-72892500D01*
X169824887Y-72892500D01*
X169808411Y-72895777D01*
X169725581Y-72912253D01*
X169681389Y-72930559D01*
X169681385Y-72930561D01*
X169597200Y-72986811D01*
X169379811Y-73204200D01*
X169323561Y-73288385D01*
X169323560Y-73288386D01*
X169306431Y-73329739D01*
X169305374Y-73331973D01*
X169285500Y-73431887D01*
X169285500Y-76682112D01*
X169285499Y-76682112D01*
X168788500Y-76682112D01*
X168788500Y-73431887D01*
X168768746Y-73332581D01*
X168750440Y-73288387D01*
X168694188Y-73204200D01*
X168476800Y-72986812D01*
X168392613Y-72930560D01*
X168392612Y-72930559D01*
X168392610Y-72930558D01*
X168351261Y-72913431D01*
X168349026Y-72912374D01*
X168249112Y-72892500D01*
X166141887Y-72892500D01*
X166125411Y-72895777D01*
X166042581Y-72912253D01*
X165998389Y-72930559D01*
X165998385Y-72930561D01*
X165914200Y-72986811D01*
X165696811Y-73204200D01*
X165640561Y-73288385D01*
X165640560Y-73288386D01*
X165623431Y-73329739D01*
X165622374Y-73331973D01*
X165602500Y-73431887D01*
X165602500Y-76682112D01*
X165602499Y-76682112D01*
X157480000Y-76682112D01*
X157480000Y-66065888D01*
X157498306Y-66021694D01*
X157715694Y-65804306D01*
X157759888Y-65786000D01*
X159152328Y-65786000D01*
X159184984Y-65795210D01*
G37*
G04 #@! TD.AperFunction*
G04 #@! TD*
G04 #@! TA.AperFunction,Conductor*
G04 #@! TO.N,Net-(U2-SW)*
G36*
X168420306Y-102253306D02*
G01*
X168637694Y-102470694D01*
X168656000Y-102514888D01*
X168656000Y-105765112D01*
X168637694Y-105809306D01*
X168420306Y-106026694D01*
X168376112Y-106045000D01*
X166268888Y-106045000D01*
X166224694Y-106026694D01*
X166007306Y-105809306D01*
X165989000Y-105765112D01*
X165989000Y-104825777D01*
X166812001Y-104825777D01*
X166822676Y-104899056D01*
X166822678Y-104899060D01*
X166877936Y-105012095D01*
X166966904Y-105101063D01*
X167079941Y-105156322D01*
X167153221Y-105166999D01*
X167474500Y-105166999D01*
X167728500Y-105166999D01*
X168049778Y-105166999D01*
X168123056Y-105156323D01*
X168123060Y-105156321D01*
X168236095Y-105101063D01*
X168325063Y-105012095D01*
X168380322Y-104899058D01*
X168391000Y-104825778D01*
X168391000Y-104267000D01*
X167728500Y-104267000D01*
X167728500Y-105166999D01*
X167474500Y-105166999D01*
X167474500Y-104267000D01*
X166812001Y-104267000D01*
X166812001Y-104825777D01*
X165989000Y-104825777D01*
X165989000Y-103454221D01*
X166812000Y-103454221D01*
X166812000Y-104013000D01*
X167474500Y-104013000D01*
X167728500Y-104013000D01*
X168390999Y-104013000D01*
X168390999Y-103454222D01*
X168380323Y-103380943D01*
X168380321Y-103380939D01*
X168325063Y-103267904D01*
X168236095Y-103178936D01*
X168123058Y-103123677D01*
X168049778Y-103113000D01*
X167728500Y-103113000D01*
X167728500Y-104013000D01*
X167474500Y-104013000D01*
X167474500Y-103113000D01*
X167153222Y-103113000D01*
X167079943Y-103123676D01*
X167079939Y-103123678D01*
X166966904Y-103178936D01*
X166877936Y-103267904D01*
X166822677Y-103380941D01*
X166812000Y-103454221D01*
X165989000Y-103454221D01*
X165989000Y-102514888D01*
X166007306Y-102470694D01*
X166224694Y-102253306D01*
X166268888Y-102235000D01*
X168376112Y-102235000D01*
X168420306Y-102253306D01*
G37*
G04 #@! TD.AperFunction*
G04 #@! TD*
G04 #@! TA.AperFunction,Conductor*
G04 #@! TO.N,Net-(D4-K)*
G36*
X178707306Y-105174306D02*
G01*
X178924694Y-105391694D01*
X178943000Y-105435888D01*
X178943000Y-108432112D01*
X178924694Y-108476306D01*
X178707306Y-108693694D01*
X178663112Y-108712000D01*
X174142888Y-108712000D01*
X174098694Y-108693694D01*
X173881306Y-108476306D01*
X173863000Y-108432112D01*
X173863000Y-108023777D01*
X174347001Y-108023777D01*
X174357676Y-108097056D01*
X174357678Y-108097060D01*
X174412936Y-108210095D01*
X174501904Y-108299063D01*
X174614941Y-108354322D01*
X174688221Y-108364999D01*
X175047000Y-108364999D01*
X175301000Y-108364999D01*
X175659778Y-108364999D01*
X175733056Y-108354323D01*
X175733060Y-108354321D01*
X175846095Y-108299063D01*
X175935063Y-108210095D01*
X175990322Y-108097058D01*
X176001000Y-108023778D01*
X176001000Y-107315000D01*
X175301000Y-107315000D01*
X175301000Y-108364999D01*
X175047000Y-108364999D01*
X175047000Y-107315000D01*
X174347001Y-107315000D01*
X174347001Y-108023777D01*
X173863000Y-108023777D01*
X173863000Y-106352221D01*
X174347000Y-106352221D01*
X174347000Y-107061000D01*
X175047000Y-107061000D01*
X175301000Y-107061000D01*
X176000999Y-107061000D01*
X176000999Y-106352222D01*
X175990323Y-106278943D01*
X175990321Y-106278939D01*
X175935063Y-106165904D01*
X175846095Y-106076936D01*
X175733058Y-106021677D01*
X175659778Y-106011000D01*
X175301000Y-106011000D01*
X175301000Y-107061000D01*
X175047000Y-107061000D01*
X175047000Y-106011000D01*
X174688222Y-106011000D01*
X174614943Y-106021676D01*
X174614939Y-106021678D01*
X174501904Y-106076936D01*
X174412936Y-106165904D01*
X174357677Y-106278941D01*
X174347000Y-106352221D01*
X173863000Y-106352221D01*
X173863000Y-105435888D01*
X173881306Y-105391694D01*
X174098694Y-105174306D01*
X174142888Y-105156000D01*
X178663112Y-105156000D01*
X178707306Y-105174306D01*
G37*
G04 #@! TD.AperFunction*
G04 #@! TD*
G04 #@! TA.AperFunction,Conductor*
G04 #@! TO.N,Net-(U4-SW)*
G36*
X168293306Y-73170306D02*
G01*
X168510694Y-73387694D01*
X168529000Y-73431888D01*
X168529000Y-76682112D01*
X168510694Y-76726306D01*
X168293306Y-76943694D01*
X168249112Y-76962000D01*
X166141888Y-76962000D01*
X166097694Y-76943694D01*
X165880306Y-76726306D01*
X165862000Y-76682112D01*
X165862000Y-75742777D01*
X166685001Y-75742777D01*
X166695676Y-75816056D01*
X166695678Y-75816060D01*
X166750936Y-75929095D01*
X166839904Y-76018063D01*
X166952941Y-76073322D01*
X167026221Y-76083999D01*
X167347500Y-76083999D01*
X167601500Y-76083999D01*
X167922778Y-76083999D01*
X167996056Y-76073323D01*
X167996060Y-76073321D01*
X168109095Y-76018063D01*
X168198063Y-75929095D01*
X168253322Y-75816058D01*
X168264000Y-75742778D01*
X168264000Y-75184000D01*
X167601500Y-75184000D01*
X167601500Y-76083999D01*
X167347500Y-76083999D01*
X167347500Y-75184000D01*
X166685001Y-75184000D01*
X166685001Y-75742777D01*
X165862000Y-75742777D01*
X165862000Y-74371221D01*
X166685000Y-74371221D01*
X166685000Y-74930000D01*
X167347500Y-74930000D01*
X167601500Y-74930000D01*
X168263999Y-74930000D01*
X168263999Y-74371222D01*
X168253323Y-74297943D01*
X168253321Y-74297939D01*
X168198063Y-74184904D01*
X168109095Y-74095936D01*
X167996058Y-74040677D01*
X167922778Y-74030000D01*
X167601500Y-74030000D01*
X167601500Y-74930000D01*
X167347500Y-74930000D01*
X167347500Y-74030000D01*
X167026222Y-74030000D01*
X166952943Y-74040676D01*
X166952939Y-74040678D01*
X166839904Y-74095936D01*
X166750936Y-74184904D01*
X166695677Y-74297941D01*
X166685000Y-74371221D01*
X165862000Y-74371221D01*
X165862000Y-73431888D01*
X165880306Y-73387694D01*
X166097694Y-73170306D01*
X166141888Y-73152000D01*
X168249112Y-73152000D01*
X168293306Y-73170306D01*
G37*
G04 #@! TD.AperFunction*
G04 #@! TD*
G04 #@! TA.AperFunction,Conductor*
G04 #@! TO.N,+24V*
G36*
X175913306Y-94379306D02*
G01*
X176130694Y-94596694D01*
X176149000Y-94640888D01*
X176149000Y-97383112D01*
X176130694Y-97427306D01*
X175913306Y-97644694D01*
X175869112Y-97663000D01*
X173126888Y-97663000D01*
X173082694Y-97644694D01*
X172865306Y-97427306D01*
X172847000Y-97383112D01*
X172847000Y-94640888D01*
X172865306Y-94596694D01*
X173082694Y-94379306D01*
X173126888Y-94361000D01*
X175869112Y-94361000D01*
X175913306Y-94379306D01*
G37*
G04 #@! TD.AperFunction*
G04 #@! TD*
M02*
