G04 #@! TF.GenerationSoftware,KiCad,Pcbnew,8.0.6*
G04 #@! TF.CreationDate,2024-12-01T22:00:57+01:00*
G04 #@! TF.ProjectId,UCC25800,55434332-3538-4303-902e-6b696361645f,rev?*
G04 #@! TF.SameCoordinates,Original*
G04 #@! TF.FileFunction,Paste,Top*
G04 #@! TF.FilePolarity,Positive*
%FSLAX46Y46*%
G04 Gerber Fmt 4.6, Leading zero omitted, Abs format (unit mm)*
G04 Created by KiCad (PCBNEW 8.0.6) date 2024-12-01 22:00:57*
%MOMM*%
%LPD*%
G01*
G04 APERTURE LIST*
G04 Aperture macros list*
%AMRoundRect*
0 Rectangle with rounded corners*
0 $1 Rounding radius*
0 $2 $3 $4 $5 $6 $7 $8 $9 X,Y pos of 4 corners*
0 Add a 4 corners polygon primitive as box body*
4,1,4,$2,$3,$4,$5,$6,$7,$8,$9,$2,$3,0*
0 Add four circle primitives for the rounded corners*
1,1,$1+$1,$2,$3*
1,1,$1+$1,$4,$5*
1,1,$1+$1,$6,$7*
1,1,$1+$1,$8,$9*
0 Add four rect primitives between the rounded corners*
20,1,$1+$1,$2,$3,$4,$5,0*
20,1,$1+$1,$4,$5,$6,$7,0*
20,1,$1+$1,$6,$7,$8,$9,0*
20,1,$1+$1,$8,$9,$2,$3,0*%
G04 Aperture macros list end*
%ADD10RoundRect,0.237500X0.250000X0.237500X-0.250000X0.237500X-0.250000X-0.237500X0.250000X-0.237500X0*%
%ADD11RoundRect,0.162500X-0.162500X0.837500X-0.162500X-0.837500X0.162500X-0.837500X0.162500X0.837500X0*%
%ADD12RoundRect,0.375000X-0.625000X-0.375000X0.625000X-0.375000X0.625000X0.375000X-0.625000X0.375000X0*%
%ADD13RoundRect,0.500000X-0.500000X-1.400000X0.500000X-1.400000X0.500000X1.400000X-0.500000X1.400000X0*%
%ADD14R,3.600000X1.400000*%
%ADD15R,1.400000X3.600000*%
%ADD16RoundRect,0.250000X0.800000X-0.450000X0.800000X0.450000X-0.800000X0.450000X-0.800000X-0.450000X0*%
%ADD17RoundRect,0.250000X-0.412500X-1.100000X0.412500X-1.100000X0.412500X1.100000X-0.412500X1.100000X0*%
%ADD18RoundRect,0.237500X-0.250000X-0.237500X0.250000X-0.237500X0.250000X0.237500X-0.250000X0.237500X0*%
%ADD19RoundRect,0.237500X0.300000X0.237500X-0.300000X0.237500X-0.300000X-0.237500X0.300000X-0.237500X0*%
%ADD20RoundRect,0.237500X0.237500X-0.250000X0.237500X0.250000X-0.237500X0.250000X-0.237500X-0.250000X0*%
%ADD21RoundRect,0.250000X0.412500X1.100000X-0.412500X1.100000X-0.412500X-1.100000X0.412500X-1.100000X0*%
%ADD22RoundRect,0.250000X0.475000X-0.337500X0.475000X0.337500X-0.475000X0.337500X-0.475000X-0.337500X0*%
%ADD23RoundRect,0.250000X0.650000X-1.000000X0.650000X1.000000X-0.650000X1.000000X-0.650000X-1.000000X0*%
%ADD24RoundRect,0.100000X0.300000X0.100000X-0.300000X0.100000X-0.300000X-0.100000X0.300000X-0.100000X0*%
%ADD25RoundRect,0.250000X0.450000X-0.350000X0.450000X0.350000X-0.450000X0.350000X-0.450000X-0.350000X0*%
%ADD26RoundRect,0.250000X-0.350000X-0.450000X0.350000X-0.450000X0.350000X0.450000X-0.350000X0.450000X0*%
%ADD27RoundRect,0.250000X1.100000X-0.412500X1.100000X0.412500X-1.100000X0.412500X-1.100000X-0.412500X0*%
%ADD28RoundRect,0.237500X-0.287500X-0.237500X0.287500X-0.237500X0.287500X0.237500X-0.287500X0.237500X0*%
%ADD29RoundRect,0.375000X0.375000X-0.625000X0.375000X0.625000X-0.375000X0.625000X-0.375000X-0.625000X0*%
%ADD30RoundRect,0.500000X1.400000X-0.500000X1.400000X0.500000X-1.400000X0.500000X-1.400000X-0.500000X0*%
%ADD31RoundRect,0.250000X-0.475000X0.337500X-0.475000X-0.337500X0.475000X-0.337500X0.475000X0.337500X0*%
%ADD32RoundRect,0.225000X0.375000X-0.225000X0.375000X0.225000X-0.375000X0.225000X-0.375000X-0.225000X0*%
%ADD33RoundRect,0.237500X-0.237500X0.300000X-0.237500X-0.300000X0.237500X-0.300000X0.237500X0.300000X0*%
%ADD34RoundRect,0.157500X-0.157500X-0.222500X0.157500X-0.222500X0.157500X0.222500X-0.157500X0.222500X0*%
%ADD35RoundRect,0.125000X-0.600000X-0.125000X0.600000X-0.125000X0.600000X0.125000X-0.600000X0.125000X0*%
%ADD36RoundRect,0.300000X1.200000X-0.300000X1.200000X0.300000X-1.200000X0.300000X-1.200000X-0.300000X0*%
%ADD37RoundRect,0.237500X-0.237500X0.250000X-0.237500X-0.250000X0.237500X-0.250000X0.237500X0.250000X0*%
%ADD38RoundRect,0.250000X-1.750000X-1.000000X1.750000X-1.000000X1.750000X1.000000X-1.750000X1.000000X0*%
G04 APERTURE END LIST*
D10*
G04 #@! TO.C,R15*
X162583500Y-101600000D03*
X160758500Y-101600000D03*
G04 #@! TD*
D11*
G04 #@! TO.C,U2*
X162621000Y-105478000D03*
X161671000Y-105478000D03*
X160721000Y-105478000D03*
X160721000Y-108898000D03*
X161671000Y-108898000D03*
X162621000Y-108898000D03*
G04 #@! TD*
D10*
G04 #@! TO.C,R19*
X177277000Y-100203000D03*
X175452000Y-100203000D03*
G04 #@! TD*
D12*
G04 #@! TO.C,U5*
X175920000Y-102475000D03*
X175920000Y-104775000D03*
D13*
X182220000Y-104775000D03*
D12*
X175920000Y-107075000D03*
G04 #@! TD*
D14*
G04 #@! TO.C,L2*
X169037000Y-78857000D03*
D15*
X172837000Y-75057000D03*
D14*
X169037000Y-71257000D03*
D15*
X165237000Y-75057000D03*
G04 #@! TD*
D16*
G04 #@! TO.C,D5*
X176022000Y-77765000D03*
X176022000Y-73365000D03*
G04 #@! TD*
D17*
G04 #@! TO.C,C13*
X170014500Y-81788000D03*
X173139500Y-81788000D03*
G04 #@! TD*
G04 #@! TO.C,C16*
X181063500Y-110871000D03*
X184188500Y-110871000D03*
G04 #@! TD*
D18*
G04 #@! TO.C,R20*
X166346500Y-89281000D03*
X168171500Y-89281000D03*
G04 #@! TD*
D19*
G04 #@! TO.C,C18*
X162533500Y-99949000D03*
X160808500Y-99949000D03*
G04 #@! TD*
D20*
G04 #@! TO.C,R9*
X159131000Y-106830500D03*
X159131000Y-105005500D03*
G04 #@! TD*
D21*
G04 #@! TO.C,C12*
X178600500Y-110871000D03*
X175475500Y-110871000D03*
G04 #@! TD*
D10*
G04 #@! TO.C,R6*
X141628500Y-97790000D03*
X139803500Y-97790000D03*
G04 #@! TD*
D18*
G04 #@! TO.C,R16*
X161012500Y-70104000D03*
X162837500Y-70104000D03*
G04 #@! TD*
D22*
G04 #@! TO.C,C9*
X160782000Y-94509500D03*
X160782000Y-92434500D03*
G04 #@! TD*
D23*
G04 #@! TO.C,D3*
X175514000Y-92932000D03*
X175514000Y-88932000D03*
G04 #@! TD*
D24*
G04 #@! TO.C,FL1*
X168184000Y-91332000D03*
X168184000Y-90532000D03*
X166334000Y-90532000D03*
X166334000Y-91332000D03*
G04 #@! TD*
D18*
G04 #@! TO.C,R4*
X136374500Y-97790000D03*
X138199500Y-97790000D03*
G04 #@! TD*
D19*
G04 #@! TO.C,C26*
X162787500Y-71628000D03*
X161062500Y-71628000D03*
G04 #@! TD*
G04 #@! TO.C,C23*
X162279500Y-81788000D03*
X160554500Y-81788000D03*
G04 #@! TD*
D22*
G04 #@! TO.C,C14*
X160782000Y-89683500D03*
X160782000Y-87608500D03*
G04 #@! TD*
D11*
G04 #@! TO.C,U4*
X162875000Y-75379000D03*
X161925000Y-75379000D03*
X160975000Y-75379000D03*
X160975000Y-78799000D03*
X161925000Y-78799000D03*
X162875000Y-78799000D03*
G04 #@! TD*
D10*
G04 #@! TO.C,R18*
X180871500Y-79502000D03*
X179046500Y-79502000D03*
G04 #@! TD*
D14*
G04 #@! TO.C,L1*
X169164000Y-107940000D03*
D15*
X172964000Y-104140000D03*
D14*
X169164000Y-100340000D03*
D15*
X165364000Y-104140000D03*
G04 #@! TD*
D18*
G04 #@! TO.C,R14*
X166346500Y-92583000D03*
X168171500Y-92583000D03*
G04 #@! TD*
D10*
G04 #@! TO.C,R13*
X180833000Y-100203000D03*
X179008000Y-100203000D03*
G04 #@! TD*
D25*
G04 #@! TO.C,R8*
X140843000Y-87233000D03*
X140843000Y-85233000D03*
G04 #@! TD*
D26*
G04 #@! TO.C,R2*
X146193000Y-77343000D03*
X148193000Y-77343000D03*
G04 #@! TD*
D27*
G04 #@! TO.C,C27*
X163703000Y-92494500D03*
X163703000Y-89369500D03*
G04 #@! TD*
D17*
G04 #@! TO.C,C19*
X170141500Y-110871000D03*
X173266500Y-110871000D03*
G04 #@! TD*
D21*
G04 #@! TO.C,C20*
X168059500Y-81788000D03*
X164934500Y-81788000D03*
G04 #@! TD*
D28*
G04 #@! TO.C,L3*
X129046000Y-77343000D03*
X130796000Y-77343000D03*
G04 #@! TD*
D10*
G04 #@! TO.C,R10*
X162837500Y-73152000D03*
X161012500Y-73152000D03*
G04 #@! TD*
D17*
G04 #@! TO.C,C24*
X170014500Y-68453000D03*
X173139500Y-68453000D03*
G04 #@! TD*
D25*
G04 #@! TO.C,R7*
X140843000Y-91043000D03*
X140843000Y-89043000D03*
G04 #@! TD*
D29*
G04 #@! TO.C,U6*
X179437000Y-76175000D03*
X181737000Y-76175000D03*
D30*
X181737000Y-69875000D03*
D29*
X184037000Y-76175000D03*
G04 #@! TD*
D19*
G04 #@! TO.C,C15*
X162406500Y-112014000D03*
X160681500Y-112014000D03*
G04 #@! TD*
D21*
G04 #@! TO.C,C1*
X126784500Y-78486000D03*
X123659500Y-78486000D03*
G04 #@! TD*
D27*
G04 #@! TO.C,C25*
X187198000Y-76111500D03*
X187198000Y-72986500D03*
G04 #@! TD*
D17*
G04 #@! TO.C,C17*
X184492500Y-104775000D03*
X187617500Y-104775000D03*
G04 #@! TD*
D10*
G04 #@! TO.C,R17*
X184300500Y-79502000D03*
X182475500Y-79502000D03*
G04 #@! TD*
D31*
G04 #@! TO.C,C6*
X143256000Y-93831500D03*
X143256000Y-95906500D03*
G04 #@! TD*
D32*
G04 #@! TO.C,D1*
X158115000Y-95630000D03*
X158115000Y-92330000D03*
G04 #@! TD*
D20*
G04 #@! TO.C,R22*
X159385000Y-76477500D03*
X159385000Y-74652500D03*
G04 #@! TD*
D33*
G04 #@! TO.C,C5*
X133350000Y-95657500D03*
X133350000Y-97382500D03*
G04 #@! TD*
D34*
G04 #@! TO.C,U1*
X138548000Y-94653000D03*
X138548000Y-95593000D03*
X139328000Y-94653000D03*
X139328000Y-95593000D03*
D35*
X136788000Y-94148000D03*
X136788000Y-94798000D03*
X136788000Y-95448000D03*
X136788000Y-96098000D03*
X141088000Y-96098000D03*
X141088000Y-95448000D03*
X141088000Y-94798000D03*
X141088000Y-94148000D03*
G04 #@! TD*
D21*
G04 #@! TO.C,C10*
X168059500Y-68453000D03*
X164934500Y-68453000D03*
G04 #@! TD*
G04 #@! TO.C,C11*
X168186500Y-110871000D03*
X165061500Y-110871000D03*
G04 #@! TD*
D18*
G04 #@! TO.C,R5*
X133199500Y-94107000D03*
X135024500Y-94107000D03*
G04 #@! TD*
D27*
G04 #@! TO.C,C28*
X171704000Y-92494500D03*
X171704000Y-89369500D03*
G04 #@! TD*
D18*
G04 #@! TO.C,R1*
X129008500Y-79629000D03*
X130833500Y-79629000D03*
G04 #@! TD*
D20*
G04 #@! TO.C,R12*
X159131000Y-110259500D03*
X159131000Y-108434500D03*
G04 #@! TD*
D21*
G04 #@! TO.C,C3*
X137706500Y-86614000D03*
X134581500Y-86614000D03*
G04 #@! TD*
D36*
G04 #@! TO.C,T1*
X146277000Y-94682000D03*
X146277000Y-92182000D03*
X146277000Y-89682000D03*
X146277000Y-87182000D03*
X154962000Y-87182000D03*
X154967000Y-89682000D03*
X154967000Y-92182000D03*
X154967000Y-94682000D03*
G04 #@! TD*
D18*
G04 #@! TO.C,R11*
X160758500Y-103251000D03*
X162583500Y-103251000D03*
G04 #@! TD*
D37*
G04 #@! TO.C,R3*
X134874000Y-95607500D03*
X134874000Y-97432500D03*
G04 #@! TD*
D20*
G04 #@! TO.C,R21*
X159385000Y-80033500D03*
X159385000Y-78208500D03*
G04 #@! TD*
D22*
G04 #@! TO.C,C8*
X142875000Y-87270500D03*
X142875000Y-85195500D03*
G04 #@! TD*
D21*
G04 #@! TO.C,C4*
X137706500Y-90170000D03*
X134581500Y-90170000D03*
G04 #@! TD*
D32*
G04 #@! TO.C,D2*
X158115000Y-89661000D03*
X158115000Y-86361000D03*
G04 #@! TD*
D38*
G04 #@! TO.C,C2*
X134811000Y-77343000D03*
X142811000Y-77343000D03*
G04 #@! TD*
D22*
G04 #@! TO.C,C7*
X142875000Y-91080500D03*
X142875000Y-89005500D03*
G04 #@! TD*
M02*
