G04 #@! TF.GenerationSoftware,KiCad,Pcbnew,8.0.6*
G04 #@! TF.CreationDate,2024-12-01T22:00:57+01:00*
G04 #@! TF.ProjectId,UCC25800,55434332-3538-4303-902e-6b696361645f,rev?*
G04 #@! TF.SameCoordinates,Original*
G04 #@! TF.FileFunction,Copper,L1,Top*
G04 #@! TF.FilePolarity,Positive*
%FSLAX46Y46*%
G04 Gerber Fmt 4.6, Leading zero omitted, Abs format (unit mm)*
G04 Created by KiCad (PCBNEW 8.0.6) date 2024-12-01 22:00:57*
%MOMM*%
%LPD*%
G01*
G04 APERTURE LIST*
G04 Aperture macros list*
%AMRoundRect*
0 Rectangle with rounded corners*
0 $1 Rounding radius*
0 $2 $3 $4 $5 $6 $7 $8 $9 X,Y pos of 4 corners*
0 Add a 4 corners polygon primitive as box body*
4,1,4,$2,$3,$4,$5,$6,$7,$8,$9,$2,$3,0*
0 Add four circle primitives for the rounded corners*
1,1,$1+$1,$2,$3*
1,1,$1+$1,$4,$5*
1,1,$1+$1,$6,$7*
1,1,$1+$1,$8,$9*
0 Add four rect primitives between the rounded corners*
20,1,$1+$1,$2,$3,$4,$5,0*
20,1,$1+$1,$4,$5,$6,$7,0*
20,1,$1+$1,$6,$7,$8,$9,0*
20,1,$1+$1,$8,$9,$2,$3,0*%
G04 Aperture macros list end*
G04 #@! TA.AperFunction,NonConductor*
%ADD10C,0.200000*%
G04 #@! TD*
%ADD11C,0.300000*%
G04 #@! TA.AperFunction,NonConductor*
%ADD12C,0.300000*%
G04 #@! TD*
G04 #@! TA.AperFunction,SMDPad,CuDef*
%ADD13RoundRect,0.237500X0.250000X0.237500X-0.250000X0.237500X-0.250000X-0.237500X0.250000X-0.237500X0*%
G04 #@! TD*
G04 #@! TA.AperFunction,SMDPad,CuDef*
%ADD14RoundRect,0.162500X-0.162500X0.837500X-0.162500X-0.837500X0.162500X-0.837500X0.162500X0.837500X0*%
G04 #@! TD*
G04 #@! TA.AperFunction,SMDPad,CuDef*
%ADD15RoundRect,0.375000X-0.625000X-0.375000X0.625000X-0.375000X0.625000X0.375000X-0.625000X0.375000X0*%
G04 #@! TD*
G04 #@! TA.AperFunction,SMDPad,CuDef*
%ADD16RoundRect,0.500000X-0.500000X-1.400000X0.500000X-1.400000X0.500000X1.400000X-0.500000X1.400000X0*%
G04 #@! TD*
G04 #@! TA.AperFunction,SMDPad,CuDef*
%ADD17R,3.600000X1.400000*%
G04 #@! TD*
G04 #@! TA.AperFunction,SMDPad,CuDef*
%ADD18R,1.400000X3.600000*%
G04 #@! TD*
G04 #@! TA.AperFunction,SMDPad,CuDef*
%ADD19RoundRect,0.250000X0.800000X-0.450000X0.800000X0.450000X-0.800000X0.450000X-0.800000X-0.450000X0*%
G04 #@! TD*
G04 #@! TA.AperFunction,SMDPad,CuDef*
%ADD20RoundRect,0.250000X-0.412500X-1.100000X0.412500X-1.100000X0.412500X1.100000X-0.412500X1.100000X0*%
G04 #@! TD*
G04 #@! TA.AperFunction,SMDPad,CuDef*
%ADD21RoundRect,0.237500X-0.250000X-0.237500X0.250000X-0.237500X0.250000X0.237500X-0.250000X0.237500X0*%
G04 #@! TD*
G04 #@! TA.AperFunction,SMDPad,CuDef*
%ADD22RoundRect,0.237500X0.300000X0.237500X-0.300000X0.237500X-0.300000X-0.237500X0.300000X-0.237500X0*%
G04 #@! TD*
G04 #@! TA.AperFunction,SMDPad,CuDef*
%ADD23RoundRect,0.237500X0.237500X-0.250000X0.237500X0.250000X-0.237500X0.250000X-0.237500X-0.250000X0*%
G04 #@! TD*
G04 #@! TA.AperFunction,SMDPad,CuDef*
%ADD24RoundRect,0.250000X0.412500X1.100000X-0.412500X1.100000X-0.412500X-1.100000X0.412500X-1.100000X0*%
G04 #@! TD*
G04 #@! TA.AperFunction,ComponentPad*
%ADD25C,2.800000*%
G04 #@! TD*
G04 #@! TA.AperFunction,SMDPad,CuDef*
%ADD26RoundRect,0.250000X0.475000X-0.337500X0.475000X0.337500X-0.475000X0.337500X-0.475000X-0.337500X0*%
G04 #@! TD*
G04 #@! TA.AperFunction,SMDPad,CuDef*
%ADD27RoundRect,0.250000X0.650000X-1.000000X0.650000X1.000000X-0.650000X1.000000X-0.650000X-1.000000X0*%
G04 #@! TD*
G04 #@! TA.AperFunction,SMDPad,CuDef*
%ADD28RoundRect,0.100000X0.300000X0.100000X-0.300000X0.100000X-0.300000X-0.100000X0.300000X-0.100000X0*%
G04 #@! TD*
G04 #@! TA.AperFunction,ComponentPad*
%ADD29R,2.600000X2.600000*%
G04 #@! TD*
G04 #@! TA.AperFunction,ComponentPad*
%ADD30C,2.600000*%
G04 #@! TD*
G04 #@! TA.AperFunction,SMDPad,CuDef*
%ADD31RoundRect,0.250000X0.450000X-0.350000X0.450000X0.350000X-0.450000X0.350000X-0.450000X-0.350000X0*%
G04 #@! TD*
G04 #@! TA.AperFunction,SMDPad,CuDef*
%ADD32RoundRect,0.250000X-0.350000X-0.450000X0.350000X-0.450000X0.350000X0.450000X-0.350000X0.450000X0*%
G04 #@! TD*
G04 #@! TA.AperFunction,SMDPad,CuDef*
%ADD33RoundRect,0.250000X1.100000X-0.412500X1.100000X0.412500X-1.100000X0.412500X-1.100000X-0.412500X0*%
G04 #@! TD*
G04 #@! TA.AperFunction,SMDPad,CuDef*
%ADD34RoundRect,0.237500X-0.287500X-0.237500X0.287500X-0.237500X0.287500X0.237500X-0.287500X0.237500X0*%
G04 #@! TD*
G04 #@! TA.AperFunction,SMDPad,CuDef*
%ADD35RoundRect,0.375000X0.375000X-0.625000X0.375000X0.625000X-0.375000X0.625000X-0.375000X-0.625000X0*%
G04 #@! TD*
G04 #@! TA.AperFunction,SMDPad,CuDef*
%ADD36RoundRect,0.500000X1.400000X-0.500000X1.400000X0.500000X-1.400000X0.500000X-1.400000X-0.500000X0*%
G04 #@! TD*
G04 #@! TA.AperFunction,SMDPad,CuDef*
%ADD37RoundRect,0.250000X-0.475000X0.337500X-0.475000X-0.337500X0.475000X-0.337500X0.475000X0.337500X0*%
G04 #@! TD*
G04 #@! TA.AperFunction,SMDPad,CuDef*
%ADD38RoundRect,0.225000X0.375000X-0.225000X0.375000X0.225000X-0.375000X0.225000X-0.375000X-0.225000X0*%
G04 #@! TD*
G04 #@! TA.AperFunction,SMDPad,CuDef*
%ADD39RoundRect,0.237500X-0.237500X0.300000X-0.237500X-0.300000X0.237500X-0.300000X0.237500X0.300000X0*%
G04 #@! TD*
G04 #@! TA.AperFunction,SMDPad,CuDef*
%ADD40RoundRect,0.125000X-0.600000X-0.125000X0.600000X-0.125000X0.600000X0.125000X-0.600000X0.125000X0*%
G04 #@! TD*
G04 #@! TA.AperFunction,HeatsinkPad*
%ADD41C,0.600000*%
G04 #@! TD*
G04 #@! TA.AperFunction,HeatsinkPad*
%ADD42R,1.570000X1.890000*%
G04 #@! TD*
G04 #@! TA.AperFunction,SMDPad,CuDef*
%ADD43RoundRect,0.300000X1.200000X-0.300000X1.200000X0.300000X-1.200000X0.300000X-1.200000X-0.300000X0*%
G04 #@! TD*
G04 #@! TA.AperFunction,SMDPad,CuDef*
%ADD44RoundRect,0.237500X-0.237500X0.250000X-0.237500X-0.250000X0.237500X-0.250000X0.237500X0.250000X0*%
G04 #@! TD*
G04 #@! TA.AperFunction,SMDPad,CuDef*
%ADD45RoundRect,0.250000X-1.750000X-1.000000X1.750000X-1.000000X1.750000X1.000000X-1.750000X1.000000X0*%
G04 #@! TD*
G04 #@! TA.AperFunction,ViaPad*
%ADD46C,0.600000*%
G04 #@! TD*
G04 #@! TA.AperFunction,Conductor*
%ADD47C,0.762000*%
G04 #@! TD*
G04 #@! TA.AperFunction,Conductor*
%ADD48C,0.508000*%
G04 #@! TD*
G04 #@! TA.AperFunction,Conductor*
%ADD49C,0.254000*%
G04 #@! TD*
G04 #@! TA.AperFunction,Conductor*
%ADD50C,1.270000*%
G04 #@! TD*
G04 #@! TA.AperFunction,Conductor*
%ADD51C,0.889000*%
G04 #@! TD*
G04 #@! TA.AperFunction,Conductor*
%ADD52C,0.635000*%
G04 #@! TD*
G04 #@! TA.AperFunction,Conductor*
%ADD53C,1.143000*%
G04 #@! TD*
G04 #@! TA.AperFunction,Conductor*
%ADD54C,0.375000*%
G04 #@! TD*
G04 APERTURE END LIST*
D10*
X135890000Y-115570000D02*
X138430000Y-115570000D01*
X138430000Y-118110000D01*
X135890000Y-118110000D01*
X135890000Y-115570000D01*
X130810000Y-115570000D02*
X133350000Y-115570000D01*
X133350000Y-118110000D01*
X130810000Y-118110000D01*
X130810000Y-115570000D01*
X138430000Y-115570000D02*
X140970000Y-115570000D01*
X140970000Y-118110000D01*
X138430000Y-118110000D01*
X138430000Y-115570000D01*
X133350000Y-115570000D02*
X135890000Y-115570000D01*
X135890000Y-118110000D01*
X133350000Y-118110000D01*
X133350000Y-115570000D01*
D11*
D12*
X132607425Y-117606028D02*
X131750282Y-117606028D01*
X132178853Y-117606028D02*
X132178853Y-116106028D01*
X132178853Y-116106028D02*
X132035996Y-116320314D01*
X132035996Y-116320314D02*
X131893139Y-116463171D01*
X131893139Y-116463171D02*
X131750282Y-116534600D01*
D13*
G04 #@! TO.P,R15,1*
G04 #@! TO.N,Net-(D4-K)*
X162583500Y-101600000D03*
G04 #@! TO.P,R15,2*
G04 #@! TO.N,Net-(U2-FBX)*
X160758500Y-101600000D03*
G04 #@! TD*
D14*
G04 #@! TO.P,U2,1,SW*
G04 #@! TO.N,Net-(U2-SW)*
X162621000Y-105478000D03*
G04 #@! TO.P,U2,2,GND*
G04 #@! TO.N,GND*
X161671000Y-105478000D03*
G04 #@! TO.P,U2,3,FBX*
G04 #@! TO.N,Net-(U2-FBX)*
X160721000Y-105478000D03*
G04 #@! TO.P,U2,4,EN/UVLO*
G04 #@! TO.N,Net-(U2-EN{slash}UVLO)*
X160721000Y-108898000D03*
G04 #@! TO.P,U2,5,INTVCC*
G04 #@! TO.N,Net-(U2-INTVCC)*
X161671000Y-108898000D03*
G04 #@! TO.P,U2,6,VIN*
G04 #@! TO.N,+24V*
X162621000Y-108898000D03*
G04 #@! TD*
D13*
G04 #@! TO.P,R19,1*
G04 #@! TO.N,Net-(U5-ADJ)*
X177277000Y-100203000D03*
G04 #@! TO.P,R19,2*
G04 #@! TO.N,GND*
X175452000Y-100203000D03*
G04 #@! TD*
D15*
G04 #@! TO.P,U5,1,ADJ*
G04 #@! TO.N,Net-(U5-ADJ)*
X175920000Y-102475000D03*
G04 #@! TO.P,U5,2,VO*
G04 #@! TO.N,+18V*
X175920000Y-104775000D03*
D16*
X182220000Y-104775000D03*
D15*
G04 #@! TO.P,U5,3,VI*
G04 #@! TO.N,Net-(D4-K)*
X175920000Y-107075000D03*
G04 #@! TD*
D17*
G04 #@! TO.P,L2,1*
G04 #@! TO.N,+24V*
X169037000Y-78857000D03*
D18*
G04 #@! TO.P,L2,2*
G04 #@! TO.N,Net-(D5-A)*
X172837000Y-75057000D03*
D17*
G04 #@! TO.P,L2,3*
G04 #@! TO.N,Net-(U6-VI)*
X169037000Y-71257000D03*
D18*
G04 #@! TO.P,L2,4*
G04 #@! TO.N,Net-(U4-SW)*
X165237000Y-75057000D03*
G04 #@! TD*
D19*
G04 #@! TO.P,D5,1,K*
G04 #@! TO.N,GND*
X176022000Y-77765000D03*
G04 #@! TO.P,D5,2,A*
G04 #@! TO.N,Net-(D5-A)*
X176022000Y-73365000D03*
G04 #@! TD*
D20*
G04 #@! TO.P,C13,1*
G04 #@! TO.N,+24V*
X170014500Y-81788000D03*
G04 #@! TO.P,C13,2*
G04 #@! TO.N,GND*
X173139500Y-81788000D03*
G04 #@! TD*
G04 #@! TO.P,C16,1*
G04 #@! TO.N,Net-(D4-K)*
X181063500Y-110871000D03*
G04 #@! TO.P,C16,2*
G04 #@! TO.N,GND*
X184188500Y-110871000D03*
G04 #@! TD*
D21*
G04 #@! TO.P,R20,1*
G04 #@! TO.N,Net-(D2-A)*
X166346500Y-89281000D03*
G04 #@! TO.P,R20,2*
G04 #@! TO.N,GND*
X168171500Y-89281000D03*
G04 #@! TD*
D22*
G04 #@! TO.P,C18,1*
G04 #@! TO.N,Net-(D4-K)*
X162533500Y-99949000D03*
G04 #@! TO.P,C18,2*
G04 #@! TO.N,Net-(U2-FBX)*
X160808500Y-99949000D03*
G04 #@! TD*
D23*
G04 #@! TO.P,R9,1*
G04 #@! TO.N,Net-(U2-EN{slash}UVLO)*
X159131000Y-106830500D03*
G04 #@! TO.P,R9,2*
G04 #@! TO.N,GND*
X159131000Y-105005500D03*
G04 #@! TD*
D24*
G04 #@! TO.P,C12,1*
G04 #@! TO.N,Net-(D4-K)*
X178600500Y-110871000D03*
G04 #@! TO.P,C12,2*
G04 #@! TO.N,GND*
X175475500Y-110871000D03*
G04 #@! TD*
D13*
G04 #@! TO.P,R6,1*
G04 #@! TO.N,Net-(U1-RT)*
X141628500Y-97790000D03*
G04 #@! TO.P,R6,2*
G04 #@! TO.N,GNDS*
X139803500Y-97790000D03*
G04 #@! TD*
D25*
G04 #@! TO.P,TP4,1,1*
G04 #@! TO.N,GND*
X160020000Y-64516000D03*
G04 #@! TD*
D21*
G04 #@! TO.P,R16,1*
G04 #@! TO.N,Net-(U4-FBX)*
X161012500Y-70104000D03*
G04 #@! TO.P,R16,2*
G04 #@! TO.N,GND*
X162837500Y-70104000D03*
G04 #@! TD*
D26*
G04 #@! TO.P,C9,1*
G04 #@! TO.N,Net-(D1-K)*
X160782000Y-94509500D03*
G04 #@! TO.P,C9,2*
G04 #@! TO.N,Net-(T1-SB)*
X160782000Y-92434500D03*
G04 #@! TD*
D27*
G04 #@! TO.P,D3,1,K*
G04 #@! TO.N,+24V*
X175514000Y-92932000D03*
G04 #@! TO.P,D3,2,A*
G04 #@! TO.N,GND*
X175514000Y-88932000D03*
G04 #@! TD*
D25*
G04 #@! TO.P,TP3,1,1*
G04 #@! TO.N,+24V*
X169926000Y-95885000D03*
G04 #@! TD*
D28*
G04 #@! TO.P,FL1,1,1*
G04 #@! TO.N,+24V*
X168184000Y-91332000D03*
G04 #@! TO.P,FL1,2,2*
G04 #@! TO.N,GND*
X168184000Y-90532000D03*
G04 #@! TO.P,FL1,3,3*
G04 #@! TO.N,Net-(D2-A)*
X166334000Y-90532000D03*
G04 #@! TO.P,FL1,4,4*
G04 #@! TO.N,Net-(D1-K)*
X166334000Y-91332000D03*
G04 #@! TD*
D21*
G04 #@! TO.P,R4,1*
G04 #@! TO.N,Net-(U1-OC{slash}DT)*
X136374500Y-97790000D03*
G04 #@! TO.P,R4,2*
G04 #@! TO.N,GNDS*
X138199500Y-97790000D03*
G04 #@! TD*
D22*
G04 #@! TO.P,C26,1*
G04 #@! TO.N,Net-(U6-VI)*
X162787500Y-71628000D03*
G04 #@! TO.P,C26,2*
G04 #@! TO.N,Net-(U4-FBX)*
X161062500Y-71628000D03*
G04 #@! TD*
G04 #@! TO.P,C23,1*
G04 #@! TO.N,Net-(U4-INTVCC)*
X162279500Y-81788000D03*
G04 #@! TO.P,C23,2*
G04 #@! TO.N,GND*
X160554500Y-81788000D03*
G04 #@! TD*
D26*
G04 #@! TO.P,C14,1*
G04 #@! TO.N,Net-(T1-SB)*
X160782000Y-89683500D03*
G04 #@! TO.P,C14,2*
G04 #@! TO.N,Net-(D2-A)*
X160782000Y-87608500D03*
G04 #@! TD*
D14*
G04 #@! TO.P,U4,1,SW*
G04 #@! TO.N,Net-(U4-SW)*
X162875000Y-75379000D03*
G04 #@! TO.P,U4,2,GND*
G04 #@! TO.N,GND*
X161925000Y-75379000D03*
G04 #@! TO.P,U4,3,FBX*
G04 #@! TO.N,Net-(U4-FBX)*
X160975000Y-75379000D03*
G04 #@! TO.P,U4,4,EN/UVLO*
G04 #@! TO.N,Net-(U4-EN{slash}UVLO)*
X160975000Y-78799000D03*
G04 #@! TO.P,U4,5,INTVCC*
G04 #@! TO.N,Net-(U4-INTVCC)*
X161925000Y-78799000D03*
G04 #@! TO.P,U4,6,VIN*
G04 #@! TO.N,+24V*
X162875000Y-78799000D03*
G04 #@! TD*
D13*
G04 #@! TO.P,R18,1*
G04 #@! TO.N,Net-(U6-ADJ)*
X180871500Y-79502000D03*
G04 #@! TO.P,R18,2*
G04 #@! TO.N,GND*
X179046500Y-79502000D03*
G04 #@! TD*
D17*
G04 #@! TO.P,L1,1*
G04 #@! TO.N,+24V*
X169164000Y-107940000D03*
D18*
G04 #@! TO.P,L1,2*
G04 #@! TO.N,Net-(D4-A)*
X172964000Y-104140000D03*
D17*
G04 #@! TO.P,L1,3*
G04 #@! TO.N,GND*
X169164000Y-100340000D03*
D18*
G04 #@! TO.P,L1,4*
G04 #@! TO.N,Net-(U2-SW)*
X165364000Y-104140000D03*
G04 #@! TD*
D29*
G04 #@! TO.P,J1,1,Pin_1*
G04 #@! TO.N,Net-(J1-Pin_1)*
X125298000Y-87500000D03*
D30*
G04 #@! TO.P,J1,2,Pin_2*
G04 #@! TO.N,GNDS*
X125298000Y-92500000D03*
G04 #@! TD*
D21*
G04 #@! TO.P,R14,1*
G04 #@! TO.N,Net-(D1-K)*
X166346500Y-92583000D03*
G04 #@! TO.P,R14,2*
G04 #@! TO.N,+24V*
X168171500Y-92583000D03*
G04 #@! TD*
D13*
G04 #@! TO.P,R13,1*
G04 #@! TO.N,+18V*
X180833000Y-100203000D03*
G04 #@! TO.P,R13,2*
G04 #@! TO.N,Net-(U5-ADJ)*
X179008000Y-100203000D03*
G04 #@! TD*
D31*
G04 #@! TO.P,R8,1*
G04 #@! TO.N,Net-(T1-AB)*
X140843000Y-87233000D03*
G04 #@! TO.P,R8,2*
G04 #@! TO.N,GNDS*
X140843000Y-85233000D03*
G04 #@! TD*
D32*
G04 #@! TO.P,R2,1*
G04 #@! TO.N,Net-(C2-Pad2)*
X146193000Y-77343000D03*
G04 #@! TO.P,R2,2*
G04 #@! TO.N,GNDS*
X148193000Y-77343000D03*
G04 #@! TD*
D33*
G04 #@! TO.P,C27,1*
G04 #@! TO.N,Net-(D1-K)*
X163703000Y-92494500D03*
G04 #@! TO.P,C27,2*
G04 #@! TO.N,Net-(D2-A)*
X163703000Y-89369500D03*
G04 #@! TD*
D29*
G04 #@! TO.P,J2,1,Pin_1*
G04 #@! TO.N,+18V*
X184658000Y-95080000D03*
D30*
G04 #@! TO.P,J2,2,Pin_2*
G04 #@! TO.N,GND*
X184658000Y-90000000D03*
G04 #@! TO.P,J2,3,Pin_3*
G04 #@! TO.N,-18V*
X184658000Y-84920000D03*
G04 #@! TD*
D20*
G04 #@! TO.P,C19,1*
G04 #@! TO.N,+24V*
X170141500Y-110871000D03*
G04 #@! TO.P,C19,2*
G04 #@! TO.N,GND*
X173266500Y-110871000D03*
G04 #@! TD*
D24*
G04 #@! TO.P,C20,1*
G04 #@! TO.N,+24V*
X168059500Y-81788000D03*
G04 #@! TO.P,C20,2*
G04 #@! TO.N,GND*
X164934500Y-81788000D03*
G04 #@! TD*
D34*
G04 #@! TO.P,L3,1*
G04 #@! TO.N,Net-(J1-Pin_1)*
X129046000Y-77343000D03*
G04 #@! TO.P,L3,2*
G04 #@! TO.N,Net-(U1-VCC)*
X130796000Y-77343000D03*
G04 #@! TD*
D13*
G04 #@! TO.P,R10,1*
G04 #@! TO.N,Net-(U6-VI)*
X162837500Y-73152000D03*
G04 #@! TO.P,R10,2*
G04 #@! TO.N,Net-(U4-FBX)*
X161012500Y-73152000D03*
G04 #@! TD*
D20*
G04 #@! TO.P,C24,1*
G04 #@! TO.N,Net-(U6-VI)*
X170014500Y-68453000D03*
G04 #@! TO.P,C24,2*
G04 #@! TO.N,GND*
X173139500Y-68453000D03*
G04 #@! TD*
D31*
G04 #@! TO.P,R7,1*
G04 #@! TO.N,Net-(U1-VCC)*
X140843000Y-91043000D03*
G04 #@! TO.P,R7,2*
G04 #@! TO.N,Net-(T1-AB)*
X140843000Y-89043000D03*
G04 #@! TD*
D35*
G04 #@! TO.P,U6,1,ADJ*
G04 #@! TO.N,Net-(U6-ADJ)*
X179437000Y-76175000D03*
G04 #@! TO.P,U6,2,VI*
G04 #@! TO.N,Net-(U6-VI)*
X181737000Y-76175000D03*
D36*
X181737000Y-69875000D03*
D35*
G04 #@! TO.P,U6,3,VO*
G04 #@! TO.N,-18V*
X184037000Y-76175000D03*
G04 #@! TD*
D22*
G04 #@! TO.P,C15,1*
G04 #@! TO.N,Net-(U2-INTVCC)*
X162406500Y-112014000D03*
G04 #@! TO.P,C15,2*
G04 #@! TO.N,GND*
X160681500Y-112014000D03*
G04 #@! TD*
D25*
G04 #@! TO.P,TP1,1,1*
G04 #@! TO.N,Net-(U1-VCC)*
X133477000Y-66548000D03*
G04 #@! TD*
G04 #@! TO.P,TP2,1,1*
G04 #@! TO.N,GNDS*
X142113000Y-66548000D03*
G04 #@! TD*
D24*
G04 #@! TO.P,C1,1*
G04 #@! TO.N,Net-(J1-Pin_1)*
X126784500Y-78486000D03*
G04 #@! TO.P,C1,2*
G04 #@! TO.N,GNDS*
X123659500Y-78486000D03*
G04 #@! TD*
D33*
G04 #@! TO.P,C25,1*
G04 #@! TO.N,-18V*
X187198000Y-76111500D03*
G04 #@! TO.P,C25,2*
G04 #@! TO.N,GND*
X187198000Y-72986500D03*
G04 #@! TD*
D20*
G04 #@! TO.P,C17,1*
G04 #@! TO.N,+18V*
X184492500Y-104775000D03*
G04 #@! TO.P,C17,2*
G04 #@! TO.N,GND*
X187617500Y-104775000D03*
G04 #@! TD*
D13*
G04 #@! TO.P,R17,1*
G04 #@! TO.N,-18V*
X184300500Y-79502000D03*
G04 #@! TO.P,R17,2*
G04 #@! TO.N,Net-(U6-ADJ)*
X182475500Y-79502000D03*
G04 #@! TD*
D37*
G04 #@! TO.P,C6,1*
G04 #@! TO.N,Net-(U1-VCC)*
X143256000Y-93831500D03*
G04 #@! TO.P,C6,2*
G04 #@! TO.N,GNDS*
X143256000Y-95906500D03*
G04 #@! TD*
D38*
G04 #@! TO.P,D1,1,K*
G04 #@! TO.N,Net-(D1-K)*
X158115000Y-95630000D03*
G04 #@! TO.P,D1,2,A*
G04 #@! TO.N,Net-(D1-A)*
X158115000Y-92330000D03*
G04 #@! TD*
D23*
G04 #@! TO.P,R22,1*
G04 #@! TO.N,Net-(U4-EN{slash}UVLO)*
X159385000Y-76477500D03*
G04 #@! TO.P,R22,2*
G04 #@! TO.N,GND*
X159385000Y-74652500D03*
G04 #@! TD*
D39*
G04 #@! TO.P,C5,1*
G04 #@! TO.N,Net-(U1-VREG)*
X133350000Y-95657500D03*
G04 #@! TO.P,C5,2*
G04 #@! TO.N,GNDS*
X133350000Y-97382500D03*
G04 #@! TD*
D40*
G04 #@! TO.P,U1,1,SYNC*
G04 #@! TO.N,Net-(U1-SYNC)*
X136788000Y-94148000D03*
G04 #@! TO.P,U1,2,~{DIS/FLT}*
G04 #@! TO.N,unconnected-(U1-~{DIS{slash}FLT}-Pad2)*
X136788000Y-94798000D03*
G04 #@! TO.P,U1,3,VREG*
G04 #@! TO.N,Net-(U1-VREG)*
X136788000Y-95448000D03*
G04 #@! TO.P,U1,4,OC/DT*
G04 #@! TO.N,Net-(U1-OC{slash}DT)*
X136788000Y-96098000D03*
G04 #@! TO.P,U1,5,RT*
G04 #@! TO.N,Net-(U1-RT)*
X141088000Y-96098000D03*
G04 #@! TO.P,U1,6,GND*
G04 #@! TO.N,GNDS*
X141088000Y-95448000D03*
G04 #@! TO.P,U1,7,SW*
G04 #@! TO.N,Net-(T1-AA)*
X141088000Y-94798000D03*
G04 #@! TO.P,U1,8,VCC*
G04 #@! TO.N,Net-(U1-VCC)*
X141088000Y-94148000D03*
D41*
G04 #@! TO.P,U1,9,GND*
G04 #@! TO.N,GNDS*
X138453000Y-94478000D03*
X138453000Y-95768000D03*
D42*
X138938000Y-95123000D03*
D41*
X139423000Y-94478000D03*
X139423000Y-95768000D03*
G04 #@! TD*
D24*
G04 #@! TO.P,C10,1*
G04 #@! TO.N,Net-(U6-VI)*
X168059500Y-68453000D03*
G04 #@! TO.P,C10,2*
G04 #@! TO.N,GND*
X164934500Y-68453000D03*
G04 #@! TD*
G04 #@! TO.P,C11,1*
G04 #@! TO.N,+24V*
X168186500Y-110871000D03*
G04 #@! TO.P,C11,2*
G04 #@! TO.N,GND*
X165061500Y-110871000D03*
G04 #@! TD*
D21*
G04 #@! TO.P,R5,1*
G04 #@! TO.N,GNDS*
X133199500Y-94107000D03*
G04 #@! TO.P,R5,2*
G04 #@! TO.N,Net-(U1-SYNC)*
X135024500Y-94107000D03*
G04 #@! TD*
D33*
G04 #@! TO.P,C28,1*
G04 #@! TO.N,+24V*
X171704000Y-92494500D03*
G04 #@! TO.P,C28,2*
G04 #@! TO.N,GND*
X171704000Y-89369500D03*
G04 #@! TD*
D21*
G04 #@! TO.P,R1,1*
G04 #@! TO.N,Net-(J1-Pin_1)*
X129008500Y-79629000D03*
G04 #@! TO.P,R1,2*
G04 #@! TO.N,Net-(U1-VCC)*
X130833500Y-79629000D03*
G04 #@! TD*
D23*
G04 #@! TO.P,R12,1*
G04 #@! TO.N,+24V*
X159131000Y-110259500D03*
G04 #@! TO.P,R12,2*
G04 #@! TO.N,Net-(U2-EN{slash}UVLO)*
X159131000Y-108434500D03*
G04 #@! TD*
D24*
G04 #@! TO.P,C3,1*
G04 #@! TO.N,Net-(U1-VCC)*
X137706500Y-86614000D03*
G04 #@! TO.P,C3,2*
G04 #@! TO.N,GNDS*
X134581500Y-86614000D03*
G04 #@! TD*
D43*
G04 #@! TO.P,T1,1,AA*
G04 #@! TO.N,Net-(T1-AA)*
X146277000Y-94682000D03*
G04 #@! TO.P,T1,2*
G04 #@! TO.N,unconnected-(T1-Pad2)*
X146277000Y-92182000D03*
G04 #@! TO.P,T1,3,AB*
G04 #@! TO.N,Net-(T1-AB)*
X146277000Y-89682000D03*
G04 #@! TO.P,T1,4*
G04 #@! TO.N,unconnected-(T1-Pad4)*
X146277000Y-87182000D03*
G04 #@! TO.P,T1,5*
G04 #@! TO.N,unconnected-(T1-Pad5)*
X154962000Y-87182000D03*
G04 #@! TO.P,T1,6,SA*
G04 #@! TO.N,Net-(D1-A)*
X154967000Y-89682000D03*
G04 #@! TO.P,T1,7*
G04 #@! TO.N,unconnected-(T1-Pad7)*
X154967000Y-92182000D03*
G04 #@! TO.P,T1,8,SB*
G04 #@! TO.N,Net-(T1-SB)*
X154967000Y-94682000D03*
G04 #@! TD*
D21*
G04 #@! TO.P,R11,1*
G04 #@! TO.N,Net-(U2-FBX)*
X160758500Y-103251000D03*
G04 #@! TO.P,R11,2*
G04 #@! TO.N,GND*
X162583500Y-103251000D03*
G04 #@! TD*
D44*
G04 #@! TO.P,R3,1*
G04 #@! TO.N,Net-(U1-VREG)*
X134874000Y-95607500D03*
G04 #@! TO.P,R3,2*
G04 #@! TO.N,Net-(U1-OC{slash}DT)*
X134874000Y-97432500D03*
G04 #@! TD*
D23*
G04 #@! TO.P,R21,1*
G04 #@! TO.N,+24V*
X159385000Y-80033500D03*
G04 #@! TO.P,R21,2*
G04 #@! TO.N,Net-(U4-EN{slash}UVLO)*
X159385000Y-78208500D03*
G04 #@! TD*
D26*
G04 #@! TO.P,C8,1*
G04 #@! TO.N,Net-(T1-AB)*
X142875000Y-87270500D03*
G04 #@! TO.P,C8,2*
G04 #@! TO.N,GNDS*
X142875000Y-85195500D03*
G04 #@! TD*
D24*
G04 #@! TO.P,C4,1*
G04 #@! TO.N,Net-(U1-VCC)*
X137706500Y-90170000D03*
G04 #@! TO.P,C4,2*
G04 #@! TO.N,GNDS*
X134581500Y-90170000D03*
G04 #@! TD*
D38*
G04 #@! TO.P,D2,1,K*
G04 #@! TO.N,Net-(D1-A)*
X158115000Y-89661000D03*
G04 #@! TO.P,D2,2,A*
G04 #@! TO.N,Net-(D2-A)*
X158115000Y-86361000D03*
G04 #@! TD*
D45*
G04 #@! TO.P,C2,1*
G04 #@! TO.N,Net-(U1-VCC)*
X134811000Y-77343000D03*
G04 #@! TO.P,C2,2*
G04 #@! TO.N,Net-(C2-Pad2)*
X142811000Y-77343000D03*
G04 #@! TD*
D26*
G04 #@! TO.P,C7,1*
G04 #@! TO.N,Net-(U1-VCC)*
X142875000Y-91080500D03*
G04 #@! TO.P,C7,2*
G04 #@! TO.N,Net-(T1-AB)*
X142875000Y-89005500D03*
G04 #@! TD*
D46*
G04 #@! TO.N,GNDS*
X139954000Y-98806000D03*
X142875000Y-97917000D03*
X143637000Y-97155000D03*
X133350000Y-85598000D03*
X133350000Y-89154000D03*
X143637000Y-97917000D03*
X149479000Y-76327000D03*
X133350000Y-86614000D03*
X140843000Y-83947000D03*
X149479000Y-78359000D03*
X132334000Y-94107000D03*
X138938000Y-98806000D03*
X142875000Y-97155000D03*
X142875000Y-83947000D03*
X122428000Y-77470000D03*
X122428000Y-78486000D03*
X122428000Y-79502000D03*
X133350000Y-87630000D03*
X141859000Y-83947000D03*
X133350000Y-98298000D03*
X149479000Y-77343000D03*
X133350000Y-91186000D03*
X137922000Y-98806000D03*
X133350000Y-90170000D03*
G04 #@! TO.N,GND*
X174498000Y-86995000D03*
X159766000Y-81788000D03*
X174498000Y-85979000D03*
X174371000Y-68453000D03*
X163830000Y-110871000D03*
X188849000Y-105791000D03*
X161925000Y-76708000D03*
X174371000Y-69469000D03*
X176022000Y-79248000D03*
X174371000Y-80772000D03*
X175514000Y-85979000D03*
X186182000Y-71755000D03*
X185420000Y-110871000D03*
X178308000Y-79502000D03*
X185420000Y-109855000D03*
X169164000Y-99060000D03*
X174371000Y-82804000D03*
X187198000Y-71755000D03*
X174371000Y-110871000D03*
X188214000Y-71755000D03*
X173482000Y-85979000D03*
X163830000Y-111887000D03*
X188849000Y-103759000D03*
X174625000Y-100203000D03*
X173482000Y-86995000D03*
X175514000Y-84963000D03*
X161671000Y-106807000D03*
X163322000Y-102616000D03*
X175514000Y-86995000D03*
X185420000Y-111887000D03*
X174371000Y-109855000D03*
X175006000Y-79248000D03*
X168148000Y-99060000D03*
X174371000Y-81788000D03*
X163830000Y-109855000D03*
X163703000Y-82804000D03*
X163703000Y-81788000D03*
X159893000Y-112014000D03*
X173482000Y-84963000D03*
X163703000Y-68453000D03*
X159131000Y-104140000D03*
X163703000Y-67437000D03*
X174371000Y-67437000D03*
X188849000Y-104775000D03*
X177038000Y-79248000D03*
X174498000Y-84963000D03*
X170180000Y-99060000D03*
X163703000Y-80772000D03*
X159385000Y-73787000D03*
X163703000Y-69469000D03*
X174371000Y-111887000D03*
G04 #@! TO.N,+24V*
X175514000Y-96012000D03*
X175514000Y-94996000D03*
X173482000Y-97028000D03*
X173482000Y-96012000D03*
X175514000Y-97028000D03*
X170053000Y-83693000D03*
X174498000Y-96012000D03*
X174498000Y-94996000D03*
X168148000Y-112776000D03*
X174498000Y-97028000D03*
X173482000Y-94996000D03*
X169037000Y-83693000D03*
X170180000Y-112776000D03*
X169164000Y-112776000D03*
X159385000Y-80772000D03*
X168021000Y-83693000D03*
X159131000Y-111125000D03*
G04 #@! TO.N,Net-(D4-K)*
X178435000Y-107569000D03*
X163449000Y-99949000D03*
X177419000Y-106553000D03*
X178435000Y-106553000D03*
X177419000Y-107569000D03*
G04 #@! TO.N,Net-(D4-A)*
X171831000Y-104140000D03*
X171831000Y-105410000D03*
X171831000Y-102870000D03*
G04 #@! TO.N,Net-(U2-SW)*
X166497000Y-102870000D03*
X166497000Y-104140000D03*
X166497000Y-105410000D03*
G04 #@! TO.N,Net-(D5-A)*
X171704000Y-76327000D03*
X171704000Y-75057000D03*
X171704000Y-73787000D03*
G04 #@! TO.N,Net-(U4-SW)*
X166370000Y-73787000D03*
X166370000Y-75057000D03*
X166370000Y-76327000D03*
G04 #@! TD*
D47*
G04 #@! TO.N,GNDS*
X133350000Y-97382500D02*
X133350000Y-98298000D01*
X133199500Y-94107000D02*
X132334000Y-94107000D01*
D48*
X141088000Y-95448000D02*
X139263000Y-95448000D01*
D49*
X134581500Y-90170000D02*
X133350000Y-90170000D01*
D48*
X143256000Y-95906500D02*
X142480000Y-95906500D01*
X142021500Y-95448000D02*
X141088000Y-95448000D01*
X142480000Y-95906500D02*
X142021500Y-95448000D01*
D50*
X138938000Y-95123000D02*
X138938000Y-96647000D01*
D51*
G04 #@! TO.N,Net-(U1-VCC)*
X133477000Y-71882000D02*
X134811000Y-73216000D01*
X134811000Y-73216000D02*
X134811000Y-77343000D01*
X133477000Y-66548000D02*
X133477000Y-71882000D01*
D48*
X142939500Y-94148000D02*
X143256000Y-93831500D01*
X141261500Y-91080500D02*
X141224000Y-91043000D01*
G04 #@! TO.N,Net-(U1-VREG)*
X135033500Y-95448000D02*
X134874000Y-95607500D01*
X136788000Y-95448000D02*
X135033500Y-95448000D01*
X134874000Y-95607500D02*
X133400000Y-95607500D01*
X133400000Y-95607500D02*
X133350000Y-95657500D01*
D52*
G04 #@! TO.N,Net-(T1-AB)*
X144377500Y-89005500D02*
X145054000Y-89682000D01*
X145054000Y-89682000D02*
X146277000Y-89682000D01*
X142875000Y-89005500D02*
X144377500Y-89005500D01*
D51*
G04 #@! TO.N,Net-(T1-SB)*
X154967000Y-94682000D02*
X157032000Y-94682000D01*
X158877000Y-93853000D02*
X160295500Y-92434500D01*
X160295500Y-92434500D02*
X160782000Y-92434500D01*
D53*
X160782000Y-92434500D02*
X160782000Y-89683500D01*
D51*
X157861000Y-93853000D02*
X158877000Y-93853000D01*
X157032000Y-94682000D02*
X157861000Y-93853000D01*
G04 #@! TO.N,Net-(D1-K)*
X160655000Y-95630000D02*
X162688000Y-95630000D01*
X162688000Y-95630000D02*
X163703000Y-94615000D01*
X163703000Y-94615000D02*
X163703000Y-92494500D01*
D53*
X160782000Y-94509500D02*
X160782000Y-95503000D01*
D54*
X166334000Y-92570500D02*
X166346500Y-92583000D01*
X166334000Y-91332000D02*
X166334000Y-92570500D01*
D51*
X163791500Y-92583000D02*
X163703000Y-92494500D01*
X166346500Y-92583000D02*
X163791500Y-92583000D01*
X158115000Y-95630000D02*
X160655000Y-95630000D01*
D50*
G04 #@! TO.N,Net-(U6-VI)*
X177282000Y-71257000D02*
X178664000Y-69875000D01*
D51*
X165725000Y-71257000D02*
X169037000Y-71257000D01*
D50*
X178664000Y-69875000D02*
X181737000Y-69875000D01*
X181737000Y-69875000D02*
X181737000Y-76175000D01*
X169037000Y-71257000D02*
X177282000Y-71257000D01*
D52*
X162837500Y-71678000D02*
X162787500Y-71628000D01*
D51*
X165354000Y-71628000D02*
X165725000Y-71257000D01*
X162787500Y-71628000D02*
X165354000Y-71628000D01*
D52*
X162837500Y-73152000D02*
X162837500Y-71678000D01*
D47*
G04 #@! TO.N,GND*
X175452000Y-100203000D02*
X174625000Y-100203000D01*
D49*
X167621000Y-90532000D02*
X167513000Y-90424000D01*
X168184000Y-90532000D02*
X168783000Y-90532000D01*
D48*
X161671000Y-105478000D02*
X161671000Y-106807000D01*
D47*
X160681500Y-112014000D02*
X159893000Y-112014000D01*
D51*
X162583500Y-103251000D02*
X162687000Y-103251000D01*
X162837500Y-70104000D02*
X163068000Y-70104000D01*
X162687000Y-103251000D02*
X163322000Y-102616000D01*
D49*
X167513000Y-90424000D02*
X167513000Y-90297000D01*
D47*
X159385000Y-74652500D02*
X159385000Y-73787000D01*
D52*
X161671000Y-104163500D02*
X162583500Y-103251000D01*
D51*
X163068000Y-70104000D02*
X163703000Y-69469000D01*
D47*
X160554500Y-81788000D02*
X159766000Y-81788000D01*
X179046500Y-79502000D02*
X178308000Y-79502000D01*
D49*
X168910000Y-90405000D02*
X168910000Y-90297000D01*
X168783000Y-90532000D02*
X168910000Y-90405000D01*
D54*
X168184000Y-89293500D02*
X168171500Y-89281000D01*
D52*
X161671000Y-105478000D02*
X161671000Y-104163500D01*
D49*
X168184000Y-90532000D02*
X167621000Y-90532000D01*
D52*
X161925000Y-75379000D02*
X161925000Y-76708000D01*
D47*
X159131000Y-105005500D02*
X159131000Y-104140000D01*
D52*
G04 #@! TO.N,+24V*
X162621000Y-108898000D02*
X162621000Y-107825500D01*
X166233000Y-107940000D02*
X169164000Y-107940000D01*
D49*
X168891000Y-91440000D02*
X168891000Y-91567000D01*
X167513000Y-91440000D02*
X167513000Y-91567000D01*
D52*
X165608000Y-107315000D02*
X166233000Y-107940000D01*
D54*
X168184000Y-92570500D02*
X168171500Y-92583000D01*
D52*
X162621000Y-107825500D02*
X163131500Y-107315000D01*
X168979000Y-78799000D02*
X169037000Y-78857000D01*
D49*
X168783000Y-91332000D02*
X168891000Y-91440000D01*
D52*
X163131500Y-107315000D02*
X165608000Y-107315000D01*
D47*
X159131000Y-110259500D02*
X159131000Y-111125000D01*
D49*
X168184000Y-91332000D02*
X167621000Y-91332000D01*
X168184000Y-91332000D02*
X168783000Y-91332000D01*
D52*
X162875000Y-78799000D02*
X168979000Y-78799000D01*
D47*
X159385000Y-80033500D02*
X159385000Y-80772000D01*
D49*
X167621000Y-91332000D02*
X167513000Y-91440000D01*
D48*
X159385000Y-80033500D02*
X159361500Y-80033500D01*
D52*
G04 #@! TO.N,Net-(D4-K)*
X162583500Y-101600000D02*
X162583500Y-99999000D01*
D48*
X162533500Y-101550000D02*
X162583500Y-101600000D01*
D51*
X162533500Y-99949000D02*
X163449000Y-99949000D01*
D52*
X162583500Y-99999000D02*
X162533500Y-99949000D01*
D51*
G04 #@! TO.N,Net-(D2-A)*
X160909000Y-86361000D02*
X162815000Y-86361000D01*
D54*
X166334000Y-90532000D02*
X166334000Y-89293500D01*
D51*
X162815000Y-86361000D02*
X163703000Y-87249000D01*
D53*
X160782000Y-87608500D02*
X160782000Y-86488000D01*
D51*
X158115000Y-86361000D02*
X160909000Y-86361000D01*
D54*
X166334000Y-89293500D02*
X166346500Y-89281000D01*
D51*
X163791500Y-89281000D02*
X163703000Y-89369500D01*
X163703000Y-87249000D02*
X163703000Y-89369500D01*
X166346500Y-89281000D02*
X163791500Y-89281000D01*
D52*
G04 #@! TO.N,Net-(U2-INTVCC)*
X161671000Y-110236000D02*
X161671000Y-108898000D01*
X162406500Y-110971500D02*
X161671000Y-110236000D01*
X162406500Y-112014000D02*
X162406500Y-110971500D01*
D50*
G04 #@! TO.N,+18V*
X175920000Y-104775000D02*
X180467000Y-104775000D01*
D52*
G04 #@! TO.N,Net-(U2-FBX)*
X160758500Y-99999000D02*
X160808500Y-99949000D01*
X160758500Y-101600000D02*
X160758500Y-99999000D01*
X160758500Y-103251000D02*
X160758500Y-101600000D01*
X160721000Y-103288500D02*
X160758500Y-103251000D01*
X160721000Y-105478000D02*
X160721000Y-103288500D01*
D49*
G04 #@! TO.N,Net-(D4-A)*
X172964000Y-104140000D02*
X171831000Y-104140000D01*
D52*
G04 #@! TO.N,Net-(U2-SW)*
X162621000Y-105478000D02*
X162621000Y-104968000D01*
X163449000Y-104140000D02*
X165364000Y-104140000D01*
D49*
X165364000Y-104140000D02*
X166624000Y-104140000D01*
D52*
X162621000Y-104968000D02*
X163449000Y-104140000D01*
D50*
G04 #@! TO.N,Net-(D5-A)*
X172837000Y-75057000D02*
X174117000Y-75057000D01*
X174117000Y-75057000D02*
X175809000Y-73365000D01*
X175809000Y-73365000D02*
X176022000Y-73365000D01*
D49*
X172837000Y-75057000D02*
X171704000Y-75057000D01*
D52*
G04 #@! TO.N,Net-(U4-SW)*
X163898000Y-75057000D02*
X163576000Y-75379000D01*
X165237000Y-75057000D02*
X163898000Y-75057000D01*
X163576000Y-75379000D02*
X162875000Y-75379000D01*
G04 #@! TO.N,Net-(U4-INTVCC)*
X162279500Y-81788000D02*
X162279500Y-80745500D01*
X162279500Y-80745500D02*
X161925000Y-80391000D01*
X161925000Y-78799000D02*
X161925000Y-80391000D01*
G04 #@! TO.N,Net-(U4-FBX)*
X160975000Y-75379000D02*
X160975000Y-73189500D01*
X161012500Y-71578000D02*
X161062500Y-71628000D01*
X161062500Y-71628000D02*
X161062500Y-73102000D01*
X160975000Y-73189500D02*
X161012500Y-73152000D01*
X161062500Y-73102000D02*
X161012500Y-73152000D01*
X161012500Y-70104000D02*
X161012500Y-71578000D01*
D51*
G04 #@! TO.N,Net-(D1-A)*
X158115000Y-89661000D02*
X154988000Y-89661000D01*
X154988000Y-89661000D02*
X154967000Y-89682000D01*
X158115000Y-92330000D02*
X158115000Y-89661000D01*
D48*
G04 #@! TO.N,Net-(U1-OC{slash}DT)*
X135231500Y-97790000D02*
X136374500Y-97790000D01*
X136788000Y-96638000D02*
X136788000Y-96098000D01*
X136374500Y-97790000D02*
X136374500Y-97051500D01*
X134874000Y-97432500D02*
X135231500Y-97790000D01*
X136374500Y-97051500D02*
X136788000Y-96638000D01*
G04 #@! TO.N,Net-(U1-SYNC)*
X136788000Y-94148000D02*
X135065500Y-94148000D01*
X135065500Y-94148000D02*
X135024500Y-94107000D01*
G04 #@! TO.N,Net-(U1-RT)*
X141088000Y-96098000D02*
X141088000Y-97249500D01*
X141088000Y-97249500D02*
X141628500Y-97790000D01*
D52*
G04 #@! TO.N,Net-(U2-EN{slash}UVLO)*
X160721000Y-108898000D02*
X159594500Y-108898000D01*
X159131000Y-108434500D02*
X159131000Y-106830500D01*
X159594500Y-108898000D02*
X159131000Y-108434500D01*
D51*
G04 #@! TO.N,Net-(U5-ADJ)*
X176036000Y-102475000D02*
X177277000Y-101234000D01*
X177277000Y-101234000D02*
X177277000Y-100203000D01*
X177277000Y-100203000D02*
X179008000Y-100203000D01*
X175920000Y-102475000D02*
X176036000Y-102475000D01*
G04 #@! TO.N,Net-(U6-ADJ)*
X179437000Y-76175000D02*
X179437000Y-77456000D01*
X180871500Y-78890500D02*
X180871500Y-79502000D01*
X179437000Y-77456000D02*
X180871500Y-78890500D01*
X182475500Y-79502000D02*
X180871500Y-79502000D01*
D52*
G04 #@! TO.N,Net-(U4-EN{slash}UVLO)*
X159975500Y-78799000D02*
X159385000Y-78208500D01*
X159385000Y-76477500D02*
X159385000Y-78208500D01*
X160975000Y-78799000D02*
X159975500Y-78799000D01*
D54*
X160975000Y-78799000D02*
X160975000Y-78171000D01*
D48*
G04 #@! TO.N,Net-(T1-AA)*
X146277000Y-94682000D02*
X144586000Y-94682000D01*
X144586000Y-94682000D02*
X144399000Y-94869000D01*
X142340526Y-94869000D02*
X144399000Y-94869000D01*
X142269526Y-94798000D02*
X142340526Y-94869000D01*
X141088000Y-94798000D02*
X142269526Y-94798000D01*
G04 #@! TD*
G04 #@! TA.AperFunction,Conductor*
G04 #@! TO.N,Net-(D4-A)*
G36*
X173754306Y-101872306D02*
G01*
X173971694Y-102089694D01*
X173990000Y-102133888D01*
X173990000Y-106146112D01*
X173971694Y-106190306D01*
X173754306Y-106407694D01*
X173710112Y-106426000D01*
X171602888Y-106426000D01*
X171558694Y-106407694D01*
X171341306Y-106190306D01*
X171323000Y-106146112D01*
X171323000Y-105952507D01*
X172136999Y-105952507D01*
X172144369Y-105989553D01*
X172144369Y-105989554D01*
X172172438Y-106031561D01*
X172214446Y-106059630D01*
X172251493Y-106067000D01*
X172837000Y-106067000D01*
X173091000Y-106067000D01*
X173676507Y-106067000D01*
X173713553Y-106059630D01*
X173713554Y-106059630D01*
X173755561Y-106031561D01*
X173783630Y-105989554D01*
X173783630Y-105989553D01*
X173791000Y-105952507D01*
X173791000Y-104267000D01*
X173091000Y-104267000D01*
X173091000Y-106067000D01*
X172837000Y-106067000D01*
X172837000Y-104267000D01*
X172137000Y-104267000D01*
X172137000Y-105952507D01*
X172136999Y-105952507D01*
X171323000Y-105952507D01*
X171323000Y-102327492D01*
X172137000Y-102327492D01*
X172137000Y-104013000D01*
X172837000Y-104013000D01*
X173091000Y-104013000D01*
X173791000Y-104013000D01*
X173791000Y-102327492D01*
X173783630Y-102290446D01*
X173783630Y-102290445D01*
X173755561Y-102248438D01*
X173713553Y-102220369D01*
X173676507Y-102213000D01*
X173091000Y-102213000D01*
X173091000Y-104013000D01*
X172837000Y-104013000D01*
X172837000Y-102213000D01*
X172251493Y-102213000D01*
X172214446Y-102220369D01*
X172214445Y-102220369D01*
X172172438Y-102248438D01*
X172144369Y-102290445D01*
X172144369Y-102290446D01*
X172137000Y-102327492D01*
X171323000Y-102327492D01*
X171323000Y-102133888D01*
X171341306Y-102089694D01*
X171558694Y-101872306D01*
X171602888Y-101854000D01*
X173710112Y-101854000D01*
X173754306Y-101872306D01*
G37*
G04 #@! TD.AperFunction*
G04 #@! TD*
G04 #@! TA.AperFunction,Conductor*
G04 #@! TO.N,GND*
G36*
X176294306Y-109111306D02*
G01*
X176511694Y-109328694D01*
X176530000Y-109372888D01*
X176530000Y-112369112D01*
X176511694Y-112413306D01*
X176294306Y-112630694D01*
X176250112Y-112649000D01*
X172618888Y-112649000D01*
X172574694Y-112630694D01*
X172357306Y-112413306D01*
X172339000Y-112369112D01*
X172339000Y-112006777D01*
X172477001Y-112006777D01*
X172487676Y-112080056D01*
X172487678Y-112080060D01*
X172542936Y-112193095D01*
X172631904Y-112282063D01*
X172744941Y-112337322D01*
X172818221Y-112347999D01*
X173139500Y-112347999D01*
X173393500Y-112347999D01*
X173714778Y-112347999D01*
X173788056Y-112337323D01*
X173788060Y-112337321D01*
X173901095Y-112282063D01*
X173990063Y-112193095D01*
X174045322Y-112080058D01*
X174056000Y-112006778D01*
X174056000Y-112006777D01*
X174686001Y-112006777D01*
X174696676Y-112080056D01*
X174696678Y-112080060D01*
X174751936Y-112193095D01*
X174840904Y-112282063D01*
X174953941Y-112337322D01*
X175027221Y-112347999D01*
X175348500Y-112347999D01*
X175602500Y-112347999D01*
X175923778Y-112347999D01*
X175997056Y-112337323D01*
X175997060Y-112337321D01*
X176110095Y-112282063D01*
X176199063Y-112193095D01*
X176254322Y-112080058D01*
X176265000Y-112006778D01*
X176265000Y-110998000D01*
X175602500Y-110998000D01*
X175602500Y-112347999D01*
X175348500Y-112347999D01*
X175348500Y-110998000D01*
X174686001Y-110998000D01*
X174686001Y-112006777D01*
X174056000Y-112006777D01*
X174056000Y-110998000D01*
X173393500Y-110998000D01*
X173393500Y-112347999D01*
X173139500Y-112347999D01*
X173139500Y-110998000D01*
X172477001Y-110998000D01*
X172477001Y-112006777D01*
X172339000Y-112006777D01*
X172339000Y-109735221D01*
X172477000Y-109735221D01*
X172477000Y-110744000D01*
X173139500Y-110744000D01*
X173393500Y-110744000D01*
X174055999Y-110744000D01*
X174055999Y-109735222D01*
X174055999Y-109735221D01*
X174686000Y-109735221D01*
X174686000Y-110744000D01*
X175348500Y-110744000D01*
X175602500Y-110744000D01*
X176264999Y-110744000D01*
X176264999Y-109735222D01*
X176254323Y-109661943D01*
X176254321Y-109661939D01*
X176199063Y-109548904D01*
X176110095Y-109459936D01*
X175997058Y-109404677D01*
X175923778Y-109394000D01*
X175602500Y-109394000D01*
X175602500Y-110744000D01*
X175348500Y-110744000D01*
X175348500Y-109394000D01*
X175027222Y-109394000D01*
X174953943Y-109404676D01*
X174953939Y-109404678D01*
X174840904Y-109459936D01*
X174751936Y-109548904D01*
X174696677Y-109661941D01*
X174686000Y-109735221D01*
X174055999Y-109735221D01*
X174045323Y-109661943D01*
X174045321Y-109661939D01*
X173990063Y-109548904D01*
X173901095Y-109459936D01*
X173788058Y-109404677D01*
X173714778Y-109394000D01*
X173393500Y-109394000D01*
X173393500Y-110744000D01*
X173139500Y-110744000D01*
X173139500Y-109394000D01*
X172818222Y-109394000D01*
X172744943Y-109404676D01*
X172744939Y-109404678D01*
X172631904Y-109459936D01*
X172542936Y-109548904D01*
X172487677Y-109661941D01*
X172477000Y-109735221D01*
X172339000Y-109735221D01*
X172339000Y-109372888D01*
X172357306Y-109328694D01*
X172574694Y-109111306D01*
X172618888Y-109093000D01*
X176250112Y-109093000D01*
X176294306Y-109111306D01*
G37*
G04 #@! TD.AperFunction*
G04 #@! TD*
G04 #@! TA.AperFunction,Conductor*
G04 #@! TO.N,GNDS*
G36*
X149751306Y-75583306D02*
G01*
X149968694Y-75800694D01*
X149987000Y-75844888D01*
X149987000Y-78841112D01*
X149968694Y-78885306D01*
X149751306Y-79102694D01*
X149707112Y-79121000D01*
X147980888Y-79121000D01*
X147936694Y-79102694D01*
X147719306Y-78885306D01*
X147701000Y-78841112D01*
X147701000Y-78226789D01*
X147719306Y-78182595D01*
X147763500Y-78164289D01*
X147772512Y-78164942D01*
X147807222Y-78169999D01*
X148065999Y-78169999D01*
X148320000Y-78169999D01*
X148578778Y-78169999D01*
X148652056Y-78159323D01*
X148652060Y-78159321D01*
X148765095Y-78104063D01*
X148854063Y-78015095D01*
X148909322Y-77902058D01*
X148920000Y-77828778D01*
X148920000Y-77470000D01*
X148320000Y-77470000D01*
X148320000Y-78169999D01*
X148065999Y-78169999D01*
X148066000Y-78169998D01*
X148066000Y-77216000D01*
X148320000Y-77216000D01*
X148919999Y-77216000D01*
X148919999Y-76857222D01*
X148909323Y-76783943D01*
X148909321Y-76783939D01*
X148854063Y-76670904D01*
X148765095Y-76581936D01*
X148652058Y-76526677D01*
X148578778Y-76516000D01*
X148320000Y-76516000D01*
X148320000Y-77216000D01*
X148066000Y-77216000D01*
X148066000Y-76516000D01*
X147807221Y-76516000D01*
X147772510Y-76521058D01*
X147726139Y-76509315D01*
X147701653Y-76468221D01*
X147701000Y-76459211D01*
X147701000Y-75844888D01*
X147719306Y-75800694D01*
X147936694Y-75583306D01*
X147980888Y-75565000D01*
X149707112Y-75565000D01*
X149751306Y-75583306D01*
G37*
G04 #@! TD.AperFunction*
G04 #@! TD*
G04 #@! TA.AperFunction,Conductor*
G04 #@! TO.N,-18V*
G36*
X188740306Y-74821306D02*
G01*
X188957694Y-75038694D01*
X188976000Y-75082888D01*
X188976000Y-86461112D01*
X188957694Y-86505306D01*
X188740306Y-86722694D01*
X188696112Y-86741000D01*
X183032888Y-86741000D01*
X182988694Y-86722694D01*
X182771306Y-86505306D01*
X182753000Y-86461112D01*
X182753000Y-84920000D01*
X183226109Y-84920000D01*
X183245638Y-85155682D01*
X183245640Y-85155692D01*
X183303689Y-85384921D01*
X183303694Y-85384936D01*
X183398690Y-85601507D01*
X183398692Y-85601510D01*
X183528036Y-85799484D01*
X183528040Y-85799489D01*
X183562005Y-85836386D01*
X183562006Y-85836387D01*
X184117436Y-85280957D01*
X184153112Y-85334351D01*
X184243649Y-85424888D01*
X184297041Y-85460563D01*
X183742145Y-86015458D01*
X183742146Y-86015459D01*
X183874828Y-86118730D01*
X183874830Y-86118731D01*
X184082815Y-86231287D01*
X184306491Y-86308075D01*
X184539758Y-86347000D01*
X184776242Y-86347000D01*
X185009508Y-86308075D01*
X185233183Y-86231287D01*
X185233184Y-86231287D01*
X185441170Y-86118730D01*
X185573853Y-86015458D01*
X185018958Y-85460563D01*
X185072351Y-85424888D01*
X185162888Y-85334351D01*
X185198563Y-85280957D01*
X185753992Y-85836386D01*
X185787964Y-85799483D01*
X185917307Y-85601510D01*
X185917309Y-85601507D01*
X186012305Y-85384936D01*
X186012310Y-85384921D01*
X186070359Y-85155692D01*
X186070361Y-85155682D01*
X186089890Y-84920000D01*
X186070361Y-84684317D01*
X186070359Y-84684307D01*
X186012310Y-84455078D01*
X186012305Y-84455063D01*
X185917309Y-84238492D01*
X185917307Y-84238489D01*
X185787963Y-84040515D01*
X185787959Y-84040510D01*
X185753993Y-84003612D01*
X185753992Y-84003611D01*
X185198562Y-84559040D01*
X185162888Y-84505649D01*
X185072351Y-84415112D01*
X185018957Y-84379435D01*
X185573853Y-83824540D01*
X185441171Y-83721269D01*
X185441169Y-83721268D01*
X185233184Y-83608712D01*
X185009508Y-83531924D01*
X184776242Y-83493000D01*
X184539758Y-83493000D01*
X184306491Y-83531924D01*
X184082816Y-83608712D01*
X184082815Y-83608712D01*
X183874833Y-83721266D01*
X183742145Y-83824540D01*
X184297041Y-84379436D01*
X184243649Y-84415112D01*
X184153112Y-84505649D01*
X184117436Y-84559041D01*
X183562006Y-84003611D01*
X183562004Y-84003612D01*
X183528040Y-84040509D01*
X183528035Y-84040516D01*
X183398692Y-84238489D01*
X183398690Y-84238492D01*
X183303694Y-84455063D01*
X183303689Y-84455078D01*
X183245640Y-84684307D01*
X183245638Y-84684317D01*
X183226109Y-84920000D01*
X182753000Y-84920000D01*
X182753000Y-80924888D01*
X182771306Y-80880694D01*
X182988694Y-80663306D01*
X183032888Y-80645000D01*
X183769000Y-80645000D01*
X184023000Y-80645000D01*
X184023000Y-80166500D01*
X184041306Y-80122306D01*
X184085500Y-80104000D01*
X184173500Y-80104000D01*
X184427500Y-80104000D01*
X184585091Y-80104000D01*
X184655942Y-80093676D01*
X184765231Y-80040249D01*
X184851249Y-79954231D01*
X184904676Y-79844942D01*
X184915000Y-79774091D01*
X184915000Y-79629000D01*
X184427500Y-79629000D01*
X184427500Y-80104000D01*
X184173500Y-80104000D01*
X184173500Y-79375000D01*
X184427500Y-79375000D01*
X184915000Y-79375000D01*
X184915000Y-79229908D01*
X184904676Y-79159057D01*
X184851249Y-79049768D01*
X184765231Y-78963750D01*
X184655942Y-78910323D01*
X184585091Y-78900000D01*
X184427500Y-78900000D01*
X184427500Y-79375000D01*
X184173500Y-79375000D01*
X184173500Y-78900000D01*
X184085500Y-78900000D01*
X184041306Y-78881694D01*
X184023000Y-78837500D01*
X184023000Y-78359000D01*
X184023000Y-78105000D01*
X183769000Y-78105000D01*
X183159888Y-78105000D01*
X183115694Y-78086694D01*
X182898306Y-77869306D01*
X182880000Y-77825112D01*
X182880000Y-76848023D01*
X183160001Y-76848023D01*
X183166428Y-76907804D01*
X183166429Y-76907809D01*
X183216873Y-77043053D01*
X183216876Y-77043058D01*
X183303382Y-77158617D01*
X183418941Y-77245123D01*
X183418946Y-77245126D01*
X183554193Y-77295571D01*
X183613984Y-77301999D01*
X183910000Y-77301999D01*
X184164000Y-77301999D01*
X184460007Y-77301999D01*
X184460023Y-77301998D01*
X184519804Y-77295571D01*
X184519809Y-77295570D01*
X184655053Y-77245126D01*
X184655058Y-77245123D01*
X184770617Y-77158617D01*
X184857123Y-77043058D01*
X184857126Y-77043053D01*
X184907571Y-76907806D01*
X184913999Y-76848022D01*
X184914000Y-76848009D01*
X184914000Y-76559777D01*
X185721001Y-76559777D01*
X185731676Y-76633056D01*
X185731678Y-76633060D01*
X185786936Y-76746095D01*
X185875904Y-76835063D01*
X185988941Y-76890322D01*
X186062221Y-76900999D01*
X187071000Y-76900999D01*
X187325000Y-76900999D01*
X188333778Y-76900999D01*
X188407056Y-76890323D01*
X188407060Y-76890321D01*
X188520095Y-76835063D01*
X188609063Y-76746095D01*
X188664322Y-76633058D01*
X188675000Y-76559778D01*
X188675000Y-76238500D01*
X187325000Y-76238500D01*
X187325000Y-76900999D01*
X187071000Y-76900999D01*
X187071000Y-76238500D01*
X185721001Y-76238500D01*
X185721001Y-76559777D01*
X184914000Y-76559777D01*
X184914000Y-76302000D01*
X184164000Y-76302000D01*
X184164000Y-77301999D01*
X183910000Y-77301999D01*
X183910000Y-76302000D01*
X183160001Y-76302000D01*
X183160001Y-76848023D01*
X182880000Y-76848023D01*
X182880000Y-75501977D01*
X183160000Y-75501977D01*
X183160000Y-76048000D01*
X183910000Y-76048000D01*
X184164000Y-76048000D01*
X184913999Y-76048000D01*
X184913999Y-75663221D01*
X185721000Y-75663221D01*
X185721000Y-75984500D01*
X187071000Y-75984500D01*
X187325000Y-75984500D01*
X188674999Y-75984500D01*
X188674999Y-75663222D01*
X188664323Y-75589943D01*
X188664321Y-75589939D01*
X188609063Y-75476904D01*
X188520095Y-75387936D01*
X188407058Y-75332677D01*
X188333778Y-75322000D01*
X187325000Y-75322000D01*
X187325000Y-75984500D01*
X187071000Y-75984500D01*
X187071000Y-75322000D01*
X186062222Y-75322000D01*
X185988943Y-75332676D01*
X185988939Y-75332678D01*
X185875904Y-75387936D01*
X185786936Y-75476904D01*
X185731677Y-75589941D01*
X185721000Y-75663221D01*
X184913999Y-75663221D01*
X184913999Y-75501993D01*
X184913998Y-75501976D01*
X184907571Y-75442195D01*
X184907570Y-75442190D01*
X184857126Y-75306946D01*
X184857123Y-75306941D01*
X184770617Y-75191382D01*
X184655058Y-75104876D01*
X184655053Y-75104873D01*
X184519806Y-75054428D01*
X184460022Y-75048000D01*
X184164000Y-75048000D01*
X184164000Y-76048000D01*
X183910000Y-76048000D01*
X183910000Y-75048000D01*
X183613993Y-75048000D01*
X183613976Y-75048001D01*
X183554195Y-75054428D01*
X183554190Y-75054429D01*
X183418946Y-75104873D01*
X183418941Y-75104876D01*
X183303382Y-75191382D01*
X183216876Y-75306941D01*
X183216873Y-75306946D01*
X183166428Y-75442193D01*
X183160000Y-75501977D01*
X182880000Y-75501977D01*
X182880000Y-75082888D01*
X182898306Y-75038694D01*
X183115694Y-74821306D01*
X183159888Y-74803000D01*
X188696112Y-74803000D01*
X188740306Y-74821306D01*
G37*
G04 #@! TD.AperFunction*
G04 #@! TD*
G04 #@! TA.AperFunction,Conductor*
G04 #@! TO.N,GND*
G36*
X165626306Y-80155306D02*
G01*
X165843694Y-80372694D01*
X165862000Y-80416888D01*
X165862000Y-83286112D01*
X165843694Y-83330306D01*
X165626306Y-83547694D01*
X165582112Y-83566000D01*
X163601888Y-83566000D01*
X163557694Y-83547694D01*
X163340306Y-83330306D01*
X163322000Y-83286112D01*
X163322000Y-82923777D01*
X164145001Y-82923777D01*
X164155676Y-82997056D01*
X164155678Y-82997060D01*
X164210936Y-83110095D01*
X164299904Y-83199063D01*
X164412941Y-83254322D01*
X164486221Y-83264999D01*
X164807500Y-83264999D01*
X165061500Y-83264999D01*
X165382778Y-83264999D01*
X165456056Y-83254323D01*
X165456060Y-83254321D01*
X165569095Y-83199063D01*
X165658063Y-83110095D01*
X165713322Y-82997058D01*
X165724000Y-82923778D01*
X165724000Y-81915000D01*
X165061500Y-81915000D01*
X165061500Y-83264999D01*
X164807500Y-83264999D01*
X164807500Y-81915000D01*
X164145001Y-81915000D01*
X164145001Y-82923777D01*
X163322000Y-82923777D01*
X163322000Y-80652221D01*
X164145000Y-80652221D01*
X164145000Y-81661000D01*
X164807500Y-81661000D01*
X165061500Y-81661000D01*
X165723999Y-81661000D01*
X165723999Y-80652222D01*
X165713323Y-80578943D01*
X165713321Y-80578939D01*
X165658063Y-80465904D01*
X165569095Y-80376936D01*
X165456058Y-80321677D01*
X165382778Y-80311000D01*
X165061500Y-80311000D01*
X165061500Y-81661000D01*
X164807500Y-81661000D01*
X164807500Y-80311000D01*
X164486222Y-80311000D01*
X164412943Y-80321676D01*
X164412939Y-80321678D01*
X164299904Y-80376936D01*
X164210936Y-80465904D01*
X164155677Y-80578941D01*
X164145000Y-80652221D01*
X163322000Y-80652221D01*
X163322000Y-80416888D01*
X163340306Y-80372694D01*
X163557694Y-80155306D01*
X163601888Y-80137000D01*
X165582112Y-80137000D01*
X165626306Y-80155306D01*
G37*
G04 #@! TD.AperFunction*
G04 #@! TD*
G04 #@! TA.AperFunction,Conductor*
G04 #@! TO.N,Net-(D5-A)*
G36*
X173627306Y-72789306D02*
G01*
X173844694Y-73006694D01*
X173863000Y-73050888D01*
X173863000Y-77063112D01*
X173844694Y-77107306D01*
X173627306Y-77324694D01*
X173583112Y-77343000D01*
X171475888Y-77343000D01*
X171431694Y-77324694D01*
X171214306Y-77107306D01*
X171196000Y-77063112D01*
X171196000Y-76869507D01*
X172009999Y-76869507D01*
X172017369Y-76906553D01*
X172017369Y-76906554D01*
X172045438Y-76948561D01*
X172087446Y-76976630D01*
X172124493Y-76984000D01*
X172710000Y-76984000D01*
X172964000Y-76984000D01*
X173549507Y-76984000D01*
X173586553Y-76976630D01*
X173586554Y-76976630D01*
X173628561Y-76948561D01*
X173656630Y-76906554D01*
X173656630Y-76906553D01*
X173664000Y-76869507D01*
X173664000Y-75184000D01*
X172964000Y-75184000D01*
X172964000Y-76984000D01*
X172710000Y-76984000D01*
X172710000Y-75184000D01*
X172010000Y-75184000D01*
X172010000Y-76869507D01*
X172009999Y-76869507D01*
X171196000Y-76869507D01*
X171196000Y-73244492D01*
X172010000Y-73244492D01*
X172010000Y-74930000D01*
X172710000Y-74930000D01*
X172964000Y-74930000D01*
X173664000Y-74930000D01*
X173664000Y-73244492D01*
X173656630Y-73207446D01*
X173656630Y-73207445D01*
X173628561Y-73165438D01*
X173586553Y-73137369D01*
X173549507Y-73130000D01*
X172964000Y-73130000D01*
X172964000Y-74930000D01*
X172710000Y-74930000D01*
X172710000Y-73130000D01*
X172124493Y-73130000D01*
X172087446Y-73137369D01*
X172087445Y-73137369D01*
X172045438Y-73165438D01*
X172017369Y-73207445D01*
X172017369Y-73207446D01*
X172010000Y-73244492D01*
X171196000Y-73244492D01*
X171196000Y-73050888D01*
X171214306Y-73006694D01*
X171431694Y-72789306D01*
X171475888Y-72771000D01*
X173583112Y-72771000D01*
X173627306Y-72789306D01*
G37*
G04 #@! TD.AperFunction*
G04 #@! TD*
G04 #@! TA.AperFunction,Conductor*
G04 #@! TO.N,GNDS*
G36*
X140353306Y-96665306D02*
G01*
X140561194Y-96873194D01*
X140579500Y-96917388D01*
X140579500Y-97316449D01*
X140586870Y-97343950D01*
X140589000Y-97360127D01*
X140589000Y-99034112D01*
X140570694Y-99078306D01*
X140353306Y-99295694D01*
X140309112Y-99314000D01*
X137693888Y-99314000D01*
X137649694Y-99295694D01*
X137432306Y-99078306D01*
X137414000Y-99034112D01*
X137414000Y-98062091D01*
X137585000Y-98062091D01*
X137595323Y-98132942D01*
X137648750Y-98242231D01*
X137734768Y-98328249D01*
X137844057Y-98381676D01*
X137914909Y-98392000D01*
X138072500Y-98392000D01*
X138326500Y-98392000D01*
X138484091Y-98392000D01*
X138554942Y-98381676D01*
X138664231Y-98328249D01*
X138750249Y-98242231D01*
X138803676Y-98132942D01*
X138814000Y-98062091D01*
X139189000Y-98062091D01*
X139199323Y-98132942D01*
X139252750Y-98242231D01*
X139338768Y-98328249D01*
X139448057Y-98381676D01*
X139518909Y-98392000D01*
X139676500Y-98392000D01*
X139930500Y-98392000D01*
X140088091Y-98392000D01*
X140158942Y-98381676D01*
X140268231Y-98328249D01*
X140354249Y-98242231D01*
X140407676Y-98132942D01*
X140418000Y-98062091D01*
X140418000Y-97917000D01*
X139930500Y-97917000D01*
X139930500Y-98392000D01*
X139676500Y-98392000D01*
X139676500Y-97917000D01*
X139189000Y-97917000D01*
X139189000Y-98062091D01*
X138814000Y-98062091D01*
X138814000Y-97917000D01*
X138326500Y-97917000D01*
X138326500Y-98392000D01*
X138072500Y-98392000D01*
X138072500Y-97917000D01*
X137585000Y-97917000D01*
X137585000Y-98062091D01*
X137414000Y-98062091D01*
X137414000Y-97517908D01*
X137585000Y-97517908D01*
X137585000Y-97663000D01*
X138072500Y-97663000D01*
X138326500Y-97663000D01*
X138814000Y-97663000D01*
X138814000Y-97517908D01*
X139189000Y-97517908D01*
X139189000Y-97663000D01*
X139676500Y-97663000D01*
X139930500Y-97663000D01*
X140418000Y-97663000D01*
X140418000Y-97517908D01*
X140407676Y-97447057D01*
X140354249Y-97337768D01*
X140268231Y-97251750D01*
X140158942Y-97198323D01*
X140088091Y-97188000D01*
X139930500Y-97188000D01*
X139930500Y-97663000D01*
X139676500Y-97663000D01*
X139676500Y-97188000D01*
X139518909Y-97188000D01*
X139448057Y-97198323D01*
X139338768Y-97251750D01*
X139252750Y-97337768D01*
X139199323Y-97447057D01*
X139189000Y-97517908D01*
X138814000Y-97517908D01*
X138803676Y-97447057D01*
X138750249Y-97337768D01*
X138664231Y-97251750D01*
X138554942Y-97198323D01*
X138484091Y-97188000D01*
X138326500Y-97188000D01*
X138326500Y-97663000D01*
X138072500Y-97663000D01*
X138072500Y-97188000D01*
X137914909Y-97188000D01*
X137844057Y-97198323D01*
X137734768Y-97251750D01*
X137648750Y-97337768D01*
X137595323Y-97447057D01*
X137585000Y-97517908D01*
X137414000Y-97517908D01*
X137414000Y-96926888D01*
X137432306Y-96882694D01*
X137649694Y-96665306D01*
X137693888Y-96647000D01*
X140309112Y-96647000D01*
X140353306Y-96665306D01*
G37*
G04 #@! TD.AperFunction*
G04 #@! TD*
G04 #@! TA.AperFunction,Conductor*
G04 #@! TO.N,GND*
G36*
X174516306Y-80028306D02*
G01*
X174733694Y-80245694D01*
X174752000Y-80289888D01*
X174752000Y-83286112D01*
X174733694Y-83330306D01*
X174516306Y-83547694D01*
X174472112Y-83566000D01*
X172491888Y-83566000D01*
X172447694Y-83547694D01*
X172230306Y-83330306D01*
X172212000Y-83286112D01*
X172212000Y-82923777D01*
X172350001Y-82923777D01*
X172360676Y-82997056D01*
X172360678Y-82997060D01*
X172415936Y-83110095D01*
X172504904Y-83199063D01*
X172617941Y-83254322D01*
X172691221Y-83264999D01*
X173012500Y-83264999D01*
X173266500Y-83264999D01*
X173587778Y-83264999D01*
X173661056Y-83254323D01*
X173661060Y-83254321D01*
X173774095Y-83199063D01*
X173863063Y-83110095D01*
X173918322Y-82997058D01*
X173929000Y-82923778D01*
X173929000Y-81915000D01*
X173266500Y-81915000D01*
X173266500Y-83264999D01*
X173012500Y-83264999D01*
X173012500Y-81915000D01*
X172350001Y-81915000D01*
X172350001Y-82923777D01*
X172212000Y-82923777D01*
X172212000Y-80652221D01*
X172350000Y-80652221D01*
X172350000Y-81661000D01*
X173012500Y-81661000D01*
X173266500Y-81661000D01*
X173928999Y-81661000D01*
X173928999Y-80652222D01*
X173918323Y-80578943D01*
X173918321Y-80578939D01*
X173863063Y-80465904D01*
X173774095Y-80376936D01*
X173661058Y-80321677D01*
X173587778Y-80311000D01*
X173266500Y-80311000D01*
X173266500Y-81661000D01*
X173012500Y-81661000D01*
X173012500Y-80311000D01*
X172691222Y-80311000D01*
X172617943Y-80321676D01*
X172617939Y-80321678D01*
X172504904Y-80376936D01*
X172415936Y-80465904D01*
X172360677Y-80578941D01*
X172350000Y-80652221D01*
X172212000Y-80652221D01*
X172212000Y-80289888D01*
X172230306Y-80245694D01*
X172447694Y-80028306D01*
X172491888Y-80010000D01*
X174472112Y-80010000D01*
X174516306Y-80028306D01*
G37*
G04 #@! TD.AperFunction*
G04 #@! TD*
G04 #@! TA.AperFunction,Conductor*
G04 #@! TO.N,GND*
G36*
X188994306Y-103015306D02*
G01*
X189211694Y-103232694D01*
X189230000Y-103276888D01*
X189230000Y-106273112D01*
X189211694Y-106317306D01*
X188994306Y-106534694D01*
X188950112Y-106553000D01*
X186969888Y-106553000D01*
X186925694Y-106534694D01*
X186708306Y-106317306D01*
X186690000Y-106273112D01*
X186690000Y-105910777D01*
X186828001Y-105910777D01*
X186838676Y-105984056D01*
X186838678Y-105984060D01*
X186893936Y-106097095D01*
X186982904Y-106186063D01*
X187095941Y-106241322D01*
X187169221Y-106251999D01*
X187490500Y-106251999D01*
X187744500Y-106251999D01*
X188065778Y-106251999D01*
X188139056Y-106241323D01*
X188139060Y-106241321D01*
X188252095Y-106186063D01*
X188341063Y-106097095D01*
X188396322Y-105984058D01*
X188407000Y-105910778D01*
X188407000Y-104902000D01*
X187744500Y-104902000D01*
X187744500Y-106251999D01*
X187490500Y-106251999D01*
X187490500Y-104902000D01*
X186828001Y-104902000D01*
X186828001Y-105910777D01*
X186690000Y-105910777D01*
X186690000Y-103639221D01*
X186828000Y-103639221D01*
X186828000Y-104648000D01*
X187490500Y-104648000D01*
X187744500Y-104648000D01*
X188406999Y-104648000D01*
X188406999Y-103639222D01*
X188396323Y-103565943D01*
X188396321Y-103565939D01*
X188341063Y-103452904D01*
X188252095Y-103363936D01*
X188139058Y-103308677D01*
X188065778Y-103298000D01*
X187744500Y-103298000D01*
X187744500Y-104648000D01*
X187490500Y-104648000D01*
X187490500Y-103298000D01*
X187169222Y-103298000D01*
X187095943Y-103308676D01*
X187095939Y-103308678D01*
X186982904Y-103363936D01*
X186893936Y-103452904D01*
X186838677Y-103565941D01*
X186828000Y-103639221D01*
X186690000Y-103639221D01*
X186690000Y-103276888D01*
X186708306Y-103232694D01*
X186925694Y-103015306D01*
X186969888Y-102997000D01*
X188950112Y-102997000D01*
X188994306Y-103015306D01*
G37*
G04 #@! TD.AperFunction*
G04 #@! TD*
G04 #@! TA.AperFunction,Conductor*
G04 #@! TO.N,GNDS*
G36*
X135273306Y-84854306D02*
G01*
X135490694Y-85071694D01*
X135509000Y-85115888D01*
X135509000Y-91668112D01*
X135490694Y-91712306D01*
X135273306Y-91929694D01*
X135229112Y-91948000D01*
X133121888Y-91948000D01*
X133077694Y-91929694D01*
X132860306Y-91712306D01*
X132842000Y-91668112D01*
X132842000Y-91305777D01*
X133792001Y-91305777D01*
X133802676Y-91379056D01*
X133802678Y-91379060D01*
X133857936Y-91492095D01*
X133946904Y-91581063D01*
X134059941Y-91636322D01*
X134133221Y-91646999D01*
X134454500Y-91646999D01*
X134708500Y-91646999D01*
X135029778Y-91646999D01*
X135103056Y-91636323D01*
X135103060Y-91636321D01*
X135216095Y-91581063D01*
X135305063Y-91492095D01*
X135360322Y-91379058D01*
X135371000Y-91305778D01*
X135371000Y-90297000D01*
X134708500Y-90297000D01*
X134708500Y-91646999D01*
X134454500Y-91646999D01*
X134454500Y-90297000D01*
X133792001Y-90297000D01*
X133792001Y-91305777D01*
X132842000Y-91305777D01*
X132842000Y-89034221D01*
X133792000Y-89034221D01*
X133792000Y-90043000D01*
X134454500Y-90043000D01*
X134708500Y-90043000D01*
X135370999Y-90043000D01*
X135370999Y-89034222D01*
X135360323Y-88960943D01*
X135360321Y-88960939D01*
X135305063Y-88847904D01*
X135216095Y-88758936D01*
X135103058Y-88703677D01*
X135029778Y-88693000D01*
X134708500Y-88693000D01*
X134708500Y-90043000D01*
X134454500Y-90043000D01*
X134454500Y-88693000D01*
X134133222Y-88693000D01*
X134059943Y-88703676D01*
X134059939Y-88703678D01*
X133946904Y-88758936D01*
X133857936Y-88847904D01*
X133802677Y-88960941D01*
X133792000Y-89034221D01*
X132842000Y-89034221D01*
X132842000Y-87749777D01*
X133792001Y-87749777D01*
X133802676Y-87823056D01*
X133802678Y-87823060D01*
X133857936Y-87936095D01*
X133946904Y-88025063D01*
X134059941Y-88080322D01*
X134133221Y-88090999D01*
X134454500Y-88090999D01*
X134708500Y-88090999D01*
X135029778Y-88090999D01*
X135103056Y-88080323D01*
X135103060Y-88080321D01*
X135216095Y-88025063D01*
X135305063Y-87936095D01*
X135360322Y-87823058D01*
X135371000Y-87749778D01*
X135371000Y-86741000D01*
X134708500Y-86741000D01*
X134708500Y-88090999D01*
X134454500Y-88090999D01*
X134454500Y-86741000D01*
X133792001Y-86741000D01*
X133792001Y-87749777D01*
X132842000Y-87749777D01*
X132842000Y-85478221D01*
X133792000Y-85478221D01*
X133792000Y-86487000D01*
X134454500Y-86487000D01*
X134708500Y-86487000D01*
X135370999Y-86487000D01*
X135370999Y-85478222D01*
X135360323Y-85404943D01*
X135360321Y-85404939D01*
X135305063Y-85291904D01*
X135216095Y-85202936D01*
X135103058Y-85147677D01*
X135029778Y-85137000D01*
X134708500Y-85137000D01*
X134708500Y-86487000D01*
X134454500Y-86487000D01*
X134454500Y-85137000D01*
X134133222Y-85137000D01*
X134059943Y-85147676D01*
X134059939Y-85147678D01*
X133946904Y-85202936D01*
X133857936Y-85291904D01*
X133802677Y-85404941D01*
X133792000Y-85478221D01*
X132842000Y-85478221D01*
X132842000Y-85115888D01*
X132860306Y-85071694D01*
X133077694Y-84854306D01*
X133121888Y-84836000D01*
X135229112Y-84836000D01*
X135273306Y-84854306D01*
G37*
G04 #@! TD.AperFunction*
G04 #@! TD*
G04 #@! TA.AperFunction,Conductor*
G04 #@! TO.N,GND*
G36*
X185565306Y-109111306D02*
G01*
X185782694Y-109328694D01*
X185801000Y-109372888D01*
X185801000Y-112369112D01*
X185782694Y-112413306D01*
X185565306Y-112630694D01*
X185521112Y-112649000D01*
X183540888Y-112649000D01*
X183496694Y-112630694D01*
X183279306Y-112413306D01*
X183261000Y-112369112D01*
X183261000Y-112006777D01*
X183399001Y-112006777D01*
X183409676Y-112080056D01*
X183409678Y-112080060D01*
X183464936Y-112193095D01*
X183553904Y-112282063D01*
X183666941Y-112337322D01*
X183740221Y-112347999D01*
X184061500Y-112347999D01*
X184315500Y-112347999D01*
X184636778Y-112347999D01*
X184710056Y-112337323D01*
X184710060Y-112337321D01*
X184823095Y-112282063D01*
X184912063Y-112193095D01*
X184967322Y-112080058D01*
X184978000Y-112006778D01*
X184978000Y-110998000D01*
X184315500Y-110998000D01*
X184315500Y-112347999D01*
X184061500Y-112347999D01*
X184061500Y-110998000D01*
X183399001Y-110998000D01*
X183399001Y-112006777D01*
X183261000Y-112006777D01*
X183261000Y-109735221D01*
X183399000Y-109735221D01*
X183399000Y-110744000D01*
X184061500Y-110744000D01*
X184315500Y-110744000D01*
X184977999Y-110744000D01*
X184977999Y-109735222D01*
X184967323Y-109661943D01*
X184967321Y-109661939D01*
X184912063Y-109548904D01*
X184823095Y-109459936D01*
X184710058Y-109404677D01*
X184636778Y-109394000D01*
X184315500Y-109394000D01*
X184315500Y-110744000D01*
X184061500Y-110744000D01*
X184061500Y-109394000D01*
X183740222Y-109394000D01*
X183666943Y-109404676D01*
X183666939Y-109404678D01*
X183553904Y-109459936D01*
X183464936Y-109548904D01*
X183409677Y-109661941D01*
X183399000Y-109735221D01*
X183261000Y-109735221D01*
X183261000Y-109372888D01*
X183279306Y-109328694D01*
X183496694Y-109111306D01*
X183540888Y-109093000D01*
X185521112Y-109093000D01*
X185565306Y-109111306D01*
G37*
G04 #@! TD.AperFunction*
G04 #@! TD*
G04 #@! TA.AperFunction,Conductor*
G04 #@! TO.N,Net-(J1-Pin_1)*
G36*
X129431306Y-75583306D02*
G01*
X129648694Y-75800694D01*
X129667000Y-75844888D01*
X129667000Y-76772631D01*
X129648694Y-76816825D01*
X129604500Y-76835131D01*
X129560306Y-76816825D01*
X129548231Y-76804750D01*
X129438942Y-76751323D01*
X129368091Y-76741000D01*
X129173000Y-76741000D01*
X129173000Y-77945000D01*
X129368091Y-77945000D01*
X129438942Y-77934676D01*
X129548231Y-77881249D01*
X129560306Y-77869175D01*
X129604500Y-77850869D01*
X129648694Y-77869175D01*
X129667000Y-77913369D01*
X129667000Y-79133631D01*
X129648694Y-79177825D01*
X129604500Y-79196131D01*
X129560306Y-79177825D01*
X129473231Y-79090750D01*
X129363942Y-79037323D01*
X129293091Y-79027000D01*
X129135500Y-79027000D01*
X129135500Y-80231000D01*
X129293091Y-80231000D01*
X129363942Y-80220676D01*
X129473231Y-80167249D01*
X129560306Y-80080175D01*
X129604500Y-80061869D01*
X129648694Y-80080175D01*
X129667000Y-80124369D01*
X129667000Y-89890112D01*
X129648694Y-89934306D01*
X129431306Y-90151694D01*
X129387112Y-90170000D01*
X122199888Y-90170000D01*
X122155694Y-90151694D01*
X121938306Y-89934306D01*
X121920000Y-89890112D01*
X121920000Y-88812507D01*
X123870999Y-88812507D01*
X123878369Y-88849553D01*
X123878369Y-88849554D01*
X123906438Y-88891561D01*
X123948446Y-88919630D01*
X123985493Y-88927000D01*
X125171000Y-88927000D01*
X125171000Y-88137472D01*
X125233981Y-88150000D01*
X125362019Y-88150000D01*
X125425000Y-88137472D01*
X125425000Y-88927000D01*
X126610507Y-88927000D01*
X126647553Y-88919630D01*
X126647554Y-88919630D01*
X126689561Y-88891561D01*
X126717630Y-88849554D01*
X126717630Y-88849553D01*
X126725000Y-88812507D01*
X126725000Y-87627000D01*
X125935472Y-87627000D01*
X125948000Y-87564019D01*
X125948000Y-87435981D01*
X125935472Y-87373000D01*
X126725000Y-87373000D01*
X126725000Y-86187492D01*
X126717630Y-86150446D01*
X126717630Y-86150445D01*
X126689561Y-86108438D01*
X126647553Y-86080369D01*
X126610507Y-86073000D01*
X125425000Y-86073000D01*
X125425000Y-86862527D01*
X125362019Y-86850000D01*
X125233981Y-86850000D01*
X125171000Y-86862527D01*
X125171000Y-86073000D01*
X123985493Y-86073000D01*
X123948446Y-86080369D01*
X123948445Y-86080369D01*
X123906438Y-86108438D01*
X123878369Y-86150445D01*
X123878369Y-86150446D01*
X123871000Y-86187492D01*
X123871000Y-87373000D01*
X124660528Y-87373000D01*
X124648000Y-87435981D01*
X124648000Y-87564019D01*
X124660528Y-87627000D01*
X123871000Y-87627000D01*
X123871000Y-88812507D01*
X123870999Y-88812507D01*
X121920000Y-88812507D01*
X121920000Y-81559888D01*
X121938306Y-81515694D01*
X122155694Y-81298306D01*
X122199888Y-81280000D01*
X125349000Y-81280000D01*
X125603000Y-81280000D01*
X125603000Y-79621777D01*
X125995001Y-79621777D01*
X126005676Y-79695056D01*
X126005678Y-79695060D01*
X126060936Y-79808095D01*
X126149904Y-79897063D01*
X126262941Y-79952322D01*
X126336221Y-79962999D01*
X126657500Y-79962999D01*
X126911500Y-79962999D01*
X127232778Y-79962999D01*
X127306056Y-79952323D01*
X127306060Y-79952321D01*
X127410855Y-79901091D01*
X128394000Y-79901091D01*
X128404323Y-79971942D01*
X128457750Y-80081231D01*
X128543768Y-80167249D01*
X128653057Y-80220676D01*
X128723909Y-80231000D01*
X128881500Y-80231000D01*
X128881500Y-79756000D01*
X128394000Y-79756000D01*
X128394000Y-79901091D01*
X127410855Y-79901091D01*
X127419095Y-79897063D01*
X127508063Y-79808095D01*
X127563322Y-79695058D01*
X127574000Y-79621778D01*
X127574000Y-79356908D01*
X128394000Y-79356908D01*
X128394000Y-79502000D01*
X128881500Y-79502000D01*
X128881500Y-79027000D01*
X128723909Y-79027000D01*
X128653057Y-79037323D01*
X128543768Y-79090750D01*
X128457750Y-79176768D01*
X128404323Y-79286057D01*
X128394000Y-79356908D01*
X127574000Y-79356908D01*
X127574000Y-78613000D01*
X126911500Y-78613000D01*
X126911500Y-79962999D01*
X126657500Y-79962999D01*
X126657500Y-78613000D01*
X125995001Y-78613000D01*
X125995001Y-79621777D01*
X125603000Y-79621777D01*
X125603000Y-77350221D01*
X125995000Y-77350221D01*
X125995000Y-78359000D01*
X126657500Y-78359000D01*
X126911500Y-78359000D01*
X127573999Y-78359000D01*
X127573999Y-77615091D01*
X128394000Y-77615091D01*
X128404323Y-77685942D01*
X128457750Y-77795231D01*
X128543768Y-77881249D01*
X128653057Y-77934676D01*
X128723909Y-77945000D01*
X128919000Y-77945000D01*
X128919000Y-77470000D01*
X128394000Y-77470000D01*
X128394000Y-77615091D01*
X127573999Y-77615091D01*
X127573999Y-77350222D01*
X127563323Y-77276943D01*
X127563321Y-77276939D01*
X127508063Y-77163904D01*
X127419095Y-77074936D01*
X127410855Y-77070908D01*
X128394000Y-77070908D01*
X128394000Y-77216000D01*
X128919000Y-77216000D01*
X128919000Y-76741000D01*
X128723909Y-76741000D01*
X128653057Y-76751323D01*
X128543768Y-76804750D01*
X128457750Y-76890768D01*
X128404323Y-77000057D01*
X128394000Y-77070908D01*
X127410855Y-77070908D01*
X127306058Y-77019677D01*
X127232778Y-77009000D01*
X126911500Y-77009000D01*
X126911500Y-78359000D01*
X126657500Y-78359000D01*
X126657500Y-77009000D01*
X126336222Y-77009000D01*
X126262943Y-77019676D01*
X126262939Y-77019678D01*
X126149904Y-77074936D01*
X126060936Y-77163904D01*
X126005677Y-77276941D01*
X125995000Y-77350221D01*
X125603000Y-77350221D01*
X125603000Y-75844888D01*
X125621306Y-75800694D01*
X125838694Y-75583306D01*
X125882888Y-75565000D01*
X129387112Y-75565000D01*
X129431306Y-75583306D01*
G37*
G04 #@! TD.AperFunction*
G04 #@! TD*
G04 #@! TA.AperFunction,Conductor*
G04 #@! TO.N,GND*
G36*
X176929306Y-84600306D02*
G01*
X177146694Y-84817694D01*
X177165000Y-84861888D01*
X177165000Y-90271112D01*
X177146694Y-90315306D01*
X176929306Y-90532694D01*
X176885112Y-90551000D01*
X168773500Y-90551000D01*
X168729306Y-90532694D01*
X168711000Y-90488500D01*
X168711000Y-90409644D01*
X168710999Y-90409643D01*
X168697829Y-90343429D01*
X168697828Y-90343427D01*
X168647658Y-90268342D01*
X168635430Y-90260171D01*
X168344602Y-90551000D01*
X168023395Y-90551000D01*
X167732567Y-90260172D01*
X167720344Y-90268340D01*
X167720340Y-90268343D01*
X167670171Y-90343427D01*
X167670170Y-90343429D01*
X167657000Y-90409643D01*
X167657000Y-90417112D01*
X167638694Y-90461306D01*
X167594500Y-90479612D01*
X167550306Y-90461306D01*
X167404306Y-90315306D01*
X167386000Y-90271112D01*
X167386000Y-90205000D01*
X168036605Y-90205000D01*
X168184000Y-90352394D01*
X168331394Y-90205000D01*
X168036605Y-90205000D01*
X167386000Y-90205000D01*
X167386000Y-89553091D01*
X167557000Y-89553091D01*
X167567323Y-89623942D01*
X167620750Y-89733231D01*
X167706768Y-89819249D01*
X167816057Y-89872676D01*
X167886909Y-89883000D01*
X168044500Y-89883000D01*
X168298500Y-89883000D01*
X168456091Y-89883000D01*
X168526942Y-89872676D01*
X168636231Y-89819249D01*
X168637703Y-89817777D01*
X170227001Y-89817777D01*
X170237676Y-89891056D01*
X170237678Y-89891060D01*
X170292936Y-90004095D01*
X170381904Y-90093063D01*
X170494941Y-90148322D01*
X170568221Y-90158999D01*
X171577000Y-90158999D01*
X171831000Y-90158999D01*
X172839778Y-90158999D01*
X172913056Y-90148323D01*
X172913060Y-90148321D01*
X173026095Y-90093063D01*
X173115063Y-90004095D01*
X173132817Y-89967777D01*
X174487001Y-89967777D01*
X174497676Y-90041056D01*
X174497678Y-90041060D01*
X174552936Y-90154095D01*
X174641904Y-90243063D01*
X174754941Y-90298322D01*
X174828221Y-90308999D01*
X175387000Y-90308999D01*
X175641000Y-90308999D01*
X176199778Y-90308999D01*
X176273056Y-90298323D01*
X176273060Y-90298321D01*
X176386095Y-90243063D01*
X176475063Y-90154095D01*
X176530322Y-90041058D01*
X176541000Y-89967778D01*
X176541000Y-89059000D01*
X175641000Y-89059000D01*
X175641000Y-90308999D01*
X175387000Y-90308999D01*
X175387000Y-89059000D01*
X174487001Y-89059000D01*
X174487001Y-89967777D01*
X173132817Y-89967777D01*
X173170322Y-89891058D01*
X173181000Y-89817778D01*
X173181000Y-89496500D01*
X171831000Y-89496500D01*
X171831000Y-90158999D01*
X171577000Y-90158999D01*
X171577000Y-89496500D01*
X170227001Y-89496500D01*
X170227001Y-89817777D01*
X168637703Y-89817777D01*
X168722249Y-89733231D01*
X168775676Y-89623942D01*
X168786000Y-89553091D01*
X168786000Y-89408000D01*
X168298500Y-89408000D01*
X168298500Y-89883000D01*
X168044500Y-89883000D01*
X168044500Y-89408000D01*
X167557000Y-89408000D01*
X167557000Y-89553091D01*
X167386000Y-89553091D01*
X167386000Y-89008908D01*
X167557000Y-89008908D01*
X167557000Y-89154000D01*
X168044500Y-89154000D01*
X168298500Y-89154000D01*
X168786000Y-89154000D01*
X168786000Y-89008908D01*
X168775676Y-88938057D01*
X168767446Y-88921221D01*
X170227000Y-88921221D01*
X170227000Y-89242500D01*
X171577000Y-89242500D01*
X171831000Y-89242500D01*
X173180999Y-89242500D01*
X173180999Y-88921222D01*
X173170323Y-88847943D01*
X173170321Y-88847939D01*
X173115063Y-88734904D01*
X173026095Y-88645936D01*
X172913058Y-88590677D01*
X172839778Y-88580000D01*
X171831000Y-88580000D01*
X171831000Y-89242500D01*
X171577000Y-89242500D01*
X171577000Y-88580000D01*
X170568222Y-88580000D01*
X170494943Y-88590676D01*
X170494939Y-88590678D01*
X170381904Y-88645936D01*
X170292936Y-88734904D01*
X170237677Y-88847941D01*
X170227000Y-88921221D01*
X168767446Y-88921221D01*
X168722249Y-88828768D01*
X168636231Y-88742750D01*
X168526942Y-88689323D01*
X168456091Y-88679000D01*
X168298500Y-88679000D01*
X168298500Y-89154000D01*
X168044500Y-89154000D01*
X168044500Y-88679000D01*
X167886909Y-88679000D01*
X167816057Y-88689323D01*
X167706768Y-88742750D01*
X167620750Y-88828768D01*
X167567323Y-88938057D01*
X167557000Y-89008908D01*
X167386000Y-89008908D01*
X167386000Y-87896221D01*
X174487000Y-87896221D01*
X174487000Y-88805000D01*
X175387000Y-88805000D01*
X175641000Y-88805000D01*
X176540999Y-88805000D01*
X176540999Y-87896222D01*
X176530323Y-87822943D01*
X176530321Y-87822939D01*
X176475063Y-87709904D01*
X176386095Y-87620936D01*
X176273058Y-87565677D01*
X176199778Y-87555000D01*
X175641000Y-87555000D01*
X175641000Y-88805000D01*
X175387000Y-88805000D01*
X175387000Y-87555000D01*
X174828222Y-87555000D01*
X174754943Y-87565676D01*
X174754939Y-87565678D01*
X174641904Y-87620936D01*
X174552936Y-87709904D01*
X174497677Y-87822941D01*
X174487000Y-87896221D01*
X167386000Y-87896221D01*
X167386000Y-84861888D01*
X167404306Y-84817694D01*
X167621694Y-84600306D01*
X167665888Y-84582000D01*
X176885112Y-84582000D01*
X176929306Y-84600306D01*
G37*
G04 #@! TD.AperFunction*
G04 #@! TD*
G04 #@! TA.AperFunction,Conductor*
G04 #@! TO.N,Net-(U6-VI)*
G36*
X171087306Y-66820306D02*
G01*
X171304694Y-67037694D01*
X171323000Y-67081888D01*
X171323000Y-71983112D01*
X171304694Y-72027306D01*
X171087306Y-72244694D01*
X171043112Y-72263000D01*
X167030888Y-72263000D01*
X166986694Y-72244694D01*
X166769306Y-72027306D01*
X166751000Y-71983112D01*
X166751000Y-71969507D01*
X167109999Y-71969507D01*
X167117369Y-72006553D01*
X167117369Y-72006554D01*
X167145438Y-72048561D01*
X167187446Y-72076630D01*
X167224493Y-72084000D01*
X168910000Y-72084000D01*
X169164000Y-72084000D01*
X170849507Y-72084000D01*
X170886553Y-72076630D01*
X170886554Y-72076630D01*
X170928561Y-72048561D01*
X170956630Y-72006554D01*
X170956630Y-72006553D01*
X170964000Y-71969507D01*
X170964000Y-71384000D01*
X169164000Y-71384000D01*
X169164000Y-72084000D01*
X168910000Y-72084000D01*
X168910000Y-71384000D01*
X167110000Y-71384000D01*
X167110000Y-71969507D01*
X167109999Y-71969507D01*
X166751000Y-71969507D01*
X166751000Y-70544492D01*
X167110000Y-70544492D01*
X167110000Y-71130000D01*
X168910000Y-71130000D01*
X169164000Y-71130000D01*
X170964000Y-71130000D01*
X170964000Y-70544492D01*
X170956630Y-70507446D01*
X170956630Y-70507445D01*
X170928561Y-70465438D01*
X170886553Y-70437369D01*
X170849507Y-70430000D01*
X169164000Y-70430000D01*
X169164000Y-71130000D01*
X168910000Y-71130000D01*
X168910000Y-70430000D01*
X167224493Y-70430000D01*
X167187446Y-70437369D01*
X167187445Y-70437369D01*
X167145438Y-70465438D01*
X167117369Y-70507445D01*
X167117369Y-70507446D01*
X167110000Y-70544492D01*
X166751000Y-70544492D01*
X166751000Y-69588777D01*
X167270001Y-69588777D01*
X167280676Y-69662056D01*
X167280678Y-69662060D01*
X167335936Y-69775095D01*
X167424904Y-69864063D01*
X167537941Y-69919322D01*
X167611221Y-69929999D01*
X167932500Y-69929999D01*
X168186500Y-69929999D01*
X168507778Y-69929999D01*
X168581056Y-69919323D01*
X168581060Y-69919321D01*
X168694095Y-69864063D01*
X168783063Y-69775095D01*
X168838322Y-69662058D01*
X168849000Y-69588778D01*
X168849000Y-69588777D01*
X169225001Y-69588777D01*
X169235676Y-69662056D01*
X169235678Y-69662060D01*
X169290936Y-69775095D01*
X169379904Y-69864063D01*
X169492941Y-69919322D01*
X169566221Y-69929999D01*
X169887500Y-69929999D01*
X170141500Y-69929999D01*
X170462778Y-69929999D01*
X170536056Y-69919323D01*
X170536060Y-69919321D01*
X170649095Y-69864063D01*
X170738063Y-69775095D01*
X170793322Y-69662058D01*
X170804000Y-69588778D01*
X170804000Y-68580000D01*
X170141500Y-68580000D01*
X170141500Y-69929999D01*
X169887500Y-69929999D01*
X169887500Y-68580000D01*
X169225001Y-68580000D01*
X169225001Y-69588777D01*
X168849000Y-69588777D01*
X168849000Y-68580000D01*
X168186500Y-68580000D01*
X168186500Y-69929999D01*
X167932500Y-69929999D01*
X167932500Y-68580000D01*
X167270001Y-68580000D01*
X167270001Y-69588777D01*
X166751000Y-69588777D01*
X166751000Y-67317221D01*
X167270000Y-67317221D01*
X167270000Y-68326000D01*
X167932500Y-68326000D01*
X168186500Y-68326000D01*
X168848999Y-68326000D01*
X168848999Y-67317222D01*
X168848999Y-67317221D01*
X169225000Y-67317221D01*
X169225000Y-68326000D01*
X169887500Y-68326000D01*
X170141500Y-68326000D01*
X170803999Y-68326000D01*
X170803999Y-67317222D01*
X170793323Y-67243943D01*
X170793321Y-67243939D01*
X170738063Y-67130904D01*
X170649095Y-67041936D01*
X170536058Y-66986677D01*
X170462778Y-66976000D01*
X170141500Y-66976000D01*
X170141500Y-68326000D01*
X169887500Y-68326000D01*
X169887500Y-66976000D01*
X169566222Y-66976000D01*
X169492943Y-66986676D01*
X169492939Y-66986678D01*
X169379904Y-67041936D01*
X169290936Y-67130904D01*
X169235677Y-67243941D01*
X169225000Y-67317221D01*
X168848999Y-67317221D01*
X168838323Y-67243943D01*
X168838321Y-67243939D01*
X168783063Y-67130904D01*
X168694095Y-67041936D01*
X168581058Y-66986677D01*
X168507778Y-66976000D01*
X168186500Y-66976000D01*
X168186500Y-68326000D01*
X167932500Y-68326000D01*
X167932500Y-66976000D01*
X167611222Y-66976000D01*
X167537943Y-66986676D01*
X167537939Y-66986678D01*
X167424904Y-67041936D01*
X167335936Y-67130904D01*
X167280677Y-67243941D01*
X167270000Y-67317221D01*
X166751000Y-67317221D01*
X166751000Y-67081888D01*
X166769306Y-67037694D01*
X166986694Y-66820306D01*
X167030888Y-66802000D01*
X171043112Y-66802000D01*
X171087306Y-66820306D01*
G37*
G04 #@! TD.AperFunction*
G04 #@! TD*
G04 #@! TA.AperFunction,Conductor*
G04 #@! TO.N,Net-(U1-VCC)*
G36*
X138956306Y-75583306D02*
G01*
X139173694Y-75800694D01*
X139192000Y-75844888D01*
X139192000Y-90170000D01*
X139946082Y-90170000D01*
X139958275Y-90171201D01*
X139979888Y-90175500D01*
X143738112Y-90175500D01*
X143738113Y-90175500D01*
X143759725Y-90171200D01*
X143771918Y-90170000D01*
X143992112Y-90170000D01*
X144036306Y-90188306D01*
X144253694Y-90405694D01*
X144272000Y-90449888D01*
X144272000Y-94081111D01*
X144253694Y-94125305D01*
X144214694Y-94164305D01*
X144170500Y-94182611D01*
X144126306Y-94164305D01*
X144108000Y-94120111D01*
X144108000Y-93958500D01*
X142404001Y-93958500D01*
X142404001Y-94204780D01*
X142405994Y-94218463D01*
X142394250Y-94264834D01*
X142353155Y-94289318D01*
X142340567Y-94289405D01*
X142340567Y-94289500D01*
X141980388Y-94289500D01*
X141945382Y-94275000D01*
X140255500Y-94275000D01*
X140244403Y-94270403D01*
X140099306Y-94125306D01*
X140081000Y-94081112D01*
X140081000Y-93998179D01*
X140236000Y-93998179D01*
X140236000Y-94021000D01*
X140961000Y-94021000D01*
X141215000Y-94021000D01*
X141940000Y-94021000D01*
X141940000Y-93998180D01*
X141939999Y-93998179D01*
X141925379Y-93924675D01*
X141925377Y-93924671D01*
X141869681Y-93841318D01*
X141786328Y-93785622D01*
X141786324Y-93785620D01*
X141712820Y-93771000D01*
X141215000Y-93771000D01*
X141215000Y-94021000D01*
X140961000Y-94021000D01*
X140961000Y-93771000D01*
X140463180Y-93771000D01*
X140389675Y-93785620D01*
X140389671Y-93785622D01*
X140306318Y-93841318D01*
X140250622Y-93924671D01*
X140250620Y-93924675D01*
X140236000Y-93998179D01*
X140081000Y-93998179D01*
X140081000Y-93458221D01*
X142404000Y-93458221D01*
X142404000Y-93704500D01*
X143129000Y-93704500D01*
X143383000Y-93704500D01*
X144107999Y-93704500D01*
X144107999Y-93458222D01*
X144097323Y-93384943D01*
X144097321Y-93384939D01*
X144042063Y-93271904D01*
X143953095Y-93182936D01*
X143840058Y-93127677D01*
X143766778Y-93117000D01*
X143383000Y-93117000D01*
X143383000Y-93704500D01*
X143129000Y-93704500D01*
X143129000Y-93117000D01*
X142745222Y-93117000D01*
X142671943Y-93127676D01*
X142671939Y-93127678D01*
X142558904Y-93182936D01*
X142469936Y-93271904D01*
X142414677Y-93384941D01*
X142404000Y-93458221D01*
X140081000Y-93458221D01*
X140081000Y-93218000D01*
X140081000Y-92964000D01*
X139827000Y-92964000D01*
X136423888Y-92964000D01*
X136379694Y-92945694D01*
X136162306Y-92728306D01*
X136144000Y-92684112D01*
X136144000Y-91305777D01*
X136917001Y-91305777D01*
X136927676Y-91379056D01*
X136927678Y-91379060D01*
X136982936Y-91492095D01*
X137071904Y-91581063D01*
X137184941Y-91636322D01*
X137258221Y-91646999D01*
X137579500Y-91646999D01*
X137833500Y-91646999D01*
X138154778Y-91646999D01*
X138228056Y-91636323D01*
X138228060Y-91636321D01*
X138341095Y-91581063D01*
X138430063Y-91492095D01*
X138461016Y-91428777D01*
X140016001Y-91428777D01*
X140026676Y-91502056D01*
X140026678Y-91502060D01*
X140081936Y-91615095D01*
X140170904Y-91704063D01*
X140283941Y-91759322D01*
X140357221Y-91769999D01*
X140716000Y-91769999D01*
X140970000Y-91769999D01*
X141328778Y-91769999D01*
X141402056Y-91759323D01*
X141402060Y-91759321D01*
X141515095Y-91704063D01*
X141604063Y-91615095D01*
X141659322Y-91502058D01*
X141666357Y-91453777D01*
X142023001Y-91453777D01*
X142033676Y-91527056D01*
X142033678Y-91527060D01*
X142088936Y-91640095D01*
X142177904Y-91729063D01*
X142290941Y-91784322D01*
X142364221Y-91794999D01*
X142748000Y-91794999D01*
X143002000Y-91794999D01*
X143385778Y-91794999D01*
X143459056Y-91784323D01*
X143459060Y-91784321D01*
X143572095Y-91729063D01*
X143661063Y-91640095D01*
X143716322Y-91527058D01*
X143727000Y-91453778D01*
X143727000Y-91207500D01*
X143002000Y-91207500D01*
X143002000Y-91794999D01*
X142748000Y-91794999D01*
X142748000Y-91207500D01*
X142023001Y-91207500D01*
X142023001Y-91453777D01*
X141666357Y-91453777D01*
X141670000Y-91428778D01*
X141670000Y-91170000D01*
X140970000Y-91170000D01*
X140970000Y-91769999D01*
X140716000Y-91769999D01*
X140716000Y-91170000D01*
X140016001Y-91170000D01*
X140016001Y-91428777D01*
X138461016Y-91428777D01*
X138485322Y-91379058D01*
X138496000Y-91305778D01*
X138496000Y-90657221D01*
X140016000Y-90657221D01*
X140016000Y-90916000D01*
X140716000Y-90916000D01*
X140970000Y-90916000D01*
X141669999Y-90916000D01*
X141669999Y-90707221D01*
X142023000Y-90707221D01*
X142023000Y-90953500D01*
X142748000Y-90953500D01*
X143002000Y-90953500D01*
X143726999Y-90953500D01*
X143726999Y-90707222D01*
X143716323Y-90633943D01*
X143716321Y-90633939D01*
X143661063Y-90520904D01*
X143572095Y-90431936D01*
X143459058Y-90376677D01*
X143385778Y-90366000D01*
X143002000Y-90366000D01*
X143002000Y-90953500D01*
X142748000Y-90953500D01*
X142748000Y-90366000D01*
X142364222Y-90366000D01*
X142290943Y-90376676D01*
X142290939Y-90376678D01*
X142177904Y-90431936D01*
X142088936Y-90520904D01*
X142033677Y-90633941D01*
X142023000Y-90707221D01*
X141669999Y-90707221D01*
X141669999Y-90657222D01*
X141659323Y-90583943D01*
X141659321Y-90583939D01*
X141604063Y-90470904D01*
X141515095Y-90381936D01*
X141402058Y-90326677D01*
X141328778Y-90316000D01*
X140970000Y-90316000D01*
X140970000Y-90916000D01*
X140716000Y-90916000D01*
X140716000Y-90316000D01*
X140357222Y-90316000D01*
X140283943Y-90326676D01*
X140283939Y-90326678D01*
X140170904Y-90381936D01*
X140081936Y-90470904D01*
X140026677Y-90583941D01*
X140016000Y-90657221D01*
X138496000Y-90657221D01*
X138496000Y-90297000D01*
X137833500Y-90297000D01*
X137833500Y-91646999D01*
X137579500Y-91646999D01*
X137579500Y-90297000D01*
X136917001Y-90297000D01*
X136917001Y-91305777D01*
X136144000Y-91305777D01*
X136144000Y-89034221D01*
X136917000Y-89034221D01*
X136917000Y-90043000D01*
X137579500Y-90043000D01*
X137833500Y-90043000D01*
X138495999Y-90043000D01*
X138495999Y-89034222D01*
X138485323Y-88960943D01*
X138485321Y-88960939D01*
X138430063Y-88847904D01*
X138341095Y-88758936D01*
X138228058Y-88703677D01*
X138154778Y-88693000D01*
X137833500Y-88693000D01*
X137833500Y-90043000D01*
X137579500Y-90043000D01*
X137579500Y-88693000D01*
X137258222Y-88693000D01*
X137184943Y-88703676D01*
X137184939Y-88703678D01*
X137071904Y-88758936D01*
X136982936Y-88847904D01*
X136927677Y-88960941D01*
X136917000Y-89034221D01*
X136144000Y-89034221D01*
X136144000Y-87749777D01*
X136917001Y-87749777D01*
X136927676Y-87823056D01*
X136927678Y-87823060D01*
X136982936Y-87936095D01*
X137071904Y-88025063D01*
X137184941Y-88080322D01*
X137258221Y-88090999D01*
X137579500Y-88090999D01*
X137833500Y-88090999D01*
X138154778Y-88090999D01*
X138228056Y-88080323D01*
X138228060Y-88080321D01*
X138341095Y-88025063D01*
X138430063Y-87936095D01*
X138485322Y-87823058D01*
X138496000Y-87749778D01*
X138496000Y-86741000D01*
X137833500Y-86741000D01*
X137833500Y-88090999D01*
X137579500Y-88090999D01*
X137579500Y-86741000D01*
X136917001Y-86741000D01*
X136917001Y-87749777D01*
X136144000Y-87749777D01*
X136144000Y-85478221D01*
X136917000Y-85478221D01*
X136917000Y-86487000D01*
X137579500Y-86487000D01*
X137833500Y-86487000D01*
X138495999Y-86487000D01*
X138495999Y-85478222D01*
X138485323Y-85404943D01*
X138485321Y-85404939D01*
X138430063Y-85291904D01*
X138341095Y-85202936D01*
X138228058Y-85147677D01*
X138154778Y-85137000D01*
X137833500Y-85137000D01*
X137833500Y-86487000D01*
X137579500Y-86487000D01*
X137579500Y-85137000D01*
X137258222Y-85137000D01*
X137184943Y-85147676D01*
X137184939Y-85147678D01*
X137071904Y-85202936D01*
X136982936Y-85291904D01*
X136927677Y-85404941D01*
X136917000Y-85478221D01*
X136144000Y-85478221D01*
X136144000Y-84582000D01*
X136144000Y-84328000D01*
X135890000Y-84328000D01*
X130581888Y-84328000D01*
X130537694Y-84309694D01*
X130320306Y-84092306D01*
X130302000Y-84048112D01*
X130302000Y-80234731D01*
X130320306Y-80190537D01*
X130364500Y-80172231D01*
X130391950Y-80178582D01*
X130478056Y-80220676D01*
X130548909Y-80231000D01*
X130706500Y-80231000D01*
X130960500Y-80231000D01*
X131118091Y-80231000D01*
X131188942Y-80220676D01*
X131298231Y-80167249D01*
X131384249Y-80081231D01*
X131437676Y-79971942D01*
X131448000Y-79901091D01*
X131448000Y-79756000D01*
X130960500Y-79756000D01*
X130960500Y-80231000D01*
X130706500Y-80231000D01*
X130706500Y-79502000D01*
X130960500Y-79502000D01*
X131448000Y-79502000D01*
X131448000Y-79356908D01*
X131437676Y-79286057D01*
X131384249Y-79176768D01*
X131298231Y-79090750D01*
X131188942Y-79037323D01*
X131118091Y-79027000D01*
X130960500Y-79027000D01*
X130960500Y-79502000D01*
X130706500Y-79502000D01*
X130706500Y-79027000D01*
X130548909Y-79027000D01*
X130478057Y-79037323D01*
X130391949Y-79079418D01*
X130344206Y-79082381D01*
X130308350Y-79050717D01*
X130302000Y-79023268D01*
X130302000Y-78378777D01*
X132684001Y-78378777D01*
X132694676Y-78452056D01*
X132694678Y-78452060D01*
X132749936Y-78565095D01*
X132838904Y-78654063D01*
X132951941Y-78709322D01*
X133025221Y-78719999D01*
X134684000Y-78719999D01*
X134938000Y-78719999D01*
X136596778Y-78719999D01*
X136670056Y-78709323D01*
X136670060Y-78709321D01*
X136783095Y-78654063D01*
X136872063Y-78565095D01*
X136927322Y-78452058D01*
X136938000Y-78378778D01*
X136938000Y-77470000D01*
X134938000Y-77470000D01*
X134938000Y-78719999D01*
X134684000Y-78719999D01*
X134684000Y-77470000D01*
X132684001Y-77470000D01*
X132684001Y-78378777D01*
X130302000Y-78378777D01*
X130302000Y-77985396D01*
X130320306Y-77941202D01*
X130364500Y-77922896D01*
X130391950Y-77929247D01*
X130403056Y-77934676D01*
X130473909Y-77945000D01*
X130669000Y-77945000D01*
X130923000Y-77945000D01*
X131118091Y-77945000D01*
X131188942Y-77934676D01*
X131298231Y-77881249D01*
X131384249Y-77795231D01*
X131437676Y-77685942D01*
X131448000Y-77615091D01*
X131448000Y-77470000D01*
X130923000Y-77470000D01*
X130923000Y-77945000D01*
X130669000Y-77945000D01*
X130669000Y-77216000D01*
X130923000Y-77216000D01*
X131448000Y-77216000D01*
X131448000Y-77070908D01*
X131437676Y-77000057D01*
X131384249Y-76890768D01*
X131298231Y-76804750D01*
X131188942Y-76751323D01*
X131118091Y-76741000D01*
X130923000Y-76741000D01*
X130923000Y-77216000D01*
X130669000Y-77216000D01*
X130669000Y-76741000D01*
X130473909Y-76741000D01*
X130403057Y-76751323D01*
X130391947Y-76756754D01*
X130344204Y-76759716D01*
X130308349Y-76728050D01*
X130302000Y-76700603D01*
X130302000Y-76307221D01*
X132684000Y-76307221D01*
X132684000Y-77216000D01*
X134684000Y-77216000D01*
X134938000Y-77216000D01*
X136937999Y-77216000D01*
X136937999Y-76307222D01*
X136927323Y-76233943D01*
X136927321Y-76233939D01*
X136872063Y-76120904D01*
X136783095Y-76031936D01*
X136670058Y-75976677D01*
X136596778Y-75966000D01*
X134938000Y-75966000D01*
X134938000Y-77216000D01*
X134684000Y-77216000D01*
X134684000Y-75966000D01*
X133025222Y-75966000D01*
X132951943Y-75976676D01*
X132951939Y-75976678D01*
X132838904Y-76031936D01*
X132749936Y-76120904D01*
X132694677Y-76233941D01*
X132684000Y-76307221D01*
X130302000Y-76307221D01*
X130302000Y-75844888D01*
X130320306Y-75800694D01*
X130537694Y-75583306D01*
X130581888Y-75565000D01*
X138912112Y-75565000D01*
X138956306Y-75583306D01*
G37*
G04 #@! TD.AperFunction*
G04 #@! TD*
G04 #@! TA.AperFunction,Conductor*
G04 #@! TO.N,+24V*
G36*
X168635431Y-91603826D02*
G01*
X168647657Y-91595657D01*
X168697828Y-91520572D01*
X168697829Y-91520570D01*
X168710999Y-91454356D01*
X168711000Y-91454356D01*
X168711000Y-91375500D01*
X168729306Y-91331306D01*
X168773500Y-91313000D01*
X176885112Y-91313000D01*
X176929306Y-91331306D01*
X177146694Y-91548694D01*
X177165000Y-91592888D01*
X177165000Y-97256112D01*
X177146694Y-97300306D01*
X176929306Y-97517694D01*
X176885112Y-97536000D01*
X170001162Y-97536000D01*
X169956968Y-97517694D01*
X169938662Y-97473500D01*
X169956968Y-97429306D01*
X169996258Y-97411193D01*
X170165607Y-97397865D01*
X170165611Y-97397864D01*
X170399322Y-97341755D01*
X170399331Y-97341752D01*
X170621382Y-97249776D01*
X170621385Y-97249774D01*
X170826324Y-97124188D01*
X170912220Y-97050825D01*
X170395102Y-96533707D01*
X170435970Y-96506401D01*
X170547401Y-96394970D01*
X170574707Y-96354102D01*
X171091825Y-96871220D01*
X171165188Y-96785324D01*
X171290774Y-96580385D01*
X171290776Y-96580382D01*
X171382752Y-96358331D01*
X171382755Y-96358322D01*
X171438864Y-96124611D01*
X171438865Y-96124607D01*
X171457722Y-95885004D01*
X171457722Y-95884995D01*
X171438865Y-95645392D01*
X171438864Y-95645388D01*
X171382755Y-95411677D01*
X171382752Y-95411668D01*
X171290776Y-95189617D01*
X171290774Y-95189614D01*
X171165190Y-94984678D01*
X171091824Y-94898779D01*
X170574707Y-95415896D01*
X170547401Y-95375030D01*
X170435970Y-95263599D01*
X170395101Y-95236291D01*
X170912219Y-94719174D01*
X170826321Y-94645809D01*
X170621385Y-94520225D01*
X170621382Y-94520223D01*
X170399331Y-94428247D01*
X170399322Y-94428244D01*
X170165611Y-94372135D01*
X170165607Y-94372134D01*
X169926004Y-94353278D01*
X169925996Y-94353278D01*
X169686392Y-94372134D01*
X169686388Y-94372135D01*
X169452677Y-94428244D01*
X169452668Y-94428247D01*
X169230617Y-94520223D01*
X169230614Y-94520225D01*
X169025679Y-94645808D01*
X168939778Y-94719173D01*
X169456897Y-95236292D01*
X169416030Y-95263599D01*
X169304599Y-95375030D01*
X169277292Y-95415897D01*
X168760173Y-94898778D01*
X168686808Y-94984679D01*
X168561225Y-95189614D01*
X168561223Y-95189617D01*
X168469247Y-95411668D01*
X168469244Y-95411677D01*
X168413135Y-95645388D01*
X168413134Y-95645392D01*
X168394278Y-95884995D01*
X168394278Y-95885004D01*
X168413134Y-96124607D01*
X168413135Y-96124611D01*
X168469244Y-96358322D01*
X168469247Y-96358331D01*
X168561223Y-96580382D01*
X168561225Y-96580385D01*
X168686809Y-96785321D01*
X168760174Y-96871219D01*
X169277291Y-96354101D01*
X169304599Y-96394970D01*
X169416030Y-96506401D01*
X169456896Y-96533707D01*
X168939779Y-97050824D01*
X169025678Y-97124190D01*
X169230614Y-97249774D01*
X169230617Y-97249776D01*
X169452668Y-97341752D01*
X169452677Y-97341755D01*
X169686388Y-97397864D01*
X169686392Y-97397865D01*
X169855742Y-97411193D01*
X169898363Y-97432909D01*
X169913145Y-97478404D01*
X169891429Y-97521025D01*
X169850838Y-97536000D01*
X167665888Y-97536000D01*
X167621694Y-97517694D01*
X167404306Y-97300306D01*
X167386000Y-97256112D01*
X167386000Y-93967777D01*
X174487001Y-93967777D01*
X174497676Y-94041056D01*
X174497678Y-94041060D01*
X174552936Y-94154095D01*
X174641904Y-94243063D01*
X174754941Y-94298322D01*
X174828221Y-94308999D01*
X175387000Y-94308999D01*
X175641000Y-94308999D01*
X176199778Y-94308999D01*
X176273056Y-94298323D01*
X176273060Y-94298321D01*
X176386095Y-94243063D01*
X176475063Y-94154095D01*
X176530322Y-94041058D01*
X176541000Y-93967778D01*
X176541000Y-93059000D01*
X175641000Y-93059000D01*
X175641000Y-94308999D01*
X175387000Y-94308999D01*
X175387000Y-93059000D01*
X174487001Y-93059000D01*
X174487001Y-93967777D01*
X167386000Y-93967777D01*
X167386000Y-92855091D01*
X167557000Y-92855091D01*
X167567323Y-92925942D01*
X167620750Y-93035231D01*
X167706768Y-93121249D01*
X167816057Y-93174676D01*
X167886909Y-93185000D01*
X168044500Y-93185000D01*
X168298500Y-93185000D01*
X168456091Y-93185000D01*
X168526942Y-93174676D01*
X168636231Y-93121249D01*
X168722249Y-93035231D01*
X168767446Y-92942777D01*
X170227001Y-92942777D01*
X170237676Y-93016056D01*
X170237678Y-93016060D01*
X170292936Y-93129095D01*
X170381904Y-93218063D01*
X170494941Y-93273322D01*
X170568221Y-93283999D01*
X171577000Y-93283999D01*
X171831000Y-93283999D01*
X172839778Y-93283999D01*
X172913056Y-93273323D01*
X172913060Y-93273321D01*
X173026095Y-93218063D01*
X173115063Y-93129095D01*
X173170322Y-93016058D01*
X173181000Y-92942778D01*
X173181000Y-92621500D01*
X171831000Y-92621500D01*
X171831000Y-93283999D01*
X171577000Y-93283999D01*
X171577000Y-92621500D01*
X170227001Y-92621500D01*
X170227001Y-92942777D01*
X168767446Y-92942777D01*
X168775676Y-92925942D01*
X168786000Y-92855091D01*
X168786000Y-92710000D01*
X168298500Y-92710000D01*
X168298500Y-93185000D01*
X168044500Y-93185000D01*
X168044500Y-92710000D01*
X167557000Y-92710000D01*
X167557000Y-92855091D01*
X167386000Y-92855091D01*
X167386000Y-92310908D01*
X167557000Y-92310908D01*
X167557000Y-92456000D01*
X168044500Y-92456000D01*
X168298500Y-92456000D01*
X168786000Y-92456000D01*
X168786000Y-92310908D01*
X168775676Y-92240057D01*
X168722249Y-92130768D01*
X168637702Y-92046221D01*
X170227000Y-92046221D01*
X170227000Y-92367500D01*
X171577000Y-92367500D01*
X171831000Y-92367500D01*
X173180999Y-92367500D01*
X173180999Y-92046222D01*
X173170323Y-91972943D01*
X173170321Y-91972939D01*
X173132817Y-91896221D01*
X174487000Y-91896221D01*
X174487000Y-92805000D01*
X175387000Y-92805000D01*
X175641000Y-92805000D01*
X176540999Y-92805000D01*
X176540999Y-91896222D01*
X176530323Y-91822943D01*
X176530321Y-91822939D01*
X176475063Y-91709904D01*
X176386095Y-91620936D01*
X176273058Y-91565677D01*
X176199778Y-91555000D01*
X175641000Y-91555000D01*
X175641000Y-92805000D01*
X175387000Y-92805000D01*
X175387000Y-91555000D01*
X174828222Y-91555000D01*
X174754943Y-91565676D01*
X174754939Y-91565678D01*
X174641904Y-91620936D01*
X174552936Y-91709904D01*
X174497677Y-91822941D01*
X174487000Y-91896221D01*
X173132817Y-91896221D01*
X173115063Y-91859904D01*
X173026095Y-91770936D01*
X172913058Y-91715677D01*
X172839778Y-91705000D01*
X171831000Y-91705000D01*
X171831000Y-92367500D01*
X171577000Y-92367500D01*
X171577000Y-91705000D01*
X170568222Y-91705000D01*
X170494943Y-91715676D01*
X170494939Y-91715678D01*
X170381904Y-91770936D01*
X170292936Y-91859904D01*
X170237677Y-91972941D01*
X170227000Y-92046221D01*
X168637702Y-92046221D01*
X168636231Y-92044750D01*
X168526942Y-91991323D01*
X168456091Y-91981000D01*
X168298500Y-91981000D01*
X168298500Y-92456000D01*
X168044500Y-92456000D01*
X168044500Y-91981000D01*
X167886909Y-91981000D01*
X167816057Y-91991323D01*
X167706768Y-92044750D01*
X167620750Y-92130768D01*
X167567323Y-92240057D01*
X167557000Y-92310908D01*
X167386000Y-92310908D01*
X167386000Y-91659000D01*
X168036606Y-91659000D01*
X168331394Y-91659000D01*
X168184000Y-91511605D01*
X168036606Y-91659000D01*
X167386000Y-91659000D01*
X167386000Y-91592888D01*
X167404306Y-91548694D01*
X167550306Y-91402694D01*
X167594500Y-91384388D01*
X167638694Y-91402694D01*
X167657000Y-91446888D01*
X167657000Y-91454356D01*
X167670170Y-91520570D01*
X167670171Y-91520572D01*
X167720341Y-91595657D01*
X167720343Y-91595658D01*
X167732566Y-91603826D01*
X167732567Y-91603826D01*
X168023393Y-91313000D01*
X168344605Y-91313000D01*
X168635431Y-91603826D01*
G37*
G04 #@! TD.AperFunction*
G04 #@! TD*
G04 #@! TA.AperFunction,Conductor*
G04 #@! TO.N,GND*
G36*
X171214306Y-98697306D02*
G01*
X171431694Y-98914694D01*
X171450000Y-98958888D01*
X171450000Y-101066112D01*
X171431694Y-101110306D01*
X171214306Y-101327694D01*
X171170112Y-101346000D01*
X167157888Y-101346000D01*
X167113694Y-101327694D01*
X166896306Y-101110306D01*
X166878000Y-101066112D01*
X166878000Y-101052507D01*
X167236999Y-101052507D01*
X167244369Y-101089553D01*
X167244369Y-101089554D01*
X167272438Y-101131561D01*
X167314446Y-101159630D01*
X167351493Y-101167000D01*
X169037000Y-101167000D01*
X169291000Y-101167000D01*
X170976507Y-101167000D01*
X171013553Y-101159630D01*
X171013554Y-101159630D01*
X171055561Y-101131561D01*
X171083630Y-101089554D01*
X171083630Y-101089553D01*
X171091000Y-101052507D01*
X171091000Y-100467000D01*
X169291000Y-100467000D01*
X169291000Y-101167000D01*
X169037000Y-101167000D01*
X169037000Y-100467000D01*
X167237000Y-100467000D01*
X167237000Y-101052507D01*
X167236999Y-101052507D01*
X166878000Y-101052507D01*
X166878000Y-99627492D01*
X167237000Y-99627492D01*
X167237000Y-100213000D01*
X169037000Y-100213000D01*
X169291000Y-100213000D01*
X171091000Y-100213000D01*
X171091000Y-99627492D01*
X171083630Y-99590446D01*
X171083630Y-99590445D01*
X171055561Y-99548438D01*
X171013553Y-99520369D01*
X170976507Y-99513000D01*
X169291000Y-99513000D01*
X169291000Y-100213000D01*
X169037000Y-100213000D01*
X169037000Y-99513000D01*
X167351493Y-99513000D01*
X167314446Y-99520369D01*
X167314445Y-99520369D01*
X167272438Y-99548438D01*
X167244369Y-99590445D01*
X167244369Y-99590446D01*
X167237000Y-99627492D01*
X166878000Y-99627492D01*
X166878000Y-98958888D01*
X166896306Y-98914694D01*
X167113694Y-98697306D01*
X167157888Y-98679000D01*
X171170112Y-98679000D01*
X171214306Y-98697306D01*
G37*
G04 #@! TD.AperFunction*
G04 #@! TD*
G04 #@! TA.AperFunction,Conductor*
G04 #@! TO.N,GND*
G36*
X174643306Y-66693306D02*
G01*
X174860694Y-66910694D01*
X174879000Y-66954888D01*
X174879000Y-69951112D01*
X174860694Y-69995306D01*
X174643306Y-70212694D01*
X174599112Y-70231000D01*
X172491888Y-70231000D01*
X172447694Y-70212694D01*
X172230306Y-69995306D01*
X172212000Y-69951112D01*
X172212000Y-69588777D01*
X172350001Y-69588777D01*
X172360676Y-69662056D01*
X172360678Y-69662060D01*
X172415936Y-69775095D01*
X172504904Y-69864063D01*
X172617941Y-69919322D01*
X172691221Y-69929999D01*
X173012500Y-69929999D01*
X173266500Y-69929999D01*
X173587778Y-69929999D01*
X173661056Y-69919323D01*
X173661060Y-69919321D01*
X173774095Y-69864063D01*
X173863063Y-69775095D01*
X173918322Y-69662058D01*
X173929000Y-69588778D01*
X173929000Y-68580000D01*
X173266500Y-68580000D01*
X173266500Y-69929999D01*
X173012500Y-69929999D01*
X173012500Y-68580000D01*
X172350001Y-68580000D01*
X172350001Y-69588777D01*
X172212000Y-69588777D01*
X172212000Y-67317221D01*
X172350000Y-67317221D01*
X172350000Y-68326000D01*
X173012500Y-68326000D01*
X173266500Y-68326000D01*
X173928999Y-68326000D01*
X173928999Y-67317222D01*
X173918323Y-67243943D01*
X173918321Y-67243939D01*
X173863063Y-67130904D01*
X173774095Y-67041936D01*
X173661058Y-66986677D01*
X173587778Y-66976000D01*
X173266500Y-66976000D01*
X173266500Y-68326000D01*
X173012500Y-68326000D01*
X173012500Y-66976000D01*
X172691222Y-66976000D01*
X172617943Y-66986676D01*
X172617939Y-66986678D01*
X172504904Y-67041936D01*
X172415936Y-67130904D01*
X172360677Y-67243941D01*
X172350000Y-67317221D01*
X172212000Y-67317221D01*
X172212000Y-66954888D01*
X172230306Y-66910694D01*
X172447694Y-66693306D01*
X172491888Y-66675000D01*
X174599112Y-66675000D01*
X174643306Y-66693306D01*
G37*
G04 #@! TD.AperFunction*
G04 #@! TD*
G04 #@! TA.AperFunction,Conductor*
G04 #@! TO.N,GND*
G36*
X165753306Y-109111306D02*
G01*
X165970694Y-109328694D01*
X165989000Y-109372888D01*
X165989000Y-112369112D01*
X165970694Y-112413306D01*
X165753306Y-112630694D01*
X165709112Y-112649000D01*
X163728888Y-112649000D01*
X163684694Y-112630694D01*
X163467306Y-112413306D01*
X163449000Y-112369112D01*
X163449000Y-112006777D01*
X164272001Y-112006777D01*
X164282676Y-112080056D01*
X164282678Y-112080060D01*
X164337936Y-112193095D01*
X164426904Y-112282063D01*
X164539941Y-112337322D01*
X164613221Y-112347999D01*
X164934500Y-112347999D01*
X165188500Y-112347999D01*
X165509778Y-112347999D01*
X165583056Y-112337323D01*
X165583060Y-112337321D01*
X165696095Y-112282063D01*
X165785063Y-112193095D01*
X165840322Y-112080058D01*
X165851000Y-112006778D01*
X165851000Y-110998000D01*
X165188500Y-110998000D01*
X165188500Y-112347999D01*
X164934500Y-112347999D01*
X164934500Y-110998000D01*
X164272001Y-110998000D01*
X164272001Y-112006777D01*
X163449000Y-112006777D01*
X163449000Y-109735221D01*
X164272000Y-109735221D01*
X164272000Y-110744000D01*
X164934500Y-110744000D01*
X165188500Y-110744000D01*
X165850999Y-110744000D01*
X165850999Y-109735222D01*
X165840323Y-109661943D01*
X165840321Y-109661939D01*
X165785063Y-109548904D01*
X165696095Y-109459936D01*
X165583058Y-109404677D01*
X165509778Y-109394000D01*
X165188500Y-109394000D01*
X165188500Y-110744000D01*
X164934500Y-110744000D01*
X164934500Y-109394000D01*
X164613222Y-109394000D01*
X164539943Y-109404676D01*
X164539939Y-109404678D01*
X164426904Y-109459936D01*
X164337936Y-109548904D01*
X164282677Y-109661941D01*
X164272000Y-109735221D01*
X163449000Y-109735221D01*
X163449000Y-109372888D01*
X163467306Y-109328694D01*
X163684694Y-109111306D01*
X163728888Y-109093000D01*
X165709112Y-109093000D01*
X165753306Y-109111306D01*
G37*
G04 #@! TD.AperFunction*
G04 #@! TD*
G04 #@! TA.AperFunction,Conductor*
G04 #@! TO.N,+24V*
G36*
X171214306Y-106952306D02*
G01*
X171431694Y-107169694D01*
X171450000Y-107213888D01*
X171450000Y-112877112D01*
X171431694Y-112921306D01*
X171214306Y-113138694D01*
X171170112Y-113157000D01*
X167157888Y-113157000D01*
X167113694Y-113138694D01*
X166896306Y-112921306D01*
X166878000Y-112877112D01*
X166878000Y-112006777D01*
X167397001Y-112006777D01*
X167407676Y-112080056D01*
X167407678Y-112080060D01*
X167462936Y-112193095D01*
X167551904Y-112282063D01*
X167664941Y-112337322D01*
X167738221Y-112347999D01*
X168059500Y-112347999D01*
X168313500Y-112347999D01*
X168634778Y-112347999D01*
X168708056Y-112337323D01*
X168708060Y-112337321D01*
X168821095Y-112282063D01*
X168910063Y-112193095D01*
X168965322Y-112080058D01*
X168976000Y-112006778D01*
X168976000Y-112006777D01*
X169352001Y-112006777D01*
X169362676Y-112080056D01*
X169362678Y-112080060D01*
X169417936Y-112193095D01*
X169506904Y-112282063D01*
X169619941Y-112337322D01*
X169693221Y-112347999D01*
X170014500Y-112347999D01*
X170268500Y-112347999D01*
X170589778Y-112347999D01*
X170663056Y-112337323D01*
X170663060Y-112337321D01*
X170776095Y-112282063D01*
X170865063Y-112193095D01*
X170920322Y-112080058D01*
X170931000Y-112006778D01*
X170931000Y-110998000D01*
X170268500Y-110998000D01*
X170268500Y-112347999D01*
X170014500Y-112347999D01*
X170014500Y-110998000D01*
X169352001Y-110998000D01*
X169352001Y-112006777D01*
X168976000Y-112006777D01*
X168976000Y-110998000D01*
X168313500Y-110998000D01*
X168313500Y-112347999D01*
X168059500Y-112347999D01*
X168059500Y-110998000D01*
X167397001Y-110998000D01*
X167397001Y-112006777D01*
X166878000Y-112006777D01*
X166878000Y-109735221D01*
X167397000Y-109735221D01*
X167397000Y-110744000D01*
X168059500Y-110744000D01*
X168313500Y-110744000D01*
X168975999Y-110744000D01*
X168975999Y-109735222D01*
X168975999Y-109735221D01*
X169352000Y-109735221D01*
X169352000Y-110744000D01*
X170014500Y-110744000D01*
X170268500Y-110744000D01*
X170930999Y-110744000D01*
X170930999Y-109735222D01*
X170920323Y-109661943D01*
X170920321Y-109661939D01*
X170865063Y-109548904D01*
X170776095Y-109459936D01*
X170663058Y-109404677D01*
X170589778Y-109394000D01*
X170268500Y-109394000D01*
X170268500Y-110744000D01*
X170014500Y-110744000D01*
X170014500Y-109394000D01*
X169693222Y-109394000D01*
X169619943Y-109404676D01*
X169619939Y-109404678D01*
X169506904Y-109459936D01*
X169417936Y-109548904D01*
X169362677Y-109661941D01*
X169352000Y-109735221D01*
X168975999Y-109735221D01*
X168965323Y-109661943D01*
X168965321Y-109661939D01*
X168910063Y-109548904D01*
X168821095Y-109459936D01*
X168708058Y-109404677D01*
X168634778Y-109394000D01*
X168313500Y-109394000D01*
X168313500Y-110744000D01*
X168059500Y-110744000D01*
X168059500Y-109394000D01*
X167738222Y-109394000D01*
X167664943Y-109404676D01*
X167664939Y-109404678D01*
X167551904Y-109459936D01*
X167462936Y-109548904D01*
X167407677Y-109661941D01*
X167397000Y-109735221D01*
X166878000Y-109735221D01*
X166878000Y-108652507D01*
X167236999Y-108652507D01*
X167244369Y-108689553D01*
X167244369Y-108689554D01*
X167272438Y-108731561D01*
X167314446Y-108759630D01*
X167351493Y-108767000D01*
X169037000Y-108767000D01*
X169291000Y-108767000D01*
X170976507Y-108767000D01*
X171013553Y-108759630D01*
X171013554Y-108759630D01*
X171055561Y-108731561D01*
X171083630Y-108689554D01*
X171083630Y-108689553D01*
X171091000Y-108652507D01*
X171091000Y-108067000D01*
X169291000Y-108067000D01*
X169291000Y-108767000D01*
X169037000Y-108767000D01*
X169037000Y-108067000D01*
X167237000Y-108067000D01*
X167237000Y-108652507D01*
X167236999Y-108652507D01*
X166878000Y-108652507D01*
X166878000Y-107227492D01*
X167237000Y-107227492D01*
X167237000Y-107813000D01*
X169037000Y-107813000D01*
X169291000Y-107813000D01*
X171091000Y-107813000D01*
X171091000Y-107227492D01*
X171083630Y-107190446D01*
X171083630Y-107190445D01*
X171055561Y-107148438D01*
X171013553Y-107120369D01*
X170976507Y-107113000D01*
X169291000Y-107113000D01*
X169291000Y-107813000D01*
X169037000Y-107813000D01*
X169037000Y-107113000D01*
X167351493Y-107113000D01*
X167314446Y-107120369D01*
X167314445Y-107120369D01*
X167272438Y-107148438D01*
X167244369Y-107190445D01*
X167244369Y-107190446D01*
X167237000Y-107227492D01*
X166878000Y-107227492D01*
X166878000Y-107213888D01*
X166896306Y-107169694D01*
X167113694Y-106952306D01*
X167157888Y-106934000D01*
X171170112Y-106934000D01*
X171214306Y-106952306D01*
G37*
G04 #@! TD.AperFunction*
G04 #@! TD*
G04 #@! TA.AperFunction,Conductor*
G04 #@! TO.N,GNDS*
G36*
X124351306Y-76726306D02*
G01*
X124568694Y-76943694D01*
X124587000Y-76987888D01*
X124587000Y-79984112D01*
X124568694Y-80028306D01*
X124351306Y-80245694D01*
X124307112Y-80264000D01*
X122326888Y-80264000D01*
X122282694Y-80245694D01*
X122065306Y-80028306D01*
X122047000Y-79984112D01*
X122047000Y-79621777D01*
X122870001Y-79621777D01*
X122880676Y-79695056D01*
X122880678Y-79695060D01*
X122935936Y-79808095D01*
X123024904Y-79897063D01*
X123137941Y-79952322D01*
X123211221Y-79962999D01*
X123532500Y-79962999D01*
X123786500Y-79962999D01*
X124107778Y-79962999D01*
X124181056Y-79952323D01*
X124181060Y-79952321D01*
X124294095Y-79897063D01*
X124383063Y-79808095D01*
X124438322Y-79695058D01*
X124449000Y-79621778D01*
X124449000Y-78613000D01*
X123786500Y-78613000D01*
X123786500Y-79962999D01*
X123532500Y-79962999D01*
X123532500Y-78613000D01*
X122870001Y-78613000D01*
X122870001Y-79621777D01*
X122047000Y-79621777D01*
X122047000Y-77350221D01*
X122870000Y-77350221D01*
X122870000Y-78359000D01*
X123532500Y-78359000D01*
X123786500Y-78359000D01*
X124448999Y-78359000D01*
X124448999Y-77350222D01*
X124438323Y-77276943D01*
X124438321Y-77276939D01*
X124383063Y-77163904D01*
X124294095Y-77074936D01*
X124181058Y-77019677D01*
X124107778Y-77009000D01*
X123786500Y-77009000D01*
X123786500Y-78359000D01*
X123532500Y-78359000D01*
X123532500Y-77009000D01*
X123211222Y-77009000D01*
X123137943Y-77019676D01*
X123137939Y-77019678D01*
X123024904Y-77074936D01*
X122935936Y-77163904D01*
X122880677Y-77276941D01*
X122870000Y-77350221D01*
X122047000Y-77350221D01*
X122047000Y-76987888D01*
X122065306Y-76943694D01*
X122282694Y-76726306D01*
X122326888Y-76708000D01*
X124307112Y-76708000D01*
X124351306Y-76726306D01*
G37*
G04 #@! TD.AperFunction*
G04 #@! TD*
G04 #@! TA.AperFunction,Conductor*
G04 #@! TO.N,+18V*
G36*
X187597306Y-93236306D02*
G01*
X187814694Y-93453694D01*
X187833000Y-93497888D01*
X187833000Y-101447112D01*
X187814694Y-101491306D01*
X187597306Y-101708694D01*
X187553112Y-101727000D01*
X185547000Y-101727000D01*
X185547000Y-101981000D01*
X185547000Y-106908112D01*
X185528694Y-106952306D01*
X185311306Y-107169694D01*
X185267112Y-107188000D01*
X180619888Y-107188000D01*
X180575694Y-107169694D01*
X180358306Y-106952306D01*
X180340000Y-106908112D01*
X180340000Y-106238323D01*
X181093001Y-106238323D01*
X181095797Y-106273861D01*
X181139994Y-106425988D01*
X181220636Y-106562349D01*
X181332650Y-106674363D01*
X181469011Y-106755005D01*
X181621138Y-106799202D01*
X181656678Y-106801999D01*
X182093000Y-106801999D01*
X182347000Y-106801999D01*
X182783320Y-106801999D01*
X182783323Y-106801998D01*
X182818861Y-106799202D01*
X182970988Y-106755005D01*
X183107349Y-106674363D01*
X183219363Y-106562349D01*
X183300005Y-106425988D01*
X183344202Y-106273863D01*
X183344202Y-106273858D01*
X183347000Y-106238321D01*
X183347000Y-105910777D01*
X183703001Y-105910777D01*
X183713676Y-105984056D01*
X183713678Y-105984060D01*
X183768936Y-106097095D01*
X183857904Y-106186063D01*
X183970941Y-106241322D01*
X184044221Y-106251999D01*
X184365500Y-106251999D01*
X184619500Y-106251999D01*
X184940778Y-106251999D01*
X185014056Y-106241323D01*
X185014060Y-106241321D01*
X185127095Y-106186063D01*
X185216063Y-106097095D01*
X185271322Y-105984058D01*
X185282000Y-105910778D01*
X185282000Y-104902000D01*
X184619500Y-104902000D01*
X184619500Y-106251999D01*
X184365500Y-106251999D01*
X184365500Y-104902000D01*
X183703001Y-104902000D01*
X183703001Y-105910777D01*
X183347000Y-105910777D01*
X183347000Y-104902000D01*
X182347000Y-104902000D01*
X182347000Y-106801999D01*
X182093000Y-106801999D01*
X182093000Y-104902000D01*
X181093001Y-104902000D01*
X181093001Y-106238323D01*
X180340000Y-106238323D01*
X180340000Y-103311678D01*
X181093000Y-103311678D01*
X181093000Y-104648000D01*
X182093000Y-104648000D01*
X182347000Y-104648000D01*
X183346999Y-104648000D01*
X183346999Y-103639221D01*
X183703000Y-103639221D01*
X183703000Y-104648000D01*
X184365500Y-104648000D01*
X184619500Y-104648000D01*
X185281999Y-104648000D01*
X185281999Y-103639222D01*
X185271323Y-103565943D01*
X185271321Y-103565939D01*
X185216063Y-103452904D01*
X185127095Y-103363936D01*
X185014058Y-103308677D01*
X184940778Y-103298000D01*
X184619500Y-103298000D01*
X184619500Y-104648000D01*
X184365500Y-104648000D01*
X184365500Y-103298000D01*
X184044222Y-103298000D01*
X183970943Y-103308676D01*
X183970939Y-103308678D01*
X183857904Y-103363936D01*
X183768936Y-103452904D01*
X183713677Y-103565941D01*
X183703000Y-103639221D01*
X183346999Y-103639221D01*
X183346999Y-103311680D01*
X183346998Y-103311676D01*
X183344202Y-103276138D01*
X183300005Y-103124011D01*
X183219363Y-102987650D01*
X183107349Y-102875636D01*
X182970988Y-102794994D01*
X182818861Y-102750797D01*
X182783321Y-102748000D01*
X182347000Y-102748000D01*
X182347000Y-104648000D01*
X182093000Y-104648000D01*
X182093000Y-102748000D01*
X181656680Y-102748000D01*
X181656676Y-102748001D01*
X181621138Y-102750797D01*
X181469011Y-102794994D01*
X181332650Y-102875636D01*
X181220636Y-102987650D01*
X181139994Y-103124011D01*
X181095797Y-103276136D01*
X181095797Y-103276141D01*
X181093000Y-103311678D01*
X180340000Y-103311678D01*
X180340000Y-100827552D01*
X180358306Y-100783358D01*
X180402500Y-100765052D01*
X180429950Y-100771403D01*
X180477556Y-100794676D01*
X180548409Y-100805000D01*
X180706000Y-100805000D01*
X180960000Y-100805000D01*
X181117591Y-100805000D01*
X181188442Y-100794676D01*
X181297731Y-100741249D01*
X181383749Y-100655231D01*
X181437176Y-100545942D01*
X181447500Y-100475091D01*
X181447500Y-100330000D01*
X180960000Y-100330000D01*
X180960000Y-100805000D01*
X180706000Y-100805000D01*
X180706000Y-100076000D01*
X180960000Y-100076000D01*
X181447500Y-100076000D01*
X181447500Y-99930908D01*
X181437176Y-99860057D01*
X181383749Y-99750768D01*
X181297731Y-99664750D01*
X181188442Y-99611323D01*
X181117591Y-99601000D01*
X180960000Y-99601000D01*
X180960000Y-100076000D01*
X180706000Y-100076000D01*
X180706000Y-99601000D01*
X180548409Y-99601000D01*
X180477557Y-99611323D01*
X180429949Y-99634597D01*
X180382206Y-99637560D01*
X180346350Y-99605896D01*
X180340000Y-99578447D01*
X180340000Y-96392507D01*
X183230999Y-96392507D01*
X183238369Y-96429553D01*
X183238369Y-96429554D01*
X183266438Y-96471561D01*
X183308446Y-96499630D01*
X183345493Y-96507000D01*
X184531000Y-96507000D01*
X184531000Y-95717472D01*
X184593981Y-95730000D01*
X184722019Y-95730000D01*
X184785000Y-95717472D01*
X184785000Y-96507000D01*
X185970507Y-96507000D01*
X186007553Y-96499630D01*
X186007554Y-96499630D01*
X186049561Y-96471561D01*
X186077630Y-96429554D01*
X186077630Y-96429553D01*
X186085000Y-96392507D01*
X186085000Y-95207000D01*
X185295472Y-95207000D01*
X185308000Y-95144019D01*
X185308000Y-95015981D01*
X185295472Y-94953000D01*
X186085000Y-94953000D01*
X186085000Y-93767492D01*
X186077630Y-93730446D01*
X186077630Y-93730445D01*
X186049561Y-93688438D01*
X186007553Y-93660369D01*
X185970507Y-93653000D01*
X184785000Y-93653000D01*
X184785000Y-94442527D01*
X184722019Y-94430000D01*
X184593981Y-94430000D01*
X184531000Y-94442527D01*
X184531000Y-93653000D01*
X183345493Y-93653000D01*
X183308446Y-93660369D01*
X183308445Y-93660369D01*
X183266438Y-93688438D01*
X183238369Y-93730445D01*
X183238369Y-93730446D01*
X183231000Y-93767492D01*
X183231000Y-94953000D01*
X184020528Y-94953000D01*
X184008000Y-95015981D01*
X184008000Y-95144019D01*
X184020528Y-95207000D01*
X183231000Y-95207000D01*
X183231000Y-96392507D01*
X183230999Y-96392507D01*
X180340000Y-96392507D01*
X180340000Y-93497888D01*
X180358306Y-93453694D01*
X180575694Y-93236306D01*
X180619888Y-93218000D01*
X187553112Y-93218000D01*
X187597306Y-93236306D01*
G37*
G04 #@! TD.AperFunction*
G04 #@! TD*
G04 #@! TA.AperFunction,Conductor*
G04 #@! TO.N,Net-(T1-AB)*
G36*
X139979041Y-86365500D02*
G01*
X143741184Y-86365500D01*
X143741184Y-86366774D01*
X143783036Y-86379463D01*
X143787588Y-86383588D01*
X143999694Y-86595694D01*
X144018000Y-86639888D01*
X144018000Y-89636112D01*
X143999694Y-89680306D01*
X143782306Y-89897694D01*
X143738112Y-89916000D01*
X139979888Y-89916000D01*
X139935694Y-89897694D01*
X139718306Y-89680306D01*
X139700000Y-89636112D01*
X139700000Y-89428777D01*
X140016001Y-89428777D01*
X140026676Y-89502056D01*
X140026678Y-89502060D01*
X140081936Y-89615095D01*
X140170904Y-89704063D01*
X140283941Y-89759322D01*
X140357221Y-89769999D01*
X140716000Y-89769999D01*
X140970000Y-89769999D01*
X141328778Y-89769999D01*
X141402056Y-89759323D01*
X141402060Y-89759321D01*
X141515095Y-89704063D01*
X141604063Y-89615095D01*
X141659322Y-89502058D01*
X141670000Y-89428778D01*
X141670000Y-89378777D01*
X142023001Y-89378777D01*
X142033676Y-89452056D01*
X142033678Y-89452060D01*
X142088936Y-89565095D01*
X142177904Y-89654063D01*
X142290941Y-89709322D01*
X142364221Y-89719999D01*
X142748000Y-89719999D01*
X143002000Y-89719999D01*
X143385778Y-89719999D01*
X143459056Y-89709323D01*
X143459060Y-89709321D01*
X143572095Y-89654063D01*
X143661063Y-89565095D01*
X143716322Y-89452058D01*
X143727000Y-89378778D01*
X143727000Y-89132500D01*
X143002000Y-89132500D01*
X143002000Y-89719999D01*
X142748000Y-89719999D01*
X142748000Y-89132500D01*
X142023001Y-89132500D01*
X142023001Y-89378777D01*
X141670000Y-89378777D01*
X141670000Y-89170000D01*
X140970000Y-89170000D01*
X140970000Y-89769999D01*
X140716000Y-89769999D01*
X140716000Y-89170000D01*
X140016001Y-89170000D01*
X140016001Y-89428777D01*
X139700000Y-89428777D01*
X139700000Y-88657221D01*
X140016000Y-88657221D01*
X140016000Y-88916000D01*
X140716000Y-88916000D01*
X140970000Y-88916000D01*
X141669999Y-88916000D01*
X141669999Y-88657222D01*
X141666357Y-88632221D01*
X142023000Y-88632221D01*
X142023000Y-88878500D01*
X142748000Y-88878500D01*
X143002000Y-88878500D01*
X143726999Y-88878500D01*
X143726999Y-88632222D01*
X143716323Y-88558943D01*
X143716321Y-88558939D01*
X143661063Y-88445904D01*
X143572095Y-88356936D01*
X143459058Y-88301677D01*
X143385778Y-88291000D01*
X143002000Y-88291000D01*
X143002000Y-88878500D01*
X142748000Y-88878500D01*
X142748000Y-88291000D01*
X142364222Y-88291000D01*
X142290943Y-88301676D01*
X142290939Y-88301678D01*
X142177904Y-88356936D01*
X142088936Y-88445904D01*
X142033677Y-88558941D01*
X142023000Y-88632221D01*
X141666357Y-88632221D01*
X141659323Y-88583943D01*
X141659321Y-88583939D01*
X141604063Y-88470904D01*
X141515095Y-88381936D01*
X141402058Y-88326677D01*
X141328778Y-88316000D01*
X140970000Y-88316000D01*
X140970000Y-88916000D01*
X140716000Y-88916000D01*
X140716000Y-88316000D01*
X140357222Y-88316000D01*
X140283943Y-88326676D01*
X140283939Y-88326678D01*
X140170904Y-88381936D01*
X140081936Y-88470904D01*
X140026677Y-88583941D01*
X140016000Y-88657221D01*
X139700000Y-88657221D01*
X139700000Y-87618777D01*
X140016001Y-87618777D01*
X140026676Y-87692056D01*
X140026678Y-87692060D01*
X140081936Y-87805095D01*
X140170904Y-87894063D01*
X140283941Y-87949322D01*
X140357221Y-87959999D01*
X140716000Y-87959999D01*
X140970000Y-87959999D01*
X141328778Y-87959999D01*
X141402056Y-87949323D01*
X141402060Y-87949321D01*
X141515095Y-87894063D01*
X141604063Y-87805095D01*
X141659322Y-87692058D01*
X141666357Y-87643777D01*
X142023001Y-87643777D01*
X142033676Y-87717056D01*
X142033678Y-87717060D01*
X142088936Y-87830095D01*
X142177904Y-87919063D01*
X142290941Y-87974322D01*
X142364221Y-87984999D01*
X142748000Y-87984999D01*
X143002000Y-87984999D01*
X143385778Y-87984999D01*
X143459056Y-87974323D01*
X143459060Y-87974321D01*
X143572095Y-87919063D01*
X143661063Y-87830095D01*
X143716322Y-87717058D01*
X143727000Y-87643778D01*
X143727000Y-87397500D01*
X143002000Y-87397500D01*
X143002000Y-87984999D01*
X142748000Y-87984999D01*
X142748000Y-87397500D01*
X142023001Y-87397500D01*
X142023001Y-87643777D01*
X141666357Y-87643777D01*
X141670000Y-87618778D01*
X141670000Y-87360000D01*
X140970000Y-87360000D01*
X140970000Y-87959999D01*
X140716000Y-87959999D01*
X140716000Y-87360000D01*
X140016001Y-87360000D01*
X140016001Y-87618777D01*
X139700000Y-87618777D01*
X139700000Y-86847221D01*
X140016000Y-86847221D01*
X140016000Y-87106000D01*
X140716000Y-87106000D01*
X140970000Y-87106000D01*
X141669999Y-87106000D01*
X141669999Y-86897221D01*
X142023000Y-86897221D01*
X142023000Y-87143500D01*
X142748000Y-87143500D01*
X143002000Y-87143500D01*
X143726999Y-87143500D01*
X143726999Y-86897222D01*
X143716323Y-86823943D01*
X143716321Y-86823939D01*
X143661063Y-86710904D01*
X143572095Y-86621936D01*
X143459058Y-86566677D01*
X143385778Y-86556000D01*
X143002000Y-86556000D01*
X143002000Y-87143500D01*
X142748000Y-87143500D01*
X142748000Y-86556000D01*
X142364222Y-86556000D01*
X142290943Y-86566676D01*
X142290939Y-86566678D01*
X142177904Y-86621936D01*
X142088936Y-86710904D01*
X142033677Y-86823941D01*
X142023000Y-86897221D01*
X141669999Y-86897221D01*
X141669999Y-86847222D01*
X141659323Y-86773943D01*
X141659321Y-86773939D01*
X141604063Y-86660904D01*
X141515095Y-86571936D01*
X141402058Y-86516677D01*
X141328778Y-86506000D01*
X140970000Y-86506000D01*
X140970000Y-87106000D01*
X140716000Y-87106000D01*
X140716000Y-86506000D01*
X140357222Y-86506000D01*
X140283943Y-86516676D01*
X140283939Y-86516678D01*
X140170904Y-86571936D01*
X140081936Y-86660904D01*
X140026677Y-86773941D01*
X140016000Y-86847221D01*
X139700000Y-86847221D01*
X139700000Y-86639887D01*
X139718305Y-86595694D01*
X139930413Y-86383586D01*
X139974604Y-86365282D01*
X139979041Y-86365500D01*
G37*
G04 #@! TD.AperFunction*
G04 #@! TD*
G04 #@! TA.AperFunction,Conductor*
G04 #@! TO.N,GND*
G36*
X165626306Y-66693306D02*
G01*
X165843694Y-66910694D01*
X165862000Y-66954888D01*
X165862000Y-69951112D01*
X165843694Y-69995306D01*
X165626306Y-70212694D01*
X165582112Y-70231000D01*
X163449000Y-70231000D01*
X163195000Y-69977000D01*
X163452000Y-69977000D01*
X163452000Y-69831908D01*
X163441676Y-69761057D01*
X163388249Y-69651768D01*
X163325258Y-69588777D01*
X164145001Y-69588777D01*
X164155676Y-69662056D01*
X164155678Y-69662060D01*
X164210936Y-69775095D01*
X164299904Y-69864063D01*
X164412941Y-69919322D01*
X164486221Y-69929999D01*
X164807500Y-69929999D01*
X165061500Y-69929999D01*
X165382778Y-69929999D01*
X165456056Y-69919323D01*
X165456060Y-69919321D01*
X165569095Y-69864063D01*
X165658063Y-69775095D01*
X165713322Y-69662058D01*
X165724000Y-69588778D01*
X165724000Y-68580000D01*
X165061500Y-68580000D01*
X165061500Y-69929999D01*
X164807500Y-69929999D01*
X164807500Y-68580000D01*
X164145001Y-68580000D01*
X164145001Y-69588777D01*
X163325258Y-69588777D01*
X163302231Y-69565750D01*
X163302228Y-69565748D01*
X163230050Y-69530462D01*
X163198386Y-69494606D01*
X163195000Y-69474313D01*
X163195000Y-67317221D01*
X164145000Y-67317221D01*
X164145000Y-68326000D01*
X164807500Y-68326000D01*
X165061500Y-68326000D01*
X165723999Y-68326000D01*
X165723999Y-67317222D01*
X165713323Y-67243943D01*
X165713321Y-67243939D01*
X165658063Y-67130904D01*
X165569095Y-67041936D01*
X165456058Y-66986677D01*
X165382778Y-66976000D01*
X165061500Y-66976000D01*
X165061500Y-68326000D01*
X164807500Y-68326000D01*
X164807500Y-66976000D01*
X164486222Y-66976000D01*
X164412943Y-66986676D01*
X164412939Y-66986678D01*
X164299904Y-67041936D01*
X164210936Y-67130904D01*
X164155677Y-67243941D01*
X164145000Y-67317221D01*
X163195000Y-67317221D01*
X163195000Y-66954888D01*
X163213306Y-66910694D01*
X163430694Y-66693306D01*
X163474888Y-66675000D01*
X165582112Y-66675000D01*
X165626306Y-66693306D01*
G37*
G04 #@! TD.AperFunction*
G04 #@! TD*
G04 #@! TA.AperFunction,Conductor*
G04 #@! TO.N,+24V*
G36*
X171087306Y-77869306D02*
G01*
X171304694Y-78086694D01*
X171323000Y-78130888D01*
X171323000Y-83794112D01*
X171304694Y-83838306D01*
X171087306Y-84055694D01*
X171043112Y-84074000D01*
X167030888Y-84074000D01*
X166986694Y-84055694D01*
X166769306Y-83838306D01*
X166751000Y-83794112D01*
X166751000Y-82923777D01*
X167270001Y-82923777D01*
X167280676Y-82997056D01*
X167280678Y-82997060D01*
X167335936Y-83110095D01*
X167424904Y-83199063D01*
X167537941Y-83254322D01*
X167611221Y-83264999D01*
X167932500Y-83264999D01*
X168186500Y-83264999D01*
X168507778Y-83264999D01*
X168581056Y-83254323D01*
X168581060Y-83254321D01*
X168694095Y-83199063D01*
X168783063Y-83110095D01*
X168838322Y-82997058D01*
X168849000Y-82923778D01*
X168849000Y-82923777D01*
X169225001Y-82923777D01*
X169235676Y-82997056D01*
X169235678Y-82997060D01*
X169290936Y-83110095D01*
X169379904Y-83199063D01*
X169492941Y-83254322D01*
X169566221Y-83264999D01*
X169887500Y-83264999D01*
X170141500Y-83264999D01*
X170462778Y-83264999D01*
X170536056Y-83254323D01*
X170536060Y-83254321D01*
X170649095Y-83199063D01*
X170738063Y-83110095D01*
X170793322Y-82997058D01*
X170804000Y-82923778D01*
X170804000Y-81915000D01*
X170141500Y-81915000D01*
X170141500Y-83264999D01*
X169887500Y-83264999D01*
X169887500Y-81915000D01*
X169225001Y-81915000D01*
X169225001Y-82923777D01*
X168849000Y-82923777D01*
X168849000Y-81915000D01*
X168186500Y-81915000D01*
X168186500Y-83264999D01*
X167932500Y-83264999D01*
X167932500Y-81915000D01*
X167270001Y-81915000D01*
X167270001Y-82923777D01*
X166751000Y-82923777D01*
X166751000Y-80652221D01*
X167270000Y-80652221D01*
X167270000Y-81661000D01*
X167932500Y-81661000D01*
X168186500Y-81661000D01*
X168848999Y-81661000D01*
X168848999Y-80652222D01*
X168848999Y-80652221D01*
X169225000Y-80652221D01*
X169225000Y-81661000D01*
X169887500Y-81661000D01*
X170141500Y-81661000D01*
X170803999Y-81661000D01*
X170803999Y-80652222D01*
X170793323Y-80578943D01*
X170793321Y-80578939D01*
X170738063Y-80465904D01*
X170649095Y-80376936D01*
X170536058Y-80321677D01*
X170462778Y-80311000D01*
X170141500Y-80311000D01*
X170141500Y-81661000D01*
X169887500Y-81661000D01*
X169887500Y-80311000D01*
X169566222Y-80311000D01*
X169492943Y-80321676D01*
X169492939Y-80321678D01*
X169379904Y-80376936D01*
X169290936Y-80465904D01*
X169235677Y-80578941D01*
X169225000Y-80652221D01*
X168848999Y-80652221D01*
X168838323Y-80578943D01*
X168838321Y-80578939D01*
X168783063Y-80465904D01*
X168694095Y-80376936D01*
X168581058Y-80321677D01*
X168507778Y-80311000D01*
X168186500Y-80311000D01*
X168186500Y-81661000D01*
X167932500Y-81661000D01*
X167932500Y-80311000D01*
X167611222Y-80311000D01*
X167537943Y-80321676D01*
X167537939Y-80321678D01*
X167424904Y-80376936D01*
X167335936Y-80465904D01*
X167280677Y-80578941D01*
X167270000Y-80652221D01*
X166751000Y-80652221D01*
X166751000Y-79569507D01*
X167109999Y-79569507D01*
X167117369Y-79606553D01*
X167117369Y-79606554D01*
X167145438Y-79648561D01*
X167187446Y-79676630D01*
X167224493Y-79684000D01*
X168910000Y-79684000D01*
X169164000Y-79684000D01*
X170849507Y-79684000D01*
X170886553Y-79676630D01*
X170886554Y-79676630D01*
X170928561Y-79648561D01*
X170956630Y-79606554D01*
X170956630Y-79606553D01*
X170964000Y-79569507D01*
X170964000Y-78984000D01*
X169164000Y-78984000D01*
X169164000Y-79684000D01*
X168910000Y-79684000D01*
X168910000Y-78984000D01*
X167110000Y-78984000D01*
X167110000Y-79569507D01*
X167109999Y-79569507D01*
X166751000Y-79569507D01*
X166751000Y-78144492D01*
X167110000Y-78144492D01*
X167110000Y-78730000D01*
X168910000Y-78730000D01*
X169164000Y-78730000D01*
X170964000Y-78730000D01*
X170964000Y-78144492D01*
X170956630Y-78107446D01*
X170956630Y-78107445D01*
X170928561Y-78065438D01*
X170886553Y-78037369D01*
X170849507Y-78030000D01*
X169164000Y-78030000D01*
X169164000Y-78730000D01*
X168910000Y-78730000D01*
X168910000Y-78030000D01*
X167224493Y-78030000D01*
X167187446Y-78037369D01*
X167187445Y-78037369D01*
X167145438Y-78065438D01*
X167117369Y-78107445D01*
X167117369Y-78107446D01*
X167110000Y-78144492D01*
X166751000Y-78144492D01*
X166751000Y-78130888D01*
X166769306Y-78086694D01*
X166986694Y-77869306D01*
X167030888Y-77851000D01*
X171043112Y-77851000D01*
X171087306Y-77869306D01*
G37*
G04 #@! TD.AperFunction*
G04 #@! TD*
G04 #@! TA.AperFunction,Conductor*
G04 #@! TO.N,GND*
G36*
X177564306Y-76726306D02*
G01*
X177781694Y-76943694D01*
X177800000Y-76987888D01*
X177800000Y-79476112D01*
X177781694Y-79520306D01*
X177564306Y-79737694D01*
X177520112Y-79756000D01*
X174650888Y-79756000D01*
X174606694Y-79737694D01*
X174389306Y-79520306D01*
X174371000Y-79476112D01*
X174371000Y-78250777D01*
X174845001Y-78250777D01*
X174855676Y-78324056D01*
X174855678Y-78324060D01*
X174910936Y-78437095D01*
X174999904Y-78526063D01*
X175112941Y-78581322D01*
X175186221Y-78591999D01*
X175895000Y-78591999D01*
X176149000Y-78591999D01*
X176857778Y-78591999D01*
X176931056Y-78581323D01*
X176931060Y-78581321D01*
X177044095Y-78526063D01*
X177133063Y-78437095D01*
X177188322Y-78324058D01*
X177199000Y-78250778D01*
X177199000Y-77892000D01*
X176149000Y-77892000D01*
X176149000Y-78591999D01*
X175895000Y-78591999D01*
X175895000Y-77892000D01*
X174845001Y-77892000D01*
X174845001Y-78250777D01*
X174371000Y-78250777D01*
X174371000Y-77279221D01*
X174845000Y-77279221D01*
X174845000Y-77638000D01*
X175895000Y-77638000D01*
X176149000Y-77638000D01*
X177198999Y-77638000D01*
X177198999Y-77279222D01*
X177188323Y-77205943D01*
X177188321Y-77205939D01*
X177133063Y-77092904D01*
X177044095Y-77003936D01*
X176931058Y-76948677D01*
X176857778Y-76938000D01*
X176149000Y-76938000D01*
X176149000Y-77638000D01*
X175895000Y-77638000D01*
X175895000Y-76938000D01*
X175186222Y-76938000D01*
X175112943Y-76948676D01*
X175112939Y-76948678D01*
X174999904Y-77003936D01*
X174910936Y-77092904D01*
X174855677Y-77205941D01*
X174845000Y-77279221D01*
X174371000Y-77279221D01*
X174371000Y-76987888D01*
X174389306Y-76943694D01*
X174606694Y-76726306D01*
X174650888Y-76708000D01*
X177520112Y-76708000D01*
X177564306Y-76726306D01*
G37*
G04 #@! TD.AperFunction*
G04 #@! TD*
G04 #@! TA.AperFunction,Conductor*
G04 #@! TO.N,Net-(D4-K)*
G36*
X179469306Y-105936306D02*
G01*
X179686694Y-106153694D01*
X179705000Y-106197888D01*
X179705000Y-108331000D01*
X181838112Y-108331000D01*
X181882306Y-108349306D01*
X182099694Y-108566694D01*
X182118000Y-108610888D01*
X182118000Y-112369112D01*
X182099694Y-112413306D01*
X181882306Y-112630694D01*
X181838112Y-112649000D01*
X177825888Y-112649000D01*
X177781694Y-112630694D01*
X177564306Y-112413306D01*
X177546000Y-112369112D01*
X177546000Y-112006777D01*
X177811001Y-112006777D01*
X177821676Y-112080056D01*
X177821678Y-112080060D01*
X177876936Y-112193095D01*
X177965904Y-112282063D01*
X178078941Y-112337322D01*
X178152221Y-112347999D01*
X178473500Y-112347999D01*
X178727500Y-112347999D01*
X179048778Y-112347999D01*
X179122056Y-112337323D01*
X179122060Y-112337321D01*
X179235095Y-112282063D01*
X179324063Y-112193095D01*
X179379322Y-112080058D01*
X179390000Y-112006778D01*
X179390000Y-112006777D01*
X180274001Y-112006777D01*
X180284676Y-112080056D01*
X180284678Y-112080060D01*
X180339936Y-112193095D01*
X180428904Y-112282063D01*
X180541941Y-112337322D01*
X180615221Y-112347999D01*
X180936500Y-112347999D01*
X181190500Y-112347999D01*
X181511778Y-112347999D01*
X181585056Y-112337323D01*
X181585060Y-112337321D01*
X181698095Y-112282063D01*
X181787063Y-112193095D01*
X181842322Y-112080058D01*
X181853000Y-112006778D01*
X181853000Y-110998000D01*
X181190500Y-110998000D01*
X181190500Y-112347999D01*
X180936500Y-112347999D01*
X180936500Y-110998000D01*
X180274001Y-110998000D01*
X180274001Y-112006777D01*
X179390000Y-112006777D01*
X179390000Y-110998000D01*
X178727500Y-110998000D01*
X178727500Y-112347999D01*
X178473500Y-112347999D01*
X178473500Y-110998000D01*
X177811001Y-110998000D01*
X177811001Y-112006777D01*
X177546000Y-112006777D01*
X177546000Y-109735221D01*
X177811000Y-109735221D01*
X177811000Y-110744000D01*
X178473500Y-110744000D01*
X178727500Y-110744000D01*
X179389999Y-110744000D01*
X179389999Y-109735222D01*
X179389999Y-109735221D01*
X180274000Y-109735221D01*
X180274000Y-110744000D01*
X180936500Y-110744000D01*
X181190500Y-110744000D01*
X181852999Y-110744000D01*
X181852999Y-109735222D01*
X181842323Y-109661943D01*
X181842321Y-109661939D01*
X181787063Y-109548904D01*
X181698095Y-109459936D01*
X181585058Y-109404677D01*
X181511778Y-109394000D01*
X181190500Y-109394000D01*
X181190500Y-110744000D01*
X180936500Y-110744000D01*
X180936500Y-109394000D01*
X180615222Y-109394000D01*
X180541943Y-109404676D01*
X180541939Y-109404678D01*
X180428904Y-109459936D01*
X180339936Y-109548904D01*
X180284677Y-109661941D01*
X180274000Y-109735221D01*
X179389999Y-109735221D01*
X179379323Y-109661943D01*
X179379321Y-109661939D01*
X179324063Y-109548904D01*
X179235095Y-109459936D01*
X179122058Y-109404677D01*
X179048778Y-109394000D01*
X178727500Y-109394000D01*
X178727500Y-110744000D01*
X178473500Y-110744000D01*
X178473500Y-109394000D01*
X178152222Y-109394000D01*
X178078943Y-109404676D01*
X178078939Y-109404678D01*
X177965904Y-109459936D01*
X177876936Y-109548904D01*
X177821677Y-109661941D01*
X177811000Y-109735221D01*
X177546000Y-109735221D01*
X177546000Y-108839000D01*
X177546000Y-108585000D01*
X177292000Y-108585000D01*
X174777888Y-108585000D01*
X174733694Y-108566694D01*
X174516306Y-108349306D01*
X174498000Y-108305112D01*
X174498000Y-107498023D01*
X174793001Y-107498023D01*
X174799428Y-107557804D01*
X174799429Y-107557809D01*
X174849873Y-107693053D01*
X174849876Y-107693058D01*
X174936382Y-107808617D01*
X175051941Y-107895123D01*
X175051946Y-107895126D01*
X175187193Y-107945571D01*
X175246984Y-107951999D01*
X175793000Y-107951999D01*
X176047000Y-107951999D01*
X176593007Y-107951999D01*
X176593023Y-107951998D01*
X176652804Y-107945571D01*
X176652809Y-107945570D01*
X176788053Y-107895126D01*
X176788058Y-107895123D01*
X176903617Y-107808617D01*
X176990123Y-107693058D01*
X176990126Y-107693053D01*
X177040571Y-107557806D01*
X177046999Y-107498022D01*
X177047000Y-107498009D01*
X177047000Y-107202000D01*
X176047000Y-107202000D01*
X176047000Y-107951999D01*
X175793000Y-107951999D01*
X175793000Y-107202000D01*
X174793001Y-107202000D01*
X174793001Y-107498023D01*
X174498000Y-107498023D01*
X174498000Y-106651977D01*
X174793000Y-106651977D01*
X174793000Y-106948000D01*
X175793000Y-106948000D01*
X176047000Y-106948000D01*
X177046999Y-106948000D01*
X177046999Y-106651993D01*
X177046998Y-106651976D01*
X177040571Y-106592195D01*
X177040570Y-106592190D01*
X176990126Y-106456946D01*
X176990123Y-106456941D01*
X176903617Y-106341382D01*
X176788058Y-106254876D01*
X176788053Y-106254873D01*
X176652806Y-106204428D01*
X176593022Y-106198000D01*
X176047000Y-106198000D01*
X176047000Y-106948000D01*
X175793000Y-106948000D01*
X175793000Y-106198000D01*
X175246993Y-106198000D01*
X175246976Y-106198001D01*
X175187195Y-106204428D01*
X175187190Y-106204429D01*
X175051946Y-106254873D01*
X175051941Y-106254876D01*
X174936382Y-106341382D01*
X174849876Y-106456941D01*
X174849873Y-106456946D01*
X174799428Y-106592193D01*
X174793000Y-106651977D01*
X174498000Y-106651977D01*
X174498000Y-106197888D01*
X174516306Y-106153694D01*
X174733694Y-105936306D01*
X174777888Y-105918000D01*
X179425112Y-105918000D01*
X179469306Y-105936306D01*
G37*
G04 #@! TD.AperFunction*
G04 #@! TD*
G04 #@! TA.AperFunction,Conductor*
G04 #@! TO.N,Net-(U4-SW)*
G36*
X166642306Y-72789306D02*
G01*
X166859694Y-73006694D01*
X166878000Y-73050888D01*
X166878000Y-77063112D01*
X166859694Y-77107306D01*
X166642306Y-77324694D01*
X166598112Y-77343000D01*
X164490888Y-77343000D01*
X164446694Y-77324694D01*
X164229306Y-77107306D01*
X164211000Y-77063112D01*
X164211000Y-76869507D01*
X164409999Y-76869507D01*
X164417369Y-76906553D01*
X164417369Y-76906554D01*
X164445438Y-76948561D01*
X164487446Y-76976630D01*
X164524493Y-76984000D01*
X165110000Y-76984000D01*
X165364000Y-76984000D01*
X165949507Y-76984000D01*
X165986553Y-76976630D01*
X165986554Y-76976630D01*
X166028561Y-76948561D01*
X166056630Y-76906554D01*
X166056630Y-76906553D01*
X166064000Y-76869507D01*
X166064000Y-75184000D01*
X165364000Y-75184000D01*
X165364000Y-76984000D01*
X165110000Y-76984000D01*
X165110000Y-75184000D01*
X164410000Y-75184000D01*
X164410000Y-76869507D01*
X164409999Y-76869507D01*
X164211000Y-76869507D01*
X164211000Y-73244492D01*
X164410000Y-73244492D01*
X164410000Y-74930000D01*
X165110000Y-74930000D01*
X165364000Y-74930000D01*
X166064000Y-74930000D01*
X166064000Y-73244492D01*
X166056630Y-73207446D01*
X166056630Y-73207445D01*
X166028561Y-73165438D01*
X165986553Y-73137369D01*
X165949507Y-73130000D01*
X165364000Y-73130000D01*
X165364000Y-74930000D01*
X165110000Y-74930000D01*
X165110000Y-73130000D01*
X164524493Y-73130000D01*
X164487446Y-73137369D01*
X164487445Y-73137369D01*
X164445438Y-73165438D01*
X164417369Y-73207445D01*
X164417369Y-73207446D01*
X164410000Y-73244492D01*
X164211000Y-73244492D01*
X164211000Y-73050888D01*
X164229306Y-73006694D01*
X164446694Y-72789306D01*
X164490888Y-72771000D01*
X166598112Y-72771000D01*
X166642306Y-72789306D01*
G37*
G04 #@! TD.AperFunction*
G04 #@! TD*
G04 #@! TA.AperFunction,Conductor*
G04 #@! TO.N,Net-(U2-SW)*
G36*
X166769306Y-101872306D02*
G01*
X166986694Y-102089694D01*
X167005000Y-102133888D01*
X167005000Y-106146112D01*
X166986694Y-106190306D01*
X166769306Y-106407694D01*
X166725112Y-106426000D01*
X164617888Y-106426000D01*
X164573694Y-106407694D01*
X164356306Y-106190306D01*
X164338000Y-106146112D01*
X164338000Y-105952507D01*
X164536999Y-105952507D01*
X164544369Y-105989553D01*
X164544369Y-105989554D01*
X164572438Y-106031561D01*
X164614446Y-106059630D01*
X164651493Y-106067000D01*
X165237000Y-106067000D01*
X165491000Y-106067000D01*
X166076507Y-106067000D01*
X166113553Y-106059630D01*
X166113554Y-106059630D01*
X166155561Y-106031561D01*
X166183630Y-105989554D01*
X166183630Y-105989553D01*
X166191000Y-105952507D01*
X166191000Y-104267000D01*
X165491000Y-104267000D01*
X165491000Y-106067000D01*
X165237000Y-106067000D01*
X165237000Y-104267000D01*
X164537000Y-104267000D01*
X164537000Y-105952507D01*
X164536999Y-105952507D01*
X164338000Y-105952507D01*
X164338000Y-102327492D01*
X164537000Y-102327492D01*
X164537000Y-104013000D01*
X165237000Y-104013000D01*
X165491000Y-104013000D01*
X166191000Y-104013000D01*
X166191000Y-102327492D01*
X166183630Y-102290446D01*
X166183630Y-102290445D01*
X166155561Y-102248438D01*
X166113553Y-102220369D01*
X166076507Y-102213000D01*
X165491000Y-102213000D01*
X165491000Y-104013000D01*
X165237000Y-104013000D01*
X165237000Y-102213000D01*
X164651493Y-102213000D01*
X164614446Y-102220369D01*
X164614445Y-102220369D01*
X164572438Y-102248438D01*
X164544369Y-102290445D01*
X164544369Y-102290446D01*
X164537000Y-102327492D01*
X164338000Y-102327492D01*
X164338000Y-102133888D01*
X164356306Y-102089694D01*
X164573694Y-101872306D01*
X164617888Y-101854000D01*
X166725112Y-101854000D01*
X166769306Y-101872306D01*
G37*
G04 #@! TD.AperFunction*
G04 #@! TD*
G04 #@! TA.AperFunction,Conductor*
G04 #@! TO.N,GNDS*
G36*
X143782306Y-83584306D02*
G01*
X143999694Y-83801694D01*
X144018000Y-83845888D01*
X144018000Y-85826112D01*
X143999694Y-85870306D01*
X143782306Y-86087694D01*
X143738112Y-86106000D01*
X139979888Y-86106000D01*
X139935694Y-86087694D01*
X139718306Y-85870306D01*
X139700000Y-85826112D01*
X139700000Y-85618777D01*
X140016001Y-85618777D01*
X140026676Y-85692056D01*
X140026678Y-85692060D01*
X140081936Y-85805095D01*
X140170904Y-85894063D01*
X140283941Y-85949322D01*
X140357221Y-85959999D01*
X140716000Y-85959999D01*
X140970000Y-85959999D01*
X141328778Y-85959999D01*
X141402056Y-85949323D01*
X141402060Y-85949321D01*
X141515095Y-85894063D01*
X141604063Y-85805095D01*
X141659322Y-85692058D01*
X141670000Y-85618778D01*
X141670000Y-85568777D01*
X142023001Y-85568777D01*
X142033676Y-85642056D01*
X142033678Y-85642060D01*
X142088936Y-85755095D01*
X142177904Y-85844063D01*
X142290941Y-85899322D01*
X142364221Y-85909999D01*
X142748000Y-85909999D01*
X143002000Y-85909999D01*
X143385778Y-85909999D01*
X143459056Y-85899323D01*
X143459060Y-85899321D01*
X143572095Y-85844063D01*
X143661063Y-85755095D01*
X143716322Y-85642058D01*
X143727000Y-85568778D01*
X143727000Y-85322500D01*
X143002000Y-85322500D01*
X143002000Y-85909999D01*
X142748000Y-85909999D01*
X142748000Y-85322500D01*
X142023001Y-85322500D01*
X142023001Y-85568777D01*
X141670000Y-85568777D01*
X141670000Y-85360000D01*
X140970000Y-85360000D01*
X140970000Y-85959999D01*
X140716000Y-85959999D01*
X140716000Y-85360000D01*
X140016001Y-85360000D01*
X140016001Y-85618777D01*
X139700000Y-85618777D01*
X139700000Y-84847221D01*
X140016000Y-84847221D01*
X140016000Y-85106000D01*
X140716000Y-85106000D01*
X140970000Y-85106000D01*
X141669999Y-85106000D01*
X141669999Y-84847222D01*
X141666357Y-84822221D01*
X142023000Y-84822221D01*
X142023000Y-85068500D01*
X142748000Y-85068500D01*
X143002000Y-85068500D01*
X143726999Y-85068500D01*
X143726999Y-84822222D01*
X143716323Y-84748943D01*
X143716321Y-84748939D01*
X143661063Y-84635904D01*
X143572095Y-84546936D01*
X143459058Y-84491677D01*
X143385778Y-84481000D01*
X143002000Y-84481000D01*
X143002000Y-85068500D01*
X142748000Y-85068500D01*
X142748000Y-84481000D01*
X142364222Y-84481000D01*
X142290943Y-84491676D01*
X142290939Y-84491678D01*
X142177904Y-84546936D01*
X142088936Y-84635904D01*
X142033677Y-84748941D01*
X142023000Y-84822221D01*
X141666357Y-84822221D01*
X141659323Y-84773943D01*
X141659321Y-84773939D01*
X141604063Y-84660904D01*
X141515095Y-84571936D01*
X141402058Y-84516677D01*
X141328778Y-84506000D01*
X140970000Y-84506000D01*
X140970000Y-85106000D01*
X140716000Y-85106000D01*
X140716000Y-84506000D01*
X140357222Y-84506000D01*
X140283943Y-84516676D01*
X140283939Y-84516678D01*
X140170904Y-84571936D01*
X140081936Y-84660904D01*
X140026677Y-84773941D01*
X140016000Y-84847221D01*
X139700000Y-84847221D01*
X139700000Y-83845888D01*
X139718306Y-83801694D01*
X139935694Y-83584306D01*
X139979888Y-83566000D01*
X143738112Y-83566000D01*
X143782306Y-83584306D01*
G37*
G04 #@! TD.AperFunction*
G04 #@! TD*
G04 #@! TA.AperFunction,Conductor*
G04 #@! TO.N,GNDS*
G36*
X144214693Y-95700693D02*
G01*
X144380694Y-95866694D01*
X144399000Y-95910888D01*
X144399000Y-98145112D01*
X144380694Y-98189306D01*
X144163306Y-98406694D01*
X144119112Y-98425000D01*
X142392888Y-98425000D01*
X142348694Y-98406694D01*
X142307225Y-98365225D01*
X142288919Y-98321031D01*
X142301384Y-98283579D01*
X142314758Y-98265715D01*
X142364200Y-98133157D01*
X142370500Y-98074557D01*
X142370499Y-97505444D01*
X142364200Y-97446843D01*
X142314758Y-97314285D01*
X142229974Y-97201026D01*
X142138045Y-97132209D01*
X142113636Y-97091070D01*
X142113000Y-97082175D01*
X142113000Y-96279777D01*
X142404001Y-96279777D01*
X142414676Y-96353056D01*
X142414678Y-96353060D01*
X142469936Y-96466095D01*
X142558904Y-96555063D01*
X142671941Y-96610322D01*
X142745221Y-96620999D01*
X143129000Y-96620999D01*
X143383000Y-96620999D01*
X143766778Y-96620999D01*
X143840056Y-96610323D01*
X143840060Y-96610321D01*
X143953095Y-96555063D01*
X144042063Y-96466095D01*
X144097322Y-96353058D01*
X144108000Y-96279778D01*
X144108000Y-96033500D01*
X143383000Y-96033500D01*
X143383000Y-96620999D01*
X143129000Y-96620999D01*
X143129000Y-96033500D01*
X142404001Y-96033500D01*
X142404001Y-96279777D01*
X142113000Y-96279777D01*
X142113000Y-95910888D01*
X142131306Y-95866694D01*
X142297306Y-95700694D01*
X142341500Y-95682388D01*
X142385694Y-95700694D01*
X142404000Y-95744888D01*
X142404000Y-95779500D01*
X144107999Y-95779500D01*
X144107999Y-95744887D01*
X144126305Y-95700693D01*
X144170499Y-95682387D01*
X144214693Y-95700693D01*
G37*
G04 #@! TD.AperFunction*
G04 #@! TD*
G04 #@! TA.AperFunction,Conductor*
G04 #@! TO.N,GND*
G36*
X188740306Y-71265306D02*
G01*
X188957694Y-71482694D01*
X188976000Y-71526888D01*
X188976000Y-73634112D01*
X188957694Y-73678306D01*
X188740306Y-73895694D01*
X188696112Y-73914000D01*
X185699888Y-73914000D01*
X185655694Y-73895694D01*
X185438306Y-73678306D01*
X185420000Y-73634112D01*
X185420000Y-73434777D01*
X185721001Y-73434777D01*
X185731676Y-73508056D01*
X185731678Y-73508060D01*
X185786936Y-73621095D01*
X185875904Y-73710063D01*
X185988941Y-73765322D01*
X186062221Y-73775999D01*
X187071000Y-73775999D01*
X187325000Y-73775999D01*
X188333778Y-73775999D01*
X188407056Y-73765323D01*
X188407060Y-73765321D01*
X188520095Y-73710063D01*
X188609063Y-73621095D01*
X188664322Y-73508058D01*
X188675000Y-73434778D01*
X188675000Y-73113500D01*
X187325000Y-73113500D01*
X187325000Y-73775999D01*
X187071000Y-73775999D01*
X187071000Y-73113500D01*
X185721001Y-73113500D01*
X185721001Y-73434777D01*
X185420000Y-73434777D01*
X185420000Y-72538221D01*
X185721000Y-72538221D01*
X185721000Y-72859500D01*
X187071000Y-72859500D01*
X187325000Y-72859500D01*
X188674999Y-72859500D01*
X188674999Y-72538222D01*
X188664323Y-72464943D01*
X188664321Y-72464939D01*
X188609063Y-72351904D01*
X188520095Y-72262936D01*
X188407058Y-72207677D01*
X188333778Y-72197000D01*
X187325000Y-72197000D01*
X187325000Y-72859500D01*
X187071000Y-72859500D01*
X187071000Y-72197000D01*
X186062222Y-72197000D01*
X185988943Y-72207676D01*
X185988939Y-72207678D01*
X185875904Y-72262936D01*
X185786936Y-72351904D01*
X185731677Y-72464941D01*
X185721000Y-72538221D01*
X185420000Y-72538221D01*
X185420000Y-71526888D01*
X185438306Y-71482694D01*
X185655694Y-71265306D01*
X185699888Y-71247000D01*
X188696112Y-71247000D01*
X188740306Y-71265306D01*
G37*
G04 #@! TD.AperFunction*
G04 #@! TD*
G04 #@! TA.AperFunction,Conductor*
G04 #@! TO.N,Net-(C2-Pad2)*
G36*
X146830306Y-75583306D02*
G01*
X147047694Y-75800694D01*
X147066000Y-75844888D01*
X147066000Y-78841112D01*
X147047694Y-78885306D01*
X146830306Y-79102694D01*
X146786112Y-79121000D01*
X140614888Y-79121000D01*
X140570694Y-79102694D01*
X140353306Y-78885306D01*
X140335000Y-78841112D01*
X140335000Y-78378777D01*
X140684001Y-78378777D01*
X140694676Y-78452056D01*
X140694678Y-78452060D01*
X140749936Y-78565095D01*
X140838904Y-78654063D01*
X140951941Y-78709322D01*
X141025221Y-78719999D01*
X142684000Y-78719999D01*
X142938000Y-78719999D01*
X144596778Y-78719999D01*
X144670056Y-78709323D01*
X144670060Y-78709321D01*
X144783095Y-78654063D01*
X144872063Y-78565095D01*
X144927322Y-78452058D01*
X144938000Y-78378778D01*
X144938000Y-77828777D01*
X145466001Y-77828777D01*
X145476676Y-77902056D01*
X145476678Y-77902060D01*
X145531936Y-78015095D01*
X145620904Y-78104063D01*
X145733941Y-78159322D01*
X145807214Y-78169998D01*
X145807228Y-78169999D01*
X146065999Y-78169999D01*
X146320000Y-78169999D01*
X146578778Y-78169999D01*
X146652056Y-78159323D01*
X146652060Y-78159321D01*
X146765095Y-78104063D01*
X146854063Y-78015095D01*
X146909322Y-77902058D01*
X146920000Y-77828778D01*
X146920000Y-77470000D01*
X146320000Y-77470000D01*
X146320000Y-78169999D01*
X146065999Y-78169999D01*
X146066000Y-78169998D01*
X146066000Y-77470000D01*
X145466001Y-77470000D01*
X145466001Y-77828777D01*
X144938000Y-77828777D01*
X144938000Y-77470000D01*
X142938000Y-77470000D01*
X142938000Y-78719999D01*
X142684000Y-78719999D01*
X142684000Y-77470000D01*
X140684001Y-77470000D01*
X140684001Y-78378777D01*
X140335000Y-78378777D01*
X140335000Y-76307221D01*
X140684000Y-76307221D01*
X140684000Y-77216000D01*
X142684000Y-77216000D01*
X142938000Y-77216000D01*
X144937999Y-77216000D01*
X144937999Y-76857221D01*
X145466000Y-76857221D01*
X145466000Y-77216000D01*
X146066000Y-77216000D01*
X146320000Y-77216000D01*
X146919999Y-77216000D01*
X146919999Y-76857222D01*
X146909323Y-76783943D01*
X146909321Y-76783939D01*
X146854063Y-76670904D01*
X146765095Y-76581936D01*
X146652058Y-76526677D01*
X146578778Y-76516000D01*
X146320000Y-76516000D01*
X146320000Y-77216000D01*
X146066000Y-77216000D01*
X146066000Y-76516000D01*
X145807222Y-76516000D01*
X145733942Y-76526677D01*
X145733939Y-76526678D01*
X145620904Y-76581936D01*
X145531936Y-76670904D01*
X145476677Y-76783941D01*
X145466000Y-76857221D01*
X144937999Y-76857221D01*
X144937999Y-76307222D01*
X144927323Y-76233943D01*
X144927321Y-76233939D01*
X144872063Y-76120904D01*
X144783095Y-76031936D01*
X144670058Y-75976677D01*
X144596778Y-75966000D01*
X142938000Y-75966000D01*
X142938000Y-77216000D01*
X142684000Y-77216000D01*
X142684000Y-75966000D01*
X141025222Y-75966000D01*
X140951943Y-75976676D01*
X140951939Y-75976678D01*
X140838904Y-76031936D01*
X140749936Y-76120904D01*
X140694677Y-76233941D01*
X140684000Y-76307221D01*
X140335000Y-76307221D01*
X140335000Y-75844888D01*
X140353306Y-75800694D01*
X140570694Y-75583306D01*
X140614888Y-75565000D01*
X146786112Y-75565000D01*
X146830306Y-75583306D01*
G37*
G04 #@! TD.AperFunction*
G04 #@! TD*
M02*
