%TF.GenerationSoftware,KiCad,Pcbnew,8.0.6*%
%TF.CreationDate,2024-12-01T22:01:03+01:00*%
%TF.ProjectId,UCC25800,55434332-3538-4303-902e-6b696361645f,rev?*%
%TF.SameCoordinates,Original*%
%TF.FileFunction,Drillmap*%
%TF.FilePolarity,Positive*%
%FSLAX45Y45*%
G04 Gerber Fmt 4.5, Leading zero omitted, Abs format (unit mm)*
G04 Created by KiCad (PCBNEW 8.0.6) date 2024-12-01 22:01:03*
%MOMM*%
%LPD*%
G01*
G04 APERTURE LIST*
%ADD10C,0.050000*%
%ADD11C,0.200000*%
%ADD12C,0.250000*%
G04 APERTURE END LIST*
D10*
X14880000Y-8475500D02*
X14880000Y-9715500D01*
X15240000Y-9715500D02*
G75*
G02*
X14880000Y-9715500I-180000J0D01*
G01*
X15240000Y-8475500D02*
X15240000Y-9715500D01*
X12000000Y-6000000D02*
X19000000Y-6000000D01*
X19000000Y-12000000D01*
X12000000Y-12000000D01*
X12000000Y-6000000D01*
X14880000Y-8475500D02*
G75*
G02*
X15240000Y-8475500I180000J0D01*
G01*
D11*
D12*
X12175000Y-6175000D02*
X12425000Y-6425000D01*
X12425000Y-6175000D02*
X12175000Y-6425000D01*
X12175000Y-11575000D02*
X12425000Y-11825000D01*
X12425000Y-11575000D02*
X12175000Y-11825000D01*
X18575000Y-6175000D02*
X18825000Y-6425000D01*
X18825000Y-6175000D02*
X18575000Y-6425000D01*
X18575000Y-11575000D02*
X18825000Y-11825000D01*
X18825000Y-11575000D02*
X18575000Y-11825000D01*
D11*
X12258277Y-12313984D02*
X12258277Y-12113984D01*
X12258277Y-12113984D02*
X12305896Y-12113984D01*
X12305896Y-12113984D02*
X12334467Y-12123508D01*
X12334467Y-12123508D02*
X12353515Y-12142555D01*
X12353515Y-12142555D02*
X12363039Y-12161603D01*
X12363039Y-12161603D02*
X12372562Y-12199698D01*
X12372562Y-12199698D02*
X12372562Y-12228269D01*
X12372562Y-12228269D02*
X12363039Y-12266365D01*
X12363039Y-12266365D02*
X12353515Y-12285412D01*
X12353515Y-12285412D02*
X12334467Y-12304460D01*
X12334467Y-12304460D02*
X12305896Y-12313984D01*
X12305896Y-12313984D02*
X12258277Y-12313984D01*
X12458277Y-12313984D02*
X12458277Y-12180650D01*
X12458277Y-12218746D02*
X12467801Y-12199698D01*
X12467801Y-12199698D02*
X12477324Y-12190174D01*
X12477324Y-12190174D02*
X12496372Y-12180650D01*
X12496372Y-12180650D02*
X12515420Y-12180650D01*
X12582086Y-12313984D02*
X12582086Y-12180650D01*
X12582086Y-12113984D02*
X12572562Y-12123508D01*
X12572562Y-12123508D02*
X12582086Y-12133031D01*
X12582086Y-12133031D02*
X12591610Y-12123508D01*
X12591610Y-12123508D02*
X12582086Y-12113984D01*
X12582086Y-12113984D02*
X12582086Y-12133031D01*
X12705896Y-12313984D02*
X12686848Y-12304460D01*
X12686848Y-12304460D02*
X12677324Y-12285412D01*
X12677324Y-12285412D02*
X12677324Y-12113984D01*
X12810658Y-12313984D02*
X12791610Y-12304460D01*
X12791610Y-12304460D02*
X12782086Y-12285412D01*
X12782086Y-12285412D02*
X12782086Y-12113984D01*
X13039229Y-12313984D02*
X13039229Y-12113984D01*
X13039229Y-12113984D02*
X13105896Y-12256841D01*
X13105896Y-12256841D02*
X13172562Y-12113984D01*
X13172562Y-12113984D02*
X13172562Y-12313984D01*
X13353515Y-12313984D02*
X13353515Y-12209222D01*
X13353515Y-12209222D02*
X13343991Y-12190174D01*
X13343991Y-12190174D02*
X13324943Y-12180650D01*
X13324943Y-12180650D02*
X13286848Y-12180650D01*
X13286848Y-12180650D02*
X13267801Y-12190174D01*
X13353515Y-12304460D02*
X13334467Y-12313984D01*
X13334467Y-12313984D02*
X13286848Y-12313984D01*
X13286848Y-12313984D02*
X13267801Y-12304460D01*
X13267801Y-12304460D02*
X13258277Y-12285412D01*
X13258277Y-12285412D02*
X13258277Y-12266365D01*
X13258277Y-12266365D02*
X13267801Y-12247317D01*
X13267801Y-12247317D02*
X13286848Y-12237793D01*
X13286848Y-12237793D02*
X13334467Y-12237793D01*
X13334467Y-12237793D02*
X13353515Y-12228269D01*
X13448753Y-12180650D02*
X13448753Y-12380650D01*
X13448753Y-12190174D02*
X13467801Y-12180650D01*
X13467801Y-12180650D02*
X13505896Y-12180650D01*
X13505896Y-12180650D02*
X13524943Y-12190174D01*
X13524943Y-12190174D02*
X13534467Y-12199698D01*
X13534467Y-12199698D02*
X13543991Y-12218746D01*
X13543991Y-12218746D02*
X13543991Y-12275888D01*
X13543991Y-12275888D02*
X13534467Y-12294936D01*
X13534467Y-12294936D02*
X13524943Y-12304460D01*
X13524943Y-12304460D02*
X13505896Y-12313984D01*
X13505896Y-12313984D02*
X13467801Y-12313984D01*
X13467801Y-12313984D02*
X13448753Y-12304460D01*
X13629705Y-12294936D02*
X13639229Y-12304460D01*
X13639229Y-12304460D02*
X13629705Y-12313984D01*
X13629705Y-12313984D02*
X13620182Y-12304460D01*
X13620182Y-12304460D02*
X13629705Y-12294936D01*
X13629705Y-12294936D02*
X13629705Y-12313984D01*
X13629705Y-12190174D02*
X13639229Y-12199698D01*
X13639229Y-12199698D02*
X13629705Y-12209222D01*
X13629705Y-12209222D02*
X13620182Y-12199698D01*
X13620182Y-12199698D02*
X13629705Y-12190174D01*
X13629705Y-12190174D02*
X13629705Y-12209222D01*
X11797500Y-12542500D02*
X11997500Y-12742500D01*
X11997500Y-12542500D02*
X11797500Y-12742500D01*
X12248753Y-12553031D02*
X12258277Y-12543508D01*
X12258277Y-12543508D02*
X12277324Y-12533984D01*
X12277324Y-12533984D02*
X12324943Y-12533984D01*
X12324943Y-12533984D02*
X12343991Y-12543508D01*
X12343991Y-12543508D02*
X12353515Y-12553031D01*
X12353515Y-12553031D02*
X12363039Y-12572079D01*
X12363039Y-12572079D02*
X12363039Y-12591127D01*
X12363039Y-12591127D02*
X12353515Y-12619698D01*
X12353515Y-12619698D02*
X12239229Y-12733984D01*
X12239229Y-12733984D02*
X12363039Y-12733984D01*
X12448753Y-12714936D02*
X12458277Y-12724460D01*
X12458277Y-12724460D02*
X12448753Y-12733984D01*
X12448753Y-12733984D02*
X12439229Y-12724460D01*
X12439229Y-12724460D02*
X12448753Y-12714936D01*
X12448753Y-12714936D02*
X12448753Y-12733984D01*
X12639229Y-12533984D02*
X12543991Y-12533984D01*
X12543991Y-12533984D02*
X12534467Y-12629222D01*
X12534467Y-12629222D02*
X12543991Y-12619698D01*
X12543991Y-12619698D02*
X12563039Y-12610174D01*
X12563039Y-12610174D02*
X12610658Y-12610174D01*
X12610658Y-12610174D02*
X12629705Y-12619698D01*
X12629705Y-12619698D02*
X12639229Y-12629222D01*
X12639229Y-12629222D02*
X12648753Y-12648269D01*
X12648753Y-12648269D02*
X12648753Y-12695888D01*
X12648753Y-12695888D02*
X12639229Y-12714936D01*
X12639229Y-12714936D02*
X12629705Y-12724460D01*
X12629705Y-12724460D02*
X12610658Y-12733984D01*
X12610658Y-12733984D02*
X12563039Y-12733984D01*
X12563039Y-12733984D02*
X12543991Y-12724460D01*
X12543991Y-12724460D02*
X12534467Y-12714936D01*
X12772562Y-12533984D02*
X12791610Y-12533984D01*
X12791610Y-12533984D02*
X12810658Y-12543508D01*
X12810658Y-12543508D02*
X12820182Y-12553031D01*
X12820182Y-12553031D02*
X12829705Y-12572079D01*
X12829705Y-12572079D02*
X12839229Y-12610174D01*
X12839229Y-12610174D02*
X12839229Y-12657793D01*
X12839229Y-12657793D02*
X12829705Y-12695888D01*
X12829705Y-12695888D02*
X12820182Y-12714936D01*
X12820182Y-12714936D02*
X12810658Y-12724460D01*
X12810658Y-12724460D02*
X12791610Y-12733984D01*
X12791610Y-12733984D02*
X12772562Y-12733984D01*
X12772562Y-12733984D02*
X12753515Y-12724460D01*
X12753515Y-12724460D02*
X12743991Y-12714936D01*
X12743991Y-12714936D02*
X12734467Y-12695888D01*
X12734467Y-12695888D02*
X12724943Y-12657793D01*
X12724943Y-12657793D02*
X12724943Y-12610174D01*
X12724943Y-12610174D02*
X12734467Y-12572079D01*
X12734467Y-12572079D02*
X12743991Y-12553031D01*
X12743991Y-12553031D02*
X12753515Y-12543508D01*
X12753515Y-12543508D02*
X12772562Y-12533984D01*
X12963039Y-12533984D02*
X12982086Y-12533984D01*
X12982086Y-12533984D02*
X13001134Y-12543508D01*
X13001134Y-12543508D02*
X13010658Y-12553031D01*
X13010658Y-12553031D02*
X13020182Y-12572079D01*
X13020182Y-12572079D02*
X13029705Y-12610174D01*
X13029705Y-12610174D02*
X13029705Y-12657793D01*
X13029705Y-12657793D02*
X13020182Y-12695888D01*
X13020182Y-12695888D02*
X13010658Y-12714936D01*
X13010658Y-12714936D02*
X13001134Y-12724460D01*
X13001134Y-12724460D02*
X12982086Y-12733984D01*
X12982086Y-12733984D02*
X12963039Y-12733984D01*
X12963039Y-12733984D02*
X12943991Y-12724460D01*
X12943991Y-12724460D02*
X12934467Y-12714936D01*
X12934467Y-12714936D02*
X12924943Y-12695888D01*
X12924943Y-12695888D02*
X12915420Y-12657793D01*
X12915420Y-12657793D02*
X12915420Y-12610174D01*
X12915420Y-12610174D02*
X12924943Y-12572079D01*
X12924943Y-12572079D02*
X12934467Y-12553031D01*
X12934467Y-12553031D02*
X12943991Y-12543508D01*
X12943991Y-12543508D02*
X12963039Y-12533984D01*
X13115420Y-12733984D02*
X13115420Y-12600650D01*
X13115420Y-12619698D02*
X13124943Y-12610174D01*
X13124943Y-12610174D02*
X13143991Y-12600650D01*
X13143991Y-12600650D02*
X13172563Y-12600650D01*
X13172563Y-12600650D02*
X13191610Y-12610174D01*
X13191610Y-12610174D02*
X13201134Y-12629222D01*
X13201134Y-12629222D02*
X13201134Y-12733984D01*
X13201134Y-12629222D02*
X13210658Y-12610174D01*
X13210658Y-12610174D02*
X13229705Y-12600650D01*
X13229705Y-12600650D02*
X13258277Y-12600650D01*
X13258277Y-12600650D02*
X13277324Y-12610174D01*
X13277324Y-12610174D02*
X13286848Y-12629222D01*
X13286848Y-12629222D02*
X13286848Y-12733984D01*
X13382086Y-12733984D02*
X13382086Y-12600650D01*
X13382086Y-12619698D02*
X13391610Y-12610174D01*
X13391610Y-12610174D02*
X13410658Y-12600650D01*
X13410658Y-12600650D02*
X13439229Y-12600650D01*
X13439229Y-12600650D02*
X13458277Y-12610174D01*
X13458277Y-12610174D02*
X13467801Y-12629222D01*
X13467801Y-12629222D02*
X13467801Y-12733984D01*
X13467801Y-12629222D02*
X13477324Y-12610174D01*
X13477324Y-12610174D02*
X13496372Y-12600650D01*
X13496372Y-12600650D02*
X13524943Y-12600650D01*
X13524943Y-12600650D02*
X13543991Y-12610174D01*
X13543991Y-12610174D02*
X13553515Y-12629222D01*
X13553515Y-12629222D02*
X13553515Y-12733984D01*
X13943991Y-12524460D02*
X13772563Y-12781603D01*
X14201134Y-12533984D02*
X14220182Y-12533984D01*
X14220182Y-12533984D02*
X14239229Y-12543508D01*
X14239229Y-12543508D02*
X14248753Y-12553031D01*
X14248753Y-12553031D02*
X14258277Y-12572079D01*
X14258277Y-12572079D02*
X14267801Y-12610174D01*
X14267801Y-12610174D02*
X14267801Y-12657793D01*
X14267801Y-12657793D02*
X14258277Y-12695888D01*
X14258277Y-12695888D02*
X14248753Y-12714936D01*
X14248753Y-12714936D02*
X14239229Y-12724460D01*
X14239229Y-12724460D02*
X14220182Y-12733984D01*
X14220182Y-12733984D02*
X14201134Y-12733984D01*
X14201134Y-12733984D02*
X14182086Y-12724460D01*
X14182086Y-12724460D02*
X14172563Y-12714936D01*
X14172563Y-12714936D02*
X14163039Y-12695888D01*
X14163039Y-12695888D02*
X14153515Y-12657793D01*
X14153515Y-12657793D02*
X14153515Y-12610174D01*
X14153515Y-12610174D02*
X14163039Y-12572079D01*
X14163039Y-12572079D02*
X14172563Y-12553031D01*
X14172563Y-12553031D02*
X14182086Y-12543508D01*
X14182086Y-12543508D02*
X14201134Y-12533984D01*
X14353515Y-12714936D02*
X14363039Y-12724460D01*
X14363039Y-12724460D02*
X14353515Y-12733984D01*
X14353515Y-12733984D02*
X14343991Y-12724460D01*
X14343991Y-12724460D02*
X14353515Y-12714936D01*
X14353515Y-12714936D02*
X14353515Y-12733984D01*
X14486848Y-12533984D02*
X14505896Y-12533984D01*
X14505896Y-12533984D02*
X14524944Y-12543508D01*
X14524944Y-12543508D02*
X14534467Y-12553031D01*
X14534467Y-12553031D02*
X14543991Y-12572079D01*
X14543991Y-12572079D02*
X14553515Y-12610174D01*
X14553515Y-12610174D02*
X14553515Y-12657793D01*
X14553515Y-12657793D02*
X14543991Y-12695888D01*
X14543991Y-12695888D02*
X14534467Y-12714936D01*
X14534467Y-12714936D02*
X14524944Y-12724460D01*
X14524944Y-12724460D02*
X14505896Y-12733984D01*
X14505896Y-12733984D02*
X14486848Y-12733984D01*
X14486848Y-12733984D02*
X14467801Y-12724460D01*
X14467801Y-12724460D02*
X14458277Y-12714936D01*
X14458277Y-12714936D02*
X14448753Y-12695888D01*
X14448753Y-12695888D02*
X14439229Y-12657793D01*
X14439229Y-12657793D02*
X14439229Y-12610174D01*
X14439229Y-12610174D02*
X14448753Y-12572079D01*
X14448753Y-12572079D02*
X14458277Y-12553031D01*
X14458277Y-12553031D02*
X14467801Y-12543508D01*
X14467801Y-12543508D02*
X14486848Y-12533984D01*
X14648753Y-12733984D02*
X14686848Y-12733984D01*
X14686848Y-12733984D02*
X14705896Y-12724460D01*
X14705896Y-12724460D02*
X14715420Y-12714936D01*
X14715420Y-12714936D02*
X14734467Y-12686365D01*
X14734467Y-12686365D02*
X14743991Y-12648269D01*
X14743991Y-12648269D02*
X14743991Y-12572079D01*
X14743991Y-12572079D02*
X14734467Y-12553031D01*
X14734467Y-12553031D02*
X14724944Y-12543508D01*
X14724944Y-12543508D02*
X14705896Y-12533984D01*
X14705896Y-12533984D02*
X14667801Y-12533984D01*
X14667801Y-12533984D02*
X14648753Y-12543508D01*
X14648753Y-12543508D02*
X14639229Y-12553031D01*
X14639229Y-12553031D02*
X14629706Y-12572079D01*
X14629706Y-12572079D02*
X14629706Y-12619698D01*
X14629706Y-12619698D02*
X14639229Y-12638746D01*
X14639229Y-12638746D02*
X14648753Y-12648269D01*
X14648753Y-12648269D02*
X14667801Y-12657793D01*
X14667801Y-12657793D02*
X14705896Y-12657793D01*
X14705896Y-12657793D02*
X14724944Y-12648269D01*
X14724944Y-12648269D02*
X14734467Y-12638746D01*
X14734467Y-12638746D02*
X14743991Y-12619698D01*
X14858277Y-12619698D02*
X14839229Y-12610174D01*
X14839229Y-12610174D02*
X14829706Y-12600650D01*
X14829706Y-12600650D02*
X14820182Y-12581603D01*
X14820182Y-12581603D02*
X14820182Y-12572079D01*
X14820182Y-12572079D02*
X14829706Y-12553031D01*
X14829706Y-12553031D02*
X14839229Y-12543508D01*
X14839229Y-12543508D02*
X14858277Y-12533984D01*
X14858277Y-12533984D02*
X14896372Y-12533984D01*
X14896372Y-12533984D02*
X14915420Y-12543508D01*
X14915420Y-12543508D02*
X14924944Y-12553031D01*
X14924944Y-12553031D02*
X14934467Y-12572079D01*
X14934467Y-12572079D02*
X14934467Y-12581603D01*
X14934467Y-12581603D02*
X14924944Y-12600650D01*
X14924944Y-12600650D02*
X14915420Y-12610174D01*
X14915420Y-12610174D02*
X14896372Y-12619698D01*
X14896372Y-12619698D02*
X14858277Y-12619698D01*
X14858277Y-12619698D02*
X14839229Y-12629222D01*
X14839229Y-12629222D02*
X14829706Y-12638746D01*
X14829706Y-12638746D02*
X14820182Y-12657793D01*
X14820182Y-12657793D02*
X14820182Y-12695888D01*
X14820182Y-12695888D02*
X14829706Y-12714936D01*
X14829706Y-12714936D02*
X14839229Y-12724460D01*
X14839229Y-12724460D02*
X14858277Y-12733984D01*
X14858277Y-12733984D02*
X14896372Y-12733984D01*
X14896372Y-12733984D02*
X14915420Y-12724460D01*
X14915420Y-12724460D02*
X14924944Y-12714936D01*
X14924944Y-12714936D02*
X14934467Y-12695888D01*
X14934467Y-12695888D02*
X14934467Y-12657793D01*
X14934467Y-12657793D02*
X14924944Y-12638746D01*
X14924944Y-12638746D02*
X14915420Y-12629222D01*
X14915420Y-12629222D02*
X14896372Y-12619698D01*
X15105896Y-12600650D02*
X15105896Y-12733984D01*
X15058277Y-12524460D02*
X15010658Y-12667317D01*
X15010658Y-12667317D02*
X15134467Y-12667317D01*
X15201134Y-12533984D02*
X15201134Y-12572079D01*
X15277325Y-12533984D02*
X15277325Y-12572079D01*
X15572563Y-12810174D02*
X15563039Y-12800650D01*
X15563039Y-12800650D02*
X15543991Y-12772079D01*
X15543991Y-12772079D02*
X15534468Y-12753031D01*
X15534468Y-12753031D02*
X15524944Y-12724460D01*
X15524944Y-12724460D02*
X15515420Y-12676841D01*
X15515420Y-12676841D02*
X15515420Y-12638746D01*
X15515420Y-12638746D02*
X15524944Y-12591127D01*
X15524944Y-12591127D02*
X15534468Y-12562555D01*
X15534468Y-12562555D02*
X15543991Y-12543508D01*
X15543991Y-12543508D02*
X15563039Y-12514936D01*
X15563039Y-12514936D02*
X15572563Y-12505412D01*
X15734468Y-12600650D02*
X15734468Y-12733984D01*
X15686848Y-12524460D02*
X15639229Y-12667317D01*
X15639229Y-12667317D02*
X15763039Y-12667317D01*
X15991610Y-12733984D02*
X15991610Y-12533984D01*
X16077325Y-12733984D02*
X16077325Y-12629222D01*
X16077325Y-12629222D02*
X16067801Y-12610174D01*
X16067801Y-12610174D02*
X16048753Y-12600650D01*
X16048753Y-12600650D02*
X16020182Y-12600650D01*
X16020182Y-12600650D02*
X16001134Y-12610174D01*
X16001134Y-12610174D02*
X15991610Y-12619698D01*
X16201134Y-12733984D02*
X16182087Y-12724460D01*
X16182087Y-12724460D02*
X16172563Y-12714936D01*
X16172563Y-12714936D02*
X16163039Y-12695888D01*
X16163039Y-12695888D02*
X16163039Y-12638746D01*
X16163039Y-12638746D02*
X16172563Y-12619698D01*
X16172563Y-12619698D02*
X16182087Y-12610174D01*
X16182087Y-12610174D02*
X16201134Y-12600650D01*
X16201134Y-12600650D02*
X16229706Y-12600650D01*
X16229706Y-12600650D02*
X16248753Y-12610174D01*
X16248753Y-12610174D02*
X16258277Y-12619698D01*
X16258277Y-12619698D02*
X16267801Y-12638746D01*
X16267801Y-12638746D02*
X16267801Y-12695888D01*
X16267801Y-12695888D02*
X16258277Y-12714936D01*
X16258277Y-12714936D02*
X16248753Y-12724460D01*
X16248753Y-12724460D02*
X16229706Y-12733984D01*
X16229706Y-12733984D02*
X16201134Y-12733984D01*
X16382087Y-12733984D02*
X16363039Y-12724460D01*
X16363039Y-12724460D02*
X16353515Y-12705412D01*
X16353515Y-12705412D02*
X16353515Y-12533984D01*
X16534468Y-12724460D02*
X16515420Y-12733984D01*
X16515420Y-12733984D02*
X16477325Y-12733984D01*
X16477325Y-12733984D02*
X16458277Y-12724460D01*
X16458277Y-12724460D02*
X16448753Y-12705412D01*
X16448753Y-12705412D02*
X16448753Y-12629222D01*
X16448753Y-12629222D02*
X16458277Y-12610174D01*
X16458277Y-12610174D02*
X16477325Y-12600650D01*
X16477325Y-12600650D02*
X16515420Y-12600650D01*
X16515420Y-12600650D02*
X16534468Y-12610174D01*
X16534468Y-12610174D02*
X16543991Y-12629222D01*
X16543991Y-12629222D02*
X16543991Y-12648269D01*
X16543991Y-12648269D02*
X16448753Y-12667317D01*
X16620182Y-12724460D02*
X16639230Y-12733984D01*
X16639230Y-12733984D02*
X16677325Y-12733984D01*
X16677325Y-12733984D02*
X16696372Y-12724460D01*
X16696372Y-12724460D02*
X16705896Y-12705412D01*
X16705896Y-12705412D02*
X16705896Y-12695888D01*
X16705896Y-12695888D02*
X16696372Y-12676841D01*
X16696372Y-12676841D02*
X16677325Y-12667317D01*
X16677325Y-12667317D02*
X16648753Y-12667317D01*
X16648753Y-12667317D02*
X16629706Y-12657793D01*
X16629706Y-12657793D02*
X16620182Y-12638746D01*
X16620182Y-12638746D02*
X16620182Y-12629222D01*
X16620182Y-12629222D02*
X16629706Y-12610174D01*
X16629706Y-12610174D02*
X16648753Y-12600650D01*
X16648753Y-12600650D02*
X16677325Y-12600650D01*
X16677325Y-12600650D02*
X16696372Y-12610174D01*
X16772563Y-12810174D02*
X16782087Y-12800650D01*
X16782087Y-12800650D02*
X16801134Y-12772079D01*
X16801134Y-12772079D02*
X16810658Y-12753031D01*
X16810658Y-12753031D02*
X16820182Y-12724460D01*
X16820182Y-12724460D02*
X16829706Y-12676841D01*
X16829706Y-12676841D02*
X16829706Y-12638746D01*
X16829706Y-12638746D02*
X16820182Y-12591127D01*
X16820182Y-12591127D02*
X16810658Y-12562555D01*
X16810658Y-12562555D02*
X16801134Y-12543508D01*
X16801134Y-12543508D02*
X16782087Y-12514936D01*
X16782087Y-12514936D02*
X16772563Y-12505412D01*
X17134468Y-12810174D02*
X17124944Y-12800650D01*
X17124944Y-12800650D02*
X17105896Y-12772079D01*
X17105896Y-12772079D02*
X17096373Y-12753031D01*
X17096373Y-12753031D02*
X17086849Y-12724460D01*
X17086849Y-12724460D02*
X17077325Y-12676841D01*
X17077325Y-12676841D02*
X17077325Y-12638746D01*
X17077325Y-12638746D02*
X17086849Y-12591127D01*
X17086849Y-12591127D02*
X17096373Y-12562555D01*
X17096373Y-12562555D02*
X17105896Y-12543508D01*
X17105896Y-12543508D02*
X17124944Y-12514936D01*
X17124944Y-12514936D02*
X17134468Y-12505412D01*
X17210658Y-12600650D02*
X17210658Y-12733984D01*
X17210658Y-12619698D02*
X17220182Y-12610174D01*
X17220182Y-12610174D02*
X17239230Y-12600650D01*
X17239230Y-12600650D02*
X17267801Y-12600650D01*
X17267801Y-12600650D02*
X17286849Y-12610174D01*
X17286849Y-12610174D02*
X17296373Y-12629222D01*
X17296373Y-12629222D02*
X17296373Y-12733984D01*
X17420182Y-12733984D02*
X17401134Y-12724460D01*
X17401134Y-12724460D02*
X17391611Y-12714936D01*
X17391611Y-12714936D02*
X17382087Y-12695888D01*
X17382087Y-12695888D02*
X17382087Y-12638746D01*
X17382087Y-12638746D02*
X17391611Y-12619698D01*
X17391611Y-12619698D02*
X17401134Y-12610174D01*
X17401134Y-12610174D02*
X17420182Y-12600650D01*
X17420182Y-12600650D02*
X17448754Y-12600650D01*
X17448754Y-12600650D02*
X17467801Y-12610174D01*
X17467801Y-12610174D02*
X17477325Y-12619698D01*
X17477325Y-12619698D02*
X17486849Y-12638746D01*
X17486849Y-12638746D02*
X17486849Y-12695888D01*
X17486849Y-12695888D02*
X17477325Y-12714936D01*
X17477325Y-12714936D02*
X17467801Y-12724460D01*
X17467801Y-12724460D02*
X17448754Y-12733984D01*
X17448754Y-12733984D02*
X17420182Y-12733984D01*
X17543992Y-12600650D02*
X17620182Y-12600650D01*
X17572563Y-12533984D02*
X17572563Y-12705412D01*
X17572563Y-12705412D02*
X17582087Y-12724460D01*
X17582087Y-12724460D02*
X17601134Y-12733984D01*
X17601134Y-12733984D02*
X17620182Y-12733984D01*
X17839230Y-12600650D02*
X17839230Y-12800650D01*
X17839230Y-12610174D02*
X17858277Y-12600650D01*
X17858277Y-12600650D02*
X17896373Y-12600650D01*
X17896373Y-12600650D02*
X17915420Y-12610174D01*
X17915420Y-12610174D02*
X17924944Y-12619698D01*
X17924944Y-12619698D02*
X17934468Y-12638746D01*
X17934468Y-12638746D02*
X17934468Y-12695888D01*
X17934468Y-12695888D02*
X17924944Y-12714936D01*
X17924944Y-12714936D02*
X17915420Y-12724460D01*
X17915420Y-12724460D02*
X17896373Y-12733984D01*
X17896373Y-12733984D02*
X17858277Y-12733984D01*
X17858277Y-12733984D02*
X17839230Y-12724460D01*
X18048754Y-12733984D02*
X18029706Y-12724460D01*
X18029706Y-12724460D02*
X18020182Y-12705412D01*
X18020182Y-12705412D02*
X18020182Y-12533984D01*
X18210658Y-12733984D02*
X18210658Y-12629222D01*
X18210658Y-12629222D02*
X18201135Y-12610174D01*
X18201135Y-12610174D02*
X18182087Y-12600650D01*
X18182087Y-12600650D02*
X18143992Y-12600650D01*
X18143992Y-12600650D02*
X18124944Y-12610174D01*
X18210658Y-12724460D02*
X18191611Y-12733984D01*
X18191611Y-12733984D02*
X18143992Y-12733984D01*
X18143992Y-12733984D02*
X18124944Y-12724460D01*
X18124944Y-12724460D02*
X18115420Y-12705412D01*
X18115420Y-12705412D02*
X18115420Y-12686365D01*
X18115420Y-12686365D02*
X18124944Y-12667317D01*
X18124944Y-12667317D02*
X18143992Y-12657793D01*
X18143992Y-12657793D02*
X18191611Y-12657793D01*
X18191611Y-12657793D02*
X18210658Y-12648269D01*
X18277325Y-12600650D02*
X18353515Y-12600650D01*
X18305896Y-12533984D02*
X18305896Y-12705412D01*
X18305896Y-12705412D02*
X18315420Y-12724460D01*
X18315420Y-12724460D02*
X18334468Y-12733984D01*
X18334468Y-12733984D02*
X18353515Y-12733984D01*
X18496373Y-12724460D02*
X18477325Y-12733984D01*
X18477325Y-12733984D02*
X18439230Y-12733984D01*
X18439230Y-12733984D02*
X18420182Y-12724460D01*
X18420182Y-12724460D02*
X18410658Y-12705412D01*
X18410658Y-12705412D02*
X18410658Y-12629222D01*
X18410658Y-12629222D02*
X18420182Y-12610174D01*
X18420182Y-12610174D02*
X18439230Y-12600650D01*
X18439230Y-12600650D02*
X18477325Y-12600650D01*
X18477325Y-12600650D02*
X18496373Y-12610174D01*
X18496373Y-12610174D02*
X18505896Y-12629222D01*
X18505896Y-12629222D02*
X18505896Y-12648269D01*
X18505896Y-12648269D02*
X18410658Y-12667317D01*
X18677325Y-12733984D02*
X18677325Y-12533984D01*
X18677325Y-12724460D02*
X18658277Y-12733984D01*
X18658277Y-12733984D02*
X18620182Y-12733984D01*
X18620182Y-12733984D02*
X18601135Y-12724460D01*
X18601135Y-12724460D02*
X18591611Y-12714936D01*
X18591611Y-12714936D02*
X18582087Y-12695888D01*
X18582087Y-12695888D02*
X18582087Y-12638746D01*
X18582087Y-12638746D02*
X18591611Y-12619698D01*
X18591611Y-12619698D02*
X18601135Y-12610174D01*
X18601135Y-12610174D02*
X18620182Y-12600650D01*
X18620182Y-12600650D02*
X18658277Y-12600650D01*
X18658277Y-12600650D02*
X18677325Y-12610174D01*
X18753516Y-12810174D02*
X18763039Y-12800650D01*
X18763039Y-12800650D02*
X18782087Y-12772079D01*
X18782087Y-12772079D02*
X18791611Y-12753031D01*
X18791611Y-12753031D02*
X18801135Y-12724460D01*
X18801135Y-12724460D02*
X18810658Y-12676841D01*
X18810658Y-12676841D02*
X18810658Y-12638746D01*
X18810658Y-12638746D02*
X18801135Y-12591127D01*
X18801135Y-12591127D02*
X18791611Y-12562555D01*
X18791611Y-12562555D02*
X18782087Y-12543508D01*
X18782087Y-12543508D02*
X18763039Y-12514936D01*
X18763039Y-12514936D02*
X18753516Y-12505412D01*
M02*
