G04 #@! TF.GenerationSoftware,KiCad,Pcbnew,8.0.6*
G04 #@! TF.CreationDate,2024-12-01T22:00:57+01:00*
G04 #@! TF.ProjectId,UCC25800,55434332-3538-4303-902e-6b696361645f,rev?*
G04 #@! TF.SameCoordinates,Original*
G04 #@! TF.FileFunction,Copper,L3,Inr*
G04 #@! TF.FilePolarity,Positive*
%FSLAX46Y46*%
G04 Gerber Fmt 4.6, Leading zero omitted, Abs format (unit mm)*
G04 Created by KiCad (PCBNEW 8.0.6) date 2024-12-01 22:00:57*
%MOMM*%
%LPD*%
G01*
G04 APERTURE LIST*
G04 #@! TA.AperFunction,NonConductor*
%ADD10C,0.200000*%
G04 #@! TD*
%ADD11C,0.300000*%
G04 #@! TA.AperFunction,NonConductor*
%ADD12C,0.300000*%
G04 #@! TD*
G04 #@! TA.AperFunction,ComponentPad*
%ADD13C,2.800000*%
G04 #@! TD*
G04 #@! TA.AperFunction,ComponentPad*
%ADD14R,2.600000X2.600000*%
G04 #@! TD*
G04 #@! TA.AperFunction,ComponentPad*
%ADD15C,2.600000*%
G04 #@! TD*
G04 #@! TA.AperFunction,HeatsinkPad*
%ADD16C,0.600000*%
G04 #@! TD*
G04 #@! TA.AperFunction,ViaPad*
%ADD17C,0.600000*%
G04 #@! TD*
G04 APERTURE END LIST*
D10*
X135890000Y-115570000D02*
X138430000Y-115570000D01*
X138430000Y-118110000D01*
X135890000Y-118110000D01*
X135890000Y-115570000D01*
X133350000Y-115570000D02*
X135890000Y-115570000D01*
X135890000Y-118110000D01*
X133350000Y-118110000D01*
X133350000Y-115570000D01*
X138430000Y-115570000D02*
X140970000Y-115570000D01*
X140970000Y-118110000D01*
X138430000Y-118110000D01*
X138430000Y-115570000D01*
X130810000Y-115570000D02*
X133350000Y-115570000D01*
X133350000Y-118110000D01*
X130810000Y-118110000D01*
X130810000Y-115570000D01*
D11*
D12*
X136708053Y-116106028D02*
X137636625Y-116106028D01*
X137636625Y-116106028D02*
X137136625Y-116677457D01*
X137136625Y-116677457D02*
X137350910Y-116677457D01*
X137350910Y-116677457D02*
X137493768Y-116748885D01*
X137493768Y-116748885D02*
X137565196Y-116820314D01*
X137565196Y-116820314D02*
X137636625Y-116963171D01*
X137636625Y-116963171D02*
X137636625Y-117320314D01*
X137636625Y-117320314D02*
X137565196Y-117463171D01*
X137565196Y-117463171D02*
X137493768Y-117534600D01*
X137493768Y-117534600D02*
X137350910Y-117606028D01*
X137350910Y-117606028D02*
X136922339Y-117606028D01*
X136922339Y-117606028D02*
X136779482Y-117534600D01*
X136779482Y-117534600D02*
X136708053Y-117463171D01*
D13*
G04 #@! TO.N,GND*
G04 #@! TO.C,TP4*
X160020000Y-64516000D03*
G04 #@! TD*
G04 #@! TO.N,+24V*
G04 #@! TO.C,TP3*
X169926000Y-95885000D03*
G04 #@! TD*
D14*
G04 #@! TO.N,Net-(J1-Pin_1)*
G04 #@! TO.C,J1*
X125298000Y-87500000D03*
D15*
G04 #@! TO.N,GNDS*
X125298000Y-92500000D03*
G04 #@! TD*
D14*
G04 #@! TO.N,+18V*
G04 #@! TO.C,J2*
X184658000Y-95080000D03*
D15*
G04 #@! TO.N,GND*
X184658000Y-90000000D03*
G04 #@! TO.N,-18V*
X184658000Y-84920000D03*
G04 #@! TD*
D13*
G04 #@! TO.N,Net-(U1-VCC)*
G04 #@! TO.C,TP1*
X133477000Y-66548000D03*
G04 #@! TD*
G04 #@! TO.N,GNDS*
G04 #@! TO.C,TP2*
X142113000Y-66548000D03*
G04 #@! TD*
D16*
G04 #@! TO.N,GNDS*
G04 #@! TO.C,U1*
X138453000Y-94478000D03*
X138453000Y-95768000D03*
X139423000Y-94478000D03*
X139423000Y-95768000D03*
G04 #@! TD*
D17*
G04 #@! TO.N,GNDS*
X139954000Y-98806000D03*
X142875000Y-97917000D03*
X143637000Y-97155000D03*
X133350000Y-85598000D03*
X133350000Y-89154000D03*
X143637000Y-97917000D03*
X149479000Y-76327000D03*
X133350000Y-86614000D03*
X140843000Y-83947000D03*
X149479000Y-78359000D03*
X132334000Y-94107000D03*
X138938000Y-98806000D03*
X142875000Y-97155000D03*
X142875000Y-83947000D03*
X122428000Y-77470000D03*
X122428000Y-78486000D03*
X122428000Y-79502000D03*
X133350000Y-87630000D03*
X141859000Y-83947000D03*
X133350000Y-98298000D03*
X149479000Y-77343000D03*
X133350000Y-91186000D03*
X137922000Y-98806000D03*
X133350000Y-90170000D03*
G04 #@! TO.N,GND*
X174498000Y-86995000D03*
X159766000Y-81788000D03*
X174498000Y-85979000D03*
X174371000Y-68453000D03*
X163830000Y-110871000D03*
X188849000Y-105791000D03*
X161925000Y-76708000D03*
X174371000Y-69469000D03*
X176022000Y-79248000D03*
X174371000Y-80772000D03*
X175514000Y-85979000D03*
X186182000Y-71755000D03*
X185420000Y-110871000D03*
X178308000Y-79502000D03*
X185420000Y-109855000D03*
X169164000Y-99060000D03*
X174371000Y-82804000D03*
X187198000Y-71755000D03*
X174371000Y-110871000D03*
X188214000Y-71755000D03*
X173482000Y-85979000D03*
X163830000Y-111887000D03*
X188849000Y-103759000D03*
X174625000Y-100203000D03*
X173482000Y-86995000D03*
X175514000Y-84963000D03*
X161671000Y-106807000D03*
X163322000Y-102616000D03*
X175514000Y-86995000D03*
X185420000Y-111887000D03*
X174371000Y-109855000D03*
X175006000Y-79248000D03*
X168148000Y-99060000D03*
X174371000Y-81788000D03*
X163830000Y-109855000D03*
X163703000Y-82804000D03*
X163703000Y-81788000D03*
X159893000Y-112014000D03*
X173482000Y-84963000D03*
X163703000Y-68453000D03*
X159131000Y-104140000D03*
X163703000Y-67437000D03*
X174371000Y-67437000D03*
X188849000Y-104775000D03*
X177038000Y-79248000D03*
X174498000Y-84963000D03*
X170180000Y-99060000D03*
X163703000Y-80772000D03*
X159385000Y-73787000D03*
X163703000Y-69469000D03*
X174371000Y-111887000D03*
G04 #@! TO.N,+24V*
X175514000Y-96012000D03*
X175514000Y-94996000D03*
X173482000Y-97028000D03*
X173482000Y-96012000D03*
X175514000Y-97028000D03*
X170053000Y-83693000D03*
X174498000Y-96012000D03*
X174498000Y-94996000D03*
X168148000Y-112776000D03*
X174498000Y-97028000D03*
X173482000Y-94996000D03*
X169037000Y-83693000D03*
X170180000Y-112776000D03*
X169164000Y-112776000D03*
X159385000Y-80772000D03*
X168021000Y-83693000D03*
X159131000Y-111125000D03*
G04 #@! TO.N,Net-(D4-K)*
X178435000Y-107569000D03*
X163449000Y-99949000D03*
X177419000Y-106553000D03*
X178435000Y-106553000D03*
X177419000Y-107569000D03*
G04 #@! TO.N,Net-(D4-A)*
X171831000Y-104140000D03*
X171831000Y-105410000D03*
X171831000Y-102870000D03*
G04 #@! TO.N,Net-(U2-SW)*
X166497000Y-102870000D03*
X166497000Y-104140000D03*
X166497000Y-105410000D03*
G04 #@! TO.N,Net-(D5-A)*
X171704000Y-76327000D03*
X171704000Y-75057000D03*
X171704000Y-73787000D03*
G04 #@! TO.N,Net-(U4-SW)*
X166370000Y-73787000D03*
X166370000Y-75057000D03*
X166370000Y-76327000D03*
G04 #@! TD*
G04 #@! TA.AperFunction,Conductor*
G04 #@! TO.N,+24V*
G36*
X161536247Y-76218306D02*
G01*
X161554553Y-76262500D01*
X161536247Y-76306694D01*
X161530100Y-76312085D01*
X161529525Y-76312525D01*
X161440643Y-76428360D01*
X161384773Y-76563242D01*
X161384770Y-76563252D01*
X161365715Y-76707998D01*
X161365715Y-76708001D01*
X161384770Y-76852747D01*
X161384773Y-76852757D01*
X161390766Y-76867226D01*
X161440645Y-76987643D01*
X161529526Y-77103474D01*
X161645357Y-77192355D01*
X161780246Y-77248228D01*
X161780250Y-77248228D01*
X161780252Y-77248229D01*
X161924998Y-77267285D01*
X161925000Y-77267285D01*
X161925002Y-77267285D01*
X162069747Y-77248229D01*
X162069747Y-77248228D01*
X162069754Y-77248228D01*
X162204643Y-77192355D01*
X162320474Y-77103474D01*
X162409355Y-76987643D01*
X162465228Y-76852754D01*
X162470678Y-76811355D01*
X162484285Y-76708001D01*
X162484285Y-76707998D01*
X162465229Y-76563252D01*
X162465228Y-76563250D01*
X162465228Y-76563246D01*
X162427332Y-76471757D01*
X162409357Y-76428362D01*
X162409356Y-76428361D01*
X162409355Y-76428358D01*
X162320474Y-76312526D01*
X162320471Y-76312524D01*
X162320470Y-76312522D01*
X162319900Y-76312085D01*
X162319717Y-76311768D01*
X162317574Y-76309625D01*
X162318148Y-76309050D01*
X162295982Y-76270658D01*
X162308362Y-76224453D01*
X162349789Y-76200535D01*
X162357947Y-76200000D01*
X165756167Y-76200000D01*
X165800361Y-76218306D01*
X165818667Y-76262500D01*
X165818132Y-76270658D01*
X165810715Y-76326997D01*
X165810715Y-76327001D01*
X165829770Y-76471747D01*
X165829773Y-76471757D01*
X165867667Y-76563242D01*
X165885645Y-76606643D01*
X165974526Y-76722474D01*
X166090357Y-76811355D01*
X166225246Y-76867228D01*
X166225250Y-76867228D01*
X166225252Y-76867229D01*
X166369998Y-76886285D01*
X166370000Y-76886285D01*
X166370002Y-76886285D01*
X166514747Y-76867229D01*
X166514747Y-76867228D01*
X166514754Y-76867228D01*
X166649643Y-76811355D01*
X166765474Y-76722474D01*
X166854355Y-76606643D01*
X166910228Y-76471754D01*
X166929285Y-76327000D01*
X166929285Y-76326997D01*
X166921868Y-76270658D01*
X166934249Y-76224452D01*
X166975675Y-76200535D01*
X166983833Y-76200000D01*
X171090167Y-76200000D01*
X171134361Y-76218306D01*
X171152667Y-76262500D01*
X171152132Y-76270658D01*
X171144715Y-76326997D01*
X171144715Y-76327001D01*
X171163770Y-76471747D01*
X171163773Y-76471757D01*
X171201667Y-76563242D01*
X171219645Y-76606643D01*
X171308526Y-76722474D01*
X171424357Y-76811355D01*
X171559246Y-76867228D01*
X171559250Y-76867228D01*
X171559252Y-76867229D01*
X171703998Y-76886285D01*
X171704000Y-76886285D01*
X171704002Y-76886285D01*
X171848747Y-76867229D01*
X171848747Y-76867228D01*
X171848754Y-76867228D01*
X171983643Y-76811355D01*
X172099474Y-76722474D01*
X172188355Y-76606643D01*
X172244228Y-76471754D01*
X172263285Y-76327000D01*
X172263285Y-76326997D01*
X172255868Y-76270658D01*
X172268249Y-76224452D01*
X172309675Y-76200535D01*
X172317833Y-76200000D01*
X180949112Y-76200000D01*
X180993306Y-76218306D01*
X181210694Y-76435694D01*
X181229000Y-76479888D01*
X181229000Y-113893112D01*
X181210694Y-113937306D01*
X180993306Y-114154694D01*
X180949112Y-114173000D01*
X158394888Y-114173000D01*
X158350694Y-114154694D01*
X158133306Y-113937306D01*
X158115000Y-113893112D01*
X158115000Y-112013998D01*
X159333715Y-112013998D01*
X159333715Y-112014001D01*
X159352770Y-112158747D01*
X159352773Y-112158757D01*
X159404018Y-112282474D01*
X159408645Y-112293643D01*
X159497526Y-112409474D01*
X159613357Y-112498355D01*
X159748246Y-112554228D01*
X159748250Y-112554228D01*
X159748252Y-112554229D01*
X159892998Y-112573285D01*
X159893000Y-112573285D01*
X159893002Y-112573285D01*
X160037747Y-112554229D01*
X160037747Y-112554228D01*
X160037754Y-112554228D01*
X160172643Y-112498355D01*
X160288474Y-112409474D01*
X160377355Y-112293643D01*
X160433228Y-112158754D01*
X160452285Y-112014000D01*
X160435565Y-111887001D01*
X160433229Y-111869252D01*
X160433228Y-111869250D01*
X160433228Y-111869246D01*
X160380625Y-111742252D01*
X160377357Y-111734362D01*
X160377356Y-111734361D01*
X160377355Y-111734358D01*
X160288474Y-111618526D01*
X160288472Y-111618525D01*
X160288472Y-111618524D01*
X160253349Y-111591574D01*
X160172643Y-111529645D01*
X160172639Y-111529643D01*
X160037757Y-111473773D01*
X160037747Y-111473770D01*
X159893002Y-111454715D01*
X159892998Y-111454715D01*
X159748252Y-111473770D01*
X159748242Y-111473773D01*
X159613360Y-111529643D01*
X159497525Y-111618525D01*
X159408643Y-111734360D01*
X159352773Y-111869242D01*
X159352770Y-111869252D01*
X159333715Y-112013998D01*
X158115000Y-112013998D01*
X158115000Y-109854998D01*
X163270715Y-109854998D01*
X163270715Y-109855001D01*
X163289770Y-109999747D01*
X163289771Y-109999753D01*
X163289772Y-109999754D01*
X163345645Y-110134643D01*
X163404899Y-110211863D01*
X163434527Y-110250476D01*
X163516552Y-110313416D01*
X163540469Y-110354842D01*
X163528088Y-110401048D01*
X163516552Y-110412584D01*
X163434526Y-110475525D01*
X163345643Y-110591360D01*
X163289773Y-110726242D01*
X163289770Y-110726252D01*
X163270715Y-110870998D01*
X163270715Y-110871001D01*
X163289770Y-111015747D01*
X163289771Y-111015753D01*
X163289772Y-111015754D01*
X163345645Y-111150643D01*
X163404899Y-111227863D01*
X163434527Y-111266476D01*
X163516552Y-111329416D01*
X163540469Y-111370842D01*
X163528088Y-111417048D01*
X163516552Y-111428584D01*
X163434526Y-111491525D01*
X163345643Y-111607360D01*
X163289773Y-111742242D01*
X163289770Y-111742252D01*
X163270715Y-111886998D01*
X163270715Y-111887001D01*
X163289770Y-112031747D01*
X163289773Y-112031757D01*
X163342378Y-112158757D01*
X163345645Y-112166643D01*
X163434526Y-112282474D01*
X163550357Y-112371355D01*
X163685246Y-112427228D01*
X163685250Y-112427228D01*
X163685252Y-112427229D01*
X163829998Y-112446285D01*
X163830000Y-112446285D01*
X163830002Y-112446285D01*
X163974747Y-112427229D01*
X163974747Y-112427228D01*
X163974754Y-112427228D01*
X164109643Y-112371355D01*
X164225474Y-112282474D01*
X164314355Y-112166643D01*
X164370228Y-112031754D01*
X164389285Y-111887000D01*
X164386948Y-111869252D01*
X164370229Y-111742252D01*
X164370228Y-111742250D01*
X164370228Y-111742246D01*
X164314355Y-111607358D01*
X164225474Y-111491526D01*
X164225471Y-111491524D01*
X164225470Y-111491522D01*
X164143448Y-111428585D01*
X164119530Y-111387158D01*
X164131910Y-111340953D01*
X164143448Y-111329415D01*
X164225471Y-111266476D01*
X164225474Y-111266474D01*
X164314355Y-111150643D01*
X164370228Y-111015754D01*
X164389285Y-110871000D01*
X164370228Y-110726246D01*
X164314355Y-110591358D01*
X164225474Y-110475526D01*
X164225471Y-110475524D01*
X164225470Y-110475522D01*
X164143448Y-110412585D01*
X164119530Y-110371158D01*
X164131910Y-110324953D01*
X164143448Y-110313415D01*
X164225471Y-110250476D01*
X164225474Y-110250474D01*
X164314355Y-110134643D01*
X164370228Y-109999754D01*
X164389285Y-109855000D01*
X164389285Y-109854998D01*
X173811715Y-109854998D01*
X173811715Y-109855001D01*
X173830770Y-109999747D01*
X173830771Y-109999753D01*
X173830772Y-109999754D01*
X173886645Y-110134643D01*
X173945899Y-110211863D01*
X173975527Y-110250476D01*
X174057552Y-110313416D01*
X174081469Y-110354842D01*
X174069088Y-110401048D01*
X174057552Y-110412584D01*
X173975526Y-110475525D01*
X173886643Y-110591360D01*
X173830773Y-110726242D01*
X173830770Y-110726252D01*
X173811715Y-110870998D01*
X173811715Y-110871001D01*
X173830770Y-111015747D01*
X173830771Y-111015753D01*
X173830772Y-111015754D01*
X173886645Y-111150643D01*
X173945899Y-111227863D01*
X173975527Y-111266476D01*
X174057552Y-111329416D01*
X174081469Y-111370842D01*
X174069088Y-111417048D01*
X174057552Y-111428584D01*
X173975526Y-111491525D01*
X173886643Y-111607360D01*
X173830773Y-111742242D01*
X173830770Y-111742252D01*
X173811715Y-111886998D01*
X173811715Y-111887001D01*
X173830770Y-112031747D01*
X173830773Y-112031757D01*
X173883378Y-112158757D01*
X173886645Y-112166643D01*
X173975526Y-112282474D01*
X174091357Y-112371355D01*
X174226246Y-112427228D01*
X174226250Y-112427228D01*
X174226252Y-112427229D01*
X174370998Y-112446285D01*
X174371000Y-112446285D01*
X174371002Y-112446285D01*
X174515747Y-112427229D01*
X174515747Y-112427228D01*
X174515754Y-112427228D01*
X174650643Y-112371355D01*
X174766474Y-112282474D01*
X174855355Y-112166643D01*
X174911228Y-112031754D01*
X174930285Y-111887000D01*
X174927948Y-111869252D01*
X174911229Y-111742252D01*
X174911228Y-111742250D01*
X174911228Y-111742246D01*
X174855355Y-111607358D01*
X174766474Y-111491526D01*
X174766471Y-111491524D01*
X174766470Y-111491522D01*
X174684448Y-111428585D01*
X174660530Y-111387158D01*
X174672910Y-111340953D01*
X174684448Y-111329415D01*
X174766471Y-111266476D01*
X174766474Y-111266474D01*
X174855355Y-111150643D01*
X174911228Y-111015754D01*
X174930285Y-110871000D01*
X174911228Y-110726246D01*
X174855355Y-110591358D01*
X174766474Y-110475526D01*
X174766471Y-110475524D01*
X174766470Y-110475522D01*
X174684448Y-110412585D01*
X174660530Y-110371158D01*
X174672910Y-110324953D01*
X174684448Y-110313415D01*
X174766471Y-110250476D01*
X174766474Y-110250474D01*
X174855355Y-110134643D01*
X174911228Y-109999754D01*
X174930285Y-109855000D01*
X174911228Y-109710246D01*
X174855355Y-109575358D01*
X174766474Y-109459526D01*
X174766472Y-109459525D01*
X174766472Y-109459524D01*
X174731349Y-109432574D01*
X174650643Y-109370645D01*
X174650639Y-109370643D01*
X174515757Y-109314773D01*
X174515747Y-109314770D01*
X174371002Y-109295715D01*
X174370998Y-109295715D01*
X174226252Y-109314770D01*
X174226242Y-109314773D01*
X174091360Y-109370643D01*
X173975525Y-109459525D01*
X173886643Y-109575360D01*
X173830773Y-109710242D01*
X173830770Y-109710252D01*
X173811715Y-109854998D01*
X164389285Y-109854998D01*
X164370228Y-109710246D01*
X164314355Y-109575358D01*
X164225474Y-109459526D01*
X164225472Y-109459525D01*
X164225472Y-109459524D01*
X164190349Y-109432574D01*
X164109643Y-109370645D01*
X164109639Y-109370643D01*
X163974757Y-109314773D01*
X163974747Y-109314770D01*
X163830002Y-109295715D01*
X163829998Y-109295715D01*
X163685252Y-109314770D01*
X163685242Y-109314773D01*
X163550360Y-109370643D01*
X163434525Y-109459525D01*
X163345643Y-109575360D01*
X163289773Y-109710242D01*
X163289770Y-109710252D01*
X163270715Y-109854998D01*
X158115000Y-109854998D01*
X158115000Y-106806998D01*
X161111715Y-106806998D01*
X161111715Y-106807001D01*
X161130770Y-106951747D01*
X161130773Y-106951757D01*
X161160263Y-107022953D01*
X161186645Y-107086643D01*
X161275526Y-107202474D01*
X161391357Y-107291355D01*
X161526246Y-107347228D01*
X161526250Y-107347228D01*
X161526252Y-107347229D01*
X161670998Y-107366285D01*
X161671000Y-107366285D01*
X161671002Y-107366285D01*
X161815747Y-107347229D01*
X161815747Y-107347228D01*
X161815754Y-107347228D01*
X161950643Y-107291355D01*
X162066474Y-107202474D01*
X162155355Y-107086643D01*
X162211228Y-106951754D01*
X162223978Y-106854910D01*
X162230285Y-106807001D01*
X162230285Y-106806998D01*
X162211229Y-106662252D01*
X162211228Y-106662250D01*
X162211228Y-106662246D01*
X162165977Y-106553001D01*
X162165976Y-106552998D01*
X176859715Y-106552998D01*
X176859715Y-106553001D01*
X176878770Y-106697747D01*
X176878773Y-106697757D01*
X176924023Y-106807001D01*
X176934645Y-106832643D01*
X176960585Y-106866448D01*
X177023527Y-106948476D01*
X177105552Y-107011416D01*
X177129469Y-107052842D01*
X177117088Y-107099048D01*
X177105552Y-107110584D01*
X177023526Y-107173525D01*
X176934643Y-107289360D01*
X176878773Y-107424242D01*
X176878770Y-107424252D01*
X176859715Y-107568998D01*
X176859715Y-107569001D01*
X176878770Y-107713747D01*
X176878771Y-107713753D01*
X176878772Y-107713754D01*
X176934645Y-107848643D01*
X177023526Y-107964474D01*
X177139357Y-108053355D01*
X177274246Y-108109228D01*
X177274250Y-108109228D01*
X177274252Y-108109229D01*
X177418998Y-108128285D01*
X177419000Y-108128285D01*
X177419002Y-108128285D01*
X177563747Y-108109229D01*
X177563747Y-108109228D01*
X177563754Y-108109228D01*
X177698643Y-108053355D01*
X177814474Y-107964474D01*
X177877415Y-107882447D01*
X177918842Y-107858530D01*
X177965047Y-107870910D01*
X177976583Y-107882446D01*
X178039526Y-107964474D01*
X178155357Y-108053355D01*
X178290246Y-108109228D01*
X178290250Y-108109228D01*
X178290252Y-108109229D01*
X178434998Y-108128285D01*
X178435000Y-108128285D01*
X178435002Y-108128285D01*
X178579747Y-108109229D01*
X178579747Y-108109228D01*
X178579754Y-108109228D01*
X178714643Y-108053355D01*
X178830474Y-107964474D01*
X178919355Y-107848643D01*
X178975228Y-107713754D01*
X178994285Y-107569000D01*
X178975228Y-107424246D01*
X178920183Y-107291356D01*
X178919357Y-107289362D01*
X178919356Y-107289361D01*
X178919355Y-107289358D01*
X178830474Y-107173526D01*
X178830471Y-107173524D01*
X178830470Y-107173522D01*
X178748448Y-107110585D01*
X178724530Y-107069158D01*
X178736910Y-107022953D01*
X178748448Y-107011415D01*
X178830474Y-106948474D01*
X178919355Y-106832643D01*
X178975228Y-106697754D01*
X178994285Y-106553000D01*
X178990909Y-106527360D01*
X178975229Y-106408252D01*
X178975228Y-106408250D01*
X178975228Y-106408246D01*
X178919355Y-106273358D01*
X178830474Y-106157526D01*
X178830472Y-106157525D01*
X178830472Y-106157524D01*
X178795349Y-106130574D01*
X178714643Y-106068645D01*
X178714639Y-106068643D01*
X178579757Y-106012773D01*
X178579747Y-106012770D01*
X178435002Y-105993715D01*
X178434998Y-105993715D01*
X178290252Y-106012770D01*
X178290242Y-106012773D01*
X178155360Y-106068643D01*
X178039525Y-106157526D01*
X177976583Y-106239553D01*
X177935157Y-106263470D01*
X177888951Y-106251089D01*
X177877417Y-106239555D01*
X177814474Y-106157526D01*
X177698643Y-106068645D01*
X177698639Y-106068643D01*
X177563757Y-106012773D01*
X177563747Y-106012770D01*
X177419002Y-105993715D01*
X177418998Y-105993715D01*
X177274252Y-106012770D01*
X177274242Y-106012773D01*
X177139360Y-106068643D01*
X177023525Y-106157525D01*
X176934643Y-106273360D01*
X176878773Y-106408242D01*
X176878770Y-106408252D01*
X176859715Y-106552998D01*
X162165976Y-106552998D01*
X162155357Y-106527362D01*
X162155356Y-106527361D01*
X162155355Y-106527358D01*
X162066474Y-106411526D01*
X162066472Y-106411525D01*
X162066472Y-106411524D01*
X162031349Y-106384574D01*
X161950643Y-106322645D01*
X161950639Y-106322643D01*
X161815757Y-106266773D01*
X161815747Y-106266770D01*
X161671002Y-106247715D01*
X161670998Y-106247715D01*
X161526252Y-106266770D01*
X161526242Y-106266773D01*
X161391360Y-106322643D01*
X161275525Y-106411525D01*
X161186643Y-106527360D01*
X161130773Y-106662242D01*
X161130770Y-106662252D01*
X161111715Y-106806998D01*
X158115000Y-106806998D01*
X158115000Y-105409998D01*
X165937715Y-105409998D01*
X165937715Y-105410001D01*
X165956770Y-105554747D01*
X165956771Y-105554753D01*
X165956772Y-105554754D01*
X166012645Y-105689643D01*
X166101526Y-105805474D01*
X166217357Y-105894355D01*
X166352246Y-105950228D01*
X166352250Y-105950228D01*
X166352252Y-105950229D01*
X166496998Y-105969285D01*
X166497000Y-105969285D01*
X166497002Y-105969285D01*
X166641747Y-105950229D01*
X166641747Y-105950228D01*
X166641754Y-105950228D01*
X166776643Y-105894355D01*
X166892474Y-105805474D01*
X166981355Y-105689643D01*
X167037228Y-105554754D01*
X167056285Y-105410000D01*
X167056285Y-105409998D01*
X171271715Y-105409998D01*
X171271715Y-105410001D01*
X171290770Y-105554747D01*
X171290771Y-105554753D01*
X171290772Y-105554754D01*
X171346645Y-105689643D01*
X171435526Y-105805474D01*
X171551357Y-105894355D01*
X171686246Y-105950228D01*
X171686250Y-105950228D01*
X171686252Y-105950229D01*
X171830998Y-105969285D01*
X171831000Y-105969285D01*
X171831002Y-105969285D01*
X171975747Y-105950229D01*
X171975747Y-105950228D01*
X171975754Y-105950228D01*
X172110643Y-105894355D01*
X172226474Y-105805474D01*
X172315355Y-105689643D01*
X172371228Y-105554754D01*
X172390285Y-105410000D01*
X172371228Y-105265246D01*
X172315355Y-105130358D01*
X172226474Y-105014526D01*
X172226472Y-105014525D01*
X172226472Y-105014524D01*
X172191349Y-104987574D01*
X172110643Y-104925645D01*
X172110639Y-104925643D01*
X171975757Y-104869773D01*
X171975747Y-104869770D01*
X171831002Y-104850715D01*
X171830998Y-104850715D01*
X171686252Y-104869770D01*
X171686242Y-104869773D01*
X171551360Y-104925643D01*
X171435525Y-105014525D01*
X171346643Y-105130360D01*
X171290773Y-105265242D01*
X171290770Y-105265252D01*
X171271715Y-105409998D01*
X167056285Y-105409998D01*
X167037228Y-105265246D01*
X166981355Y-105130358D01*
X166892474Y-105014526D01*
X166892472Y-105014525D01*
X166892472Y-105014524D01*
X166857349Y-104987574D01*
X166776643Y-104925645D01*
X166776639Y-104925643D01*
X166641757Y-104869773D01*
X166641747Y-104869770D01*
X166497002Y-104850715D01*
X166496998Y-104850715D01*
X166352252Y-104869770D01*
X166352242Y-104869773D01*
X166217360Y-104925643D01*
X166101525Y-105014525D01*
X166012643Y-105130360D01*
X165956773Y-105265242D01*
X165956770Y-105265252D01*
X165937715Y-105409998D01*
X158115000Y-105409998D01*
X158115000Y-104139998D01*
X158571715Y-104139998D01*
X158571715Y-104140001D01*
X158590770Y-104284747D01*
X158590771Y-104284753D01*
X158590772Y-104284754D01*
X158646645Y-104419643D01*
X158735526Y-104535474D01*
X158851357Y-104624355D01*
X158986246Y-104680228D01*
X158986250Y-104680228D01*
X158986252Y-104680229D01*
X159130998Y-104699285D01*
X159131000Y-104699285D01*
X159131002Y-104699285D01*
X159275747Y-104680229D01*
X159275747Y-104680228D01*
X159275754Y-104680228D01*
X159410643Y-104624355D01*
X159526474Y-104535474D01*
X159615355Y-104419643D01*
X159671228Y-104284754D01*
X159690285Y-104140000D01*
X159690285Y-104139998D01*
X165937715Y-104139998D01*
X165937715Y-104140001D01*
X165956770Y-104284747D01*
X165956771Y-104284753D01*
X165956772Y-104284754D01*
X166012645Y-104419643D01*
X166101526Y-104535474D01*
X166217357Y-104624355D01*
X166352246Y-104680228D01*
X166352250Y-104680228D01*
X166352252Y-104680229D01*
X166496998Y-104699285D01*
X166497000Y-104699285D01*
X166497002Y-104699285D01*
X166641747Y-104680229D01*
X166641747Y-104680228D01*
X166641754Y-104680228D01*
X166776643Y-104624355D01*
X166892474Y-104535474D01*
X166981355Y-104419643D01*
X167037228Y-104284754D01*
X167056285Y-104140000D01*
X167056285Y-104139998D01*
X171271715Y-104139998D01*
X171271715Y-104140001D01*
X171290770Y-104284747D01*
X171290771Y-104284753D01*
X171290772Y-104284754D01*
X171346645Y-104419643D01*
X171435526Y-104535474D01*
X171551357Y-104624355D01*
X171686246Y-104680228D01*
X171686250Y-104680228D01*
X171686252Y-104680229D01*
X171830998Y-104699285D01*
X171831000Y-104699285D01*
X171831002Y-104699285D01*
X171975747Y-104680229D01*
X171975747Y-104680228D01*
X171975754Y-104680228D01*
X172110643Y-104624355D01*
X172226474Y-104535474D01*
X172315355Y-104419643D01*
X172371228Y-104284754D01*
X172390285Y-104140000D01*
X172371228Y-103995246D01*
X172315355Y-103860358D01*
X172226474Y-103744526D01*
X172226472Y-103744525D01*
X172226472Y-103744524D01*
X172191349Y-103717574D01*
X172110643Y-103655645D01*
X172110639Y-103655643D01*
X171975757Y-103599773D01*
X171975747Y-103599770D01*
X171831002Y-103580715D01*
X171830998Y-103580715D01*
X171686252Y-103599770D01*
X171686242Y-103599773D01*
X171551360Y-103655643D01*
X171435525Y-103744525D01*
X171346643Y-103860360D01*
X171290773Y-103995242D01*
X171290770Y-103995252D01*
X171271715Y-104139998D01*
X167056285Y-104139998D01*
X167037228Y-103995246D01*
X166981355Y-103860358D01*
X166892474Y-103744526D01*
X166892472Y-103744525D01*
X166892472Y-103744524D01*
X166857349Y-103717574D01*
X166776643Y-103655645D01*
X166776639Y-103655643D01*
X166641757Y-103599773D01*
X166641747Y-103599770D01*
X166497002Y-103580715D01*
X166496998Y-103580715D01*
X166352252Y-103599770D01*
X166352242Y-103599773D01*
X166217360Y-103655643D01*
X166101525Y-103744525D01*
X166012643Y-103860360D01*
X165956773Y-103995242D01*
X165956770Y-103995252D01*
X165937715Y-104139998D01*
X159690285Y-104139998D01*
X159671228Y-103995246D01*
X159615355Y-103860358D01*
X159526474Y-103744526D01*
X159526472Y-103744525D01*
X159526472Y-103744524D01*
X159491349Y-103717574D01*
X159410643Y-103655645D01*
X159410639Y-103655643D01*
X159275757Y-103599773D01*
X159275747Y-103599770D01*
X159131002Y-103580715D01*
X159130998Y-103580715D01*
X158986252Y-103599770D01*
X158986242Y-103599773D01*
X158851360Y-103655643D01*
X158735525Y-103744525D01*
X158646643Y-103860360D01*
X158590773Y-103995242D01*
X158590770Y-103995252D01*
X158571715Y-104139998D01*
X158115000Y-104139998D01*
X158115000Y-102615998D01*
X162762715Y-102615998D01*
X162762715Y-102616001D01*
X162781770Y-102760747D01*
X162781773Y-102760757D01*
X162827023Y-102870001D01*
X162837645Y-102895643D01*
X162926526Y-103011474D01*
X163042357Y-103100355D01*
X163177246Y-103156228D01*
X163177250Y-103156228D01*
X163177252Y-103156229D01*
X163321998Y-103175285D01*
X163322000Y-103175285D01*
X163322002Y-103175285D01*
X163466747Y-103156229D01*
X163466747Y-103156228D01*
X163466754Y-103156228D01*
X163601643Y-103100355D01*
X163717474Y-103011474D01*
X163806355Y-102895643D01*
X163816978Y-102869998D01*
X165937715Y-102869998D01*
X165937715Y-102870001D01*
X165956770Y-103014747D01*
X165956773Y-103014757D01*
X165992229Y-103100356D01*
X166012645Y-103149643D01*
X166101526Y-103265474D01*
X166217357Y-103354355D01*
X166352246Y-103410228D01*
X166352250Y-103410228D01*
X166352252Y-103410229D01*
X166496998Y-103429285D01*
X166497000Y-103429285D01*
X166497002Y-103429285D01*
X166641747Y-103410229D01*
X166641747Y-103410228D01*
X166641754Y-103410228D01*
X166776643Y-103354355D01*
X166892474Y-103265474D01*
X166981355Y-103149643D01*
X167037228Y-103014754D01*
X167056285Y-102870000D01*
X167056285Y-102869998D01*
X171271715Y-102869998D01*
X171271715Y-102870001D01*
X171290770Y-103014747D01*
X171290773Y-103014757D01*
X171326229Y-103100356D01*
X171346645Y-103149643D01*
X171435526Y-103265474D01*
X171551357Y-103354355D01*
X171686246Y-103410228D01*
X171686250Y-103410228D01*
X171686252Y-103410229D01*
X171830998Y-103429285D01*
X171831000Y-103429285D01*
X171831002Y-103429285D01*
X171975747Y-103410229D01*
X171975747Y-103410228D01*
X171975754Y-103410228D01*
X172110643Y-103354355D01*
X172226474Y-103265474D01*
X172315355Y-103149643D01*
X172371228Y-103014754D01*
X172390285Y-102870000D01*
X172371228Y-102725246D01*
X172325977Y-102616001D01*
X172315357Y-102590362D01*
X172315356Y-102590361D01*
X172315355Y-102590358D01*
X172226474Y-102474526D01*
X172226472Y-102474525D01*
X172226472Y-102474524D01*
X172191349Y-102447574D01*
X172110643Y-102385645D01*
X172110639Y-102385643D01*
X171975757Y-102329773D01*
X171975747Y-102329770D01*
X171831002Y-102310715D01*
X171830998Y-102310715D01*
X171686252Y-102329770D01*
X171686242Y-102329773D01*
X171551360Y-102385643D01*
X171435525Y-102474525D01*
X171346643Y-102590360D01*
X171290773Y-102725242D01*
X171290770Y-102725252D01*
X171271715Y-102869998D01*
X167056285Y-102869998D01*
X167037228Y-102725246D01*
X166991977Y-102616001D01*
X166981357Y-102590362D01*
X166981356Y-102590361D01*
X166981355Y-102590358D01*
X166892474Y-102474526D01*
X166892472Y-102474525D01*
X166892472Y-102474524D01*
X166857349Y-102447574D01*
X166776643Y-102385645D01*
X166776639Y-102385643D01*
X166641757Y-102329773D01*
X166641747Y-102329770D01*
X166497002Y-102310715D01*
X166496998Y-102310715D01*
X166352252Y-102329770D01*
X166352242Y-102329773D01*
X166217360Y-102385643D01*
X166101525Y-102474525D01*
X166012643Y-102590360D01*
X165956773Y-102725242D01*
X165956770Y-102725252D01*
X165937715Y-102869998D01*
X163816978Y-102869998D01*
X163862228Y-102760754D01*
X163881285Y-102616000D01*
X163877909Y-102590360D01*
X163862229Y-102471252D01*
X163862228Y-102471250D01*
X163862228Y-102471246D01*
X163806355Y-102336358D01*
X163717474Y-102220526D01*
X163717472Y-102220525D01*
X163717472Y-102220524D01*
X163682349Y-102193574D01*
X163601643Y-102131645D01*
X163601639Y-102131643D01*
X163466757Y-102075773D01*
X163466747Y-102075770D01*
X163322002Y-102056715D01*
X163321998Y-102056715D01*
X163177252Y-102075770D01*
X163177242Y-102075773D01*
X163042360Y-102131643D01*
X162926525Y-102220525D01*
X162837643Y-102336360D01*
X162781773Y-102471242D01*
X162781770Y-102471252D01*
X162762715Y-102615998D01*
X158115000Y-102615998D01*
X158115000Y-99948998D01*
X162889715Y-99948998D01*
X162889715Y-99949001D01*
X162908770Y-100093747D01*
X162908773Y-100093757D01*
X162954023Y-100203001D01*
X162964645Y-100228643D01*
X163053526Y-100344474D01*
X163169357Y-100433355D01*
X163304246Y-100489228D01*
X163304250Y-100489228D01*
X163304252Y-100489229D01*
X163448998Y-100508285D01*
X163449000Y-100508285D01*
X163449002Y-100508285D01*
X163593747Y-100489229D01*
X163593747Y-100489228D01*
X163593754Y-100489228D01*
X163728643Y-100433355D01*
X163844474Y-100344474D01*
X163933355Y-100228643D01*
X163943978Y-100202998D01*
X174065715Y-100202998D01*
X174065715Y-100203001D01*
X174084770Y-100347747D01*
X174084773Y-100347757D01*
X174120229Y-100433356D01*
X174140645Y-100482643D01*
X174229526Y-100598474D01*
X174345357Y-100687355D01*
X174480246Y-100743228D01*
X174480250Y-100743228D01*
X174480252Y-100743229D01*
X174624998Y-100762285D01*
X174625000Y-100762285D01*
X174625002Y-100762285D01*
X174769747Y-100743229D01*
X174769747Y-100743228D01*
X174769754Y-100743228D01*
X174904643Y-100687355D01*
X175020474Y-100598474D01*
X175109355Y-100482643D01*
X175165228Y-100347754D01*
X175184285Y-100203000D01*
X175165228Y-100058246D01*
X175119977Y-99949001D01*
X175109357Y-99923362D01*
X175109356Y-99923361D01*
X175109355Y-99923358D01*
X175020474Y-99807526D01*
X175020472Y-99807525D01*
X175020472Y-99807524D01*
X174985349Y-99780574D01*
X174904643Y-99718645D01*
X174904639Y-99718643D01*
X174769757Y-99662773D01*
X174769747Y-99662770D01*
X174625002Y-99643715D01*
X174624998Y-99643715D01*
X174480252Y-99662770D01*
X174480242Y-99662773D01*
X174345360Y-99718643D01*
X174229525Y-99807525D01*
X174140643Y-99923360D01*
X174084773Y-100058242D01*
X174084770Y-100058252D01*
X174065715Y-100202998D01*
X163943978Y-100202998D01*
X163989228Y-100093754D01*
X164008285Y-99949000D01*
X164004909Y-99923360D01*
X163989229Y-99804252D01*
X163989228Y-99804250D01*
X163989228Y-99804246D01*
X163933355Y-99669358D01*
X163844474Y-99553526D01*
X163844472Y-99553525D01*
X163844472Y-99553524D01*
X163809349Y-99526574D01*
X163728643Y-99464645D01*
X163728639Y-99464643D01*
X163593757Y-99408773D01*
X163593747Y-99408770D01*
X163449002Y-99389715D01*
X163448998Y-99389715D01*
X163304252Y-99408770D01*
X163304242Y-99408773D01*
X163169360Y-99464643D01*
X163053525Y-99553525D01*
X162964643Y-99669360D01*
X162908773Y-99804242D01*
X162908770Y-99804252D01*
X162889715Y-99948998D01*
X158115000Y-99948998D01*
X158115000Y-99059998D01*
X167588715Y-99059998D01*
X167588715Y-99060001D01*
X167607770Y-99204747D01*
X167607771Y-99204753D01*
X167607772Y-99204754D01*
X167663645Y-99339643D01*
X167752526Y-99455474D01*
X167868357Y-99544355D01*
X168003246Y-99600228D01*
X168003250Y-99600228D01*
X168003252Y-99600229D01*
X168147998Y-99619285D01*
X168148000Y-99619285D01*
X168148002Y-99619285D01*
X168292747Y-99600229D01*
X168292747Y-99600228D01*
X168292754Y-99600228D01*
X168427643Y-99544355D01*
X168543474Y-99455474D01*
X168606415Y-99373447D01*
X168647842Y-99349530D01*
X168694047Y-99361910D01*
X168705583Y-99373446D01*
X168768526Y-99455474D01*
X168884357Y-99544355D01*
X169019246Y-99600228D01*
X169019250Y-99600228D01*
X169019252Y-99600229D01*
X169163998Y-99619285D01*
X169164000Y-99619285D01*
X169164002Y-99619285D01*
X169308747Y-99600229D01*
X169308747Y-99600228D01*
X169308754Y-99600228D01*
X169443643Y-99544355D01*
X169559474Y-99455474D01*
X169622415Y-99373447D01*
X169663842Y-99349530D01*
X169710047Y-99361910D01*
X169721583Y-99373446D01*
X169784526Y-99455474D01*
X169900357Y-99544355D01*
X170035246Y-99600228D01*
X170035250Y-99600228D01*
X170035252Y-99600229D01*
X170179998Y-99619285D01*
X170180000Y-99619285D01*
X170180002Y-99619285D01*
X170324747Y-99600229D01*
X170324747Y-99600228D01*
X170324754Y-99600228D01*
X170459643Y-99544355D01*
X170575474Y-99455474D01*
X170664355Y-99339643D01*
X170720228Y-99204754D01*
X170739285Y-99060000D01*
X170720228Y-98915246D01*
X170664355Y-98780358D01*
X170575474Y-98664526D01*
X170575472Y-98664525D01*
X170575472Y-98664524D01*
X170540349Y-98637574D01*
X170459643Y-98575645D01*
X170459639Y-98575643D01*
X170324757Y-98519773D01*
X170324747Y-98519770D01*
X170180002Y-98500715D01*
X170179998Y-98500715D01*
X170035252Y-98519770D01*
X170035242Y-98519773D01*
X169900360Y-98575643D01*
X169784525Y-98664526D01*
X169721583Y-98746553D01*
X169680157Y-98770470D01*
X169633951Y-98758089D01*
X169622417Y-98746555D01*
X169559474Y-98664526D01*
X169443643Y-98575645D01*
X169443639Y-98575643D01*
X169308757Y-98519773D01*
X169308747Y-98519770D01*
X169164002Y-98500715D01*
X169163998Y-98500715D01*
X169019252Y-98519770D01*
X169019242Y-98519773D01*
X168884360Y-98575643D01*
X168768525Y-98664526D01*
X168705583Y-98746553D01*
X168664157Y-98770470D01*
X168617951Y-98758089D01*
X168606417Y-98746555D01*
X168543474Y-98664526D01*
X168427643Y-98575645D01*
X168427639Y-98575643D01*
X168292757Y-98519773D01*
X168292747Y-98519770D01*
X168148002Y-98500715D01*
X168147998Y-98500715D01*
X168003252Y-98519770D01*
X168003242Y-98519773D01*
X167868360Y-98575643D01*
X167752525Y-98664525D01*
X167663643Y-98780360D01*
X167607773Y-98915242D01*
X167607770Y-98915252D01*
X167588715Y-99059998D01*
X158115000Y-99059998D01*
X158115000Y-97434888D01*
X158133306Y-97390694D01*
X158350694Y-97173306D01*
X158394888Y-97155000D01*
X167132000Y-97155000D01*
X167386000Y-97155000D01*
X167386000Y-84962998D01*
X172922715Y-84962998D01*
X172922715Y-84963001D01*
X172941770Y-85107747D01*
X172941771Y-85107753D01*
X172941772Y-85107754D01*
X172997645Y-85242643D01*
X173023585Y-85276448D01*
X173086527Y-85358476D01*
X173168552Y-85421416D01*
X173192469Y-85462842D01*
X173180088Y-85509048D01*
X173168552Y-85520584D01*
X173086526Y-85583525D01*
X172997643Y-85699360D01*
X172941773Y-85834242D01*
X172941770Y-85834252D01*
X172922715Y-85978998D01*
X172922715Y-85979001D01*
X172941770Y-86123747D01*
X172941771Y-86123753D01*
X172941772Y-86123754D01*
X172997645Y-86258643D01*
X173023585Y-86292448D01*
X173086527Y-86374476D01*
X173168552Y-86437416D01*
X173192469Y-86478842D01*
X173180088Y-86525048D01*
X173168552Y-86536584D01*
X173086526Y-86599525D01*
X172997643Y-86715360D01*
X172941773Y-86850242D01*
X172941770Y-86850252D01*
X172922715Y-86994998D01*
X172922715Y-86995001D01*
X172941770Y-87139747D01*
X172941771Y-87139753D01*
X172941772Y-87139754D01*
X172997645Y-87274643D01*
X173086526Y-87390474D01*
X173202357Y-87479355D01*
X173337246Y-87535228D01*
X173337250Y-87535228D01*
X173337252Y-87535229D01*
X173481998Y-87554285D01*
X173482000Y-87554285D01*
X173482002Y-87554285D01*
X173626747Y-87535229D01*
X173626747Y-87535228D01*
X173626754Y-87535228D01*
X173761643Y-87479355D01*
X173877474Y-87390474D01*
X173940415Y-87308447D01*
X173981842Y-87284530D01*
X174028047Y-87296910D01*
X174039583Y-87308446D01*
X174102526Y-87390474D01*
X174218357Y-87479355D01*
X174353246Y-87535228D01*
X174353250Y-87535228D01*
X174353252Y-87535229D01*
X174497998Y-87554285D01*
X174498000Y-87554285D01*
X174498002Y-87554285D01*
X174642747Y-87535229D01*
X174642747Y-87535228D01*
X174642754Y-87535228D01*
X174777643Y-87479355D01*
X174893474Y-87390474D01*
X174956415Y-87308447D01*
X174997842Y-87284530D01*
X175044047Y-87296910D01*
X175055583Y-87308446D01*
X175118526Y-87390474D01*
X175234357Y-87479355D01*
X175369246Y-87535228D01*
X175369250Y-87535228D01*
X175369252Y-87535229D01*
X175513998Y-87554285D01*
X175514000Y-87554285D01*
X175514002Y-87554285D01*
X175658747Y-87535229D01*
X175658747Y-87535228D01*
X175658754Y-87535228D01*
X175793643Y-87479355D01*
X175909474Y-87390474D01*
X175998355Y-87274643D01*
X176054228Y-87139754D01*
X176073285Y-86995000D01*
X176054228Y-86850246D01*
X175998355Y-86715358D01*
X175909474Y-86599526D01*
X175909471Y-86599524D01*
X175909470Y-86599522D01*
X175827448Y-86536585D01*
X175803530Y-86495158D01*
X175815910Y-86448953D01*
X175827448Y-86437415D01*
X175909471Y-86374476D01*
X175909474Y-86374474D01*
X175998355Y-86258643D01*
X176054228Y-86123754D01*
X176073285Y-85979000D01*
X176054228Y-85834246D01*
X175998355Y-85699358D01*
X175909474Y-85583526D01*
X175909471Y-85583524D01*
X175909470Y-85583522D01*
X175827448Y-85520585D01*
X175803530Y-85479158D01*
X175815910Y-85432953D01*
X175827448Y-85421415D01*
X175909471Y-85358476D01*
X175909474Y-85358474D01*
X175998355Y-85242643D01*
X176054228Y-85107754D01*
X176073285Y-84963000D01*
X176054228Y-84818246D01*
X176022000Y-84740441D01*
X175998357Y-84683362D01*
X175998356Y-84683361D01*
X175998355Y-84683358D01*
X175909474Y-84567526D01*
X175909472Y-84567525D01*
X175909472Y-84567524D01*
X175874349Y-84540574D01*
X175793643Y-84478645D01*
X175793639Y-84478643D01*
X175658757Y-84422773D01*
X175658747Y-84422770D01*
X175514002Y-84403715D01*
X175513998Y-84403715D01*
X175369252Y-84422770D01*
X175369242Y-84422773D01*
X175234360Y-84478643D01*
X175118525Y-84567526D01*
X175055583Y-84649553D01*
X175014157Y-84673470D01*
X174967951Y-84661089D01*
X174956417Y-84649555D01*
X174893474Y-84567526D01*
X174777643Y-84478645D01*
X174777639Y-84478643D01*
X174642757Y-84422773D01*
X174642747Y-84422770D01*
X174498002Y-84403715D01*
X174497998Y-84403715D01*
X174353252Y-84422770D01*
X174353242Y-84422773D01*
X174218360Y-84478643D01*
X174102525Y-84567526D01*
X174039583Y-84649553D01*
X173998157Y-84673470D01*
X173951951Y-84661089D01*
X173940417Y-84649555D01*
X173877474Y-84567526D01*
X173761643Y-84478645D01*
X173761639Y-84478643D01*
X173626757Y-84422773D01*
X173626747Y-84422770D01*
X173482002Y-84403715D01*
X173481998Y-84403715D01*
X173337252Y-84422770D01*
X173337242Y-84422773D01*
X173202360Y-84478643D01*
X173086525Y-84567525D01*
X172997643Y-84683360D01*
X172941773Y-84818242D01*
X172941770Y-84818252D01*
X172922715Y-84962998D01*
X167386000Y-84962998D01*
X167386000Y-84709000D01*
X167132000Y-84709000D01*
X158648888Y-84709000D01*
X158604694Y-84690694D01*
X158387306Y-84473306D01*
X158369000Y-84429112D01*
X158369000Y-81787998D01*
X159206715Y-81787998D01*
X159206715Y-81788001D01*
X159225770Y-81932747D01*
X159225771Y-81932753D01*
X159225772Y-81932754D01*
X159281645Y-82067643D01*
X159370526Y-82183474D01*
X159486357Y-82272355D01*
X159621246Y-82328228D01*
X159621250Y-82328228D01*
X159621252Y-82328229D01*
X159765998Y-82347285D01*
X159766000Y-82347285D01*
X159766002Y-82347285D01*
X159910747Y-82328229D01*
X159910747Y-82328228D01*
X159910754Y-82328228D01*
X160045643Y-82272355D01*
X160161474Y-82183474D01*
X160250355Y-82067643D01*
X160306228Y-81932754D01*
X160325285Y-81788000D01*
X160306228Y-81643246D01*
X160250355Y-81508358D01*
X160161474Y-81392526D01*
X160161472Y-81392525D01*
X160161472Y-81392524D01*
X160079448Y-81329585D01*
X160045643Y-81303645D01*
X160045639Y-81303643D01*
X159910757Y-81247773D01*
X159910747Y-81247770D01*
X159766002Y-81228715D01*
X159765998Y-81228715D01*
X159621252Y-81247770D01*
X159621242Y-81247773D01*
X159486360Y-81303643D01*
X159370525Y-81392525D01*
X159281643Y-81508360D01*
X159225773Y-81643242D01*
X159225770Y-81643252D01*
X159206715Y-81787998D01*
X158369000Y-81787998D01*
X158369000Y-80771998D01*
X163143715Y-80771998D01*
X163143715Y-80772001D01*
X163162770Y-80916747D01*
X163162771Y-80916753D01*
X163162772Y-80916754D01*
X163218645Y-81051643D01*
X163277899Y-81128863D01*
X163307527Y-81167476D01*
X163389552Y-81230416D01*
X163413469Y-81271842D01*
X163401088Y-81318048D01*
X163389552Y-81329584D01*
X163307526Y-81392525D01*
X163218643Y-81508360D01*
X163162773Y-81643242D01*
X163162770Y-81643252D01*
X163143715Y-81787998D01*
X163143715Y-81788001D01*
X163162770Y-81932747D01*
X163162771Y-81932753D01*
X163162772Y-81932754D01*
X163218645Y-82067643D01*
X163277899Y-82144863D01*
X163307527Y-82183476D01*
X163389552Y-82246416D01*
X163413469Y-82287842D01*
X163401088Y-82334048D01*
X163389552Y-82345584D01*
X163307526Y-82408525D01*
X163218643Y-82524360D01*
X163162773Y-82659242D01*
X163162770Y-82659252D01*
X163143715Y-82803998D01*
X163143715Y-82804001D01*
X163162770Y-82948747D01*
X163162771Y-82948753D01*
X163162772Y-82948754D01*
X163218645Y-83083643D01*
X163307526Y-83199474D01*
X163423357Y-83288355D01*
X163558246Y-83344228D01*
X163558250Y-83344228D01*
X163558252Y-83344229D01*
X163702998Y-83363285D01*
X163703000Y-83363285D01*
X163703002Y-83363285D01*
X163847747Y-83344229D01*
X163847747Y-83344228D01*
X163847754Y-83344228D01*
X163982643Y-83288355D01*
X164098474Y-83199474D01*
X164187355Y-83083643D01*
X164243228Y-82948754D01*
X164262285Y-82804000D01*
X164243228Y-82659246D01*
X164187355Y-82524358D01*
X164098474Y-82408526D01*
X164098471Y-82408524D01*
X164098470Y-82408522D01*
X164016448Y-82345585D01*
X163992530Y-82304158D01*
X164004910Y-82257953D01*
X164016448Y-82246415D01*
X164098471Y-82183476D01*
X164098474Y-82183474D01*
X164187355Y-82067643D01*
X164243228Y-81932754D01*
X164262285Y-81788000D01*
X164243228Y-81643246D01*
X164187355Y-81508358D01*
X164098474Y-81392526D01*
X164098471Y-81392524D01*
X164098470Y-81392522D01*
X164016448Y-81329585D01*
X163992530Y-81288158D01*
X164004910Y-81241953D01*
X164016448Y-81230415D01*
X164098474Y-81167474D01*
X164187355Y-81051643D01*
X164243228Y-80916754D01*
X164262285Y-80772000D01*
X164262285Y-80771998D01*
X173811715Y-80771998D01*
X173811715Y-80772001D01*
X173830770Y-80916747D01*
X173830771Y-80916753D01*
X173830772Y-80916754D01*
X173886645Y-81051643D01*
X173945899Y-81128863D01*
X173975527Y-81167476D01*
X174057552Y-81230416D01*
X174081469Y-81271842D01*
X174069088Y-81318048D01*
X174057552Y-81329584D01*
X173975526Y-81392525D01*
X173886643Y-81508360D01*
X173830773Y-81643242D01*
X173830770Y-81643252D01*
X173811715Y-81787998D01*
X173811715Y-81788001D01*
X173830770Y-81932747D01*
X173830771Y-81932753D01*
X173830772Y-81932754D01*
X173886645Y-82067643D01*
X173945899Y-82144863D01*
X173975527Y-82183476D01*
X174057552Y-82246416D01*
X174081469Y-82287842D01*
X174069088Y-82334048D01*
X174057552Y-82345584D01*
X173975526Y-82408525D01*
X173886643Y-82524360D01*
X173830773Y-82659242D01*
X173830770Y-82659252D01*
X173811715Y-82803998D01*
X173811715Y-82804001D01*
X173830770Y-82948747D01*
X173830771Y-82948753D01*
X173830772Y-82948754D01*
X173886645Y-83083643D01*
X173975526Y-83199474D01*
X174091357Y-83288355D01*
X174226246Y-83344228D01*
X174226250Y-83344228D01*
X174226252Y-83344229D01*
X174370998Y-83363285D01*
X174371000Y-83363285D01*
X174371002Y-83363285D01*
X174515747Y-83344229D01*
X174515747Y-83344228D01*
X174515754Y-83344228D01*
X174650643Y-83288355D01*
X174766474Y-83199474D01*
X174855355Y-83083643D01*
X174911228Y-82948754D01*
X174930285Y-82804000D01*
X174911228Y-82659246D01*
X174855355Y-82524358D01*
X174766474Y-82408526D01*
X174766471Y-82408524D01*
X174766470Y-82408522D01*
X174684448Y-82345585D01*
X174660530Y-82304158D01*
X174672910Y-82257953D01*
X174684448Y-82246415D01*
X174766471Y-82183476D01*
X174766474Y-82183474D01*
X174855355Y-82067643D01*
X174911228Y-81932754D01*
X174930285Y-81788000D01*
X174911228Y-81643246D01*
X174855355Y-81508358D01*
X174766474Y-81392526D01*
X174766471Y-81392524D01*
X174766470Y-81392522D01*
X174684448Y-81329585D01*
X174660530Y-81288158D01*
X174672910Y-81241953D01*
X174684448Y-81230415D01*
X174766474Y-81167474D01*
X174855355Y-81051643D01*
X174911228Y-80916754D01*
X174930285Y-80772000D01*
X174911228Y-80627246D01*
X174855355Y-80492358D01*
X174766474Y-80376526D01*
X174766472Y-80376525D01*
X174766472Y-80376524D01*
X174731349Y-80349574D01*
X174650643Y-80287645D01*
X174650639Y-80287643D01*
X174515757Y-80231773D01*
X174515747Y-80231770D01*
X174371002Y-80212715D01*
X174370998Y-80212715D01*
X174226252Y-80231770D01*
X174226242Y-80231773D01*
X174091360Y-80287643D01*
X173975525Y-80376525D01*
X173886643Y-80492360D01*
X173830773Y-80627242D01*
X173830770Y-80627252D01*
X173811715Y-80771998D01*
X164262285Y-80771998D01*
X164243228Y-80627246D01*
X164187355Y-80492358D01*
X164098474Y-80376526D01*
X164098472Y-80376525D01*
X164098472Y-80376524D01*
X164063349Y-80349574D01*
X163982643Y-80287645D01*
X163982639Y-80287643D01*
X163847757Y-80231773D01*
X163847747Y-80231770D01*
X163703002Y-80212715D01*
X163702998Y-80212715D01*
X163558252Y-80231770D01*
X163558242Y-80231773D01*
X163423360Y-80287643D01*
X163307525Y-80376525D01*
X163218643Y-80492360D01*
X163162773Y-80627242D01*
X163162770Y-80627252D01*
X163143715Y-80771998D01*
X158369000Y-80771998D01*
X158369000Y-79247998D01*
X174446715Y-79247998D01*
X174446715Y-79248001D01*
X174465770Y-79392747D01*
X174465773Y-79392757D01*
X174511023Y-79502001D01*
X174521645Y-79527643D01*
X174610526Y-79643474D01*
X174726357Y-79732355D01*
X174861246Y-79788228D01*
X174861250Y-79788228D01*
X174861252Y-79788229D01*
X175005998Y-79807285D01*
X175006000Y-79807285D01*
X175006002Y-79807285D01*
X175150747Y-79788229D01*
X175150747Y-79788228D01*
X175150754Y-79788228D01*
X175285643Y-79732355D01*
X175401474Y-79643474D01*
X175464415Y-79561447D01*
X175505842Y-79537530D01*
X175552047Y-79549910D01*
X175563583Y-79561446D01*
X175626526Y-79643474D01*
X175742357Y-79732355D01*
X175877246Y-79788228D01*
X175877250Y-79788228D01*
X175877252Y-79788229D01*
X176021998Y-79807285D01*
X176022000Y-79807285D01*
X176022002Y-79807285D01*
X176166747Y-79788229D01*
X176166747Y-79788228D01*
X176166754Y-79788228D01*
X176301643Y-79732355D01*
X176417474Y-79643474D01*
X176480415Y-79561447D01*
X176521842Y-79537530D01*
X176568047Y-79549910D01*
X176579583Y-79561446D01*
X176642526Y-79643474D01*
X176758357Y-79732355D01*
X176893246Y-79788228D01*
X176893250Y-79788228D01*
X176893252Y-79788229D01*
X177037998Y-79807285D01*
X177038000Y-79807285D01*
X177038002Y-79807285D01*
X177182747Y-79788229D01*
X177182747Y-79788228D01*
X177182754Y-79788228D01*
X177317643Y-79732355D01*
X177433474Y-79643474D01*
X177522355Y-79527643D01*
X177532978Y-79501998D01*
X177748715Y-79501998D01*
X177748715Y-79502001D01*
X177767770Y-79646747D01*
X177767773Y-79646757D01*
X177803229Y-79732356D01*
X177823645Y-79781643D01*
X177912526Y-79897474D01*
X178028357Y-79986355D01*
X178163246Y-80042228D01*
X178163250Y-80042228D01*
X178163252Y-80042229D01*
X178307998Y-80061285D01*
X178308000Y-80061285D01*
X178308002Y-80061285D01*
X178452747Y-80042229D01*
X178452747Y-80042228D01*
X178452754Y-80042228D01*
X178587643Y-79986355D01*
X178703474Y-79897474D01*
X178792355Y-79781643D01*
X178848228Y-79646754D01*
X178860978Y-79549910D01*
X178867285Y-79502001D01*
X178867285Y-79501998D01*
X178848229Y-79357252D01*
X178848228Y-79357250D01*
X178848228Y-79357246D01*
X178802977Y-79248001D01*
X178792357Y-79222362D01*
X178792356Y-79222361D01*
X178792355Y-79222358D01*
X178703474Y-79106526D01*
X178703472Y-79106525D01*
X178703472Y-79106524D01*
X178668349Y-79079574D01*
X178587643Y-79017645D01*
X178587639Y-79017643D01*
X178452757Y-78961773D01*
X178452747Y-78961770D01*
X178308002Y-78942715D01*
X178307998Y-78942715D01*
X178163252Y-78961770D01*
X178163242Y-78961773D01*
X178028360Y-79017643D01*
X177912525Y-79106525D01*
X177823643Y-79222360D01*
X177767773Y-79357242D01*
X177767770Y-79357252D01*
X177748715Y-79501998D01*
X177532978Y-79501998D01*
X177578228Y-79392754D01*
X177597285Y-79248000D01*
X177593909Y-79222360D01*
X177578229Y-79103252D01*
X177578228Y-79103250D01*
X177578228Y-79103246D01*
X177522355Y-78968358D01*
X177433474Y-78852526D01*
X177433472Y-78852525D01*
X177433472Y-78852524D01*
X177398349Y-78825574D01*
X177317643Y-78763645D01*
X177317639Y-78763643D01*
X177182757Y-78707773D01*
X177182747Y-78707770D01*
X177038002Y-78688715D01*
X177037998Y-78688715D01*
X176893252Y-78707770D01*
X176893242Y-78707773D01*
X176758360Y-78763643D01*
X176642525Y-78852526D01*
X176579583Y-78934553D01*
X176538157Y-78958470D01*
X176491951Y-78946089D01*
X176480417Y-78934555D01*
X176417474Y-78852526D01*
X176301643Y-78763645D01*
X176301639Y-78763643D01*
X176166757Y-78707773D01*
X176166747Y-78707770D01*
X176022002Y-78688715D01*
X176021998Y-78688715D01*
X175877252Y-78707770D01*
X175877242Y-78707773D01*
X175742360Y-78763643D01*
X175626525Y-78852526D01*
X175563583Y-78934553D01*
X175522157Y-78958470D01*
X175475951Y-78946089D01*
X175464417Y-78934555D01*
X175401474Y-78852526D01*
X175285643Y-78763645D01*
X175285639Y-78763643D01*
X175150757Y-78707773D01*
X175150747Y-78707770D01*
X175006002Y-78688715D01*
X175005998Y-78688715D01*
X174861252Y-78707770D01*
X174861242Y-78707773D01*
X174726360Y-78763643D01*
X174610525Y-78852525D01*
X174521643Y-78968360D01*
X174465773Y-79103242D01*
X174465770Y-79103252D01*
X174446715Y-79247998D01*
X158369000Y-79247998D01*
X158369000Y-76479888D01*
X158387306Y-76435694D01*
X158604694Y-76218306D01*
X158648888Y-76200000D01*
X161492053Y-76200000D01*
X161536247Y-76218306D01*
G37*
G04 #@! TD.AperFunction*
G04 #@! TD*
G04 #@! TA.AperFunction,Conductor*
G04 #@! TO.N,GNDS*
G36*
X149751306Y-69868306D02*
G01*
X149968694Y-70085694D01*
X149987000Y-70129888D01*
X149987000Y-81000112D01*
X149968694Y-81044306D01*
X149751306Y-81261694D01*
X149707112Y-81280000D01*
X144399000Y-81280000D01*
X144399000Y-81534000D01*
X144399000Y-100050112D01*
X144380694Y-100094306D01*
X144163306Y-100311694D01*
X144119112Y-100330000D01*
X120929888Y-100330000D01*
X120885694Y-100311694D01*
X120668306Y-100094306D01*
X120650000Y-100050112D01*
X120650000Y-86174932D01*
X123743500Y-86174932D01*
X123743500Y-88825064D01*
X123743501Y-88825068D01*
X123758265Y-88899299D01*
X123758267Y-88899303D01*
X123814515Y-88983484D01*
X123898697Y-89039733D01*
X123898699Y-89039734D01*
X123972933Y-89054500D01*
X126623066Y-89054499D01*
X126697301Y-89039734D01*
X126781484Y-88983484D01*
X126837734Y-88899301D01*
X126852500Y-88825067D01*
X126852499Y-86174934D01*
X126837734Y-86100699D01*
X126837732Y-86100696D01*
X126781484Y-86016515D01*
X126697302Y-85960266D01*
X126697300Y-85960265D01*
X126623067Y-85945500D01*
X123972935Y-85945500D01*
X123972931Y-85945501D01*
X123898700Y-85960265D01*
X123898696Y-85960267D01*
X123814515Y-86016515D01*
X123758266Y-86100697D01*
X123758265Y-86100699D01*
X123743500Y-86174932D01*
X120650000Y-86174932D01*
X120650000Y-70129888D01*
X120668306Y-70085694D01*
X120885694Y-69868306D01*
X120929888Y-69850000D01*
X149707112Y-69850000D01*
X149751306Y-69868306D01*
G37*
G04 #@! TD.AperFunction*
G04 #@! TD*
M02*
