G04 #@! TF.GenerationSoftware,KiCad,Pcbnew,8.0.6*
G04 #@! TF.CreationDate,2024-12-07T23:10:06+01:00*
G04 #@! TF.ProjectId,BOOST_LT8365,424f4f53-545f-44c5-9438-3336352e6b69,rev?*
G04 #@! TF.SameCoordinates,Original*
G04 #@! TF.FileFunction,Paste,Top*
G04 #@! TF.FilePolarity,Positive*
%FSLAX46Y46*%
G04 Gerber Fmt 4.6, Leading zero omitted, Abs format (unit mm)*
G04 Created by KiCad (PCBNEW 8.0.6) date 2024-12-07 23:10:06*
%MOMM*%
%LPD*%
G01*
G04 APERTURE LIST*
G04 Aperture macros list*
%AMRoundRect*
0 Rectangle with rounded corners*
0 $1 Rounding radius*
0 $2 $3 $4 $5 $6 $7 $8 $9 X,Y pos of 4 corners*
0 Add a 4 corners polygon primitive as box body*
4,1,4,$2,$3,$4,$5,$6,$7,$8,$9,$2,$3,0*
0 Add four circle primitives for the rounded corners*
1,1,$1+$1,$2,$3*
1,1,$1+$1,$4,$5*
1,1,$1+$1,$6,$7*
1,1,$1+$1,$8,$9*
0 Add four rect primitives between the rounded corners*
20,1,$1+$1,$2,$3,$4,$5,0*
20,1,$1+$1,$4,$5,$6,$7,0*
20,1,$1+$1,$6,$7,$8,$9,0*
20,1,$1+$1,$8,$9,$2,$3,0*%
G04 Aperture macros list end*
%ADD10RoundRect,0.250000X0.650000X-0.412500X0.650000X0.412500X-0.650000X0.412500X-0.650000X-0.412500X0*%
%ADD11RoundRect,0.250000X-0.412500X-0.650000X0.412500X-0.650000X0.412500X0.650000X-0.412500X0.650000X0*%
%ADD12RoundRect,0.172500X-0.172500X-0.422500X0.172500X-0.422500X0.172500X0.422500X-0.172500X0.422500X0*%
%ADD13RoundRect,0.075000X-0.650000X-0.075000X0.650000X-0.075000X0.650000X0.075000X-0.650000X0.075000X0*%
%ADD14RoundRect,0.375000X-0.375000X-0.825000X0.375000X-0.825000X0.375000X0.825000X-0.375000X0.825000X0*%
%ADD15RoundRect,0.237500X-0.250000X-0.237500X0.250000X-0.237500X0.250000X0.237500X-0.250000X0.237500X0*%
%ADD16RoundRect,0.250000X-0.950000X-0.500000X0.950000X-0.500000X0.950000X0.500000X-0.950000X0.500000X0*%
%ADD17RoundRect,0.250000X-0.275000X-0.500000X0.275000X-0.500000X0.275000X0.500000X-0.275000X0.500000X0*%
%ADD18RoundRect,0.237500X0.237500X-0.300000X0.237500X0.300000X-0.237500X0.300000X-0.237500X-0.300000X0*%
%ADD19RoundRect,0.250000X-0.400000X-0.625000X0.400000X-0.625000X0.400000X0.625000X-0.400000X0.625000X0*%
%ADD20RoundRect,0.237500X0.250000X0.237500X-0.250000X0.237500X-0.250000X-0.237500X0.250000X-0.237500X0*%
%ADD21RoundRect,0.225000X-0.225000X-0.375000X0.225000X-0.375000X0.225000X0.375000X-0.225000X0.375000X0*%
%ADD22RoundRect,0.250000X-0.650000X0.412500X-0.650000X-0.412500X0.650000X-0.412500X0.650000X0.412500X0*%
%ADD23RoundRect,0.237500X-0.237500X0.250000X-0.237500X-0.250000X0.237500X-0.250000X0.237500X0.250000X0*%
%ADD24RoundRect,0.250000X0.500000X-0.950000X0.500000X0.950000X-0.500000X0.950000X-0.500000X-0.950000X0*%
%ADD25RoundRect,0.250000X0.500000X-0.275000X0.500000X0.275000X-0.500000X0.275000X-0.500000X-0.275000X0*%
%ADD26RoundRect,0.250000X0.950000X0.500000X-0.950000X0.500000X-0.950000X-0.500000X0.950000X-0.500000X0*%
%ADD27RoundRect,0.250000X0.275000X0.500000X-0.275000X0.500000X-0.275000X-0.500000X0.275000X-0.500000X0*%
%ADD28RoundRect,0.250000X0.625000X-0.400000X0.625000X0.400000X-0.625000X0.400000X-0.625000X-0.400000X0*%
%ADD29RoundRect,0.237500X-0.300000X-0.237500X0.300000X-0.237500X0.300000X0.237500X-0.300000X0.237500X0*%
%ADD30RoundRect,0.250000X0.400000X0.625000X-0.400000X0.625000X-0.400000X-0.625000X0.400000X-0.625000X0*%
%ADD31RoundRect,0.237500X0.287500X0.237500X-0.287500X0.237500X-0.287500X-0.237500X0.287500X-0.237500X0*%
G04 APERTURE END LIST*
D10*
G04 #@! TO.C,C6*
X148590000Y-95669500D03*
X148590000Y-92544500D03*
G04 #@! TD*
D11*
G04 #@! TO.C,C18*
X149567500Y-54991000D03*
X152692500Y-54991000D03*
G04 #@! TD*
D12*
G04 #@! TO.C,U3*
X135305500Y-61651500D03*
X135305500Y-63071500D03*
X136135500Y-61651500D03*
X136135500Y-63071500D03*
D13*
X133570500Y-60611500D03*
X133570500Y-61611500D03*
X133570500Y-62611500D03*
X133570500Y-63111500D03*
X133570500Y-63611500D03*
X133570500Y-64111500D03*
X137870500Y-64111500D03*
X137870500Y-63611500D03*
X137870500Y-63111500D03*
X137870500Y-62611500D03*
X137870500Y-61611500D03*
X137870500Y-60611500D03*
G04 #@! TD*
D11*
G04 #@! TO.C,C7*
X149059500Y-90043000D03*
X152184500Y-90043000D03*
G04 #@! TD*
D10*
G04 #@! TO.C,C13*
X137795000Y-57823500D03*
X137795000Y-54698500D03*
G04 #@! TD*
D14*
G04 #@! TO.C,L2*
X131627000Y-56261000D03*
X135327000Y-56261000D03*
G04 #@! TD*
D15*
G04 #@! TO.C,R9*
X139803500Y-72009000D03*
X141628500Y-72009000D03*
G04 #@! TD*
D10*
G04 #@! TO.C,C16*
X146685000Y-57823500D03*
X146685000Y-54698500D03*
G04 #@! TD*
D16*
G04 #@! TO.C,D2*
X146392000Y-90043000D03*
D17*
X144017000Y-90043000D03*
G04 #@! TD*
D18*
G04 #@! TO.C,C1*
X140208000Y-100176500D03*
X140208000Y-98451500D03*
G04 #@! TD*
D11*
G04 #@! TO.C,C17*
X149567500Y-52197000D03*
X152692500Y-52197000D03*
G04 #@! TD*
D19*
G04 #@! TO.C,R25*
X149580000Y-58166000D03*
X152680000Y-58166000D03*
G04 #@! TD*
D20*
G04 #@! TO.C,R24*
X138199500Y-65532000D03*
X136374500Y-65532000D03*
G04 #@! TD*
D19*
G04 #@! TO.C,R8*
X148691000Y-97917000D03*
X151791000Y-97917000D03*
G04 #@! TD*
D16*
G04 #@! TO.C,D4*
X145376000Y-100838000D03*
D17*
X143001000Y-100838000D03*
G04 #@! TD*
D21*
G04 #@! TO.C,D5*
X134875000Y-72009000D03*
X138175000Y-72009000D03*
G04 #@! TD*
D22*
G04 #@! TO.C,C5*
X143002000Y-92544500D03*
X143002000Y-95669500D03*
G04 #@! TD*
D19*
G04 #@! TO.C,R23*
X144627000Y-52197000D03*
X147727000Y-52197000D03*
G04 #@! TD*
D10*
G04 #@! TO.C,C3*
X139954000Y-95669500D03*
X139954000Y-92544500D03*
G04 #@! TD*
D18*
G04 #@! TO.C,C4*
X131538000Y-100124500D03*
X131538000Y-98399500D03*
G04 #@! TD*
D23*
G04 #@! TO.C,R10*
X131445000Y-63857500D03*
X131445000Y-65682500D03*
G04 #@! TD*
D24*
G04 #@! TO.C,D11*
X144018000Y-60490000D03*
D25*
X144018000Y-62865000D03*
G04 #@! TD*
D26*
G04 #@! TO.C,D3*
X143676000Y-98044000D03*
D27*
X146051000Y-98044000D03*
G04 #@! TD*
D16*
G04 #@! TO.C,D1*
X141312000Y-90043000D03*
D17*
X138937000Y-90043000D03*
G04 #@! TD*
D22*
G04 #@! TO.C,C15*
X140589000Y-54698500D03*
X140589000Y-57823500D03*
G04 #@! TD*
D20*
G04 #@! TO.C,R6*
X138292500Y-103326000D03*
X136467500Y-103326000D03*
G04 #@! TD*
D19*
G04 #@! TO.C,R4*
X148691000Y-101219000D03*
X151791000Y-101219000D03*
G04 #@! TD*
D12*
G04 #@! TO.C,U1*
X135347000Y-99493000D03*
X135347000Y-100913000D03*
X136177000Y-99493000D03*
X136177000Y-100913000D03*
D13*
X133612000Y-98453000D03*
X133612000Y-99453000D03*
X133612000Y-100453000D03*
X133612000Y-100953000D03*
X133612000Y-101453000D03*
X133612000Y-101953000D03*
X137912000Y-101953000D03*
X137912000Y-101453000D03*
X137912000Y-100953000D03*
X137912000Y-100453000D03*
X137912000Y-99453000D03*
X137912000Y-98453000D03*
G04 #@! TD*
D28*
G04 #@! TO.C,R37*
X146685000Y-62891000D03*
X146685000Y-59791000D03*
G04 #@! TD*
D19*
G04 #@! TO.C,R26*
X149580000Y-61214000D03*
X152680000Y-61214000D03*
G04 #@! TD*
D23*
G04 #@! TO.C,R7*
X140335000Y-63984500D03*
X140335000Y-65809500D03*
G04 #@! TD*
D26*
G04 #@! TO.C,D8*
X135294000Y-52197000D03*
D27*
X137669000Y-52197000D03*
G04 #@! TD*
D24*
G04 #@! TO.C,D10*
X144018000Y-55411000D03*
D25*
X144018000Y-57786000D03*
G04 #@! TD*
D10*
G04 #@! TO.C,C8*
X151892000Y-95669500D03*
X151892000Y-92544500D03*
G04 #@! TD*
D18*
G04 #@! TO.C,C11*
X140335000Y-62330500D03*
X140335000Y-60605500D03*
G04 #@! TD*
D29*
G04 #@! TO.C,C2*
X133215500Y-103326000D03*
X134940500Y-103326000D03*
G04 #@! TD*
D18*
G04 #@! TO.C,C14*
X131445000Y-62203500D03*
X131445000Y-60478500D03*
G04 #@! TD*
D30*
G04 #@! TO.C,R3*
X136932000Y-90043000D03*
X133832000Y-90043000D03*
G04 #@! TD*
D28*
G04 #@! TO.C,R5*
X146050000Y-95657000D03*
X146050000Y-92557000D03*
G04 #@! TD*
D31*
G04 #@! TO.C,D6*
X145123500Y-72009000D03*
X143373500Y-72009000D03*
G04 #@! TD*
D26*
G04 #@! TO.C,D9*
X140373000Y-52197000D03*
D27*
X142748000Y-52197000D03*
G04 #@! TD*
D14*
G04 #@! TO.C,L1*
X133786000Y-94107000D03*
X137486000Y-94107000D03*
G04 #@! TD*
D29*
G04 #@! TO.C,C12*
X133122500Y-65532000D03*
X134847500Y-65532000D03*
G04 #@! TD*
D23*
G04 #@! TO.C,R1*
X140208000Y-101830500D03*
X140208000Y-103655500D03*
G04 #@! TD*
G04 #@! TO.C,R2*
X131538000Y-101778500D03*
X131538000Y-103603500D03*
G04 #@! TD*
M02*
