M48
; DRILL file {KiCad 8.0.6} date 2024-12-07T23:10:09+0100
; FORMAT={-:-/ absolute / inch / decimal}
; #@! TF.CreationDate,2024-12-07T23:10:09+01:00
; #@! TF.GenerationSoftware,Kicad,Pcbnew,8.0.6
; #@! TF.FileFunction,Plated,1,2,PTH
FMAT,2
INCH
; #@! TA.AperFunction,Plated,PTH,ComponentDrill
T1C0.0098
; #@! TA.AperFunction,Plated,PTH,ViaDrill
T2C0.0118
; #@! TA.AperFunction,Plated,PTH,ComponentDrill
T3C0.0512
; #@! TA.AperFunction,Plated,PTH,ComponentDrill
T4C0.0591
; #@! TA.AperFunction,Plated,PTH,ComponentDrill
T5C0.0984
; #@! TA.AperFunction,Plated,PTH,ComponentDrill
T6C0.1260
%
G90
G05
T1
X5.3217Y-2.41
X5.3217Y-2.4552
X5.3217Y-2.5004
X5.3233Y-3.8998
X5.3233Y-3.945
X5.3233Y-3.9902
X5.365Y-2.41
X5.365Y-2.4552
X5.365Y-2.5004
X5.3666Y-3.8998
X5.3666Y-3.945
X5.3666Y-3.9902
T2
X5.175Y-2.345
X5.1787Y-3.8363
X5.225Y-3.515
X5.225Y-3.545
X5.225Y-3.575
X5.25Y-2.02
X5.25Y-2.055
X5.25Y-2.09
X5.309Y-2.614
X5.3126Y-4.1024
X5.3691Y-2.6141
X5.3727Y-4.1
X5.52Y-3.845
X5.52Y-4.117
X5.525Y-2.35
X5.525Y-2.625
X5.77Y-2.835
X6.04Y-3.545
X6.04Y-3.6
X6.04Y-3.655
X6.055Y-2.055
X6.055Y-2.11
X6.055Y-2.165
T3
X5.123Y-3.0216
X5.123Y-3.2184
T4
X6.189Y-2.0677
X6.189Y-2.4677
X6.189Y-2.8177
X6.189Y-3.2177
X6.189Y-3.5677
X6.189Y-3.9677
X6.189Y-4.3177
X6.189Y-4.7177
X6.589Y-2.0677
X6.589Y-2.4677
X6.589Y-2.8177
X6.589Y-3.2177
X6.589Y-3.5677
X6.589Y-3.9677
X6.589Y-4.3177
X6.589Y-4.7177
T5
X6.3386Y-2.2677
X6.3386Y-3.0177
X6.3386Y-3.7677
X6.3386Y-4.5177
T6
X5.0591Y-1.8307
X5.0591Y-4.9803
X6.752Y-1.8307
X6.752Y-4.9803
M30
