G04 #@! TF.GenerationSoftware,KiCad,Pcbnew,8.0.6*
G04 #@! TF.CreationDate,2024-12-07T23:10:07+01:00*
G04 #@! TF.ProjectId,BOOST_LT8365,424f4f53-545f-44c5-9438-3336352e6b69,rev?*
G04 #@! TF.SameCoordinates,Original*
G04 #@! TF.FileFunction,Legend,Bot*
G04 #@! TF.FilePolarity,Positive*
%FSLAX46Y46*%
G04 Gerber Fmt 4.6, Leading zero omitted, Abs format (unit mm)*
G04 Created by KiCad (PCBNEW 8.0.6) date 2024-12-07 23:10:07*
%MOMM*%
%LPD*%
G01*
G04 APERTURE LIST*
%ADD10C,0.400000*%
G04 APERTURE END LIST*
D10*
X165290500Y-114808000D02*
X163639500Y-114808000D01*
X152781000Y-76708000D02*
X150876000Y-78359000D01*
X157226000Y-76708000D02*
X152781000Y-76708000D01*
X157353000Y-95631000D02*
X152908000Y-95631000D01*
X151003000Y-93980000D02*
X151003000Y-88519000D01*
X151003000Y-97282000D02*
X151003000Y-102743000D01*
X152908000Y-95631000D02*
X151003000Y-97282000D01*
X150876000Y-78359000D02*
X150876000Y-83820000D01*
X150749000Y-59182000D02*
X150749000Y-64643000D01*
X152908000Y-95631000D02*
X151003000Y-93980000D01*
X157099000Y-57531000D02*
X152654000Y-57531000D01*
X157226000Y-76708000D02*
X152781000Y-76708000D01*
X165354000Y-76708000D02*
X163703000Y-76708000D01*
X152781000Y-76708000D02*
X150876000Y-75057000D01*
X157353000Y-95631000D02*
X152908000Y-95631000D01*
X150876000Y-75057000D02*
X150876000Y-69596000D01*
X157480000Y-114935000D02*
X153035000Y-114935000D01*
X153035000Y-114935000D02*
X151130000Y-113284000D01*
X151130000Y-113284000D02*
X151130000Y-107823000D01*
X152654000Y-57531000D02*
X150749000Y-59182000D01*
X170425271Y-75680676D02*
X170615747Y-75585438D01*
X170615747Y-75585438D02*
X170901461Y-75585438D01*
X170901461Y-75585438D02*
X171187176Y-75680676D01*
X171187176Y-75680676D02*
X171377652Y-75871152D01*
X171377652Y-75871152D02*
X171472890Y-76061628D01*
X171472890Y-76061628D02*
X171568128Y-76442580D01*
X171568128Y-76442580D02*
X171568128Y-76728295D01*
X171568128Y-76728295D02*
X171472890Y-77109247D01*
X171472890Y-77109247D02*
X171377652Y-77299723D01*
X171377652Y-77299723D02*
X171187176Y-77490200D01*
X171187176Y-77490200D02*
X170901461Y-77585438D01*
X170901461Y-77585438D02*
X170710985Y-77585438D01*
X170710985Y-77585438D02*
X170425271Y-77490200D01*
X170425271Y-77490200D02*
X170330033Y-77394961D01*
X170330033Y-77394961D02*
X170330033Y-76728295D01*
X170330033Y-76728295D02*
X170710985Y-76728295D01*
X169472890Y-77585438D02*
X169472890Y-75585438D01*
X169472890Y-75585438D02*
X168330033Y-77585438D01*
X168330033Y-77585438D02*
X168330033Y-75585438D01*
X167377652Y-77585438D02*
X167377652Y-75585438D01*
X167377652Y-75585438D02*
X166901462Y-75585438D01*
X166901462Y-75585438D02*
X166615747Y-75680676D01*
X166615747Y-75680676D02*
X166425271Y-75871152D01*
X166425271Y-75871152D02*
X166330033Y-76061628D01*
X166330033Y-76061628D02*
X166234795Y-76442580D01*
X166234795Y-76442580D02*
X166234795Y-76728295D01*
X166234795Y-76728295D02*
X166330033Y-77109247D01*
X166330033Y-77109247D02*
X166425271Y-77299723D01*
X166425271Y-77299723D02*
X166615747Y-77490200D01*
X166615747Y-77490200D02*
X166901462Y-77585438D01*
X166901462Y-77585438D02*
X167377652Y-77585438D01*
X155470652Y-86348533D02*
X153946843Y-86348533D01*
X154708747Y-87110438D02*
X154708747Y-85586628D01*
X151946843Y-87110438D02*
X153089700Y-87110438D01*
X152518272Y-87110438D02*
X152518272Y-85110438D01*
X152518272Y-85110438D02*
X152708748Y-85396152D01*
X152708748Y-85396152D02*
X152899224Y-85586628D01*
X152899224Y-85586628D02*
X153089700Y-85681866D01*
X150042081Y-87110438D02*
X151184938Y-87110438D01*
X150613510Y-87110438D02*
X150613510Y-85110438D01*
X150613510Y-85110438D02*
X150803986Y-85396152D01*
X150803986Y-85396152D02*
X150994462Y-85586628D01*
X150994462Y-85586628D02*
X151184938Y-85681866D01*
X148803986Y-85110438D02*
X148613509Y-85110438D01*
X148613509Y-85110438D02*
X148423033Y-85205676D01*
X148423033Y-85205676D02*
X148327795Y-85300914D01*
X148327795Y-85300914D02*
X148232557Y-85491390D01*
X148232557Y-85491390D02*
X148137319Y-85872342D01*
X148137319Y-85872342D02*
X148137319Y-86348533D01*
X148137319Y-86348533D02*
X148232557Y-86729485D01*
X148232557Y-86729485D02*
X148327795Y-86919961D01*
X148327795Y-86919961D02*
X148423033Y-87015200D01*
X148423033Y-87015200D02*
X148613509Y-87110438D01*
X148613509Y-87110438D02*
X148803986Y-87110438D01*
X148803986Y-87110438D02*
X148994462Y-87015200D01*
X148994462Y-87015200D02*
X149089700Y-86919961D01*
X149089700Y-86919961D02*
X149184938Y-86729485D01*
X149184938Y-86729485D02*
X149280176Y-86348533D01*
X149280176Y-86348533D02*
X149280176Y-85872342D01*
X149280176Y-85872342D02*
X149184938Y-85491390D01*
X149184938Y-85491390D02*
X149089700Y-85300914D01*
X149089700Y-85300914D02*
X148994462Y-85205676D01*
X148994462Y-85205676D02*
X148803986Y-85110438D01*
X147565890Y-85110438D02*
X146899224Y-87110438D01*
X146899224Y-87110438D02*
X146232557Y-85110438D01*
X173377652Y-57773533D02*
X171853843Y-57773533D01*
X169853843Y-58535438D02*
X170996700Y-58535438D01*
X170425272Y-58535438D02*
X170425272Y-56535438D01*
X170425272Y-56535438D02*
X170615748Y-56821152D01*
X170615748Y-56821152D02*
X170806224Y-57011628D01*
X170806224Y-57011628D02*
X170996700Y-57106866D01*
X167949081Y-58535438D02*
X169091938Y-58535438D01*
X168520510Y-58535438D02*
X168520510Y-56535438D01*
X168520510Y-56535438D02*
X168710986Y-56821152D01*
X168710986Y-56821152D02*
X168901462Y-57011628D01*
X168901462Y-57011628D02*
X169091938Y-57106866D01*
X166710986Y-56535438D02*
X166520509Y-56535438D01*
X166520509Y-56535438D02*
X166330033Y-56630676D01*
X166330033Y-56630676D02*
X166234795Y-56725914D01*
X166234795Y-56725914D02*
X166139557Y-56916390D01*
X166139557Y-56916390D02*
X166044319Y-57297342D01*
X166044319Y-57297342D02*
X166044319Y-57773533D01*
X166044319Y-57773533D02*
X166139557Y-58154485D01*
X166139557Y-58154485D02*
X166234795Y-58344961D01*
X166234795Y-58344961D02*
X166330033Y-58440200D01*
X166330033Y-58440200D02*
X166520509Y-58535438D01*
X166520509Y-58535438D02*
X166710986Y-58535438D01*
X166710986Y-58535438D02*
X166901462Y-58440200D01*
X166901462Y-58440200D02*
X166996700Y-58344961D01*
X166996700Y-58344961D02*
X167091938Y-58154485D01*
X167091938Y-58154485D02*
X167187176Y-57773533D01*
X167187176Y-57773533D02*
X167187176Y-57297342D01*
X167187176Y-57297342D02*
X167091938Y-56916390D01*
X167091938Y-56916390D02*
X166996700Y-56725914D01*
X166996700Y-56725914D02*
X166901462Y-56630676D01*
X166901462Y-56630676D02*
X166710986Y-56535438D01*
X165472890Y-56535438D02*
X164806224Y-58535438D01*
X164806224Y-58535438D02*
X164139557Y-56535438D01*
X155470652Y-105779533D02*
X153946843Y-105779533D01*
X154708747Y-106541438D02*
X154708747Y-105017628D01*
X151946843Y-106541438D02*
X153089700Y-106541438D01*
X152518272Y-106541438D02*
X152518272Y-104541438D01*
X152518272Y-104541438D02*
X152708748Y-104827152D01*
X152708748Y-104827152D02*
X152899224Y-105017628D01*
X152899224Y-105017628D02*
X153089700Y-105112866D01*
X150042081Y-106541438D02*
X151184938Y-106541438D01*
X150613510Y-106541438D02*
X150613510Y-104541438D01*
X150613510Y-104541438D02*
X150803986Y-104827152D01*
X150803986Y-104827152D02*
X150994462Y-105017628D01*
X150994462Y-105017628D02*
X151184938Y-105112866D01*
X148803986Y-104541438D02*
X148613509Y-104541438D01*
X148613509Y-104541438D02*
X148423033Y-104636676D01*
X148423033Y-104636676D02*
X148327795Y-104731914D01*
X148327795Y-104731914D02*
X148232557Y-104922390D01*
X148232557Y-104922390D02*
X148137319Y-105303342D01*
X148137319Y-105303342D02*
X148137319Y-105779533D01*
X148137319Y-105779533D02*
X148232557Y-106160485D01*
X148232557Y-106160485D02*
X148327795Y-106350961D01*
X148327795Y-106350961D02*
X148423033Y-106446200D01*
X148423033Y-106446200D02*
X148613509Y-106541438D01*
X148613509Y-106541438D02*
X148803986Y-106541438D01*
X148803986Y-106541438D02*
X148994462Y-106446200D01*
X148994462Y-106446200D02*
X149089700Y-106350961D01*
X149089700Y-106350961D02*
X149184938Y-106160485D01*
X149184938Y-106160485D02*
X149280176Y-105779533D01*
X149280176Y-105779533D02*
X149280176Y-105303342D01*
X149280176Y-105303342D02*
X149184938Y-104922390D01*
X149184938Y-104922390D02*
X149089700Y-104731914D01*
X149089700Y-104731914D02*
X148994462Y-104636676D01*
X148994462Y-104636676D02*
X148803986Y-104541438D01*
X147565890Y-104541438D02*
X146899224Y-106541438D01*
X146899224Y-106541438D02*
X146232557Y-104541438D01*
X138357652Y-80887676D02*
X138548128Y-80792438D01*
X138548128Y-80792438D02*
X138833842Y-80792438D01*
X138833842Y-80792438D02*
X139119557Y-80887676D01*
X139119557Y-80887676D02*
X139310033Y-81078152D01*
X139310033Y-81078152D02*
X139405271Y-81268628D01*
X139405271Y-81268628D02*
X139500509Y-81649580D01*
X139500509Y-81649580D02*
X139500509Y-81935295D01*
X139500509Y-81935295D02*
X139405271Y-82316247D01*
X139405271Y-82316247D02*
X139310033Y-82506723D01*
X139310033Y-82506723D02*
X139119557Y-82697200D01*
X139119557Y-82697200D02*
X138833842Y-82792438D01*
X138833842Y-82792438D02*
X138643366Y-82792438D01*
X138643366Y-82792438D02*
X138357652Y-82697200D01*
X138357652Y-82697200D02*
X138262414Y-82601961D01*
X138262414Y-82601961D02*
X138262414Y-81935295D01*
X138262414Y-81935295D02*
X138643366Y-81935295D01*
X137405271Y-82792438D02*
X137405271Y-80792438D01*
X137405271Y-80792438D02*
X136262414Y-82792438D01*
X136262414Y-82792438D02*
X136262414Y-80792438D01*
X135310033Y-82792438D02*
X135310033Y-80792438D01*
X135310033Y-80792438D02*
X134833843Y-80792438D01*
X134833843Y-80792438D02*
X134548128Y-80887676D01*
X134548128Y-80887676D02*
X134357652Y-81078152D01*
X134357652Y-81078152D02*
X134262414Y-81268628D01*
X134262414Y-81268628D02*
X134167176Y-81649580D01*
X134167176Y-81649580D02*
X134167176Y-81935295D01*
X134167176Y-81935295D02*
X134262414Y-82316247D01*
X134262414Y-82316247D02*
X134357652Y-82506723D01*
X134357652Y-82506723D02*
X134548128Y-82697200D01*
X134548128Y-82697200D02*
X134833843Y-82792438D01*
X134833843Y-82792438D02*
X135310033Y-82792438D01*
X170425271Y-113780676D02*
X170615747Y-113685438D01*
X170615747Y-113685438D02*
X170901461Y-113685438D01*
X170901461Y-113685438D02*
X171187176Y-113780676D01*
X171187176Y-113780676D02*
X171377652Y-113971152D01*
X171377652Y-113971152D02*
X171472890Y-114161628D01*
X171472890Y-114161628D02*
X171568128Y-114542580D01*
X171568128Y-114542580D02*
X171568128Y-114828295D01*
X171568128Y-114828295D02*
X171472890Y-115209247D01*
X171472890Y-115209247D02*
X171377652Y-115399723D01*
X171377652Y-115399723D02*
X171187176Y-115590200D01*
X171187176Y-115590200D02*
X170901461Y-115685438D01*
X170901461Y-115685438D02*
X170710985Y-115685438D01*
X170710985Y-115685438D02*
X170425271Y-115590200D01*
X170425271Y-115590200D02*
X170330033Y-115494961D01*
X170330033Y-115494961D02*
X170330033Y-114828295D01*
X170330033Y-114828295D02*
X170710985Y-114828295D01*
X169472890Y-115685438D02*
X169472890Y-113685438D01*
X169472890Y-113685438D02*
X168330033Y-115685438D01*
X168330033Y-115685438D02*
X168330033Y-113685438D01*
X167377652Y-115685438D02*
X167377652Y-113685438D01*
X167377652Y-113685438D02*
X166901462Y-113685438D01*
X166901462Y-113685438D02*
X166615747Y-113780676D01*
X166615747Y-113780676D02*
X166425271Y-113971152D01*
X166425271Y-113971152D02*
X166330033Y-114161628D01*
X166330033Y-114161628D02*
X166234795Y-114542580D01*
X166234795Y-114542580D02*
X166234795Y-114828295D01*
X166234795Y-114828295D02*
X166330033Y-115209247D01*
X166330033Y-115209247D02*
X166425271Y-115399723D01*
X166425271Y-115399723D02*
X166615747Y-115590200D01*
X166615747Y-115590200D02*
X166901462Y-115685438D01*
X166901462Y-115685438D02*
X167377652Y-115685438D01*
X173377652Y-95873533D02*
X171853843Y-95873533D01*
X172615747Y-96635438D02*
X172615747Y-95111628D01*
X169853843Y-96635438D02*
X170996700Y-96635438D01*
X170425272Y-96635438D02*
X170425272Y-94635438D01*
X170425272Y-94635438D02*
X170615748Y-94921152D01*
X170615748Y-94921152D02*
X170806224Y-95111628D01*
X170806224Y-95111628D02*
X170996700Y-95206866D01*
X167949081Y-96635438D02*
X169091938Y-96635438D01*
X168520510Y-96635438D02*
X168520510Y-94635438D01*
X168520510Y-94635438D02*
X168710986Y-94921152D01*
X168710986Y-94921152D02*
X168901462Y-95111628D01*
X168901462Y-95111628D02*
X169091938Y-95206866D01*
X166710986Y-94635438D02*
X166520509Y-94635438D01*
X166520509Y-94635438D02*
X166330033Y-94730676D01*
X166330033Y-94730676D02*
X166234795Y-94825914D01*
X166234795Y-94825914D02*
X166139557Y-95016390D01*
X166139557Y-95016390D02*
X166044319Y-95397342D01*
X166044319Y-95397342D02*
X166044319Y-95873533D01*
X166044319Y-95873533D02*
X166139557Y-96254485D01*
X166139557Y-96254485D02*
X166234795Y-96444961D01*
X166234795Y-96444961D02*
X166330033Y-96540200D01*
X166330033Y-96540200D02*
X166520509Y-96635438D01*
X166520509Y-96635438D02*
X166710986Y-96635438D01*
X166710986Y-96635438D02*
X166901462Y-96540200D01*
X166901462Y-96540200D02*
X166996700Y-96444961D01*
X166996700Y-96444961D02*
X167091938Y-96254485D01*
X167091938Y-96254485D02*
X167187176Y-95873533D01*
X167187176Y-95873533D02*
X167187176Y-95397342D01*
X167187176Y-95397342D02*
X167091938Y-95016390D01*
X167091938Y-95016390D02*
X166996700Y-94825914D01*
X166996700Y-94825914D02*
X166901462Y-94730676D01*
X166901462Y-94730676D02*
X166710986Y-94635438D01*
X165472890Y-94635438D02*
X164806224Y-96635438D01*
X164806224Y-96635438D02*
X164139557Y-94635438D01*
X155470652Y-67171533D02*
X153946843Y-67171533D01*
X151946843Y-67933438D02*
X153089700Y-67933438D01*
X152518272Y-67933438D02*
X152518272Y-65933438D01*
X152518272Y-65933438D02*
X152708748Y-66219152D01*
X152708748Y-66219152D02*
X152899224Y-66409628D01*
X152899224Y-66409628D02*
X153089700Y-66504866D01*
X150042081Y-67933438D02*
X151184938Y-67933438D01*
X150613510Y-67933438D02*
X150613510Y-65933438D01*
X150613510Y-65933438D02*
X150803986Y-66219152D01*
X150803986Y-66219152D02*
X150994462Y-66409628D01*
X150994462Y-66409628D02*
X151184938Y-66504866D01*
X148803986Y-65933438D02*
X148613509Y-65933438D01*
X148613509Y-65933438D02*
X148423033Y-66028676D01*
X148423033Y-66028676D02*
X148327795Y-66123914D01*
X148327795Y-66123914D02*
X148232557Y-66314390D01*
X148232557Y-66314390D02*
X148137319Y-66695342D01*
X148137319Y-66695342D02*
X148137319Y-67171533D01*
X148137319Y-67171533D02*
X148232557Y-67552485D01*
X148232557Y-67552485D02*
X148327795Y-67742961D01*
X148327795Y-67742961D02*
X148423033Y-67838200D01*
X148423033Y-67838200D02*
X148613509Y-67933438D01*
X148613509Y-67933438D02*
X148803986Y-67933438D01*
X148803986Y-67933438D02*
X148994462Y-67838200D01*
X148994462Y-67838200D02*
X149089700Y-67742961D01*
X149089700Y-67742961D02*
X149184938Y-67552485D01*
X149184938Y-67552485D02*
X149280176Y-67171533D01*
X149280176Y-67171533D02*
X149280176Y-66695342D01*
X149280176Y-66695342D02*
X149184938Y-66314390D01*
X149184938Y-66314390D02*
X149089700Y-66123914D01*
X149089700Y-66123914D02*
X148994462Y-66028676D01*
X148994462Y-66028676D02*
X148803986Y-65933438D01*
X147565890Y-65933438D02*
X146899224Y-67933438D01*
X146899224Y-67933438D02*
X146232557Y-65933438D01*
X140357652Y-76696533D02*
X138833843Y-76696533D01*
X139595747Y-77458438D02*
X139595747Y-75934628D01*
X137976700Y-75648914D02*
X137881462Y-75553676D01*
X137881462Y-75553676D02*
X137690986Y-75458438D01*
X137690986Y-75458438D02*
X137214795Y-75458438D01*
X137214795Y-75458438D02*
X137024319Y-75553676D01*
X137024319Y-75553676D02*
X136929081Y-75648914D01*
X136929081Y-75648914D02*
X136833843Y-75839390D01*
X136833843Y-75839390D02*
X136833843Y-76029866D01*
X136833843Y-76029866D02*
X136929081Y-76315580D01*
X136929081Y-76315580D02*
X138071938Y-77458438D01*
X138071938Y-77458438D02*
X136833843Y-77458438D01*
X135119557Y-76125104D02*
X135119557Y-77458438D01*
X135595748Y-75363200D02*
X136071938Y-76791771D01*
X136071938Y-76791771D02*
X134833843Y-76791771D01*
X134357652Y-75458438D02*
X133690986Y-77458438D01*
X133690986Y-77458438D02*
X133024319Y-75458438D01*
M02*
